G75*
%MOIN*%
%OFA0B0*%
%FSLAX24Y24*%
%IPPOS*%
%LPD*%
%AMOC8*
5,1,8,0,0,1.08239X$1,22.5*
%
%ADD10C,0.0040*%
%ADD11C,0.0050*%
%ADD12C,0.0000*%
%ADD13C,0.0060*%
%ADD14C,0.0030*%
%ADD15R,0.0180X0.0300*%
%ADD16C,0.0080*%
%ADD17C,0.0100*%
%ADD18C,0.0220*%
%ADD19C,0.0010*%
%ADD20R,0.0300X0.0180*%
%ADD21R,0.0025X0.0005*%
%ADD22R,0.0035X0.0005*%
%ADD23R,0.0045X0.0005*%
%ADD24R,0.0055X0.0005*%
%ADD25R,0.0065X0.0005*%
%ADD26R,0.0075X0.0005*%
%ADD27R,0.0085X0.0005*%
%ADD28R,0.0095X0.0005*%
%ADD29R,0.0105X0.0005*%
%ADD30R,0.0115X0.0005*%
%ADD31R,0.0120X0.0005*%
%ADD32R,0.0130X0.0005*%
%ADD33R,0.0135X0.0005*%
%ADD34R,0.0140X0.0005*%
%ADD35R,0.0070X0.0005*%
%ADD36R,0.0125X0.0005*%
%ADD37R,0.0080X0.0005*%
%ADD38R,0.0090X0.0005*%
%ADD39R,0.0100X0.0005*%
%ADD40R,0.0110X0.0005*%
%ADD41R,0.0010X0.0005*%
%ADD42R,0.0145X0.0005*%
%ADD43R,0.0150X0.0005*%
%ADD44R,0.0155X0.0005*%
%ADD45R,0.0160X0.0005*%
%ADD46R,0.0165X0.0005*%
%ADD47R,0.0020X0.0005*%
%ADD48R,0.0030X0.0005*%
%ADD49R,0.0040X0.0005*%
%ADD50R,0.0050X0.0005*%
%ADD51R,0.0060X0.0005*%
%ADD52R,0.0015X0.0005*%
%ADD53R,0.0175X0.0005*%
%ADD54R,0.0190X0.0005*%
%ADD55R,0.0210X0.0005*%
%ADD56R,0.0225X0.0005*%
%ADD57R,0.0170X0.0005*%
%ADD58R,0.0240X0.0005*%
%ADD59R,0.0195X0.0005*%
%ADD60R,0.0205X0.0005*%
%ADD61R,0.0215X0.0005*%
%ADD62R,0.0230X0.0005*%
%ADD63R,0.0235X0.0005*%
%ADD64R,0.0200X0.0005*%
%ADD65R,0.0245X0.0005*%
%ADD66R,0.0255X0.0005*%
%ADD67R,0.0185X0.0005*%
%ADD68R,0.0295X0.0005*%
%ADD69R,0.0250X0.0005*%
%ADD70R,0.0290X0.0005*%
%ADD71R,0.0285X0.0005*%
%ADD72R,0.0265X0.0005*%
%ADD73R,0.0260X0.0005*%
%ADD74R,0.0180X0.0005*%
%ADD75R,0.0005X0.0005*%
%ADD76R,0.0013X0.0003*%
%ADD77R,0.0018X0.0003*%
%ADD78R,0.0022X0.0003*%
%ADD79R,0.0027X0.0003*%
%ADD80R,0.0032X0.0003*%
%ADD81R,0.0037X0.0003*%
%ADD82R,0.0043X0.0003*%
%ADD83R,0.0047X0.0003*%
%ADD84R,0.0053X0.0003*%
%ADD85R,0.0057X0.0003*%
%ADD86R,0.0060X0.0003*%
%ADD87R,0.0065X0.0003*%
%ADD88R,0.0067X0.0003*%
%ADD89R,0.0070X0.0003*%
%ADD90R,0.0035X0.0003*%
%ADD91R,0.0063X0.0003*%
%ADD92R,0.0040X0.0003*%
%ADD93R,0.0045X0.0003*%
%ADD94R,0.0050X0.0003*%
%ADD95R,0.0055X0.0003*%
%ADD96R,0.0005X0.0003*%
%ADD97R,0.0073X0.0003*%
%ADD98R,0.0075X0.0003*%
%ADD99R,0.0077X0.0003*%
%ADD100R,0.0080X0.0003*%
%ADD101R,0.0083X0.0003*%
%ADD102R,0.0010X0.0003*%
%ADD103R,0.0015X0.0003*%
%ADD104R,0.0020X0.0003*%
%ADD105R,0.0025X0.0003*%
%ADD106R,0.0030X0.0003*%
%ADD107R,0.0008X0.0003*%
%ADD108R,0.0088X0.0003*%
%ADD109R,0.0095X0.0003*%
%ADD110R,0.0105X0.0003*%
%ADD111R,0.0112X0.0003*%
%ADD112R,0.0085X0.0003*%
%ADD113R,0.0120X0.0003*%
%ADD114R,0.0097X0.0003*%
%ADD115R,0.0103X0.0003*%
%ADD116R,0.0107X0.0003*%
%ADD117R,0.0115X0.0003*%
%ADD118R,0.0118X0.0003*%
%ADD119R,0.0100X0.0003*%
%ADD120R,0.0123X0.0003*%
%ADD121R,0.0127X0.0003*%
%ADD122R,0.0092X0.0003*%
%ADD123R,0.0147X0.0003*%
%ADD124R,0.0125X0.0003*%
%ADD125R,0.0145X0.0003*%
%ADD126R,0.0143X0.0003*%
%ADD127R,0.0132X0.0003*%
%ADD128R,0.0130X0.0003*%
%ADD129R,0.0090X0.0003*%
%ADD130R,0.0003X0.0003*%
D10*
X001370Y001570D02*
X001370Y001770D01*
X001470Y001770D01*
X001503Y001737D01*
X001503Y001670D01*
X001470Y001637D01*
X001370Y001637D01*
X001437Y001637D02*
X001503Y001570D01*
X001591Y001570D02*
X001724Y001703D01*
X001724Y001737D01*
X001691Y001770D01*
X001624Y001770D01*
X001591Y001737D01*
X001591Y001570D02*
X001724Y001570D01*
X003270Y000970D02*
X003270Y000770D01*
X003270Y000837D02*
X003370Y000837D01*
X003403Y000870D01*
X003403Y000937D01*
X003370Y000970D01*
X003270Y000970D01*
X003337Y000837D02*
X003403Y000770D01*
X003491Y000770D02*
X003624Y000770D01*
X003558Y000770D02*
X003558Y000970D01*
X003491Y000903D01*
X006080Y001100D02*
X006280Y001100D01*
X006280Y001166D02*
X006280Y001033D01*
X006313Y000945D02*
X006313Y000812D01*
X006247Y000724D02*
X006280Y000691D01*
X006280Y000624D01*
X006247Y000591D01*
X006180Y000658D02*
X006180Y000691D01*
X006213Y000724D01*
X006247Y000724D01*
X006180Y000691D02*
X006147Y000724D01*
X006113Y000724D01*
X006080Y000691D01*
X006080Y000624D01*
X006113Y000591D01*
X006113Y000503D02*
X006180Y000503D01*
X006213Y000470D01*
X006213Y000370D01*
X006280Y000370D02*
X006080Y000370D01*
X006080Y000470D01*
X006113Y000503D01*
X007080Y000470D02*
X007080Y000370D01*
X007280Y000370D01*
X007213Y000370D02*
X007213Y000470D01*
X007180Y000503D01*
X007113Y000503D01*
X007080Y000470D01*
X007113Y000591D02*
X007080Y000624D01*
X007080Y000691D01*
X007113Y000724D01*
X007147Y000724D01*
X007180Y000691D01*
X007213Y000724D01*
X007247Y000724D01*
X007280Y000691D01*
X007280Y000624D01*
X007247Y000591D01*
X007180Y000658D02*
X007180Y000691D01*
X007313Y000812D02*
X007313Y000945D01*
X007247Y001033D02*
X007113Y001033D01*
X007080Y001066D01*
X007080Y001133D01*
X007113Y001166D01*
X007247Y001033D01*
X007280Y001066D01*
X007280Y001133D01*
X007247Y001166D01*
X007113Y001166D01*
X006147Y001033D02*
X006080Y001100D01*
X008080Y001133D02*
X008180Y001033D01*
X008180Y001166D01*
X008280Y001133D02*
X008080Y001133D01*
X008313Y000945D02*
X008313Y000812D01*
X008247Y000724D02*
X008213Y000724D01*
X008180Y000691D01*
X008180Y000658D01*
X008180Y000691D02*
X008147Y000724D01*
X008113Y000724D01*
X008080Y000691D01*
X008080Y000624D01*
X008113Y000591D01*
X008113Y000503D02*
X008180Y000503D01*
X008213Y000470D01*
X008213Y000370D01*
X008280Y000370D02*
X008080Y000370D01*
X008080Y000470D01*
X008113Y000503D01*
X008247Y000591D02*
X008280Y000624D01*
X008280Y000691D01*
X008247Y000724D01*
X009080Y000691D02*
X009080Y000624D01*
X009113Y000591D01*
X009113Y000503D02*
X009080Y000470D01*
X009080Y000370D01*
X009280Y000370D01*
X009213Y000370D02*
X009213Y000470D01*
X009180Y000503D01*
X009113Y000503D01*
X009247Y000591D02*
X009280Y000624D01*
X009280Y000691D01*
X009247Y000724D01*
X009213Y000724D01*
X009180Y000691D01*
X009180Y000658D01*
X009180Y000691D02*
X009147Y000724D01*
X009113Y000724D01*
X009080Y000691D01*
X009313Y000812D02*
X009313Y000945D01*
X009247Y001033D02*
X009280Y001066D01*
X009280Y001133D01*
X009247Y001166D01*
X009180Y001166D01*
X009147Y001133D01*
X009147Y001100D01*
X009180Y001033D01*
X009080Y001033D01*
X009080Y001166D01*
X010080Y001166D02*
X010113Y001100D01*
X010180Y001033D01*
X010180Y001133D01*
X010213Y001166D01*
X010247Y001166D01*
X010280Y001133D01*
X010280Y001066D01*
X010247Y001033D01*
X010180Y001033D01*
X010313Y000945D02*
X010313Y000812D01*
X010247Y000724D02*
X010280Y000691D01*
X010280Y000624D01*
X010247Y000591D01*
X010180Y000658D02*
X010180Y000691D01*
X010213Y000724D01*
X010247Y000724D01*
X010180Y000691D02*
X010147Y000724D01*
X010113Y000724D01*
X010080Y000691D01*
X010080Y000624D01*
X010113Y000591D01*
X010113Y000503D02*
X010180Y000503D01*
X010213Y000470D01*
X010213Y000370D01*
X010280Y000370D02*
X010080Y000370D01*
X010080Y000470D01*
X010113Y000503D01*
X011080Y000470D02*
X011080Y000370D01*
X011280Y000370D01*
X011213Y000370D02*
X011213Y000470D01*
X011180Y000503D01*
X011113Y000503D01*
X011080Y000470D01*
X011113Y000591D02*
X011080Y000624D01*
X011080Y000691D01*
X011113Y000724D01*
X011147Y000724D01*
X011180Y000691D01*
X011213Y000724D01*
X011247Y000724D01*
X011280Y000691D01*
X011280Y000624D01*
X011247Y000591D01*
X011180Y000658D02*
X011180Y000691D01*
X011313Y000812D02*
X011313Y000945D01*
X011280Y001033D02*
X011247Y001033D01*
X011113Y001166D01*
X011080Y001166D01*
X011080Y001033D01*
X012080Y001066D02*
X012080Y001133D01*
X012113Y001166D01*
X012247Y001033D01*
X012280Y001066D01*
X012280Y001133D01*
X012247Y001166D01*
X012113Y001166D01*
X012080Y001066D02*
X012113Y001033D01*
X012247Y001033D01*
X012313Y000945D02*
X012313Y000812D01*
X012247Y000724D02*
X012113Y000724D01*
X012247Y000591D01*
X012280Y000624D01*
X012280Y000691D01*
X012247Y000724D01*
X012247Y000591D02*
X012113Y000591D01*
X012080Y000624D01*
X012080Y000691D01*
X012113Y000724D01*
X012113Y000503D02*
X012180Y000503D01*
X012213Y000470D01*
X012213Y000370D01*
X012280Y000370D02*
X012080Y000370D01*
X012080Y000470D01*
X012113Y000503D01*
X013080Y000470D02*
X013080Y000370D01*
X013280Y000370D01*
X013213Y000370D02*
X013213Y000470D01*
X013180Y000503D01*
X013113Y000503D01*
X013080Y000470D01*
X013113Y000591D02*
X013080Y000624D01*
X013080Y000691D01*
X013113Y000724D01*
X013247Y000591D01*
X013280Y000624D01*
X013280Y000691D01*
X013247Y000724D01*
X013113Y000724D01*
X013113Y000591D02*
X013247Y000591D01*
X013313Y000812D02*
X013313Y000945D01*
X013280Y001033D02*
X013280Y001166D01*
X013280Y001100D02*
X013080Y001100D01*
X013147Y001033D01*
X014080Y001066D02*
X014113Y001033D01*
X014080Y001066D02*
X014080Y001133D01*
X014113Y001166D01*
X014147Y001166D01*
X014280Y001033D01*
X014280Y001166D01*
X014313Y000945D02*
X014313Y000812D01*
X014247Y000724D02*
X014280Y000691D01*
X014280Y000624D01*
X014247Y000591D01*
X014113Y000724D01*
X014247Y000724D01*
X014247Y000591D02*
X014113Y000591D01*
X014080Y000624D01*
X014080Y000691D01*
X014113Y000724D01*
X014113Y000503D02*
X014080Y000470D01*
X014080Y000370D01*
X014280Y000370D01*
X014213Y000370D02*
X014213Y000470D01*
X014180Y000503D01*
X014113Y000503D01*
X015080Y000470D02*
X015080Y000370D01*
X015280Y000370D01*
X015213Y000370D02*
X015213Y000470D01*
X015180Y000503D01*
X015113Y000503D01*
X015080Y000470D01*
X015113Y000591D02*
X015080Y000624D01*
X015080Y000691D01*
X015113Y000724D01*
X015247Y000591D01*
X015280Y000624D01*
X015280Y000691D01*
X015247Y000724D01*
X015113Y000724D01*
X015113Y000591D02*
X015247Y000591D01*
X015313Y000812D02*
X015313Y000945D01*
X015247Y001033D02*
X015280Y001066D01*
X015280Y001133D01*
X015247Y001166D01*
X015213Y001166D01*
X015180Y001133D01*
X015180Y001100D01*
X015180Y001133D02*
X015147Y001166D01*
X015113Y001166D01*
X015080Y001133D01*
X015080Y001066D01*
X015113Y001033D01*
X011720Y002711D02*
X011720Y002778D01*
X011687Y002811D01*
X011687Y002899D02*
X011720Y002932D01*
X011720Y002999D01*
X011687Y003032D01*
X011653Y003032D01*
X011620Y002999D01*
X011620Y002966D01*
X011620Y002999D02*
X011587Y003032D01*
X011553Y003032D01*
X011520Y002999D01*
X011520Y002932D01*
X011553Y002899D01*
X011553Y002811D02*
X011520Y002778D01*
X011520Y002711D01*
X011553Y002678D01*
X011687Y002678D01*
X011720Y002711D01*
X012353Y004478D02*
X012487Y004478D01*
X012520Y004511D01*
X012520Y004578D01*
X012487Y004611D01*
X012420Y004699D02*
X012320Y004799D01*
X012520Y004799D01*
X012420Y004832D02*
X012420Y004699D01*
X012353Y004611D02*
X012320Y004578D01*
X012320Y004511D01*
X012353Y004478D01*
X010753Y006423D02*
X010753Y006623D01*
X010619Y006623D02*
X010753Y006423D01*
X010619Y006423D02*
X010619Y006623D01*
X010539Y006623D02*
X010472Y006623D01*
X010505Y006623D02*
X010505Y006423D01*
X010472Y006423D02*
X010539Y006423D01*
X010384Y006523D02*
X010351Y006490D01*
X010251Y006490D01*
X010251Y006423D02*
X010251Y006623D01*
X010351Y006623D01*
X010384Y006590D01*
X010384Y006523D01*
X010163Y006523D02*
X010030Y006523D01*
X010130Y006623D01*
X010130Y006423D01*
X009942Y006523D02*
X009809Y006523D01*
X009909Y006623D01*
X009909Y006423D01*
X009721Y006523D02*
X009588Y006523D01*
X009500Y006423D02*
X009367Y006623D01*
X009279Y006623D02*
X009146Y006423D01*
X009058Y006423D02*
X008925Y006423D01*
X009058Y006557D01*
X009058Y006590D01*
X009025Y006623D01*
X008958Y006623D01*
X008925Y006590D01*
X008837Y006523D02*
X008704Y006523D01*
X008804Y006623D01*
X008804Y006423D01*
X008616Y006456D02*
X008583Y006423D01*
X008516Y006423D01*
X008483Y006456D01*
X008483Y006590D01*
X008516Y006623D01*
X008583Y006623D01*
X008616Y006590D01*
X008395Y006590D02*
X008395Y006557D01*
X008362Y006523D01*
X008295Y006523D01*
X008262Y006557D01*
X008262Y006590D01*
X008295Y006623D01*
X008362Y006623D01*
X008395Y006590D01*
X008362Y006523D02*
X008395Y006490D01*
X008395Y006456D01*
X008362Y006423D01*
X008295Y006423D01*
X008262Y006456D01*
X008262Y006490D01*
X008295Y006523D01*
X008174Y006590D02*
X008174Y006623D01*
X008174Y006590D02*
X008108Y006523D01*
X008108Y006423D01*
X008108Y006523D02*
X008041Y006590D01*
X008041Y006623D01*
X007953Y006590D02*
X007920Y006623D01*
X007853Y006623D01*
X007820Y006590D01*
X007820Y006456D01*
X007853Y006423D01*
X007920Y006423D01*
X007953Y006456D01*
X009146Y006623D02*
X009279Y006423D01*
X009367Y006423D02*
X009500Y006623D01*
X007374Y007920D02*
X007241Y007920D01*
X007374Y008053D01*
X007374Y008087D01*
X007341Y008120D01*
X007274Y008120D01*
X007241Y008087D01*
X007153Y008120D02*
X007153Y007953D01*
X007120Y007920D01*
X007053Y007920D01*
X007020Y007953D01*
X007020Y008120D01*
X004516Y007670D02*
X004383Y007670D01*
X004483Y007770D01*
X004483Y007570D01*
X004295Y007537D02*
X004162Y007537D01*
X004074Y007570D02*
X003941Y007570D01*
X004074Y007703D01*
X004074Y007737D01*
X004041Y007770D01*
X003974Y007770D01*
X003941Y007737D01*
X003853Y007737D02*
X003853Y007670D01*
X003820Y007637D01*
X003720Y007637D01*
X003720Y007570D02*
X003720Y007770D01*
X003820Y007770D01*
X003853Y007737D01*
X003941Y008570D02*
X004074Y008703D01*
X004074Y008737D01*
X004041Y008770D01*
X003974Y008770D01*
X003941Y008737D01*
X003853Y008737D02*
X003853Y008670D01*
X003820Y008637D01*
X003720Y008637D01*
X003720Y008570D02*
X003720Y008770D01*
X003820Y008770D01*
X003853Y008737D01*
X003941Y008570D02*
X004074Y008570D01*
X004162Y008537D02*
X004295Y008537D01*
X004383Y008603D02*
X004416Y008570D01*
X004483Y008570D01*
X004516Y008603D01*
X004516Y008637D01*
X004483Y008670D01*
X004450Y008670D01*
X004483Y008670D02*
X004516Y008703D01*
X004516Y008737D01*
X004483Y008770D01*
X004416Y008770D01*
X004383Y008737D01*
X004295Y009537D02*
X004162Y009537D01*
X004074Y009570D02*
X003941Y009570D01*
X004074Y009703D01*
X004074Y009737D01*
X004041Y009770D01*
X003974Y009770D01*
X003941Y009737D01*
X003853Y009737D02*
X003820Y009770D01*
X003720Y009770D01*
X003720Y009570D01*
X003720Y009637D02*
X003820Y009637D01*
X003853Y009670D01*
X003853Y009737D01*
X004383Y009703D02*
X004450Y009770D01*
X004450Y009570D01*
X004516Y009570D02*
X004383Y009570D01*
X003516Y010270D02*
X003450Y010337D01*
X003483Y010337D02*
X003383Y010337D01*
X003383Y010270D02*
X003383Y010470D01*
X003483Y010470D01*
X003516Y010437D01*
X003516Y010370D01*
X003483Y010337D01*
X003295Y010270D02*
X003162Y010270D01*
X003162Y010470D01*
X003295Y010470D01*
X003229Y010370D02*
X003162Y010370D01*
X003074Y010337D02*
X003074Y010303D01*
X003041Y010270D01*
X002974Y010270D01*
X002941Y010303D01*
X002974Y010370D02*
X003041Y010370D01*
X003074Y010337D01*
X003074Y010437D02*
X003041Y010470D01*
X002974Y010470D01*
X002941Y010437D01*
X002941Y010403D01*
X002974Y010370D01*
X002853Y010303D02*
X002853Y010470D01*
X002720Y010470D02*
X002720Y010303D01*
X002753Y010270D01*
X002820Y010270D01*
X002853Y010303D01*
X002616Y010470D02*
X002483Y010470D01*
X002550Y010470D02*
X002550Y010270D01*
X002395Y010270D02*
X002329Y010337D01*
X002362Y010337D02*
X002262Y010337D01*
X002262Y010270D02*
X002262Y010470D01*
X002362Y010470D01*
X002395Y010437D01*
X002395Y010370D01*
X002362Y010337D01*
X002174Y010370D02*
X002041Y010370D01*
X002041Y010403D02*
X002041Y010270D01*
X001953Y010303D02*
X001953Y010470D01*
X002041Y010403D02*
X002108Y010470D01*
X002174Y010403D01*
X002174Y010270D01*
X001953Y010303D02*
X001920Y010270D01*
X001853Y010270D01*
X001820Y010303D01*
X001820Y010470D01*
X001509Y010670D02*
X001643Y010870D01*
X001422Y010837D02*
X001388Y010870D01*
X001322Y010870D01*
X001288Y010837D01*
X001288Y010703D01*
X001322Y010670D01*
X001388Y010670D01*
X001422Y010703D01*
X001201Y010670D02*
X001067Y010670D01*
X001201Y010803D01*
X001201Y010837D01*
X001167Y010870D01*
X001101Y010870D01*
X001067Y010837D01*
X000987Y010870D02*
X000920Y010870D01*
X000953Y010870D02*
X000953Y010670D01*
X000920Y010670D02*
X000987Y010670D01*
X000974Y010470D02*
X000841Y010470D01*
X000908Y010470D02*
X000908Y010270D01*
X001062Y010270D02*
X001062Y010403D01*
X001129Y010470D01*
X001195Y010403D01*
X001195Y010270D01*
X001283Y010303D02*
X001316Y010270D01*
X001383Y010270D01*
X001416Y010303D01*
X001416Y010370D01*
X001350Y010370D01*
X001416Y010437D02*
X001383Y010470D01*
X001316Y010470D01*
X001283Y010437D01*
X001283Y010303D01*
X001195Y010370D02*
X001062Y010370D01*
X000753Y010470D02*
X000687Y010470D01*
X000720Y010470D02*
X000720Y010303D01*
X000687Y010270D01*
X000653Y010270D01*
X000620Y010303D01*
X003370Y011070D02*
X003370Y011270D01*
X003470Y011270D01*
X003503Y011237D01*
X003503Y011170D01*
X003470Y011137D01*
X003370Y011137D01*
X003437Y011137D02*
X003503Y011070D01*
X003591Y011070D02*
X003724Y011070D01*
X003658Y011070D02*
X003658Y011270D01*
X003591Y011203D01*
X003812Y011237D02*
X003845Y011270D01*
X003912Y011270D01*
X003945Y011237D01*
X003945Y011203D01*
X003812Y011070D01*
X003945Y011070D01*
X003724Y011545D02*
X003591Y011545D01*
X003658Y011545D02*
X003658Y011745D01*
X003591Y011678D01*
X003503Y011712D02*
X003470Y011745D01*
X003370Y011745D01*
X003370Y011545D01*
X003470Y011545D01*
X003503Y011578D01*
X003503Y011712D01*
X006080Y011833D02*
X006180Y011833D01*
X006147Y011900D01*
X006147Y011933D01*
X006180Y011966D01*
X006247Y011966D01*
X006280Y011933D01*
X006280Y011866D01*
X006247Y011833D01*
X006313Y011745D02*
X006313Y011612D01*
X006280Y011524D02*
X006280Y011391D01*
X006280Y011458D02*
X006080Y011458D01*
X006147Y011391D01*
X006180Y011303D02*
X006213Y011270D01*
X006213Y011170D01*
X006280Y011170D02*
X006080Y011170D01*
X006080Y011270D01*
X006113Y011303D01*
X006180Y011303D01*
X006080Y011833D02*
X006080Y011966D01*
X007080Y011933D02*
X007180Y011833D01*
X007180Y011966D01*
X007280Y011933D02*
X007080Y011933D01*
X007313Y011745D02*
X007313Y011612D01*
X007280Y011524D02*
X007280Y011391D01*
X007280Y011458D02*
X007080Y011458D01*
X007147Y011391D01*
X007180Y011303D02*
X007113Y011303D01*
X007080Y011270D01*
X007080Y011170D01*
X007280Y011170D01*
X007213Y011170D02*
X007213Y011270D01*
X007180Y011303D01*
X008080Y011270D02*
X008080Y011170D01*
X008280Y011170D01*
X008213Y011170D02*
X008213Y011270D01*
X008180Y011303D01*
X008113Y011303D01*
X008080Y011270D01*
X008147Y011391D02*
X008080Y011458D01*
X008280Y011458D01*
X008280Y011524D02*
X008280Y011391D01*
X008313Y011612D02*
X008313Y011745D01*
X008247Y011833D02*
X008280Y011866D01*
X008280Y011933D01*
X008247Y011966D01*
X008213Y011966D01*
X008180Y011933D01*
X008180Y011900D01*
X008180Y011933D02*
X008147Y011966D01*
X008113Y011966D01*
X008080Y011933D01*
X008080Y011866D01*
X008113Y011833D01*
X009080Y011866D02*
X009113Y011833D01*
X009080Y011866D02*
X009080Y011933D01*
X009113Y011966D01*
X009147Y011966D01*
X009280Y011833D01*
X009280Y011966D01*
X009313Y011745D02*
X009313Y011612D01*
X009280Y011524D02*
X009280Y011391D01*
X009280Y011458D02*
X009080Y011458D01*
X009147Y011391D01*
X009180Y011303D02*
X009213Y011270D01*
X009213Y011170D01*
X009280Y011170D02*
X009080Y011170D01*
X009080Y011270D01*
X009113Y011303D01*
X009180Y011303D01*
X010080Y011270D02*
X010080Y011170D01*
X010280Y011170D01*
X010213Y011170D02*
X010213Y011270D01*
X010180Y011303D01*
X010113Y011303D01*
X010080Y011270D01*
X010147Y011391D02*
X010080Y011458D01*
X010280Y011458D01*
X010280Y011524D02*
X010280Y011391D01*
X010313Y011612D02*
X010313Y011745D01*
X010280Y011833D02*
X010280Y011966D01*
X010280Y011900D02*
X010080Y011900D01*
X010147Y011833D01*
X011080Y011866D02*
X011080Y011933D01*
X011113Y011966D01*
X011247Y011833D01*
X011280Y011866D01*
X011280Y011933D01*
X011247Y011966D01*
X011113Y011966D01*
X011080Y011866D02*
X011113Y011833D01*
X011247Y011833D01*
X011313Y011745D02*
X011313Y011612D01*
X011280Y011524D02*
X011280Y011391D01*
X011280Y011458D02*
X011080Y011458D01*
X011147Y011391D01*
X011180Y011303D02*
X011213Y011270D01*
X011213Y011170D01*
X011280Y011170D02*
X011080Y011170D01*
X011080Y011270D01*
X011113Y011303D01*
X011180Y011303D01*
X012080Y011270D02*
X012080Y011170D01*
X012280Y011170D01*
X012213Y011170D02*
X012213Y011270D01*
X012180Y011303D01*
X012113Y011303D01*
X012080Y011270D01*
X012113Y011391D02*
X012080Y011424D01*
X012080Y011491D01*
X012113Y011524D01*
X012247Y011391D01*
X012280Y011424D01*
X012280Y011491D01*
X012247Y011524D01*
X012113Y011524D01*
X012113Y011391D02*
X012247Y011391D01*
X012313Y011612D02*
X012313Y011745D01*
X012280Y011833D02*
X012247Y011833D01*
X012113Y011966D01*
X012080Y011966D01*
X012080Y011833D01*
X013080Y011966D02*
X013113Y011900D01*
X013180Y011833D01*
X013180Y011933D01*
X013213Y011966D01*
X013247Y011966D01*
X013280Y011933D01*
X013280Y011866D01*
X013247Y011833D01*
X013180Y011833D01*
X013313Y011745D02*
X013313Y011612D01*
X013247Y011524D02*
X013280Y011491D01*
X013280Y011424D01*
X013247Y011391D01*
X013113Y011524D01*
X013247Y011524D01*
X013247Y011391D02*
X013113Y011391D01*
X013080Y011424D01*
X013080Y011491D01*
X013113Y011524D01*
X013113Y011303D02*
X013180Y011303D01*
X013213Y011270D01*
X013213Y011170D01*
X013280Y011170D02*
X013080Y011170D01*
X013080Y011270D01*
X013113Y011303D01*
X014080Y011270D02*
X014080Y011170D01*
X014280Y011170D01*
X014213Y011170D02*
X014213Y011270D01*
X014180Y011303D01*
X014113Y011303D01*
X014080Y011270D01*
X014113Y011391D02*
X014080Y011424D01*
X014080Y011491D01*
X014113Y011524D01*
X014247Y011391D01*
X014280Y011424D01*
X014280Y011491D01*
X014247Y011524D01*
X014113Y011524D01*
X014113Y011391D02*
X014247Y011391D01*
X014313Y011612D02*
X014313Y011745D01*
X014247Y011833D02*
X014280Y011866D01*
X014280Y011933D01*
X014247Y011966D01*
X014180Y011966D01*
X014147Y011933D01*
X014147Y011900D01*
X014180Y011833D01*
X014080Y011833D01*
X014080Y011966D01*
X015080Y011933D02*
X015180Y011833D01*
X015180Y011966D01*
X015280Y011933D02*
X015080Y011933D01*
X015313Y011745D02*
X015313Y011612D01*
X015247Y011524D02*
X015280Y011491D01*
X015280Y011424D01*
X015247Y011391D01*
X015113Y011524D01*
X015247Y011524D01*
X015247Y011391D02*
X015113Y011391D01*
X015080Y011424D01*
X015080Y011491D01*
X015113Y011524D01*
X015113Y011303D02*
X015180Y011303D01*
X015213Y011270D01*
X015213Y011170D01*
X015280Y011170D02*
X015080Y011170D01*
X015080Y011270D01*
X015113Y011303D01*
X016320Y010837D02*
X016320Y010803D01*
X016353Y010770D01*
X016420Y010770D01*
X016453Y010737D01*
X016453Y010703D01*
X016420Y010670D01*
X016353Y010670D01*
X016320Y010703D01*
X016320Y010837D02*
X016353Y010870D01*
X016420Y010870D01*
X016453Y010837D01*
X016608Y010870D02*
X016674Y010870D01*
X016641Y010870D02*
X016641Y010703D01*
X016608Y010670D01*
X016574Y010670D01*
X016541Y010703D01*
X016762Y010670D02*
X016895Y010803D01*
X016895Y010837D01*
X016862Y010870D01*
X016795Y010870D01*
X016762Y010837D01*
X016762Y010670D02*
X016895Y010670D01*
X018520Y010504D02*
X018520Y010457D01*
X018567Y010410D01*
X018660Y010410D01*
X018707Y010363D01*
X018707Y010317D01*
X018660Y010270D01*
X018567Y010270D01*
X018520Y010317D01*
X018815Y010270D02*
X018908Y010270D01*
X018861Y010270D02*
X018861Y010550D01*
X018815Y010550D02*
X018908Y010550D01*
X019011Y010504D02*
X019011Y010317D01*
X019058Y010270D01*
X019151Y010270D01*
X019198Y010317D01*
X019198Y010410D01*
X019104Y010410D01*
X019011Y010504D02*
X019058Y010550D01*
X019151Y010550D01*
X019198Y010504D01*
X019520Y010550D02*
X019660Y010550D01*
X019707Y010504D01*
X019707Y010410D01*
X019660Y010363D01*
X019520Y010363D01*
X019520Y010270D02*
X019520Y010550D01*
X019815Y010550D02*
X019815Y010270D01*
X019908Y010363D01*
X020001Y010270D01*
X020001Y010550D01*
X020109Y010550D02*
X020249Y010550D01*
X020296Y010504D01*
X020296Y010410D01*
X020249Y010363D01*
X020109Y010363D01*
X020109Y010270D02*
X020109Y010550D01*
X020203Y010363D02*
X020296Y010270D01*
X020520Y010317D02*
X020567Y010270D01*
X020660Y010270D01*
X020707Y010317D01*
X020707Y010410D01*
X020613Y010410D01*
X020520Y010317D02*
X020520Y010504D01*
X020567Y010550D01*
X020660Y010550D01*
X020707Y010504D01*
X020815Y010550D02*
X021001Y010270D01*
X021001Y010550D01*
X021109Y010550D02*
X021249Y010550D01*
X021296Y010504D01*
X021296Y010317D01*
X021249Y010270D01*
X021109Y010270D01*
X021109Y010550D01*
X020815Y010550D02*
X020815Y010270D01*
X018707Y010504D02*
X018660Y010550D01*
X018567Y010550D01*
X018520Y010504D01*
X018653Y011770D02*
X018620Y011803D01*
X018653Y011770D02*
X018720Y011770D01*
X018753Y011803D01*
X018753Y011837D01*
X018720Y011870D01*
X018653Y011870D01*
X018620Y011903D01*
X018620Y011937D01*
X018653Y011970D01*
X018720Y011970D01*
X018753Y011937D01*
X018908Y011970D02*
X018974Y011970D01*
X018941Y011970D02*
X018941Y011803D01*
X018908Y011770D01*
X018874Y011770D01*
X018841Y011803D01*
X019062Y011803D02*
X019095Y011770D01*
X019162Y011770D01*
X019195Y011803D01*
X019195Y011837D01*
X019162Y011870D01*
X019129Y011870D01*
X019162Y011870D02*
X019195Y011903D01*
X019195Y011937D01*
X019162Y011970D01*
X019095Y011970D01*
X019062Y011937D01*
X019820Y011910D02*
X020007Y011910D01*
X019913Y012004D02*
X019913Y011817D01*
X020820Y011910D02*
X021007Y011910D01*
X015880Y009441D02*
X015847Y009474D01*
X015713Y009474D01*
X015680Y009441D01*
X015680Y009374D01*
X015713Y009341D01*
X015747Y009341D01*
X015780Y009374D01*
X015780Y009474D01*
X015880Y009441D02*
X015880Y009374D01*
X015847Y009341D01*
X015847Y009253D02*
X015880Y009220D01*
X015880Y009153D01*
X015847Y009120D01*
X015713Y009120D01*
X015680Y009153D01*
X015680Y009220D01*
X015713Y009253D01*
X014980Y008841D02*
X014947Y008874D01*
X014813Y008874D01*
X014780Y008841D01*
X014780Y008774D01*
X014813Y008741D01*
X014847Y008741D01*
X014880Y008774D01*
X014880Y008874D01*
X014980Y008841D02*
X014980Y008774D01*
X014947Y008741D01*
X014980Y008653D02*
X014913Y008587D01*
X014913Y008620D02*
X014913Y008520D01*
X014980Y008520D02*
X014780Y008520D01*
X014780Y008620D01*
X014813Y008653D01*
X014880Y008653D01*
X014913Y008620D01*
X013780Y008853D02*
X013780Y008920D01*
X013747Y008953D01*
X013747Y009041D02*
X013713Y009041D01*
X013680Y009074D01*
X013680Y009141D01*
X013713Y009174D01*
X013747Y009174D01*
X013780Y009141D01*
X013780Y009074D01*
X013747Y009041D01*
X013680Y009074D02*
X013647Y009041D01*
X013613Y009041D01*
X013580Y009074D01*
X013580Y009141D01*
X013613Y009174D01*
X013647Y009174D01*
X013680Y009141D01*
X013613Y008953D02*
X013580Y008920D01*
X013580Y008853D01*
X013613Y008820D01*
X013747Y008820D01*
X013780Y008853D01*
X012880Y008853D02*
X012880Y008920D01*
X012847Y008953D01*
X012847Y009041D02*
X012880Y009041D01*
X012847Y009041D02*
X012713Y009174D01*
X012680Y009174D01*
X012680Y009041D01*
X012713Y008953D02*
X012680Y008920D01*
X012680Y008853D01*
X012713Y008820D01*
X012847Y008820D01*
X012880Y008853D01*
X012080Y008853D02*
X012080Y008920D01*
X012047Y008953D01*
X012047Y009041D02*
X012080Y009074D01*
X012080Y009141D01*
X012047Y009174D01*
X012013Y009174D01*
X011980Y009141D01*
X011980Y009041D01*
X012047Y009041D01*
X011980Y009041D02*
X011913Y009108D01*
X011880Y009174D01*
X011913Y008953D02*
X011880Y008920D01*
X011880Y008853D01*
X011913Y008820D01*
X012047Y008820D01*
X012080Y008853D01*
X011280Y008853D02*
X011280Y008920D01*
X011247Y008953D01*
X011247Y009041D02*
X011280Y009074D01*
X011280Y009141D01*
X011247Y009174D01*
X011180Y009174D01*
X011147Y009141D01*
X011147Y009108D01*
X011180Y009041D01*
X011080Y009041D01*
X011080Y009174D01*
X011113Y008953D02*
X011080Y008920D01*
X011080Y008853D01*
X011113Y008820D01*
X011247Y008820D01*
X011280Y008853D01*
X004516Y006670D02*
X004383Y006670D01*
X004383Y006570D01*
X004450Y006603D01*
X004483Y006603D01*
X004516Y006570D01*
X004516Y006503D01*
X004483Y006470D01*
X004416Y006470D01*
X004383Y006503D01*
X004295Y006437D02*
X004162Y006437D01*
X004074Y006470D02*
X003941Y006470D01*
X004074Y006603D01*
X004074Y006637D01*
X004041Y006670D01*
X003974Y006670D01*
X003941Y006637D01*
X003853Y006637D02*
X003853Y006570D01*
X003820Y006537D01*
X003720Y006537D01*
X003720Y006470D02*
X003720Y006670D01*
X003820Y006670D01*
X003853Y006637D01*
X003820Y005570D02*
X003853Y005537D01*
X003853Y005470D01*
X003820Y005437D01*
X003720Y005437D01*
X003720Y005370D02*
X003720Y005570D01*
X003820Y005570D01*
X003941Y005537D02*
X003974Y005570D01*
X004041Y005570D01*
X004074Y005537D01*
X004074Y005503D01*
X003941Y005370D01*
X004074Y005370D01*
X004162Y005337D02*
X004295Y005337D01*
X004383Y005403D02*
X004383Y005470D01*
X004483Y005470D01*
X004516Y005437D01*
X004516Y005403D01*
X004483Y005370D01*
X004416Y005370D01*
X004383Y005403D01*
X004383Y005470D02*
X004450Y005537D01*
X004516Y005570D01*
X004483Y003770D02*
X004616Y003770D01*
X004616Y003737D01*
X004483Y003603D01*
X004483Y003570D01*
X004395Y003537D02*
X004262Y003537D01*
X004174Y003570D02*
X004041Y003570D01*
X004174Y003703D01*
X004174Y003737D01*
X004141Y003770D01*
X004074Y003770D01*
X004041Y003737D01*
X003953Y003737D02*
X003953Y003670D01*
X003920Y003637D01*
X003820Y003637D01*
X003820Y003570D02*
X003820Y003770D01*
X003920Y003770D01*
X003953Y003737D01*
X006120Y002966D02*
X006187Y002899D01*
X006153Y002811D02*
X006120Y002778D01*
X006120Y002711D01*
X006153Y002678D01*
X006287Y002678D01*
X006320Y002711D01*
X006320Y002778D01*
X006287Y002811D01*
X006320Y002899D02*
X006320Y003032D01*
X006320Y002966D02*
X006120Y002966D01*
X006920Y002999D02*
X006920Y002932D01*
X006953Y002899D01*
X006953Y002811D02*
X006920Y002778D01*
X006920Y002711D01*
X006953Y002678D01*
X007087Y002678D01*
X007120Y002711D01*
X007120Y002778D01*
X007087Y002811D01*
X007120Y002899D02*
X006987Y003032D01*
X006953Y003032D01*
X006920Y002999D01*
X007120Y003032D02*
X007120Y002899D01*
X019420Y001037D02*
X019420Y001003D01*
X019453Y000970D01*
X019520Y000970D01*
X019553Y000937D01*
X019553Y000903D01*
X019520Y000870D01*
X019453Y000870D01*
X019420Y000903D01*
X019420Y001037D02*
X019453Y001070D01*
X019520Y001070D01*
X019553Y001037D01*
X019708Y001070D02*
X019774Y001070D01*
X019741Y001070D02*
X019741Y000903D01*
X019708Y000870D01*
X019674Y000870D01*
X019641Y000903D01*
X019862Y000870D02*
X019995Y000870D01*
X019929Y000870D02*
X019929Y001070D01*
X019862Y001003D01*
X020667Y001770D02*
X020760Y001770D01*
X020807Y001817D01*
X020807Y001910D01*
X020713Y001910D01*
X020620Y001817D02*
X020620Y002004D01*
X020667Y002050D01*
X020760Y002050D01*
X020807Y002004D01*
X020915Y002050D02*
X021101Y001770D01*
X021101Y002050D01*
X021209Y002050D02*
X021349Y002050D01*
X021396Y002004D01*
X021396Y001817D01*
X021349Y001770D01*
X021209Y001770D01*
X021209Y002050D01*
X020915Y002050D02*
X020915Y001770D01*
X020667Y001770D02*
X020620Y001817D01*
D11*
X016950Y002520D02*
X016905Y002475D01*
X016815Y002475D01*
X016770Y002520D01*
X016655Y002475D02*
X016565Y002565D01*
X016610Y002565D02*
X016475Y002565D01*
X016475Y002475D02*
X016475Y002745D01*
X016610Y002745D01*
X016655Y002700D01*
X016655Y002610D01*
X016610Y002565D01*
X016770Y002700D02*
X016815Y002745D01*
X016905Y002745D01*
X016950Y002700D01*
X016950Y002655D01*
X016905Y002610D01*
X016950Y002565D01*
X016950Y002520D01*
X016905Y002610D02*
X016860Y002610D01*
X016905Y003475D02*
X016905Y003745D01*
X016770Y003610D01*
X016950Y003610D01*
X016655Y003610D02*
X016610Y003565D01*
X016475Y003565D01*
X016475Y003475D02*
X016475Y003745D01*
X016610Y003745D01*
X016655Y003700D01*
X016655Y003610D01*
X016565Y003565D02*
X016655Y003475D01*
X016655Y004475D02*
X016565Y004565D01*
X016610Y004565D02*
X016475Y004565D01*
X016475Y004475D02*
X016475Y004745D01*
X016610Y004745D01*
X016655Y004700D01*
X016655Y004610D01*
X016610Y004565D01*
X016770Y004520D02*
X016815Y004475D01*
X016905Y004475D01*
X016950Y004520D01*
X016950Y004610D01*
X016905Y004655D01*
X016860Y004655D01*
X016770Y004610D01*
X016770Y004745D01*
X016950Y004745D01*
X016905Y005475D02*
X016950Y005520D01*
X016950Y005565D01*
X016905Y005610D01*
X016770Y005610D01*
X016770Y005520D01*
X016815Y005475D01*
X016905Y005475D01*
X016770Y005610D02*
X016860Y005700D01*
X016950Y005745D01*
X016655Y005700D02*
X016655Y005610D01*
X016610Y005565D01*
X016475Y005565D01*
X016475Y005475D02*
X016475Y005745D01*
X016610Y005745D01*
X016655Y005700D01*
X016565Y005565D02*
X016655Y005475D01*
X016655Y006475D02*
X016565Y006565D01*
X016610Y006565D02*
X016475Y006565D01*
X016475Y006475D02*
X016475Y006745D01*
X016610Y006745D01*
X016655Y006700D01*
X016655Y006610D01*
X016610Y006565D01*
X016770Y006520D02*
X016770Y006475D01*
X016770Y006520D02*
X016950Y006700D01*
X016950Y006745D01*
X016770Y006745D01*
X016815Y007475D02*
X016770Y007520D01*
X016770Y007565D01*
X016815Y007610D01*
X016905Y007610D01*
X016950Y007565D01*
X016950Y007520D01*
X016905Y007475D01*
X016815Y007475D01*
X016815Y007610D02*
X016770Y007655D01*
X016770Y007700D01*
X016815Y007745D01*
X016905Y007745D01*
X016950Y007700D01*
X016950Y007655D01*
X016905Y007610D01*
X016655Y007610D02*
X016610Y007565D01*
X016475Y007565D01*
X016475Y007475D02*
X016475Y007745D01*
X016610Y007745D01*
X016655Y007700D01*
X016655Y007610D01*
X016565Y007565D02*
X016655Y007475D01*
X016655Y008475D02*
X016565Y008565D01*
X016610Y008565D02*
X016475Y008565D01*
X016475Y008475D02*
X016475Y008745D01*
X016610Y008745D01*
X016655Y008700D01*
X016655Y008610D01*
X016610Y008565D01*
X016770Y008475D02*
X016950Y008475D01*
X016860Y008475D02*
X016860Y008745D01*
X016770Y008655D01*
X017064Y008700D02*
X017064Y008520D01*
X017244Y008700D01*
X017244Y008520D01*
X017199Y008475D01*
X017109Y008475D01*
X017064Y008520D01*
X017064Y008700D02*
X017109Y008745D01*
X017199Y008745D01*
X017244Y008700D01*
X017244Y009375D02*
X017064Y009375D01*
X017154Y009375D02*
X017154Y009645D01*
X017064Y009555D01*
X016950Y009375D02*
X016770Y009375D01*
X016860Y009375D02*
X016860Y009645D01*
X016770Y009555D01*
X016655Y009510D02*
X016610Y009465D01*
X016475Y009465D01*
X016475Y009375D02*
X016475Y009645D01*
X016610Y009645D01*
X016655Y009600D01*
X016655Y009510D01*
X016565Y009465D02*
X016655Y009375D01*
X007889Y009520D02*
X007844Y009475D01*
X007754Y009475D01*
X007709Y009520D01*
X007709Y009610D01*
X007844Y009610D01*
X007889Y009565D01*
X007889Y009520D01*
X007799Y009700D02*
X007709Y009610D01*
X007799Y009700D02*
X007889Y009745D01*
X007594Y009430D02*
X007414Y009430D01*
X007300Y009475D02*
X007120Y009475D01*
X007210Y009475D02*
X007210Y009745D01*
X007120Y009655D01*
X007005Y009700D02*
X007005Y009610D01*
X006960Y009565D01*
X006825Y009565D01*
X006825Y009475D02*
X006825Y009745D01*
X006960Y009745D01*
X007005Y009700D01*
X006960Y008945D02*
X006825Y008945D01*
X006825Y008675D01*
X006825Y008765D02*
X006960Y008765D01*
X007005Y008810D01*
X007005Y008900D01*
X006960Y008945D01*
X007120Y008855D02*
X007210Y008945D01*
X007210Y008675D01*
X007120Y008675D02*
X007300Y008675D01*
X007414Y008630D02*
X007594Y008630D01*
X007709Y008675D02*
X007709Y008720D01*
X007889Y008900D01*
X007889Y008945D01*
X007709Y008945D01*
X005611Y007880D02*
X005611Y007700D01*
X005565Y007655D01*
X005430Y007655D01*
X005430Y007925D01*
X005565Y007925D01*
X005611Y007880D01*
X005316Y007925D02*
X005316Y007655D01*
X005136Y007925D01*
X005136Y007655D01*
X005021Y007700D02*
X005021Y007790D01*
X004931Y007790D01*
X004841Y007700D02*
X004886Y007655D01*
X004976Y007655D01*
X005021Y007700D01*
X004841Y007700D02*
X004841Y007880D01*
X004886Y007925D01*
X004976Y007925D01*
X005021Y007880D01*
X004465Y004725D02*
X004375Y004725D01*
X004330Y004680D01*
X004330Y004500D01*
X004375Y004455D01*
X004465Y004455D01*
X004511Y004500D01*
X004511Y004680D02*
X004465Y004725D01*
X004216Y004680D02*
X004171Y004725D01*
X004081Y004725D01*
X004036Y004680D01*
X004036Y004500D01*
X004081Y004455D01*
X004171Y004455D01*
X004216Y004500D01*
X003921Y004545D02*
X003921Y004725D01*
X003741Y004725D02*
X003741Y004545D01*
X003831Y004455D01*
X003921Y004545D01*
X003876Y002825D02*
X003786Y002825D01*
X003741Y002780D01*
X003741Y002600D01*
X003786Y002555D01*
X003876Y002555D01*
X003921Y002600D01*
X003921Y002690D01*
X003831Y002690D01*
X003921Y002780D02*
X003876Y002825D01*
X004036Y002825D02*
X004216Y002555D01*
X004216Y002825D01*
X004330Y002825D02*
X004465Y002825D01*
X004511Y002780D01*
X004511Y002600D01*
X004465Y002555D01*
X004330Y002555D01*
X004330Y002825D01*
X004036Y002825D02*
X004036Y002555D01*
X004150Y001144D02*
X004105Y001099D01*
X004105Y000964D01*
X004375Y000964D01*
X004375Y001099D01*
X004330Y001144D01*
X004150Y001144D01*
X004105Y000850D02*
X004375Y000850D01*
X004105Y000670D01*
X004375Y000670D01*
X004330Y000555D02*
X004240Y000555D01*
X004240Y000465D01*
X004330Y000375D02*
X004375Y000420D01*
X004375Y000510D01*
X004330Y000555D01*
X004150Y000555D02*
X004105Y000510D01*
X004105Y000420D01*
X004150Y000375D01*
X004330Y000375D01*
X005105Y000375D02*
X005240Y000375D01*
X005195Y000465D01*
X005195Y000510D01*
X005240Y000555D01*
X005330Y000555D01*
X005375Y000510D01*
X005375Y000420D01*
X005330Y000375D01*
X005105Y000375D02*
X005105Y000555D01*
X005105Y000670D02*
X005285Y000670D01*
X005375Y000760D01*
X005285Y000850D01*
X005105Y000850D01*
X005150Y000964D02*
X005105Y001009D01*
X005105Y001099D01*
X005150Y001144D01*
X005330Y000964D01*
X005375Y001009D01*
X005375Y001099D01*
X005330Y001144D01*
X005150Y001144D01*
X005150Y000964D02*
X005330Y000964D01*
X005330Y011175D02*
X005375Y011220D01*
X005375Y011310D01*
X005330Y011355D01*
X005285Y011355D01*
X005240Y011310D01*
X005240Y011265D01*
X005240Y011310D02*
X005195Y011355D01*
X005150Y011355D01*
X005105Y011310D01*
X005105Y011220D01*
X005150Y011175D01*
X005105Y011470D02*
X005285Y011470D01*
X005375Y011560D01*
X005285Y011650D01*
X005105Y011650D01*
X005150Y011764D02*
X005105Y011809D01*
X005105Y011899D01*
X005150Y011944D01*
X005195Y011944D01*
X005240Y011899D01*
X005285Y011944D01*
X005330Y011944D01*
X005375Y011899D01*
X005375Y011809D01*
X005330Y011764D01*
X005240Y011854D02*
X005240Y011899D01*
X004375Y011899D02*
X004375Y011764D01*
X004105Y011764D01*
X004105Y011899D01*
X004150Y011944D01*
X004330Y011944D01*
X004375Y011899D01*
X004375Y011650D02*
X004105Y011650D01*
X004105Y011470D02*
X004375Y011650D01*
X004375Y011470D02*
X004105Y011470D01*
X004150Y011355D02*
X004105Y011310D01*
X004105Y011220D01*
X004150Y011175D01*
X004330Y011175D01*
X004375Y011220D01*
X004375Y011310D01*
X004330Y011355D01*
X004240Y011355D01*
X004240Y011265D01*
D12*
X001200Y000150D02*
X020800Y000150D01*
X020850Y000152D01*
X020900Y000157D01*
X020949Y000166D01*
X020997Y000178D01*
X021045Y000194D01*
X021091Y000213D01*
X021135Y000236D01*
X021178Y000261D01*
X021219Y000290D01*
X021258Y000321D01*
X021295Y000355D01*
X021329Y000392D01*
X021360Y000431D01*
X021389Y000472D01*
X021414Y000515D01*
X021437Y000559D01*
X021456Y000605D01*
X021472Y000653D01*
X021484Y000701D01*
X021493Y000750D01*
X021498Y000800D01*
X021500Y000850D01*
X021500Y011450D01*
X021498Y011500D01*
X021493Y011550D01*
X021484Y011599D01*
X021472Y011647D01*
X021456Y011695D01*
X021437Y011741D01*
X021414Y011785D01*
X021389Y011828D01*
X021360Y011869D01*
X021329Y011908D01*
X021295Y011945D01*
X021258Y011979D01*
X021219Y012010D01*
X021178Y012039D01*
X021135Y012064D01*
X021091Y012087D01*
X021045Y012106D01*
X020997Y012122D01*
X020949Y012134D01*
X020900Y012143D01*
X020850Y012148D01*
X020800Y012150D01*
X001200Y012150D01*
X001148Y012148D01*
X001096Y012142D01*
X001044Y012132D01*
X000994Y012119D01*
X000944Y012102D01*
X000896Y012081D01*
X000850Y012056D01*
X000806Y012028D01*
X000764Y011997D01*
X000724Y011963D01*
X000687Y011926D01*
X000653Y011886D01*
X000622Y011844D01*
X000594Y011800D01*
X000569Y011754D01*
X000548Y011706D01*
X000531Y011656D01*
X000518Y011606D01*
X000508Y011554D01*
X000502Y011502D01*
X000500Y011450D01*
X000500Y000850D01*
X000502Y000800D01*
X000507Y000750D01*
X000516Y000701D01*
X000528Y000653D01*
X000544Y000605D01*
X000563Y000559D01*
X000586Y000515D01*
X000611Y000472D01*
X000640Y000431D01*
X000671Y000392D01*
X000705Y000355D01*
X000742Y000321D01*
X000781Y000290D01*
X000822Y000261D01*
X000865Y000236D01*
X000909Y000213D01*
X000955Y000194D01*
X001003Y000178D01*
X001051Y000166D01*
X001100Y000157D01*
X001150Y000152D01*
X001200Y000150D01*
X000856Y000900D02*
X000858Y000939D01*
X000864Y000978D01*
X000874Y001016D01*
X000887Y001053D01*
X000904Y001088D01*
X000924Y001122D01*
X000948Y001153D01*
X000975Y001182D01*
X001004Y001208D01*
X001036Y001231D01*
X001070Y001251D01*
X001106Y001267D01*
X001143Y001279D01*
X001182Y001288D01*
X001221Y001293D01*
X001260Y001294D01*
X001299Y001291D01*
X001338Y001284D01*
X001375Y001273D01*
X001412Y001259D01*
X001447Y001241D01*
X001480Y001220D01*
X001511Y001195D01*
X001539Y001168D01*
X001564Y001138D01*
X001586Y001105D01*
X001605Y001071D01*
X001620Y001035D01*
X001632Y000997D01*
X001640Y000959D01*
X001644Y000920D01*
X001644Y000880D01*
X001640Y000841D01*
X001632Y000803D01*
X001620Y000765D01*
X001605Y000729D01*
X001586Y000695D01*
X001564Y000662D01*
X001539Y000632D01*
X001511Y000605D01*
X001480Y000580D01*
X001447Y000559D01*
X001412Y000541D01*
X001375Y000527D01*
X001338Y000516D01*
X001299Y000509D01*
X001260Y000506D01*
X001221Y000507D01*
X001182Y000512D01*
X001143Y000521D01*
X001106Y000533D01*
X001070Y000549D01*
X001036Y000569D01*
X001004Y000592D01*
X000975Y000618D01*
X000948Y000647D01*
X000924Y000678D01*
X000904Y000712D01*
X000887Y000747D01*
X000874Y000784D01*
X000864Y000822D01*
X000858Y000861D01*
X000856Y000900D01*
X014580Y007150D02*
X014582Y007129D01*
X014587Y007109D01*
X014596Y007090D01*
X014608Y007073D01*
X014623Y007058D01*
X014640Y007046D01*
X014659Y007037D01*
X014679Y007032D01*
X014700Y007030D01*
X014721Y007032D01*
X014741Y007037D01*
X014760Y007046D01*
X014777Y007058D01*
X014792Y007073D01*
X014804Y007090D01*
X014813Y007109D01*
X014818Y007129D01*
X014820Y007150D01*
X016906Y011400D02*
X016908Y011439D01*
X016914Y011478D01*
X016924Y011516D01*
X016937Y011553D01*
X016954Y011588D01*
X016974Y011622D01*
X016998Y011653D01*
X017025Y011682D01*
X017054Y011708D01*
X017086Y011731D01*
X017120Y011751D01*
X017156Y011767D01*
X017193Y011779D01*
X017232Y011788D01*
X017271Y011793D01*
X017310Y011794D01*
X017349Y011791D01*
X017388Y011784D01*
X017425Y011773D01*
X017462Y011759D01*
X017497Y011741D01*
X017530Y011720D01*
X017561Y011695D01*
X017589Y011668D01*
X017614Y011638D01*
X017636Y011605D01*
X017655Y011571D01*
X017670Y011535D01*
X017682Y011497D01*
X017690Y011459D01*
X017694Y011420D01*
X017694Y011380D01*
X017690Y011341D01*
X017682Y011303D01*
X017670Y011265D01*
X017655Y011229D01*
X017636Y011195D01*
X017614Y011162D01*
X017589Y011132D01*
X017561Y011105D01*
X017530Y011080D01*
X017497Y011059D01*
X017462Y011041D01*
X017425Y011027D01*
X017388Y011016D01*
X017349Y011009D01*
X017310Y011006D01*
X017271Y011007D01*
X017232Y011012D01*
X017193Y011021D01*
X017156Y011033D01*
X017120Y011049D01*
X017086Y011069D01*
X017054Y011092D01*
X017025Y011118D01*
X016998Y011147D01*
X016974Y011178D01*
X016954Y011212D01*
X016937Y011247D01*
X016924Y011284D01*
X016914Y011322D01*
X016908Y011361D01*
X016906Y011400D01*
X000856Y011400D02*
X000858Y011439D01*
X000864Y011478D01*
X000874Y011516D01*
X000887Y011553D01*
X000904Y011588D01*
X000924Y011622D01*
X000948Y011653D01*
X000975Y011682D01*
X001004Y011708D01*
X001036Y011731D01*
X001070Y011751D01*
X001106Y011767D01*
X001143Y011779D01*
X001182Y011788D01*
X001221Y011793D01*
X001260Y011794D01*
X001299Y011791D01*
X001338Y011784D01*
X001375Y011773D01*
X001412Y011759D01*
X001447Y011741D01*
X001480Y011720D01*
X001511Y011695D01*
X001539Y011668D01*
X001564Y011638D01*
X001586Y011605D01*
X001605Y011571D01*
X001620Y011535D01*
X001632Y011497D01*
X001640Y011459D01*
X001644Y011420D01*
X001644Y011380D01*
X001640Y011341D01*
X001632Y011303D01*
X001620Y011265D01*
X001605Y011229D01*
X001586Y011195D01*
X001564Y011162D01*
X001539Y011132D01*
X001511Y011105D01*
X001480Y011080D01*
X001447Y011059D01*
X001412Y011041D01*
X001375Y011027D01*
X001338Y011016D01*
X001299Y011009D01*
X001260Y011006D01*
X001221Y011007D01*
X001182Y011012D01*
X001143Y011021D01*
X001106Y011033D01*
X001070Y011049D01*
X001036Y011069D01*
X001004Y011092D01*
X000975Y011118D01*
X000948Y011147D01*
X000924Y011178D01*
X000904Y011212D01*
X000887Y011247D01*
X000874Y011284D01*
X000864Y011322D01*
X000858Y011361D01*
X000856Y011400D01*
X016906Y000900D02*
X016908Y000939D01*
X016914Y000978D01*
X016924Y001016D01*
X016937Y001053D01*
X016954Y001088D01*
X016974Y001122D01*
X016998Y001153D01*
X017025Y001182D01*
X017054Y001208D01*
X017086Y001231D01*
X017120Y001251D01*
X017156Y001267D01*
X017193Y001279D01*
X017232Y001288D01*
X017271Y001293D01*
X017310Y001294D01*
X017349Y001291D01*
X017388Y001284D01*
X017425Y001273D01*
X017462Y001259D01*
X017497Y001241D01*
X017530Y001220D01*
X017561Y001195D01*
X017589Y001168D01*
X017614Y001138D01*
X017636Y001105D01*
X017655Y001071D01*
X017670Y001035D01*
X017682Y000997D01*
X017690Y000959D01*
X017694Y000920D01*
X017694Y000880D01*
X017690Y000841D01*
X017682Y000803D01*
X017670Y000765D01*
X017655Y000729D01*
X017636Y000695D01*
X017614Y000662D01*
X017589Y000632D01*
X017561Y000605D01*
X017530Y000580D01*
X017497Y000559D01*
X017462Y000541D01*
X017425Y000527D01*
X017388Y000516D01*
X017349Y000509D01*
X017310Y000506D01*
X017271Y000507D01*
X017232Y000512D01*
X017193Y000521D01*
X017156Y000533D01*
X017120Y000549D01*
X017086Y000569D01*
X017054Y000592D01*
X017025Y000618D01*
X016998Y000647D01*
X016974Y000678D01*
X016954Y000712D01*
X016937Y000747D01*
X016924Y000784D01*
X016914Y000822D01*
X016908Y000861D01*
X016906Y000900D01*
D13*
X015460Y004550D02*
X013940Y004550D01*
X013160Y004620D02*
X013160Y004770D01*
X013060Y004770D02*
X013060Y004620D01*
X013160Y004620D01*
X016240Y006930D02*
X016240Y007080D01*
X016340Y007080D02*
X016340Y006930D01*
X016240Y006930D01*
X015460Y007150D02*
X014820Y007150D01*
X014580Y007150D01*
X013940Y007150D01*
X002700Y006900D02*
X002700Y006400D01*
X002450Y006150D01*
X000950Y006150D01*
X000700Y005900D01*
X000700Y005400D01*
X000950Y005150D01*
X002450Y005150D01*
X002700Y004900D01*
X002700Y004400D01*
X002450Y004150D01*
X000950Y004150D01*
X000700Y003900D01*
X000700Y003400D01*
X000950Y003150D01*
X002450Y003150D01*
X002700Y002900D01*
X002700Y002400D01*
X002450Y002150D01*
X000950Y002150D01*
X000700Y002400D01*
X000700Y002900D01*
X000950Y003150D01*
X002450Y003150D02*
X002700Y003400D01*
X002700Y003900D01*
X002450Y004150D01*
X000950Y004150D02*
X000700Y004400D01*
X000700Y004900D01*
X000950Y005150D01*
X002450Y005150D02*
X002700Y005400D01*
X002700Y005900D01*
X002450Y006150D01*
X002700Y006900D02*
X002450Y007150D01*
X000950Y007150D01*
X000700Y006900D01*
X000700Y006400D01*
X000950Y006150D01*
X000950Y007150D02*
X000700Y007400D01*
X000700Y007900D01*
X000950Y008150D01*
X002450Y008150D01*
X002700Y007900D01*
X002700Y007400D01*
X002450Y007150D01*
X002450Y008150D02*
X002700Y008400D01*
X002700Y008900D01*
X002450Y009150D01*
X000950Y009150D01*
X000700Y008900D01*
X000700Y008400D01*
X000950Y008150D01*
X000950Y009150D02*
X000700Y009400D01*
X000700Y009900D01*
X000950Y010150D01*
X002450Y010150D01*
X002700Y009900D01*
X002700Y009400D01*
X002450Y009150D01*
D14*
X013235Y007497D02*
X013549Y007183D01*
X013392Y007183D02*
X013392Y007497D01*
X013549Y007497D02*
X013235Y007183D01*
X013235Y007340D02*
X013549Y007340D01*
X013775Y007273D02*
X013823Y007225D01*
X013920Y007225D01*
X013968Y007273D01*
X013968Y007515D01*
X014070Y007418D02*
X014166Y007515D01*
X014166Y007225D01*
X014070Y007225D02*
X014263Y007225D01*
X013775Y007273D02*
X013775Y007515D01*
D15*
X017600Y007650D03*
X017600Y006650D03*
X017600Y005650D03*
X017600Y004650D03*
X017600Y003650D03*
X017600Y002650D03*
X017600Y008650D03*
X017600Y009650D03*
X002700Y010750D03*
X002600Y001650D03*
X002600Y000850D03*
D16*
X007410Y004318D02*
X007568Y004160D01*
X011032Y004160D01*
X011190Y004318D01*
X011190Y007782D01*
X011032Y007940D01*
X007568Y007940D01*
X007410Y007782D01*
X007410Y004318D01*
X011806Y002765D02*
X011806Y002135D01*
X011807Y002135D02*
X011813Y002117D01*
X011822Y002099D01*
X011834Y002084D01*
X011850Y002072D01*
X011867Y002063D01*
X011886Y002057D01*
X011905Y002055D01*
X011925Y002057D01*
X012475Y002057D02*
X012493Y002055D01*
X012510Y002056D01*
X012527Y002060D01*
X012543Y002067D01*
X012558Y002077D01*
X012570Y002089D01*
X012580Y002103D01*
X012588Y002119D01*
X012593Y002135D01*
X012594Y002135D02*
X012594Y002765D01*
X012593Y002765D02*
X012588Y002781D01*
X012580Y002797D01*
X012570Y002811D01*
X012558Y002823D01*
X012543Y002833D01*
X012527Y002840D01*
X012510Y002844D01*
X012493Y002845D01*
X012475Y002843D01*
X012806Y002765D02*
X012806Y002135D01*
X012807Y002135D02*
X012813Y002117D01*
X012822Y002099D01*
X012834Y002084D01*
X012850Y002072D01*
X012867Y002063D01*
X012886Y002057D01*
X012905Y002055D01*
X012925Y002057D01*
X013475Y002057D02*
X013493Y002055D01*
X013510Y002056D01*
X013527Y002060D01*
X013543Y002067D01*
X013558Y002077D01*
X013570Y002089D01*
X013580Y002103D01*
X013588Y002119D01*
X013593Y002135D01*
X013594Y002135D02*
X013594Y002765D01*
X013593Y002765D02*
X013588Y002781D01*
X013580Y002797D01*
X013570Y002811D01*
X013558Y002823D01*
X013543Y002833D01*
X013527Y002840D01*
X013510Y002844D01*
X013493Y002845D01*
X013475Y002843D01*
X013806Y002765D02*
X013806Y002135D01*
X013807Y002135D02*
X013813Y002117D01*
X013822Y002099D01*
X013834Y002084D01*
X013850Y002072D01*
X013867Y002063D01*
X013886Y002057D01*
X013905Y002055D01*
X013925Y002057D01*
X014475Y002057D02*
X014493Y002055D01*
X014510Y002056D01*
X014527Y002060D01*
X014543Y002067D01*
X014558Y002077D01*
X014570Y002089D01*
X014580Y002103D01*
X014588Y002119D01*
X014593Y002135D01*
X014594Y002135D02*
X014594Y002765D01*
X014593Y002765D02*
X014588Y002781D01*
X014580Y002797D01*
X014570Y002811D01*
X014558Y002823D01*
X014543Y002833D01*
X014527Y002840D01*
X014510Y002844D01*
X014493Y002845D01*
X014475Y002843D01*
X014806Y002765D02*
X014806Y002135D01*
X014807Y002135D02*
X014813Y002117D01*
X014822Y002099D01*
X014834Y002084D01*
X014850Y002072D01*
X014867Y002063D01*
X014886Y002057D01*
X014905Y002055D01*
X014925Y002057D01*
X015475Y002057D02*
X015493Y002055D01*
X015510Y002056D01*
X015527Y002060D01*
X015543Y002067D01*
X015558Y002077D01*
X015570Y002089D01*
X015580Y002103D01*
X015588Y002119D01*
X015593Y002135D01*
X015594Y002135D02*
X015594Y002765D01*
X015593Y002765D02*
X015588Y002781D01*
X015580Y002797D01*
X015570Y002811D01*
X015558Y002823D01*
X015543Y002833D01*
X015527Y002840D01*
X015510Y002844D01*
X015493Y002845D01*
X015475Y002843D01*
X014925Y002843D02*
X014905Y002845D01*
X014886Y002843D01*
X014867Y002837D01*
X014850Y002828D01*
X014834Y002816D01*
X014822Y002801D01*
X014813Y002783D01*
X014807Y002765D01*
X013925Y002843D02*
X013905Y002845D01*
X013886Y002843D01*
X013867Y002837D01*
X013850Y002828D01*
X013834Y002816D01*
X013822Y002801D01*
X013813Y002783D01*
X013807Y002765D01*
X012925Y002843D02*
X012905Y002845D01*
X012886Y002843D01*
X012867Y002837D01*
X012850Y002828D01*
X012834Y002816D01*
X012822Y002801D01*
X012813Y002783D01*
X012807Y002765D01*
X011925Y002843D02*
X011905Y002845D01*
X011886Y002843D01*
X011867Y002837D01*
X011850Y002828D01*
X011834Y002816D01*
X011822Y002801D01*
X011813Y002783D01*
X011807Y002765D01*
X018400Y002900D02*
X018400Y002400D01*
X018650Y002150D01*
X019150Y002150D01*
X019400Y002400D01*
X019400Y002900D01*
X019650Y003150D01*
X019400Y003400D01*
X019400Y003900D01*
X019650Y004150D01*
X019400Y004400D01*
X019400Y004900D01*
X019650Y005150D01*
X019400Y005400D01*
X019400Y005900D01*
X019650Y006150D01*
X019400Y006400D01*
X019400Y006900D01*
X019650Y007150D01*
X019400Y007400D01*
X019400Y007900D01*
X019650Y008150D01*
X019400Y008400D01*
X019400Y008900D01*
X019650Y009150D01*
X019400Y009400D01*
X019400Y009900D01*
X019650Y010150D01*
X020150Y010150D01*
X020400Y009900D01*
X020400Y009400D01*
X020150Y009150D01*
X020400Y008900D01*
X020400Y008400D01*
X020150Y008150D01*
X020400Y007900D01*
X020400Y007400D01*
X020150Y007150D01*
X020400Y006900D01*
X020400Y006400D01*
X020150Y006150D01*
X020400Y005900D01*
X020400Y005400D01*
X020150Y005150D01*
X020400Y004900D01*
X020400Y004400D01*
X020150Y004150D01*
X020400Y003900D01*
X020400Y003400D01*
X020150Y003150D01*
X020400Y002900D01*
X020400Y002400D01*
X020150Y002150D01*
X019650Y002150D01*
X019400Y002400D01*
X019400Y002900D01*
X019150Y003150D01*
X019400Y003400D01*
X019400Y003900D01*
X019150Y004150D01*
X019400Y004400D01*
X019400Y004900D01*
X019150Y005150D01*
X019400Y005400D01*
X019400Y005900D01*
X019150Y006150D01*
X019400Y006400D01*
X019400Y006900D01*
X019150Y007150D01*
X019400Y007400D01*
X019400Y007900D01*
X019150Y008150D01*
X019400Y008400D01*
X019400Y008900D01*
X019150Y009150D01*
X019400Y009400D01*
X019400Y009900D01*
X019150Y010150D01*
X018650Y010150D01*
X018400Y009900D01*
X018400Y009400D01*
X018650Y009150D01*
X018400Y008900D01*
X018400Y008400D01*
X018650Y008150D01*
X018400Y007900D01*
X018400Y007400D01*
X018650Y007150D01*
X018400Y006900D01*
X018400Y006400D01*
X018650Y006150D01*
X018400Y005900D01*
X018400Y005400D01*
X018650Y005150D01*
X018400Y004900D01*
X018400Y004400D01*
X018650Y004150D01*
X018400Y003900D01*
X018400Y003400D01*
X018650Y003150D01*
X018400Y002900D01*
X019400Y001950D02*
X020050Y001950D01*
X020300Y001950D02*
X020400Y001950D01*
X020417Y001948D01*
X020434Y001944D01*
X020450Y001937D01*
X020464Y001927D01*
X020477Y001914D01*
X020487Y001900D01*
X020494Y001884D01*
X020498Y001867D01*
X020500Y001850D01*
X020500Y001250D01*
X020498Y001233D01*
X020494Y001216D01*
X020487Y001200D01*
X020477Y001186D01*
X020464Y001173D01*
X020450Y001163D01*
X020434Y001156D01*
X020417Y001152D01*
X020400Y001150D01*
X020300Y001150D01*
X020050Y001150D02*
X019400Y001150D01*
X019383Y001152D01*
X019366Y001156D01*
X019350Y001163D01*
X019336Y001173D01*
X019323Y001186D01*
X019313Y001200D01*
X019306Y001216D01*
X019302Y001233D01*
X019300Y001250D01*
X019300Y001850D01*
X019302Y001867D01*
X019306Y001884D01*
X019313Y001900D01*
X019323Y001914D01*
X019336Y001927D01*
X019350Y001937D01*
X019366Y001944D01*
X019383Y001948D01*
X019400Y001950D01*
X020400Y002400D02*
X020400Y002900D01*
X020650Y003150D01*
X020400Y003400D01*
X020400Y003900D01*
X020650Y004150D01*
X020400Y004400D01*
X020400Y004900D01*
X020650Y005150D01*
X020400Y005400D01*
X020400Y005900D01*
X020650Y006150D01*
X020400Y006400D01*
X020400Y006900D01*
X020650Y007150D01*
X020400Y007400D01*
X020400Y007900D01*
X020650Y008150D01*
X020400Y008400D01*
X020400Y008900D01*
X020650Y009150D01*
X020400Y009400D01*
X020400Y009900D01*
X020650Y010150D01*
X021150Y010150D01*
X021400Y009900D01*
X021400Y009400D01*
X021150Y009150D01*
X021400Y008900D01*
X021400Y008400D01*
X021150Y008150D01*
X021400Y007900D01*
X021400Y007400D01*
X021150Y007150D01*
X021400Y006900D01*
X021400Y006400D01*
X021150Y006150D01*
X021400Y005900D01*
X021400Y005400D01*
X021150Y005150D01*
X021400Y004900D01*
X021400Y004400D01*
X021150Y004150D01*
X021400Y003900D01*
X021400Y003400D01*
X021150Y003150D01*
X021400Y002900D01*
X021400Y002400D01*
X021150Y002150D01*
X020650Y002150D01*
X020400Y002400D01*
X015594Y009535D02*
X015594Y010165D01*
X015593Y010165D02*
X015588Y010181D01*
X015580Y010197D01*
X015570Y010211D01*
X015558Y010223D01*
X015543Y010233D01*
X015527Y010240D01*
X015510Y010244D01*
X015493Y010245D01*
X015475Y010243D01*
X015700Y010450D02*
X015700Y009850D01*
X015702Y009833D01*
X015706Y009816D01*
X015713Y009800D01*
X015723Y009786D01*
X015736Y009773D01*
X015750Y009763D01*
X015766Y009756D01*
X015783Y009752D01*
X015800Y009750D01*
X015900Y009750D01*
X016150Y009750D02*
X016800Y009750D01*
X016817Y009752D01*
X016834Y009756D01*
X016850Y009763D01*
X016864Y009773D01*
X016877Y009786D01*
X016887Y009800D01*
X016894Y009816D01*
X016898Y009833D01*
X016900Y009850D01*
X016900Y010450D01*
X016898Y010467D01*
X016894Y010484D01*
X016887Y010500D01*
X016877Y010514D01*
X016864Y010527D01*
X016850Y010537D01*
X016834Y010544D01*
X016817Y010548D01*
X016800Y010550D01*
X016150Y010550D01*
X015900Y010550D02*
X015800Y010550D01*
X015783Y010548D01*
X015766Y010544D01*
X015750Y010537D01*
X015736Y010527D01*
X015723Y010514D01*
X015713Y010500D01*
X015706Y010484D01*
X015702Y010467D01*
X015700Y010450D01*
X014925Y010243D02*
X014905Y010245D01*
X014886Y010243D01*
X014867Y010237D01*
X014850Y010228D01*
X014834Y010216D01*
X014822Y010201D01*
X014813Y010183D01*
X014807Y010165D01*
X014806Y010165D02*
X014806Y009535D01*
X014807Y009535D02*
X014813Y009517D01*
X014822Y009499D01*
X014834Y009484D01*
X014850Y009472D01*
X014867Y009463D01*
X014886Y009457D01*
X014905Y009455D01*
X014925Y009457D01*
X014594Y009535D02*
X014594Y010165D01*
X014593Y010165D02*
X014588Y010181D01*
X014580Y010197D01*
X014570Y010211D01*
X014558Y010223D01*
X014543Y010233D01*
X014527Y010240D01*
X014510Y010244D01*
X014493Y010245D01*
X014475Y010243D01*
X013925Y010243D02*
X013905Y010245D01*
X013886Y010243D01*
X013867Y010237D01*
X013850Y010228D01*
X013834Y010216D01*
X013822Y010201D01*
X013813Y010183D01*
X013807Y010165D01*
X013806Y010165D02*
X013806Y009535D01*
X013807Y009535D02*
X013813Y009517D01*
X013822Y009499D01*
X013834Y009484D01*
X013850Y009472D01*
X013867Y009463D01*
X013886Y009457D01*
X013905Y009455D01*
X013925Y009457D01*
X013594Y009535D02*
X013594Y010165D01*
X013593Y010165D02*
X013588Y010181D01*
X013580Y010197D01*
X013570Y010211D01*
X013558Y010223D01*
X013543Y010233D01*
X013527Y010240D01*
X013510Y010244D01*
X013493Y010245D01*
X013475Y010243D01*
X012925Y010243D02*
X012905Y010245D01*
X012886Y010243D01*
X012867Y010237D01*
X012850Y010228D01*
X012834Y010216D01*
X012822Y010201D01*
X012813Y010183D01*
X012807Y010165D01*
X012806Y010165D02*
X012806Y009535D01*
X012807Y009535D02*
X012813Y009517D01*
X012822Y009499D01*
X012834Y009484D01*
X012850Y009472D01*
X012867Y009463D01*
X012886Y009457D01*
X012905Y009455D01*
X012925Y009457D01*
X012594Y009535D02*
X012594Y010165D01*
X012593Y010165D02*
X012588Y010181D01*
X012580Y010197D01*
X012570Y010211D01*
X012558Y010223D01*
X012543Y010233D01*
X012527Y010240D01*
X012510Y010244D01*
X012493Y010245D01*
X012475Y010243D01*
X011925Y010243D02*
X011905Y010245D01*
X011886Y010243D01*
X011867Y010237D01*
X011850Y010228D01*
X011834Y010216D01*
X011822Y010201D01*
X011813Y010183D01*
X011807Y010165D01*
X011806Y010165D02*
X011806Y009535D01*
X011807Y009535D02*
X011813Y009517D01*
X011822Y009499D01*
X011834Y009484D01*
X011850Y009472D01*
X011867Y009463D01*
X011886Y009457D01*
X011905Y009455D01*
X011925Y009457D01*
X012475Y009457D02*
X012493Y009455D01*
X012510Y009456D01*
X012527Y009460D01*
X012543Y009467D01*
X012558Y009477D01*
X012570Y009489D01*
X012580Y009503D01*
X012588Y009519D01*
X012593Y009535D01*
X013475Y009457D02*
X013493Y009455D01*
X013510Y009456D01*
X013527Y009460D01*
X013543Y009467D01*
X013558Y009477D01*
X013570Y009489D01*
X013580Y009503D01*
X013588Y009519D01*
X013593Y009535D01*
X014475Y009457D02*
X014493Y009455D01*
X014510Y009456D01*
X014527Y009460D01*
X014543Y009467D01*
X014558Y009477D01*
X014570Y009489D01*
X014580Y009503D01*
X014588Y009519D01*
X014593Y009535D01*
X015475Y009457D02*
X015493Y009455D01*
X015510Y009456D01*
X015527Y009460D01*
X015543Y009467D01*
X015558Y009477D01*
X015570Y009489D01*
X015580Y009503D01*
X015588Y009519D01*
X015593Y009535D01*
X018100Y010950D02*
X018100Y011550D01*
X018102Y011567D01*
X018106Y011584D01*
X018113Y011600D01*
X018123Y011614D01*
X018136Y011627D01*
X018150Y011637D01*
X018166Y011644D01*
X018183Y011648D01*
X018200Y011650D01*
X018300Y011650D01*
X018550Y011650D02*
X019200Y011650D01*
X019217Y011648D01*
X019234Y011644D01*
X019250Y011637D01*
X019264Y011627D01*
X019277Y011614D01*
X019287Y011600D01*
X019294Y011584D01*
X019298Y011567D01*
X019300Y011550D01*
X019300Y010950D01*
X019298Y010933D01*
X019294Y010916D01*
X019287Y010900D01*
X019277Y010886D01*
X019264Y010873D01*
X019250Y010863D01*
X019234Y010856D01*
X019217Y010852D01*
X019200Y010850D01*
X018550Y010850D01*
X018300Y010850D02*
X018200Y010850D01*
X018183Y010852D01*
X018166Y010856D01*
X018150Y010863D01*
X018136Y010873D01*
X018123Y010886D01*
X018113Y010900D01*
X018106Y010916D01*
X018102Y010933D01*
X018100Y010950D01*
X019400Y011000D02*
X019650Y010750D01*
X020150Y010750D01*
X020400Y011000D01*
X020650Y010750D01*
X021150Y010750D01*
X021400Y011000D01*
X021400Y011500D01*
X021150Y011750D01*
X020650Y011750D01*
X020400Y011500D01*
X020150Y011750D01*
X019650Y011750D01*
X019400Y011500D01*
X019400Y011000D01*
X006700Y009700D02*
X006700Y009200D01*
X006450Y008950D01*
X006700Y008700D01*
X006700Y008200D01*
X006450Y007950D01*
X005950Y007950D01*
X005700Y008200D01*
X005450Y007950D01*
X004950Y007950D01*
X004700Y008200D01*
X004700Y008700D01*
X004950Y008950D01*
X005450Y008950D01*
X005700Y008700D01*
X005950Y008950D01*
X006450Y008950D01*
X005950Y008950D01*
X005700Y009200D01*
X005450Y008950D01*
X004950Y008950D01*
X004700Y009200D01*
X004700Y009700D01*
X004950Y009950D01*
X005450Y009950D01*
X005700Y009700D01*
X005950Y009950D01*
X006450Y009950D01*
X006700Y009700D01*
X002767Y011469D02*
X002767Y011650D01*
X002645Y011558D01*
X002767Y011650D02*
X002767Y011831D01*
X002645Y011736D02*
X002761Y011660D01*
D17*
X007614Y007625D02*
X007616Y007645D01*
X007621Y007665D01*
X007631Y007683D01*
X007643Y007700D01*
X007658Y007714D01*
X007676Y007724D01*
X007695Y007732D01*
X007715Y007736D01*
X007735Y007736D01*
X007755Y007732D01*
X007774Y007724D01*
X007792Y007714D01*
X007807Y007700D01*
X007819Y007683D01*
X007829Y007665D01*
X007834Y007645D01*
X007836Y007625D01*
X007834Y007605D01*
X007829Y007585D01*
X007819Y007567D01*
X007807Y007550D01*
X007792Y007536D01*
X007774Y007526D01*
X007755Y007518D01*
X007735Y007514D01*
X007715Y007514D01*
X007695Y007518D01*
X007676Y007526D01*
X007658Y007536D01*
X007643Y007550D01*
X007631Y007567D01*
X007621Y007585D01*
X007616Y007605D01*
X007614Y007625D01*
D18*
X011588Y008450D02*
X011612Y008450D01*
X012388Y008450D02*
X012412Y008450D01*
X013188Y008450D02*
X013212Y008450D01*
X013988Y008450D02*
X014012Y008450D01*
X015788Y008450D02*
X015812Y008450D01*
X012412Y003650D02*
X012388Y003650D01*
X011612Y003650D02*
X011588Y003650D01*
X007012Y003650D02*
X006988Y003650D01*
X006212Y003650D02*
X006188Y003650D01*
D19*
X012021Y002945D02*
X012021Y002795D01*
X012096Y002795D01*
X012121Y002820D01*
X012121Y002920D01*
X012096Y002945D01*
X012021Y002945D01*
X012168Y002945D02*
X012268Y002945D01*
X012315Y002945D02*
X012390Y002945D01*
X012415Y002920D01*
X012415Y002870D01*
X012390Y002845D01*
X012315Y002845D01*
X012315Y002795D02*
X012315Y002945D01*
X012218Y002945D02*
X012218Y002795D01*
X012365Y002845D02*
X012415Y002795D01*
X013021Y002795D02*
X013096Y002795D01*
X013121Y002820D01*
X013121Y002920D01*
X013096Y002945D01*
X013021Y002945D01*
X013021Y002795D01*
X013168Y002820D02*
X013193Y002795D01*
X013243Y002795D01*
X013268Y002820D01*
X013268Y002845D01*
X013243Y002870D01*
X013193Y002870D01*
X013168Y002895D01*
X013168Y002920D01*
X013193Y002945D01*
X013243Y002945D01*
X013268Y002920D01*
X013315Y002945D02*
X013390Y002945D01*
X013415Y002920D01*
X013415Y002870D01*
X013390Y002845D01*
X013315Y002845D01*
X013315Y002795D02*
X013315Y002945D01*
X013365Y002845D02*
X013415Y002795D01*
X014021Y002795D02*
X014096Y002795D01*
X014121Y002820D01*
X014121Y002920D01*
X014096Y002945D01*
X014021Y002945D01*
X014021Y002795D01*
X014168Y002820D02*
X014168Y002920D01*
X014193Y002945D01*
X014243Y002945D01*
X014268Y002920D01*
X014315Y002945D02*
X014390Y002945D01*
X014415Y002920D01*
X014415Y002820D01*
X014390Y002795D01*
X014315Y002795D01*
X014315Y002945D01*
X014268Y002820D02*
X014243Y002795D01*
X014193Y002795D01*
X014168Y002820D01*
X015017Y002795D02*
X015017Y002945D01*
X015092Y002945D01*
X015117Y002920D01*
X015117Y002870D01*
X015092Y002845D01*
X015017Y002845D01*
X015067Y002845D02*
X015117Y002795D01*
X015164Y002795D02*
X015214Y002795D01*
X015189Y002795D02*
X015189Y002945D01*
X015164Y002945D02*
X015214Y002945D01*
X015171Y009355D02*
X015221Y009355D01*
X015246Y009380D01*
X015246Y009480D01*
X015221Y009505D01*
X015171Y009505D01*
X015146Y009480D01*
X015146Y009380D01*
X015171Y009355D01*
X015098Y009355D02*
X015048Y009355D01*
X015073Y009355D02*
X015073Y009505D01*
X015048Y009505D02*
X015098Y009505D01*
X015293Y009480D02*
X015318Y009505D01*
X015368Y009505D01*
X015393Y009480D01*
X015393Y009455D01*
X015293Y009355D01*
X015393Y009355D01*
X014393Y009355D02*
X014293Y009355D01*
X014343Y009355D02*
X014343Y009505D01*
X014293Y009455D01*
X014246Y009480D02*
X014221Y009505D01*
X014171Y009505D01*
X014146Y009480D01*
X014146Y009380D01*
X014171Y009355D01*
X014221Y009355D01*
X014246Y009380D01*
X014246Y009480D01*
X014098Y009505D02*
X014048Y009505D01*
X014073Y009505D02*
X014073Y009355D01*
X014048Y009355D02*
X014098Y009355D01*
X013442Y009355D02*
X013342Y009355D01*
X013442Y009455D01*
X013442Y009480D01*
X013417Y009505D01*
X013367Y009505D01*
X013342Y009480D01*
X013295Y009480D02*
X013270Y009505D01*
X013220Y009505D01*
X013195Y009480D01*
X013195Y009455D01*
X013220Y009430D01*
X013270Y009430D01*
X013295Y009405D01*
X013295Y009380D01*
X013270Y009355D01*
X013220Y009355D01*
X013195Y009380D01*
X013148Y009380D02*
X013123Y009355D01*
X013073Y009355D01*
X013048Y009380D01*
X013073Y009430D02*
X013123Y009430D01*
X013148Y009405D01*
X013148Y009380D01*
X013073Y009430D02*
X013048Y009455D01*
X013048Y009480D01*
X013073Y009505D01*
X013123Y009505D01*
X013148Y009480D01*
X012442Y009355D02*
X012342Y009355D01*
X012392Y009355D02*
X012392Y009505D01*
X012342Y009455D01*
X012295Y009480D02*
X012270Y009505D01*
X012220Y009505D01*
X012195Y009480D01*
X012195Y009455D01*
X012220Y009430D01*
X012270Y009430D01*
X012295Y009405D01*
X012295Y009380D01*
X012270Y009355D01*
X012220Y009355D01*
X012195Y009380D01*
X012148Y009380D02*
X012123Y009355D01*
X012073Y009355D01*
X012048Y009380D01*
X012073Y009430D02*
X012123Y009430D01*
X012148Y009405D01*
X012148Y009380D01*
X012073Y009430D02*
X012048Y009455D01*
X012048Y009480D01*
X012073Y009505D01*
X012123Y009505D01*
X012148Y009480D01*
D20*
X014900Y007850D03*
D21*
X008300Y004360D03*
X008175Y004485D03*
X008050Y004610D03*
X007880Y005040D03*
X008175Y005115D03*
X008005Y005545D03*
X008035Y005710D03*
X007760Y005790D03*
X008035Y006090D03*
D22*
X008035Y006085D03*
X008035Y005715D03*
X008005Y005540D03*
X007760Y005785D03*
X008175Y005110D03*
X007880Y005045D03*
X008050Y004615D03*
X008175Y004490D03*
X008300Y004365D03*
X009735Y005300D03*
X009355Y005505D03*
X008790Y005655D03*
D23*
X008910Y005505D03*
X008560Y005550D03*
X008560Y005555D03*
X008200Y005275D03*
X008175Y005105D03*
X007880Y005050D03*
X007860Y004875D03*
X007860Y004725D03*
X008050Y004620D03*
X008175Y004495D03*
X008300Y004370D03*
X009725Y005280D03*
X009730Y005290D03*
X009475Y005505D03*
X008035Y005720D03*
X008005Y005535D03*
X007760Y005780D03*
X007840Y005975D03*
X008035Y006080D03*
X011005Y005515D03*
X011005Y005510D03*
X011005Y005505D03*
X011005Y005500D03*
X011005Y005320D03*
X011005Y005315D03*
X011005Y005310D03*
X011005Y005305D03*
X011005Y005300D03*
D24*
X011000Y005270D03*
X011000Y005265D03*
X011000Y005260D03*
X011000Y005255D03*
X011000Y005250D03*
X011000Y005550D03*
X011000Y005555D03*
X011000Y005560D03*
X011000Y005565D03*
X010230Y005560D03*
X010230Y005555D03*
X010230Y005550D03*
X010230Y005545D03*
X010230Y005540D03*
X010230Y005535D03*
X010015Y005290D03*
X010015Y005285D03*
X010015Y005280D03*
X010015Y005275D03*
X010015Y005270D03*
X010015Y005265D03*
X010015Y005260D03*
X010015Y005255D03*
X009725Y005270D03*
X009155Y005495D03*
X008555Y005530D03*
X008555Y005535D03*
X008580Y005195D03*
X008175Y005100D03*
X008050Y004975D03*
X007880Y005055D03*
X008005Y005180D03*
X008005Y005530D03*
X008035Y005725D03*
X007760Y005775D03*
X008035Y006075D03*
X008050Y004625D03*
X008175Y004500D03*
X008300Y004375D03*
D25*
X008300Y004380D03*
X008175Y004505D03*
X008050Y004630D03*
X007860Y004730D03*
X007860Y004870D03*
X008050Y004970D03*
X008175Y005095D03*
X008005Y005185D03*
X007880Y005060D03*
X008550Y005510D03*
X008550Y005515D03*
X008775Y005645D03*
X009340Y005495D03*
X009695Y005200D03*
X009700Y005205D03*
X009870Y005115D03*
X010480Y005195D03*
X010485Y005505D03*
X010225Y005570D03*
X010995Y005240D03*
X007760Y005770D03*
D26*
X007760Y005765D03*
X008005Y005190D03*
X008545Y005270D03*
X008545Y005275D03*
X008545Y005280D03*
X008545Y005285D03*
X008545Y005290D03*
X008545Y005295D03*
X008545Y005300D03*
X008545Y005305D03*
X008545Y005310D03*
X008545Y005315D03*
X008545Y005320D03*
X008545Y005325D03*
X008545Y005330D03*
X008545Y005335D03*
X008545Y005340D03*
X008545Y005345D03*
X008545Y005350D03*
X008545Y005355D03*
X008545Y005360D03*
X008545Y005365D03*
X008545Y005370D03*
X008545Y005375D03*
X008545Y005380D03*
X008545Y005385D03*
X008545Y005390D03*
X008545Y005395D03*
X008545Y005400D03*
X008545Y005405D03*
X008545Y005410D03*
X008545Y005415D03*
X008545Y005420D03*
X008545Y005425D03*
X008545Y005430D03*
X008545Y005435D03*
X008545Y005440D03*
X008545Y005445D03*
X008545Y005450D03*
X008770Y005440D03*
X008770Y005435D03*
X008770Y005430D03*
X008770Y005425D03*
X008770Y005420D03*
X008770Y005415D03*
X008770Y005410D03*
X008770Y005405D03*
X008770Y005400D03*
X008770Y005395D03*
X008770Y005390D03*
X008770Y005385D03*
X008770Y005380D03*
X008770Y005375D03*
X008770Y005370D03*
X008770Y005365D03*
X008770Y005360D03*
X008770Y005355D03*
X008770Y005350D03*
X008770Y005345D03*
X008770Y005340D03*
X008770Y005335D03*
X008770Y005330D03*
X008770Y005325D03*
X008770Y005320D03*
X008770Y005315D03*
X008770Y005310D03*
X008770Y005305D03*
X008770Y005300D03*
X008770Y005295D03*
X008770Y005290D03*
X008770Y005285D03*
X008770Y005280D03*
X008770Y005275D03*
X008770Y005270D03*
X008770Y005265D03*
X008770Y005260D03*
X008770Y005255D03*
X008770Y005250D03*
X008770Y005245D03*
X008770Y005240D03*
X008770Y005235D03*
X008955Y005235D03*
X008955Y005240D03*
X008955Y005245D03*
X008955Y005250D03*
X008955Y005255D03*
X008955Y005260D03*
X008955Y005265D03*
X008955Y005270D03*
X008955Y005275D03*
X008955Y005280D03*
X008955Y005285D03*
X008955Y005290D03*
X008955Y005295D03*
X008955Y005300D03*
X008955Y005305D03*
X008955Y005310D03*
X008955Y005315D03*
X008955Y005320D03*
X008955Y005325D03*
X008955Y005330D03*
X008955Y005335D03*
X008955Y005340D03*
X008955Y005345D03*
X008955Y005350D03*
X008955Y005355D03*
X008955Y005360D03*
X008955Y005365D03*
X008955Y005370D03*
X008955Y005375D03*
X008955Y005380D03*
X008955Y005385D03*
X008955Y005390D03*
X008955Y005395D03*
X008955Y005400D03*
X008955Y005405D03*
X008955Y005410D03*
X008910Y005500D03*
X008770Y005500D03*
X008770Y005505D03*
X008770Y005510D03*
X008770Y005515D03*
X008770Y005520D03*
X008770Y005525D03*
X008770Y005530D03*
X008770Y005535D03*
X008770Y005540D03*
X008770Y005545D03*
X008770Y005550D03*
X008770Y005555D03*
X008770Y005560D03*
X008770Y005565D03*
X008770Y005570D03*
X008770Y005575D03*
X008770Y005580D03*
X008770Y005585D03*
X008770Y005590D03*
X008770Y005595D03*
X008770Y005600D03*
X008770Y005495D03*
X008770Y005490D03*
X008770Y005485D03*
X008770Y005480D03*
X008770Y005475D03*
X009145Y005450D03*
X009145Y005445D03*
X009145Y005440D03*
X009145Y005435D03*
X009145Y005430D03*
X009145Y005425D03*
X009145Y005420D03*
X009145Y005415D03*
X009145Y005410D03*
X009145Y005405D03*
X009145Y005400D03*
X009145Y005395D03*
X009145Y005390D03*
X009145Y005385D03*
X009145Y005380D03*
X009145Y005375D03*
X009145Y005370D03*
X009145Y005365D03*
X009145Y005360D03*
X009145Y005355D03*
X009145Y005350D03*
X009145Y005345D03*
X009145Y005340D03*
X009145Y005335D03*
X009145Y005330D03*
X009145Y005325D03*
X009145Y005320D03*
X009145Y005315D03*
X009145Y005310D03*
X009145Y005305D03*
X009145Y005300D03*
X009145Y005295D03*
X009145Y005290D03*
X009145Y005285D03*
X009145Y005280D03*
X009145Y005275D03*
X009145Y005270D03*
X009145Y005265D03*
X009145Y005260D03*
X009145Y005255D03*
X009145Y005250D03*
X009145Y005245D03*
X009145Y005240D03*
X009145Y005235D03*
X009335Y005235D03*
X009335Y005240D03*
X009335Y005245D03*
X009335Y005250D03*
X009335Y005255D03*
X009335Y005260D03*
X009335Y005265D03*
X009335Y005270D03*
X009335Y005275D03*
X009335Y005280D03*
X009335Y005285D03*
X009335Y005290D03*
X009335Y005295D03*
X009335Y005300D03*
X009335Y005305D03*
X009335Y005310D03*
X009335Y005315D03*
X009335Y005320D03*
X009335Y005325D03*
X009335Y005330D03*
X009335Y005335D03*
X009335Y005340D03*
X009335Y005345D03*
X009335Y005350D03*
X009335Y005355D03*
X009335Y005360D03*
X009335Y005365D03*
X009335Y005370D03*
X009335Y005375D03*
X009335Y005380D03*
X009335Y005385D03*
X009335Y005390D03*
X009335Y005395D03*
X009335Y005400D03*
X009335Y005405D03*
X009335Y005410D03*
X009335Y005415D03*
X009335Y005420D03*
X009335Y005425D03*
X009335Y005430D03*
X009335Y005435D03*
X009335Y005440D03*
X009475Y005500D03*
X009520Y005410D03*
X009520Y005405D03*
X009520Y005400D03*
X009520Y005395D03*
X009520Y005390D03*
X009520Y005385D03*
X009520Y005380D03*
X009520Y005375D03*
X009520Y005370D03*
X009520Y005365D03*
X009520Y005360D03*
X009520Y005355D03*
X009520Y005350D03*
X009520Y005345D03*
X009520Y005340D03*
X009520Y005335D03*
X009520Y005330D03*
X009520Y005325D03*
X009520Y005320D03*
X009520Y005315D03*
X009520Y005310D03*
X009520Y005305D03*
X009520Y005300D03*
X009520Y005295D03*
X009520Y005290D03*
X009520Y005285D03*
X009520Y005280D03*
X009520Y005275D03*
X009520Y005270D03*
X009520Y005265D03*
X009520Y005260D03*
X009520Y005255D03*
X009520Y005250D03*
X009520Y005245D03*
X009520Y005240D03*
X009520Y005235D03*
X009680Y005180D03*
X009680Y005175D03*
X009675Y005165D03*
X009675Y005160D03*
X009675Y005155D03*
X009675Y005150D03*
X009675Y005145D03*
X009730Y005260D03*
X009835Y005340D03*
X009840Y005345D03*
X009845Y005350D03*
X009850Y005360D03*
X009855Y005370D03*
X009855Y005375D03*
X009855Y005380D03*
X009860Y005385D03*
X009860Y005390D03*
X009860Y005395D03*
X009860Y005400D03*
X009860Y005405D03*
X009860Y005410D03*
X009860Y005415D03*
X009860Y005420D03*
X009860Y005425D03*
X009855Y005435D03*
X009855Y005440D03*
X009850Y005450D03*
X009705Y005460D03*
X009700Y005455D03*
X009695Y005445D03*
X009695Y005440D03*
X009690Y005430D03*
X009690Y005425D03*
X009890Y005165D03*
X009890Y005160D03*
X009890Y005155D03*
X010105Y005195D03*
X010215Y005265D03*
X010395Y005445D03*
X010050Y005555D03*
X010045Y005550D03*
X010045Y005545D03*
X010040Y005535D03*
X010040Y005530D03*
X010040Y005525D03*
X010905Y005620D03*
X010905Y005195D03*
X008300Y004385D03*
D27*
X008300Y004390D03*
X007860Y004735D03*
X007860Y004865D03*
X008005Y005195D03*
X008200Y005285D03*
X008550Y005255D03*
X008550Y005250D03*
X008770Y005230D03*
X008955Y005230D03*
X009145Y005230D03*
X009335Y005230D03*
X009520Y005230D03*
X009685Y005120D03*
X009885Y005180D03*
X009710Y005340D03*
X009690Y005380D03*
X009720Y005475D03*
X009515Y005435D03*
X009515Y005430D03*
X009510Y005440D03*
X009340Y005445D03*
X009140Y005485D03*
X008950Y005430D03*
X008945Y005440D03*
X008775Y005445D03*
X008155Y005620D03*
X007885Y005635D03*
X007760Y005760D03*
X007840Y005965D03*
X010040Y005500D03*
X010040Y005495D03*
X010070Y005575D03*
X010215Y005580D03*
X010380Y005415D03*
X010375Y005400D03*
X010375Y005395D03*
X010375Y005390D03*
X010370Y005380D03*
X010370Y005375D03*
X010370Y005370D03*
X010370Y005365D03*
X010370Y005360D03*
X010370Y005355D03*
X010370Y005350D03*
X010370Y005345D03*
X010370Y005340D03*
X010370Y005335D03*
X010370Y005330D03*
X010370Y005325D03*
X010370Y005320D03*
X010375Y005310D03*
X010375Y005305D03*
X010375Y005300D03*
X010380Y005285D03*
X010385Y005270D03*
X010410Y005235D03*
X010585Y005285D03*
X010590Y005300D03*
X010590Y005305D03*
X010590Y005310D03*
X010595Y005320D03*
X010595Y005325D03*
X010595Y005330D03*
X010595Y005335D03*
X010595Y005340D03*
X010595Y005345D03*
X010595Y005350D03*
X010595Y005355D03*
X010595Y005360D03*
X010595Y005365D03*
X010595Y005370D03*
X010595Y005375D03*
X010595Y005380D03*
X010590Y005390D03*
X010590Y005395D03*
X010590Y005400D03*
X010585Y005415D03*
X010735Y005445D03*
X010740Y005470D03*
X010745Y005485D03*
X010750Y005500D03*
X010755Y005510D03*
X010760Y005520D03*
X010735Y005370D03*
X010740Y005345D03*
X010745Y005330D03*
X010750Y005315D03*
X010755Y005305D03*
X010225Y005305D03*
X010225Y005300D03*
X010225Y005295D03*
X010205Y005250D03*
X010200Y005245D03*
D28*
X010220Y005325D03*
X010050Y005475D03*
X010045Y005480D03*
X010045Y005485D03*
X009880Y005185D03*
X009505Y005445D03*
X009325Y005485D03*
X008940Y005445D03*
X008760Y005635D03*
X008585Y005200D03*
X008155Y005625D03*
X008010Y005505D03*
X007885Y005630D03*
X007760Y005755D03*
X008155Y006175D03*
X010795Y005560D03*
X010800Y005565D03*
X010775Y005275D03*
X010785Y005265D03*
X010790Y005260D03*
X010795Y005255D03*
X008300Y004395D03*
D29*
X008300Y004400D03*
X008250Y004700D03*
X008250Y004705D03*
X008255Y004720D03*
X008255Y004725D03*
X008255Y004730D03*
X008255Y004735D03*
X008255Y004740D03*
X008260Y004755D03*
X008260Y004760D03*
X008260Y004840D03*
X008260Y004845D03*
X008260Y004850D03*
X008255Y004870D03*
X008255Y004875D03*
X008255Y004880D03*
X008250Y004900D03*
X008080Y004860D03*
X008080Y004855D03*
X008085Y004840D03*
X008085Y004835D03*
X008090Y004820D03*
X008090Y004815D03*
X008090Y004810D03*
X008090Y004805D03*
X008090Y004800D03*
X008090Y004795D03*
X008090Y004790D03*
X008090Y004785D03*
X008090Y004780D03*
X008085Y004770D03*
X008085Y004765D03*
X008085Y004760D03*
X008080Y004745D03*
X008080Y004740D03*
X007860Y004740D03*
X007860Y004860D03*
X008430Y004895D03*
X008430Y004900D03*
X008430Y004700D03*
X008560Y005240D03*
X008200Y005290D03*
X008010Y005210D03*
X007975Y005300D03*
X007975Y005305D03*
X007975Y005310D03*
X007970Y005320D03*
X007970Y005325D03*
X007970Y005330D03*
X007970Y005335D03*
X007965Y005345D03*
X007965Y005360D03*
X007965Y005365D03*
X007970Y005370D03*
X007970Y005375D03*
X007970Y005380D03*
X007970Y005385D03*
X007975Y005395D03*
X007975Y005400D03*
X007975Y005405D03*
X007975Y005410D03*
X008010Y005500D03*
X007885Y005625D03*
X007760Y005750D03*
X007840Y005840D03*
X007840Y005960D03*
X008030Y006045D03*
X008065Y005955D03*
X008065Y005950D03*
X008065Y005945D03*
X008065Y005940D03*
X008065Y005935D03*
X008070Y005925D03*
X008070Y005920D03*
X008070Y005915D03*
X008070Y005910D03*
X008070Y005905D03*
X008070Y005900D03*
X008070Y005895D03*
X008070Y005890D03*
X008070Y005885D03*
X008070Y005880D03*
X008070Y005875D03*
X008065Y005865D03*
X008065Y005860D03*
X008065Y005855D03*
X008065Y005850D03*
X008065Y005845D03*
X008030Y005755D03*
X008155Y005630D03*
X008230Y005795D03*
X008235Y005805D03*
X008235Y005810D03*
X008235Y005815D03*
X008235Y005820D03*
X008240Y005830D03*
X008240Y005835D03*
X008240Y005840D03*
X008240Y005845D03*
X008240Y005850D03*
X008245Y005860D03*
X008245Y005865D03*
X008245Y005870D03*
X008245Y005875D03*
X008245Y005880D03*
X008245Y005885D03*
X008245Y005890D03*
X008245Y005895D03*
X008245Y005900D03*
X008245Y005905D03*
X008245Y005910D03*
X008245Y005915D03*
X008245Y005920D03*
X008245Y005925D03*
X008245Y005930D03*
X008245Y005935D03*
X008245Y005940D03*
X008240Y005950D03*
X008240Y005955D03*
X008240Y005960D03*
X008240Y005965D03*
X008240Y005970D03*
X008235Y005985D03*
X008235Y005990D03*
X008235Y005995D03*
X008230Y006005D03*
X008410Y005995D03*
X008410Y005990D03*
X008410Y005985D03*
X008410Y005980D03*
X008410Y005975D03*
X008410Y005970D03*
X008410Y005965D03*
X008415Y005950D03*
X008415Y005945D03*
X008415Y005940D03*
X008415Y005935D03*
X008415Y005930D03*
X008415Y005925D03*
X008415Y005920D03*
X008415Y005915D03*
X008415Y005910D03*
X008415Y005905D03*
X008415Y005900D03*
X008415Y005895D03*
X008415Y005890D03*
X008415Y005885D03*
X008415Y005880D03*
X008415Y005875D03*
X008415Y005870D03*
X008415Y005865D03*
X008415Y005860D03*
X008415Y005855D03*
X008415Y005850D03*
X008415Y005845D03*
X008410Y005815D03*
X008410Y005810D03*
X008410Y005805D03*
X008410Y005800D03*
X008155Y006170D03*
X007805Y005450D03*
X007805Y005445D03*
X007800Y005425D03*
X007800Y005420D03*
X007795Y005395D03*
X007795Y005390D03*
X007795Y005385D03*
X007795Y005380D03*
X007795Y005375D03*
X007795Y005370D03*
X007795Y005365D03*
X007795Y005360D03*
X007795Y005355D03*
X007795Y005350D03*
X007795Y005345D03*
X007795Y005340D03*
X007795Y005335D03*
X007795Y005330D03*
X007795Y005325D03*
X007795Y005320D03*
X007795Y005315D03*
X007795Y005310D03*
X007800Y005285D03*
X007800Y005280D03*
X007805Y005260D03*
X007805Y005255D03*
X007635Y005220D03*
X007630Y005245D03*
X007630Y005250D03*
X007625Y005260D03*
X007625Y005265D03*
X007625Y005270D03*
X007620Y005300D03*
X007620Y005305D03*
X007620Y005310D03*
X007620Y005315D03*
X007620Y005320D03*
X007620Y005325D03*
X007620Y005330D03*
X007620Y005335D03*
X007620Y005340D03*
X007620Y005345D03*
X007620Y005350D03*
X007620Y005355D03*
X007620Y005360D03*
X007620Y005365D03*
X007620Y005370D03*
X007620Y005375D03*
X007620Y005380D03*
X007620Y005385D03*
X007620Y005390D03*
X007620Y005395D03*
X007620Y005400D03*
X007620Y005405D03*
X007625Y005420D03*
X007625Y005425D03*
X007625Y005430D03*
X007625Y005435D03*
X007625Y005440D03*
X007625Y005445D03*
X007630Y005455D03*
X007630Y005460D03*
X007635Y005485D03*
X008935Y005450D03*
X009320Y005480D03*
X009350Y005450D03*
X009500Y005450D03*
X009775Y005500D03*
X010055Y005470D03*
X010210Y005340D03*
X010215Y005335D03*
X010180Y005235D03*
X009875Y005190D03*
X009770Y005310D03*
X010480Y005200D03*
X010810Y005245D03*
X010485Y005500D03*
X010815Y005575D03*
D30*
X010205Y005350D03*
X009865Y005195D03*
X009470Y005490D03*
X009315Y005475D03*
X009125Y005475D03*
X009125Y005470D03*
X009125Y005465D03*
X009125Y005460D03*
X009125Y005455D03*
X008905Y005490D03*
X008385Y005705D03*
X008385Y005710D03*
X008385Y005715D03*
X008390Y005720D03*
X008390Y005725D03*
X008390Y005730D03*
X008395Y005745D03*
X008405Y005780D03*
X008405Y005785D03*
X008380Y005700D03*
X008380Y005695D03*
X008375Y005690D03*
X008375Y005685D03*
X008375Y005680D03*
X008370Y005675D03*
X008370Y005670D03*
X008365Y005660D03*
X008210Y005735D03*
X008210Y005740D03*
X008215Y005750D03*
X008220Y005760D03*
X008205Y005730D03*
X008205Y005725D03*
X008200Y005720D03*
X008195Y005710D03*
X008155Y005635D03*
X008045Y005800D03*
X008050Y005810D03*
X008055Y005820D03*
X008055Y005980D03*
X008050Y005990D03*
X008045Y006000D03*
X008040Y006010D03*
X008195Y006090D03*
X008200Y006080D03*
X008205Y006075D03*
X008205Y006070D03*
X008210Y006065D03*
X008210Y006060D03*
X008215Y006050D03*
X008215Y006045D03*
X008155Y006165D03*
X008370Y006125D03*
X008375Y006115D03*
X008380Y006100D03*
X008380Y006095D03*
X008385Y006085D03*
X008385Y006080D03*
X008390Y006075D03*
X008390Y006070D03*
X008390Y006065D03*
X008395Y006060D03*
X008395Y006055D03*
X008395Y006050D03*
X008400Y006035D03*
X008405Y006020D03*
X008405Y006015D03*
X008405Y006010D03*
X007840Y005955D03*
X007840Y005845D03*
X007760Y005745D03*
X007690Y005625D03*
X007675Y005595D03*
X007670Y005590D03*
X007670Y005585D03*
X007665Y005580D03*
X007665Y005575D03*
X007660Y005565D03*
X007660Y005560D03*
X007655Y005555D03*
X007655Y005550D03*
X007650Y005535D03*
X007640Y005505D03*
X007810Y005465D03*
X007815Y005480D03*
X007820Y005490D03*
X007820Y005495D03*
X007825Y005500D03*
X007825Y005505D03*
X007825Y005510D03*
X007830Y005515D03*
X007835Y005525D03*
X007845Y005545D03*
X007885Y005620D03*
X008010Y005490D03*
X007995Y005455D03*
X007990Y005450D03*
X007990Y005445D03*
X007985Y005435D03*
X007985Y005270D03*
X007990Y005260D03*
X008010Y005215D03*
X007885Y005090D03*
X007840Y005165D03*
X007835Y005180D03*
X007830Y005190D03*
X007825Y005200D03*
X007825Y005205D03*
X007820Y005210D03*
X007820Y005215D03*
X007815Y005225D03*
X007650Y005170D03*
X007650Y005165D03*
X007655Y005155D03*
X007655Y005150D03*
X007660Y005145D03*
X007660Y005140D03*
X007665Y005130D03*
X007665Y005125D03*
X007670Y005120D03*
X007670Y005115D03*
X007675Y005110D03*
X007690Y005080D03*
X007760Y004965D03*
X007860Y004855D03*
X007860Y004745D03*
X008045Y004660D03*
X008055Y004685D03*
X008065Y004705D03*
X008070Y004715D03*
X008070Y004885D03*
X008065Y004895D03*
X008060Y004905D03*
X008055Y004915D03*
X008045Y004940D03*
X008210Y004995D03*
X008215Y004990D03*
X008215Y004985D03*
X008220Y004980D03*
X008220Y004975D03*
X008225Y004970D03*
X008225Y004965D03*
X008230Y004960D03*
X008230Y004955D03*
X008235Y004945D03*
X008240Y004930D03*
X008410Y004975D03*
X008410Y004980D03*
X008405Y004995D03*
X008400Y005005D03*
X008395Y005015D03*
X008395Y005020D03*
X008395Y005025D03*
X008390Y005030D03*
X008385Y005040D03*
X008415Y004960D03*
X008420Y004950D03*
X008420Y004945D03*
X008170Y005065D03*
X008200Y005295D03*
X008435Y004735D03*
X008435Y004730D03*
X008435Y004725D03*
X008435Y004720D03*
X008425Y004675D03*
X008425Y004670D03*
X008420Y004655D03*
X008420Y004650D03*
X008415Y004645D03*
X008415Y004640D03*
X008415Y004635D03*
X008410Y004625D03*
X008410Y004620D03*
X008410Y004615D03*
X008405Y004605D03*
X008395Y004580D03*
X008230Y004640D03*
X008230Y004645D03*
X008235Y004655D03*
X008235Y004660D03*
X008225Y004635D03*
X008225Y004630D03*
X008220Y004625D03*
X008215Y004615D03*
X008210Y004605D03*
X008170Y004535D03*
X008300Y004405D03*
D31*
X008298Y004410D03*
X008368Y004525D03*
X008383Y004550D03*
X008383Y004555D03*
X008388Y004560D03*
X008388Y004565D03*
X008393Y004570D03*
X008393Y004575D03*
X008398Y004585D03*
X008398Y004590D03*
X008403Y004595D03*
X008403Y004600D03*
X008408Y004610D03*
X008218Y004620D03*
X008213Y004610D03*
X008208Y004600D03*
X008203Y004595D03*
X008203Y004590D03*
X008198Y004585D03*
X008048Y004665D03*
X008048Y004670D03*
X008048Y004675D03*
X008053Y004680D03*
X008058Y004690D03*
X008058Y004695D03*
X008063Y004700D03*
X008063Y004900D03*
X008058Y004910D03*
X008053Y004920D03*
X008208Y005000D03*
X008203Y005010D03*
X008368Y005070D03*
X008368Y005075D03*
X008373Y005065D03*
X008378Y005060D03*
X008378Y005055D03*
X008383Y005050D03*
X008383Y005045D03*
X008388Y005035D03*
X008398Y005010D03*
X008403Y005000D03*
X008298Y005190D03*
X008198Y005405D03*
X008278Y005510D03*
X008343Y005620D03*
X008348Y005625D03*
X008348Y005630D03*
X008353Y005635D03*
X008353Y005640D03*
X008358Y005645D03*
X008358Y005650D03*
X008363Y005655D03*
X008368Y005665D03*
X008198Y005715D03*
X008193Y005705D03*
X008188Y005700D03*
X008188Y005695D03*
X008183Y005690D03*
X008183Y005685D03*
X008178Y005680D03*
X008153Y005640D03*
X008028Y005765D03*
X008028Y005770D03*
X008038Y005785D03*
X008043Y005790D03*
X008043Y005795D03*
X008043Y006005D03*
X008038Y006015D03*
X008028Y006030D03*
X008028Y006035D03*
X008183Y006110D03*
X008183Y006115D03*
X008188Y006105D03*
X008188Y006100D03*
X008193Y006095D03*
X008198Y006085D03*
X008153Y006160D03*
X008278Y006290D03*
X008348Y006170D03*
X008353Y006160D03*
X008358Y006150D03*
X008363Y006140D03*
X008368Y006135D03*
X008368Y006130D03*
X008373Y006120D03*
X008378Y006110D03*
X008378Y006105D03*
X007763Y005740D03*
X007698Y005640D03*
X007693Y005630D03*
X007688Y005620D03*
X007683Y005615D03*
X007683Y005610D03*
X007678Y005605D03*
X007678Y005600D03*
X007838Y005535D03*
X007838Y005530D03*
X007843Y005540D03*
X007848Y005550D03*
X007853Y005560D03*
X007833Y005520D03*
X007998Y005460D03*
X008003Y005470D03*
X007993Y005255D03*
X007998Y005250D03*
X007998Y005245D03*
X008003Y005235D03*
X008013Y005220D03*
X007853Y005145D03*
X007848Y005155D03*
X007843Y005160D03*
X007838Y005170D03*
X007838Y005175D03*
X007833Y005185D03*
X007828Y005195D03*
X007678Y005105D03*
X007678Y005100D03*
X007683Y005095D03*
X007683Y005090D03*
X007688Y005085D03*
X007693Y005075D03*
X007698Y005070D03*
X008593Y005205D03*
X008748Y005605D03*
X008748Y005610D03*
X008748Y005615D03*
X008748Y005620D03*
X008748Y005625D03*
X009763Y005070D03*
X010203Y005355D03*
X010068Y005455D03*
X010148Y005615D03*
X010828Y005580D03*
D32*
X010908Y005615D03*
X010073Y005450D03*
X009778Y005495D03*
X009468Y005485D03*
X008903Y005485D03*
X008328Y005595D03*
X008323Y005585D03*
X008313Y005570D03*
X008308Y005565D03*
X008298Y005550D03*
X008293Y005545D03*
X008278Y005520D03*
X008198Y005400D03*
X008198Y005305D03*
X008298Y005180D03*
X008318Y005150D03*
X008328Y005135D03*
X008333Y005130D03*
X008338Y005125D03*
X008338Y005120D03*
X008343Y005115D03*
X008348Y005110D03*
X008353Y005100D03*
X008193Y005025D03*
X008188Y005030D03*
X008183Y005035D03*
X008178Y005045D03*
X008173Y005050D03*
X008173Y005055D03*
X007883Y005100D03*
X007883Y005105D03*
X007873Y005120D03*
X007868Y005125D03*
X007863Y005130D03*
X007733Y005015D03*
X007728Y005020D03*
X007723Y005025D03*
X007738Y005005D03*
X007743Y005000D03*
X007758Y004975D03*
X007708Y005050D03*
X007863Y004845D03*
X007858Y004755D03*
X008183Y004565D03*
X008188Y004570D03*
X008178Y004555D03*
X008173Y004550D03*
X008173Y004545D03*
X008338Y004475D03*
X008343Y004485D03*
X008348Y004490D03*
X008353Y004495D03*
X008353Y004500D03*
X008358Y004505D03*
X008298Y004415D03*
X010103Y005200D03*
X008333Y006195D03*
X008328Y006205D03*
X008323Y006210D03*
X008323Y006215D03*
X008318Y006220D03*
X008278Y006280D03*
X008158Y006150D03*
X008158Y006145D03*
X008163Y006140D03*
X008168Y006135D03*
X007843Y005945D03*
X007758Y005730D03*
X007743Y005705D03*
X007738Y005700D03*
X007733Y005690D03*
X007728Y005685D03*
X007723Y005680D03*
X007713Y005665D03*
X007863Y005575D03*
X007868Y005580D03*
X007873Y005585D03*
X007883Y005605D03*
X008158Y005650D03*
X008158Y005655D03*
X008163Y005660D03*
X008168Y005665D03*
D33*
X008300Y005555D03*
X008305Y005560D03*
X008290Y005540D03*
X008285Y005535D03*
X008280Y005525D03*
X008200Y005310D03*
X008300Y005175D03*
X008305Y005165D03*
X008310Y005160D03*
X008315Y005155D03*
X008320Y005145D03*
X008325Y005140D03*
X008180Y005040D03*
X007880Y005110D03*
X007875Y005115D03*
X007735Y005010D03*
X007745Y004995D03*
X007750Y004990D03*
X007755Y004985D03*
X007755Y004980D03*
X007860Y004840D03*
X007860Y004760D03*
X008180Y004560D03*
X008325Y004460D03*
X008330Y004465D03*
X008335Y004470D03*
X008340Y004480D03*
X008320Y004450D03*
X008315Y004445D03*
X008300Y004420D03*
X009770Y005315D03*
X010080Y005445D03*
X010190Y005365D03*
X010485Y005495D03*
X010480Y005205D03*
X010905Y005200D03*
X008315Y006225D03*
X008310Y006230D03*
X008305Y006235D03*
X008300Y006245D03*
X008295Y006250D03*
X008280Y006275D03*
X007840Y005940D03*
X007840Y005860D03*
X007840Y005855D03*
X007755Y005725D03*
X007755Y005720D03*
X007750Y005715D03*
X007745Y005710D03*
X007735Y005695D03*
X007880Y005600D03*
X007880Y005595D03*
X007875Y005590D03*
D34*
X008198Y005395D03*
X008198Y005390D03*
X008283Y005530D03*
X008303Y005170D03*
X008323Y004455D03*
X008313Y004440D03*
X008308Y004435D03*
X008303Y004430D03*
X008303Y004425D03*
X009763Y005250D03*
X009853Y005200D03*
X010183Y005370D03*
X010088Y005440D03*
X009883Y005455D03*
X008303Y006240D03*
X008293Y006255D03*
X008288Y006260D03*
X008283Y006265D03*
X008283Y006270D03*
D35*
X008278Y006315D03*
X008158Y006190D03*
X008033Y006065D03*
X007843Y005970D03*
X007843Y005830D03*
X008033Y005735D03*
X007883Y005645D03*
X008008Y005520D03*
X008158Y005610D03*
X008278Y005485D03*
X008548Y005500D03*
X008548Y005505D03*
X008298Y005215D03*
X008203Y005280D03*
X008173Y005090D03*
X008048Y004965D03*
X007883Y005065D03*
X007758Y004940D03*
X008048Y004635D03*
X008173Y004510D03*
X009678Y005170D03*
X009683Y005185D03*
X009688Y005190D03*
X009693Y005195D03*
X009763Y005065D03*
X009858Y005105D03*
X009863Y005110D03*
X009873Y005120D03*
X009878Y005125D03*
X009883Y005130D03*
X009883Y005135D03*
X009888Y005140D03*
X009888Y005145D03*
X009888Y005150D03*
X010023Y005240D03*
X009848Y005355D03*
X009853Y005365D03*
X009858Y005430D03*
X009853Y005445D03*
X010143Y005620D03*
X010223Y005575D03*
X010993Y005575D03*
X009148Y005570D03*
X009148Y005625D03*
X009148Y005490D03*
D36*
X008340Y005615D03*
X008335Y005610D03*
X008335Y005605D03*
X008330Y005600D03*
X008325Y005590D03*
X008320Y005580D03*
X008315Y005575D03*
X008275Y005515D03*
X008155Y005645D03*
X008170Y005670D03*
X008175Y005675D03*
X008035Y005780D03*
X008030Y005775D03*
X007840Y005850D03*
X007840Y005950D03*
X008030Y006025D03*
X008035Y006020D03*
X008175Y006120D03*
X008175Y006125D03*
X008170Y006130D03*
X008155Y006155D03*
X008275Y006285D03*
X008330Y006200D03*
X008335Y006190D03*
X008340Y006185D03*
X008340Y006180D03*
X008345Y006175D03*
X008350Y006165D03*
X008355Y006155D03*
X008360Y006145D03*
X007760Y005735D03*
X007720Y005675D03*
X007715Y005670D03*
X007710Y005660D03*
X007705Y005655D03*
X007705Y005650D03*
X007700Y005645D03*
X007695Y005635D03*
X007850Y005555D03*
X007855Y005565D03*
X007860Y005570D03*
X007885Y005610D03*
X007885Y005615D03*
X008010Y005485D03*
X008010Y005480D03*
X008005Y005475D03*
X008000Y005465D03*
X008000Y005240D03*
X008005Y005230D03*
X008010Y005225D03*
X007860Y005135D03*
X007855Y005140D03*
X007850Y005150D03*
X007885Y005095D03*
X007760Y004970D03*
X007720Y005030D03*
X007715Y005035D03*
X007715Y005040D03*
X007710Y005045D03*
X007705Y005055D03*
X007700Y005060D03*
X007700Y005065D03*
X007860Y004850D03*
X007860Y004750D03*
X008045Y004930D03*
X008045Y004935D03*
X008050Y004925D03*
X008195Y005020D03*
X008200Y005015D03*
X008205Y005005D03*
X008170Y005060D03*
X008295Y005185D03*
X008350Y005105D03*
X008355Y005095D03*
X008360Y005090D03*
X008360Y005085D03*
X008365Y005080D03*
X008200Y005300D03*
X008195Y004580D03*
X008190Y004575D03*
X008170Y004540D03*
X008360Y004515D03*
X008360Y004510D03*
X008365Y004520D03*
X008370Y004530D03*
X008375Y004535D03*
X008375Y004540D03*
X008380Y004545D03*
X010195Y005360D03*
X010830Y005235D03*
D37*
X010988Y005235D03*
X010593Y005315D03*
X010588Y005295D03*
X010588Y005290D03*
X010583Y005280D03*
X010583Y005275D03*
X010578Y005270D03*
X010578Y005265D03*
X010573Y005260D03*
X010573Y005255D03*
X010568Y005250D03*
X010563Y005245D03*
X010558Y005240D03*
X010553Y005235D03*
X010408Y005240D03*
X010403Y005245D03*
X010398Y005250D03*
X010393Y005255D03*
X010393Y005260D03*
X010388Y005265D03*
X010383Y005275D03*
X010383Y005280D03*
X010378Y005290D03*
X010378Y005295D03*
X010373Y005315D03*
X010373Y005385D03*
X010378Y005405D03*
X010378Y005410D03*
X010383Y005420D03*
X010383Y005425D03*
X010388Y005430D03*
X010388Y005435D03*
X010393Y005440D03*
X010398Y005450D03*
X010403Y005455D03*
X010408Y005460D03*
X010413Y005465D03*
X010558Y005460D03*
X010563Y005455D03*
X010568Y005450D03*
X010573Y005445D03*
X010573Y005440D03*
X010578Y005435D03*
X010578Y005430D03*
X010583Y005425D03*
X010583Y005420D03*
X010588Y005410D03*
X010588Y005405D03*
X010593Y005385D03*
X010223Y005290D03*
X010223Y005285D03*
X010223Y005280D03*
X010218Y005275D03*
X010218Y005270D03*
X010213Y005260D03*
X010208Y005255D03*
X010038Y005505D03*
X010038Y005510D03*
X010038Y005515D03*
X010038Y005520D03*
X010043Y005540D03*
X010053Y005560D03*
X010058Y005565D03*
X010063Y005570D03*
X009828Y005335D03*
X009763Y005305D03*
X009708Y005345D03*
X009703Y005350D03*
X009698Y005355D03*
X009698Y005360D03*
X009693Y005365D03*
X009693Y005370D03*
X009693Y005375D03*
X009688Y005385D03*
X009688Y005390D03*
X009688Y005395D03*
X009688Y005400D03*
X009688Y005405D03*
X009688Y005410D03*
X009688Y005415D03*
X009688Y005420D03*
X009693Y005435D03*
X009698Y005450D03*
X009708Y005465D03*
X009713Y005470D03*
X009518Y005425D03*
X009518Y005420D03*
X009518Y005415D03*
X009333Y005490D03*
X009148Y005575D03*
X009148Y005580D03*
X009148Y005615D03*
X009148Y005620D03*
X008948Y005435D03*
X008953Y005425D03*
X008953Y005420D03*
X008953Y005415D03*
X008768Y005640D03*
X008543Y005495D03*
X008278Y005490D03*
X008198Y005420D03*
X008008Y005515D03*
X007883Y005640D03*
X008033Y005740D03*
X008158Y005615D03*
X008298Y005210D03*
X008173Y005085D03*
X008048Y004960D03*
X007883Y005070D03*
X007758Y004945D03*
X008048Y004640D03*
X008173Y004515D03*
X008548Y005260D03*
X008548Y005265D03*
X009678Y005140D03*
X009678Y005135D03*
X009678Y005130D03*
X009683Y005125D03*
X009848Y005100D03*
X009888Y005170D03*
X009888Y005175D03*
X008158Y006185D03*
X008278Y006310D03*
X008033Y006060D03*
D38*
X008033Y006055D03*
X008158Y006180D03*
X008278Y006305D03*
X007843Y005835D03*
X008033Y005745D03*
X008008Y005510D03*
X008278Y005495D03*
X008538Y005490D03*
X008553Y005245D03*
X008298Y005205D03*
X008173Y005080D03*
X008048Y004955D03*
X007883Y005075D03*
X008008Y005200D03*
X007758Y004950D03*
X008048Y004645D03*
X008173Y004520D03*
X009688Y005115D03*
X009693Y005110D03*
X009698Y005105D03*
X009718Y005335D03*
X010033Y005235D03*
X010193Y005240D03*
X010223Y005310D03*
X010223Y005315D03*
X010223Y005320D03*
X010423Y005230D03*
X010543Y005230D03*
X010748Y005320D03*
X010748Y005325D03*
X010743Y005335D03*
X010743Y005340D03*
X010738Y005350D03*
X010738Y005355D03*
X010738Y005360D03*
X010738Y005365D03*
X010733Y005375D03*
X010733Y005380D03*
X010733Y005385D03*
X010733Y005390D03*
X010733Y005395D03*
X010733Y005400D03*
X010733Y005405D03*
X010733Y005410D03*
X010733Y005415D03*
X010733Y005420D03*
X010733Y005425D03*
X010733Y005430D03*
X010733Y005435D03*
X010733Y005440D03*
X010738Y005450D03*
X010738Y005455D03*
X010738Y005460D03*
X010738Y005465D03*
X010743Y005475D03*
X010743Y005480D03*
X010748Y005490D03*
X010748Y005495D03*
X010753Y005505D03*
X010758Y005515D03*
X010763Y005525D03*
X010768Y005530D03*
X010768Y005535D03*
X010773Y005540D03*
X010778Y005545D03*
X010783Y005550D03*
X010788Y005555D03*
X010983Y005580D03*
X010553Y005465D03*
X010543Y005470D03*
X010423Y005470D03*
X010753Y005310D03*
X010758Y005300D03*
X010763Y005295D03*
X010763Y005290D03*
X010768Y005285D03*
X010773Y005280D03*
X010778Y005270D03*
X010043Y005490D03*
X009148Y005585D03*
X009148Y005590D03*
X009148Y005595D03*
X009148Y005600D03*
X009148Y005605D03*
X009148Y005610D03*
D39*
X009133Y005480D03*
X008908Y005495D03*
X009473Y005495D03*
X009703Y005100D03*
X010218Y005330D03*
X010078Y005580D03*
X010808Y005570D03*
X010803Y005250D03*
X008298Y005200D03*
X008173Y005075D03*
X008048Y004950D03*
X008083Y004850D03*
X008083Y004845D03*
X008083Y004755D03*
X008083Y004750D03*
X008048Y004650D03*
X008173Y004525D03*
X008263Y004765D03*
X008263Y004770D03*
X008263Y004775D03*
X008263Y004780D03*
X008263Y004785D03*
X008263Y004790D03*
X008263Y004795D03*
X008263Y004800D03*
X008263Y004805D03*
X008263Y004810D03*
X008263Y004815D03*
X008263Y004820D03*
X008263Y004825D03*
X008263Y004830D03*
X008263Y004835D03*
X007883Y005080D03*
X008008Y005205D03*
X007973Y005315D03*
X007968Y005340D03*
X007968Y005350D03*
X007968Y005355D03*
X007973Y005390D03*
X008198Y005415D03*
X008278Y005500D03*
X008033Y005750D03*
X008033Y006050D03*
X008278Y006300D03*
X007628Y005450D03*
X007628Y005255D03*
X007758Y004955D03*
D40*
X007758Y004960D03*
X007883Y005085D03*
X007818Y005220D03*
X007813Y005230D03*
X007813Y005235D03*
X007813Y005240D03*
X007808Y005245D03*
X007808Y005250D03*
X007803Y005265D03*
X007803Y005270D03*
X007803Y005275D03*
X007798Y005290D03*
X007798Y005295D03*
X007798Y005300D03*
X007798Y005305D03*
X007798Y005400D03*
X007798Y005405D03*
X007798Y005410D03*
X007798Y005415D03*
X007803Y005430D03*
X007803Y005435D03*
X007803Y005440D03*
X007808Y005455D03*
X007808Y005460D03*
X007813Y005470D03*
X007813Y005475D03*
X007818Y005485D03*
X007978Y005420D03*
X007978Y005415D03*
X007983Y005425D03*
X007983Y005430D03*
X007988Y005440D03*
X008013Y005495D03*
X008198Y005410D03*
X008278Y005505D03*
X008213Y005745D03*
X008218Y005755D03*
X008223Y005765D03*
X008223Y005770D03*
X008223Y005775D03*
X008228Y005780D03*
X008228Y005785D03*
X008228Y005790D03*
X008233Y005800D03*
X008238Y005825D03*
X008243Y005855D03*
X008243Y005945D03*
X008238Y005975D03*
X008238Y005980D03*
X008233Y006000D03*
X008228Y006010D03*
X008228Y006015D03*
X008228Y006020D03*
X008223Y006025D03*
X008223Y006030D03*
X008223Y006035D03*
X008218Y006040D03*
X008213Y006055D03*
X008383Y006090D03*
X008398Y006045D03*
X008398Y006040D03*
X008403Y006030D03*
X008403Y006025D03*
X008408Y006005D03*
X008408Y006000D03*
X008413Y005960D03*
X008413Y005955D03*
X008413Y005840D03*
X008413Y005835D03*
X008413Y005830D03*
X008413Y005825D03*
X008413Y005820D03*
X008408Y005795D03*
X008408Y005790D03*
X008403Y005775D03*
X008403Y005770D03*
X008403Y005765D03*
X008398Y005760D03*
X008398Y005755D03*
X008398Y005750D03*
X008393Y005740D03*
X008393Y005735D03*
X008063Y005835D03*
X008063Y005840D03*
X008058Y005830D03*
X008058Y005825D03*
X008053Y005815D03*
X008048Y005805D03*
X008028Y005760D03*
X008068Y005870D03*
X008068Y005930D03*
X008063Y005960D03*
X008063Y005965D03*
X008058Y005970D03*
X008058Y005975D03*
X008053Y005985D03*
X008048Y005995D03*
X008028Y006040D03*
X008278Y006295D03*
X008753Y005630D03*
X008788Y005450D03*
X008298Y005195D03*
X008173Y005070D03*
X008233Y004950D03*
X008238Y004940D03*
X008238Y004935D03*
X008243Y004925D03*
X008243Y004920D03*
X008248Y004915D03*
X008248Y004910D03*
X008248Y004905D03*
X008253Y004895D03*
X008253Y004890D03*
X008253Y004885D03*
X008258Y004865D03*
X008258Y004860D03*
X008258Y004855D03*
X008258Y004750D03*
X008258Y004745D03*
X008253Y004715D03*
X008253Y004710D03*
X008248Y004695D03*
X008248Y004690D03*
X008248Y004685D03*
X008243Y004680D03*
X008243Y004675D03*
X008238Y004670D03*
X008238Y004665D03*
X008233Y004650D03*
X008173Y004530D03*
X008048Y004655D03*
X008068Y004710D03*
X008073Y004720D03*
X008073Y004725D03*
X008078Y004730D03*
X008078Y004735D03*
X008088Y004775D03*
X008088Y004825D03*
X008088Y004830D03*
X008078Y004865D03*
X008078Y004870D03*
X008073Y004875D03*
X008073Y004880D03*
X008068Y004890D03*
X008048Y004945D03*
X008408Y004985D03*
X008408Y004990D03*
X008413Y004970D03*
X008413Y004965D03*
X008418Y004955D03*
X008423Y004940D03*
X008423Y004935D03*
X008423Y004930D03*
X008428Y004925D03*
X008428Y004920D03*
X008428Y004915D03*
X008428Y004910D03*
X008428Y004905D03*
X008433Y004890D03*
X008433Y004885D03*
X008433Y004880D03*
X008433Y004875D03*
X008433Y004870D03*
X008433Y004865D03*
X008438Y004860D03*
X008438Y004855D03*
X008438Y004850D03*
X008438Y004845D03*
X008438Y004840D03*
X008438Y004835D03*
X008438Y004830D03*
X008438Y004825D03*
X008438Y004820D03*
X008438Y004815D03*
X008438Y004810D03*
X008438Y004805D03*
X008438Y004800D03*
X008438Y004795D03*
X008438Y004790D03*
X008438Y004785D03*
X008438Y004780D03*
X008438Y004775D03*
X008438Y004770D03*
X008438Y004765D03*
X008438Y004760D03*
X008438Y004755D03*
X008438Y004750D03*
X008438Y004745D03*
X008438Y004740D03*
X008433Y004715D03*
X008433Y004710D03*
X008433Y004705D03*
X008428Y004695D03*
X008428Y004690D03*
X008428Y004685D03*
X008428Y004680D03*
X008423Y004665D03*
X008423Y004660D03*
X008413Y004630D03*
X007663Y005135D03*
X007653Y005160D03*
X007648Y005175D03*
X007648Y005180D03*
X007648Y005185D03*
X007643Y005190D03*
X007643Y005195D03*
X007643Y005200D03*
X007638Y005205D03*
X007638Y005210D03*
X007638Y005215D03*
X007633Y005225D03*
X007633Y005230D03*
X007633Y005235D03*
X007633Y005240D03*
X007623Y005275D03*
X007623Y005280D03*
X007623Y005285D03*
X007623Y005290D03*
X007623Y005295D03*
X007623Y005410D03*
X007623Y005415D03*
X007633Y005465D03*
X007633Y005470D03*
X007633Y005475D03*
X007633Y005480D03*
X007638Y005490D03*
X007638Y005495D03*
X007638Y005500D03*
X007643Y005510D03*
X007643Y005515D03*
X007648Y005520D03*
X007648Y005525D03*
X007648Y005530D03*
X007653Y005540D03*
X007653Y005545D03*
X007663Y005570D03*
X007978Y005295D03*
X007978Y005290D03*
X007978Y005285D03*
X007983Y005280D03*
X007983Y005275D03*
X007988Y005265D03*
X009748Y005255D03*
X010058Y005465D03*
X010063Y005460D03*
X010208Y005345D03*
X010818Y005240D03*
D41*
X008668Y005240D03*
X008173Y005120D03*
X008053Y004605D03*
D42*
X007860Y004765D03*
X007860Y004770D03*
X007860Y004775D03*
X007860Y004825D03*
X007860Y004830D03*
X007860Y004835D03*
X008595Y005210D03*
X008960Y005225D03*
X008900Y005480D03*
X009465Y005480D03*
X009525Y005225D03*
X009880Y005460D03*
X010175Y005375D03*
X008200Y005315D03*
X007840Y005865D03*
X007840Y005870D03*
X007840Y005935D03*
D43*
X007843Y005930D03*
X007843Y005925D03*
X007843Y005875D03*
X008198Y005385D03*
X008198Y005380D03*
X008198Y005375D03*
X008198Y005370D03*
X008198Y005335D03*
X008198Y005330D03*
X008198Y005325D03*
X008198Y005320D03*
X008768Y005225D03*
X008768Y005220D03*
X008768Y005215D03*
X008768Y005210D03*
X008768Y005205D03*
X008768Y005200D03*
X008958Y005200D03*
X008958Y005205D03*
X008958Y005210D03*
X008958Y005215D03*
X008958Y005220D03*
X009333Y005220D03*
X009333Y005225D03*
X009333Y005215D03*
X009333Y005210D03*
X009333Y005205D03*
X009333Y005200D03*
X009523Y005200D03*
X009523Y005205D03*
X009523Y005210D03*
X009523Y005215D03*
X009523Y005220D03*
X009763Y005075D03*
X010093Y005435D03*
X009878Y005465D03*
X007858Y004820D03*
X007858Y004785D03*
X007858Y004780D03*
D44*
X007860Y004790D03*
X007860Y004810D03*
X007860Y004815D03*
X008595Y005215D03*
X008595Y005220D03*
X009145Y005225D03*
X009770Y005320D03*
X009780Y005490D03*
X009875Y005470D03*
X010100Y005430D03*
X010170Y005380D03*
X010150Y005610D03*
X010485Y005490D03*
X010480Y005210D03*
X007840Y005880D03*
X007840Y005885D03*
X007840Y005890D03*
X007840Y005915D03*
X007840Y005920D03*
D45*
X007843Y005910D03*
X007843Y005905D03*
X008198Y005365D03*
X008198Y005360D03*
X008198Y005345D03*
X008198Y005340D03*
X008593Y005230D03*
X008593Y005225D03*
X008898Y005475D03*
X009148Y005220D03*
X009148Y005215D03*
X009148Y005210D03*
X009148Y005205D03*
X009148Y005200D03*
X009463Y005475D03*
X009773Y005245D03*
X010108Y005425D03*
X010163Y005385D03*
X007863Y004805D03*
X007858Y004795D03*
D46*
X007860Y004800D03*
X008590Y005235D03*
X008200Y005350D03*
X008200Y005355D03*
X007840Y005895D03*
X007840Y005900D03*
X009770Y005325D03*
X009835Y005205D03*
X010115Y005420D03*
X010150Y005395D03*
X010155Y005390D03*
X009870Y005475D03*
D47*
X008298Y005240D03*
X008278Y005460D03*
X008158Y005585D03*
X007883Y005670D03*
X008003Y005160D03*
X007758Y004915D03*
X008158Y006215D03*
X008278Y006340D03*
D48*
X008278Y006335D03*
X008158Y006210D03*
X007883Y005665D03*
X008158Y005590D03*
X008278Y005465D03*
X008298Y005235D03*
X008003Y005165D03*
X008053Y004990D03*
X007758Y004920D03*
X009148Y005555D03*
X009148Y005640D03*
D49*
X009163Y005500D03*
X009728Y005285D03*
X009733Y005295D03*
X010233Y005500D03*
X008563Y005560D03*
X008563Y005565D03*
X008278Y005470D03*
X008198Y005430D03*
X008298Y005230D03*
X008003Y005170D03*
X008053Y004985D03*
X007758Y004925D03*
X007883Y005660D03*
X008158Y005595D03*
X008158Y006205D03*
X008278Y006330D03*
D50*
X008278Y006325D03*
X008158Y006200D03*
X007843Y005825D03*
X007883Y005655D03*
X008158Y005600D03*
X008278Y005475D03*
X008558Y005540D03*
X008558Y005545D03*
X008783Y005650D03*
X009148Y005635D03*
X009148Y005560D03*
X009348Y005500D03*
X009723Y005275D03*
X010013Y005295D03*
X010013Y005300D03*
X010013Y005305D03*
X010013Y005310D03*
X010013Y005315D03*
X010013Y005320D03*
X010233Y005505D03*
X010233Y005510D03*
X010233Y005515D03*
X010233Y005520D03*
X010233Y005525D03*
X010233Y005530D03*
X011003Y005530D03*
X011003Y005535D03*
X011003Y005540D03*
X011003Y005545D03*
X011003Y005525D03*
X011003Y005520D03*
X011003Y005295D03*
X011003Y005290D03*
X011003Y005285D03*
X011003Y005280D03*
X011003Y005275D03*
X008298Y005225D03*
X008003Y005175D03*
X008053Y004980D03*
X007758Y004930D03*
D51*
X007758Y004935D03*
X008298Y005220D03*
X008198Y005425D03*
X008278Y005480D03*
X008158Y005605D03*
X008008Y005525D03*
X007883Y005650D03*
X008033Y005730D03*
X008033Y006070D03*
X008158Y006195D03*
X008278Y006320D03*
X009148Y005630D03*
X009148Y005565D03*
X009723Y005265D03*
X009778Y005505D03*
X010018Y005250D03*
X010018Y005245D03*
X010228Y005565D03*
X010998Y005570D03*
X010998Y005245D03*
X008553Y005520D03*
X008553Y005525D03*
D52*
X008035Y005705D03*
X007760Y005795D03*
X008035Y006095D03*
X007880Y005035D03*
X008050Y004995D03*
D53*
X009765Y005080D03*
X009780Y005240D03*
X010485Y005485D03*
X010910Y005610D03*
X010910Y005205D03*
D54*
X010483Y005220D03*
X010483Y005480D03*
X009788Y005235D03*
X009768Y005085D03*
D55*
X009768Y005090D03*
X009803Y005220D03*
X010153Y005595D03*
D56*
X010145Y005585D03*
X010100Y005220D03*
X009770Y005095D03*
D57*
X010098Y005205D03*
X010143Y005400D03*
X010138Y005405D03*
X010128Y005410D03*
X010123Y005415D03*
X010483Y005215D03*
D58*
X010108Y005230D03*
X009798Y005210D03*
X010908Y005220D03*
D59*
X010095Y005210D03*
X008575Y005480D03*
D60*
X008570Y005475D03*
X008570Y005470D03*
X008570Y005465D03*
X008570Y005460D03*
X008570Y005455D03*
X009795Y005225D03*
X010910Y005210D03*
D61*
X010095Y005215D03*
X009805Y005215D03*
X010150Y005590D03*
D62*
X010913Y005600D03*
X010913Y005215D03*
D63*
X010910Y005595D03*
X010105Y005225D03*
D64*
X009793Y005230D03*
X010153Y005600D03*
X010483Y005475D03*
X010483Y005225D03*
X010913Y005605D03*
D65*
X010905Y005590D03*
X010905Y005225D03*
X008855Y005470D03*
D66*
X008860Y005455D03*
X010900Y005585D03*
X010900Y005230D03*
D67*
X009770Y005330D03*
X008580Y005485D03*
D68*
X009405Y005455D03*
D69*
X008858Y005460D03*
X008858Y005465D03*
D70*
X009403Y005465D03*
X009403Y005460D03*
D71*
X009400Y005470D03*
D72*
X009820Y005480D03*
D73*
X009823Y005485D03*
D74*
X010153Y005605D03*
D75*
X008155Y006220D03*
D76*
X015880Y001973D03*
X016018Y001933D03*
X016003Y001850D03*
X016088Y001635D03*
X015940Y001598D03*
X016025Y001383D03*
X016088Y001320D03*
X016150Y001258D03*
X016018Y002123D03*
D77*
X016018Y002120D03*
X016018Y001935D03*
X016003Y001848D03*
X015880Y001970D03*
X016395Y001905D03*
X016678Y001830D03*
X016868Y001728D03*
X016088Y001633D03*
X015940Y001600D03*
X016025Y001385D03*
X016088Y001323D03*
X016150Y001260D03*
D78*
X016150Y001263D03*
X016088Y001325D03*
X016025Y001388D03*
X015930Y001440D03*
X015930Y001515D03*
X015940Y001603D03*
X016088Y001630D03*
X016100Y001715D03*
X016003Y001845D03*
X016018Y001938D03*
X015880Y001968D03*
X015920Y002065D03*
X016018Y002118D03*
X016280Y001855D03*
X016280Y001853D03*
X016455Y001830D03*
X016738Y001830D03*
X016865Y001723D03*
X016863Y001718D03*
X017503Y001728D03*
X017503Y001730D03*
X017503Y001733D03*
X017503Y001735D03*
X017503Y001738D03*
X017503Y001828D03*
X017503Y001830D03*
X017503Y001833D03*
X017503Y001835D03*
D79*
X017500Y001853D03*
X017500Y001855D03*
X017500Y001858D03*
X017500Y001860D03*
X017500Y001713D03*
X017500Y001710D03*
X017500Y001708D03*
X017500Y001705D03*
X017500Y001703D03*
X017115Y001845D03*
X017115Y001848D03*
X017115Y001850D03*
X017115Y001853D03*
X017115Y001855D03*
X017115Y001858D03*
X017008Y001723D03*
X017008Y001720D03*
X017008Y001718D03*
X017008Y001715D03*
X017008Y001713D03*
X017008Y001710D03*
X017008Y001708D03*
X017008Y001705D03*
X016863Y001713D03*
X016578Y001825D03*
X016278Y001843D03*
X016278Y001845D03*
X016290Y001675D03*
X016088Y001628D03*
X016025Y001565D03*
X015940Y001605D03*
X016003Y001668D03*
X016003Y001843D03*
X016018Y001940D03*
X015880Y001965D03*
X016018Y002115D03*
X016025Y001390D03*
X016088Y001328D03*
X016150Y001265D03*
D80*
X016150Y001268D03*
X016088Y001330D03*
X016025Y001393D03*
X015930Y001443D03*
X015930Y001513D03*
X015940Y001608D03*
X016003Y001670D03*
X016088Y001625D03*
X016025Y001563D03*
X016275Y001833D03*
X016275Y001835D03*
X016388Y001900D03*
X016670Y001825D03*
X016848Y001678D03*
X016850Y001680D03*
X016935Y001635D03*
X017240Y001675D03*
X017243Y001830D03*
X017113Y001863D03*
X017498Y001698D03*
X015880Y001963D03*
D81*
X015880Y001960D03*
X016003Y001673D03*
X016273Y001713D03*
X016273Y001715D03*
X016273Y001718D03*
X016273Y001720D03*
X016273Y001723D03*
X016273Y001725D03*
X016273Y001728D03*
X016273Y001730D03*
X016273Y001733D03*
X016273Y001735D03*
X016273Y001738D03*
X016273Y001740D03*
X016273Y001743D03*
X016273Y001745D03*
X016273Y001748D03*
X016273Y001750D03*
X016273Y001753D03*
X016273Y001755D03*
X016273Y001758D03*
X016273Y001760D03*
X016273Y001763D03*
X016273Y001765D03*
X016273Y001768D03*
X016273Y001770D03*
X016273Y001773D03*
X016273Y001775D03*
X016273Y001778D03*
X016273Y001780D03*
X016273Y001783D03*
X016273Y001785D03*
X016273Y001788D03*
X016273Y001790D03*
X016273Y001793D03*
X016273Y001795D03*
X016273Y001798D03*
X016273Y001800D03*
X016273Y001803D03*
X016385Y001798D03*
X016385Y001795D03*
X016385Y001793D03*
X016385Y001790D03*
X016385Y001788D03*
X016385Y001785D03*
X016385Y001783D03*
X016385Y001780D03*
X016385Y001778D03*
X016385Y001775D03*
X016385Y001773D03*
X016385Y001770D03*
X016385Y001768D03*
X016385Y001765D03*
X016385Y001763D03*
X016385Y001760D03*
X016385Y001758D03*
X016385Y001755D03*
X016385Y001753D03*
X016385Y001750D03*
X016385Y001748D03*
X016385Y001745D03*
X016385Y001743D03*
X016385Y001740D03*
X016385Y001738D03*
X016385Y001735D03*
X016385Y001733D03*
X016385Y001730D03*
X016385Y001728D03*
X016385Y001725D03*
X016385Y001723D03*
X016385Y001720D03*
X016385Y001718D03*
X016385Y001715D03*
X016385Y001713D03*
X016385Y001710D03*
X016385Y001708D03*
X016385Y001705D03*
X016385Y001703D03*
X016385Y001700D03*
X016385Y001698D03*
X016385Y001695D03*
X016478Y001695D03*
X016478Y001698D03*
X016478Y001700D03*
X016478Y001703D03*
X016478Y001705D03*
X016478Y001708D03*
X016478Y001710D03*
X016478Y001713D03*
X016478Y001715D03*
X016478Y001718D03*
X016478Y001720D03*
X016478Y001723D03*
X016478Y001725D03*
X016478Y001728D03*
X016478Y001730D03*
X016478Y001733D03*
X016478Y001735D03*
X016478Y001738D03*
X016478Y001740D03*
X016478Y001743D03*
X016478Y001745D03*
X016478Y001748D03*
X016478Y001750D03*
X016478Y001753D03*
X016478Y001755D03*
X016478Y001758D03*
X016478Y001760D03*
X016478Y001763D03*
X016478Y001765D03*
X016478Y001768D03*
X016478Y001770D03*
X016478Y001773D03*
X016478Y001775D03*
X016478Y001778D03*
X016478Y001780D03*
X016478Y001783D03*
X016455Y001828D03*
X016385Y001828D03*
X016385Y001830D03*
X016385Y001833D03*
X016385Y001835D03*
X016385Y001838D03*
X016385Y001840D03*
X016385Y001843D03*
X016385Y001845D03*
X016385Y001848D03*
X016385Y001850D03*
X016385Y001853D03*
X016385Y001855D03*
X016385Y001858D03*
X016385Y001860D03*
X016385Y001863D03*
X016385Y001865D03*
X016385Y001868D03*
X016385Y001870D03*
X016385Y001873D03*
X016385Y001875D03*
X016385Y001878D03*
X016385Y001825D03*
X016385Y001823D03*
X016385Y001820D03*
X016385Y001818D03*
X016385Y001815D03*
X016573Y001803D03*
X016573Y001800D03*
X016573Y001798D03*
X016573Y001795D03*
X016573Y001793D03*
X016573Y001790D03*
X016573Y001788D03*
X016573Y001785D03*
X016573Y001783D03*
X016573Y001780D03*
X016573Y001778D03*
X016573Y001775D03*
X016573Y001773D03*
X016573Y001770D03*
X016573Y001768D03*
X016573Y001765D03*
X016573Y001763D03*
X016573Y001760D03*
X016573Y001758D03*
X016573Y001755D03*
X016573Y001753D03*
X016573Y001750D03*
X016573Y001748D03*
X016573Y001745D03*
X016573Y001743D03*
X016573Y001740D03*
X016573Y001738D03*
X016573Y001735D03*
X016573Y001733D03*
X016573Y001730D03*
X016573Y001728D03*
X016573Y001725D03*
X016573Y001723D03*
X016573Y001720D03*
X016573Y001718D03*
X016573Y001715D03*
X016573Y001713D03*
X016573Y001710D03*
X016573Y001708D03*
X016573Y001705D03*
X016573Y001703D03*
X016573Y001700D03*
X016573Y001698D03*
X016573Y001695D03*
X016668Y001695D03*
X016668Y001698D03*
X016668Y001700D03*
X016668Y001703D03*
X016668Y001705D03*
X016668Y001708D03*
X016668Y001710D03*
X016668Y001713D03*
X016668Y001715D03*
X016668Y001718D03*
X016668Y001720D03*
X016668Y001723D03*
X016668Y001725D03*
X016668Y001728D03*
X016668Y001730D03*
X016668Y001733D03*
X016668Y001735D03*
X016668Y001738D03*
X016668Y001740D03*
X016668Y001743D03*
X016668Y001745D03*
X016668Y001748D03*
X016668Y001750D03*
X016668Y001753D03*
X016668Y001755D03*
X016668Y001758D03*
X016668Y001760D03*
X016668Y001763D03*
X016668Y001765D03*
X016668Y001768D03*
X016668Y001770D03*
X016668Y001773D03*
X016668Y001775D03*
X016668Y001778D03*
X016668Y001780D03*
X016668Y001783D03*
X016668Y001785D03*
X016668Y001788D03*
X016668Y001790D03*
X016668Y001793D03*
X016668Y001795D03*
X016668Y001798D03*
X016738Y001828D03*
X016760Y001783D03*
X016760Y001780D03*
X016760Y001778D03*
X016760Y001775D03*
X016760Y001773D03*
X016760Y001770D03*
X016760Y001768D03*
X016760Y001765D03*
X016760Y001763D03*
X016760Y001760D03*
X016760Y001758D03*
X016760Y001755D03*
X016760Y001753D03*
X016760Y001750D03*
X016760Y001748D03*
X016760Y001745D03*
X016760Y001743D03*
X016760Y001740D03*
X016760Y001738D03*
X016760Y001735D03*
X016760Y001733D03*
X016760Y001730D03*
X016760Y001728D03*
X016760Y001725D03*
X016760Y001723D03*
X016760Y001720D03*
X016760Y001718D03*
X016760Y001715D03*
X016760Y001713D03*
X016760Y001710D03*
X016760Y001708D03*
X016760Y001705D03*
X016760Y001703D03*
X016760Y001700D03*
X016760Y001698D03*
X016760Y001695D03*
X016840Y001668D03*
X016840Y001665D03*
X016838Y001660D03*
X016838Y001658D03*
X016838Y001655D03*
X016838Y001653D03*
X016838Y001650D03*
X016865Y001708D03*
X016918Y001748D03*
X016920Y001750D03*
X016923Y001753D03*
X016925Y001758D03*
X016928Y001763D03*
X016928Y001765D03*
X016928Y001768D03*
X016930Y001770D03*
X016930Y001773D03*
X016930Y001775D03*
X016930Y001778D03*
X016930Y001780D03*
X016930Y001783D03*
X016930Y001785D03*
X016930Y001788D03*
X016930Y001790D03*
X016928Y001795D03*
X016928Y001798D03*
X016925Y001803D03*
X016853Y001808D03*
X016850Y001805D03*
X016848Y001800D03*
X016848Y001798D03*
X016845Y001793D03*
X016845Y001790D03*
X016945Y001660D03*
X016945Y001658D03*
X016945Y001655D03*
X017053Y001675D03*
X017108Y001710D03*
X017198Y001800D03*
X017025Y001855D03*
X017023Y001853D03*
X017023Y001850D03*
X017020Y001845D03*
X017020Y001843D03*
X017020Y001840D03*
X017453Y001888D03*
X017453Y001675D03*
X016150Y001270D03*
D82*
X016150Y001273D03*
X015930Y001445D03*
X015930Y001510D03*
X016003Y001675D03*
X016100Y001720D03*
X016078Y001888D03*
X015943Y001895D03*
X015880Y001958D03*
X015920Y002060D03*
X016388Y001800D03*
X016473Y001798D03*
X016475Y001793D03*
X016570Y001820D03*
X016670Y001800D03*
X016755Y001798D03*
X016758Y001795D03*
X016758Y001793D03*
X016845Y001768D03*
X016855Y001748D03*
X016860Y001815D03*
X016760Y001693D03*
X016668Y001693D03*
X016573Y001693D03*
X016478Y001693D03*
X016385Y001693D03*
X016275Y001703D03*
X016275Y001705D03*
X016843Y001638D03*
X016943Y001668D03*
X017100Y001700D03*
X017103Y001703D03*
X017113Y001725D03*
X017113Y001728D03*
X017113Y001730D03*
X017185Y001738D03*
X017185Y001740D03*
X017185Y001743D03*
X017185Y001745D03*
X017185Y001748D03*
X017185Y001750D03*
X017185Y001753D03*
X017185Y001755D03*
X017185Y001758D03*
X017185Y001760D03*
X017185Y001763D03*
X017185Y001765D03*
X017185Y001768D03*
X017188Y001773D03*
X017188Y001775D03*
X017188Y001778D03*
X017190Y001785D03*
X017188Y001733D03*
X017188Y001730D03*
X017188Y001728D03*
X017190Y001720D03*
X017193Y001713D03*
X017205Y001695D03*
X017293Y001720D03*
X017295Y001728D03*
X017295Y001730D03*
X017295Y001733D03*
X017298Y001738D03*
X017298Y001740D03*
X017298Y001743D03*
X017298Y001745D03*
X017298Y001748D03*
X017298Y001750D03*
X017298Y001753D03*
X017298Y001755D03*
X017298Y001758D03*
X017298Y001760D03*
X017298Y001763D03*
X017298Y001765D03*
X017298Y001768D03*
X017295Y001773D03*
X017295Y001775D03*
X017295Y001778D03*
X017293Y001785D03*
X017368Y001800D03*
X017370Y001813D03*
X017373Y001820D03*
X017375Y001828D03*
X017378Y001833D03*
X017380Y001838D03*
X017368Y001763D03*
X017370Y001750D03*
X017373Y001743D03*
X017375Y001735D03*
X017378Y001730D03*
X017108Y001868D03*
X017035Y001865D03*
X017020Y001828D03*
X017020Y001825D03*
D83*
X017023Y001820D03*
X017023Y001818D03*
X017025Y001815D03*
X017110Y001740D03*
X016940Y001670D03*
X016753Y001800D03*
X016663Y001820D03*
X016470Y001800D03*
X016380Y001895D03*
X016293Y001678D03*
X016078Y001890D03*
X016005Y001830D03*
X015943Y001893D03*
X015880Y001955D03*
X016078Y002165D03*
X017398Y001858D03*
X017400Y001860D03*
X017388Y001715D03*
X017393Y001710D03*
X017395Y001708D03*
X017398Y001705D03*
X016150Y001275D03*
D84*
X016150Y001278D03*
X016125Y001428D03*
X016125Y001430D03*
X016128Y001438D03*
X016128Y001440D03*
X016128Y001443D03*
X016128Y001445D03*
X016128Y001448D03*
X016130Y001455D03*
X016130Y001458D03*
X016130Y001498D03*
X016130Y001500D03*
X016130Y001503D03*
X016128Y001513D03*
X016128Y001515D03*
X016128Y001518D03*
X016125Y001528D03*
X016040Y001508D03*
X016040Y001505D03*
X016043Y001498D03*
X016043Y001495D03*
X016045Y001488D03*
X016045Y001485D03*
X016045Y001483D03*
X016045Y001480D03*
X016045Y001478D03*
X016045Y001475D03*
X016045Y001473D03*
X016045Y001470D03*
X016045Y001468D03*
X016043Y001463D03*
X016043Y001460D03*
X016043Y001458D03*
X016040Y001450D03*
X016040Y001448D03*
X015930Y001448D03*
X015930Y001508D03*
X016215Y001525D03*
X016215Y001528D03*
X016215Y001428D03*
X016280Y001698D03*
X016100Y001723D03*
X016005Y001683D03*
X015988Y001728D03*
X015988Y001730D03*
X015988Y001733D03*
X015985Y001738D03*
X015985Y001740D03*
X015985Y001743D03*
X015985Y001745D03*
X015983Y001750D03*
X015983Y001758D03*
X015983Y001760D03*
X015985Y001763D03*
X015985Y001765D03*
X015985Y001768D03*
X015985Y001770D03*
X015988Y001775D03*
X015988Y001778D03*
X015988Y001780D03*
X015988Y001783D03*
X016005Y001828D03*
X015943Y001890D03*
X015880Y001953D03*
X015920Y001998D03*
X015920Y002058D03*
X016015Y002100D03*
X016033Y002055D03*
X016033Y002053D03*
X016033Y002050D03*
X016033Y002048D03*
X016033Y002045D03*
X016035Y002040D03*
X016035Y002038D03*
X016035Y002035D03*
X016035Y002033D03*
X016035Y002030D03*
X016035Y002028D03*
X016035Y002025D03*
X016035Y002023D03*
X016035Y002020D03*
X016035Y002018D03*
X016035Y002015D03*
X016033Y002010D03*
X016033Y002008D03*
X016033Y002005D03*
X016033Y002003D03*
X016033Y002000D03*
X016015Y001955D03*
X016078Y001893D03*
X016115Y001975D03*
X016118Y001980D03*
X016118Y001983D03*
X016118Y001985D03*
X016118Y001988D03*
X016120Y001993D03*
X016120Y001995D03*
X016120Y001998D03*
X016120Y002000D03*
X016120Y002003D03*
X016123Y002008D03*
X016123Y002010D03*
X016123Y002013D03*
X016123Y002015D03*
X016123Y002018D03*
X016123Y002020D03*
X016123Y002023D03*
X016123Y002025D03*
X016123Y002028D03*
X016123Y002030D03*
X016123Y002033D03*
X016123Y002035D03*
X016123Y002038D03*
X016123Y002040D03*
X016123Y002043D03*
X016123Y002045D03*
X016123Y002048D03*
X016120Y002053D03*
X016120Y002055D03*
X016120Y002058D03*
X016120Y002060D03*
X016120Y002063D03*
X016118Y002070D03*
X016118Y002073D03*
X016118Y002075D03*
X016115Y002080D03*
X016205Y002075D03*
X016205Y002073D03*
X016205Y002070D03*
X016205Y002068D03*
X016205Y002065D03*
X016205Y002063D03*
X016205Y002060D03*
X016208Y002053D03*
X016208Y002050D03*
X016208Y002048D03*
X016208Y002045D03*
X016208Y002043D03*
X016208Y002040D03*
X016208Y002038D03*
X016208Y002035D03*
X016208Y002033D03*
X016208Y002030D03*
X016208Y002028D03*
X016208Y002025D03*
X016208Y002023D03*
X016208Y002020D03*
X016208Y002018D03*
X016208Y002015D03*
X016208Y002013D03*
X016208Y002010D03*
X016208Y002008D03*
X016208Y002005D03*
X016208Y002003D03*
X016208Y002000D03*
X016205Y001985D03*
X016205Y001983D03*
X016205Y001980D03*
X016205Y001978D03*
X016468Y001803D03*
X016660Y001818D03*
X016675Y001803D03*
X016750Y001803D03*
X016888Y001828D03*
X016885Y001733D03*
X016938Y001673D03*
X017090Y001695D03*
X017108Y001745D03*
X017105Y001748D03*
X017028Y001813D03*
X017243Y001828D03*
X017240Y001678D03*
X017405Y001700D03*
X017408Y001865D03*
X016078Y002163D03*
X015903Y001803D03*
X015903Y001800D03*
X015900Y001790D03*
X015900Y001788D03*
X015898Y001775D03*
X015898Y001773D03*
X015898Y001770D03*
X015898Y001768D03*
X015898Y001765D03*
X015898Y001763D03*
X015898Y001760D03*
X015898Y001758D03*
X015898Y001755D03*
X015898Y001753D03*
X015898Y001750D03*
X015898Y001748D03*
X015898Y001745D03*
X015898Y001743D03*
X015898Y001740D03*
X015898Y001738D03*
X015898Y001735D03*
X015898Y001733D03*
X015900Y001720D03*
X015900Y001718D03*
X015903Y001708D03*
X015903Y001705D03*
X015818Y001688D03*
X015815Y001700D03*
X015815Y001703D03*
X015813Y001708D03*
X015813Y001710D03*
X015813Y001713D03*
X015810Y001728D03*
X015810Y001730D03*
X015810Y001733D03*
X015810Y001735D03*
X015810Y001738D03*
X015810Y001740D03*
X015810Y001743D03*
X015810Y001745D03*
X015810Y001748D03*
X015810Y001750D03*
X015810Y001753D03*
X015810Y001755D03*
X015810Y001758D03*
X015810Y001760D03*
X015810Y001763D03*
X015810Y001765D03*
X015810Y001768D03*
X015810Y001770D03*
X015810Y001773D03*
X015810Y001775D03*
X015810Y001778D03*
X015810Y001780D03*
X015813Y001788D03*
X015813Y001790D03*
X015813Y001793D03*
X015813Y001795D03*
X015813Y001798D03*
X015813Y001800D03*
X015815Y001805D03*
X015815Y001808D03*
X015818Y001820D03*
D85*
X015820Y001830D03*
X015825Y001845D03*
X015828Y001853D03*
X015828Y001855D03*
X015830Y001858D03*
X015830Y001860D03*
X015833Y001865D03*
X015833Y001868D03*
X015835Y001870D03*
X015835Y001873D03*
X015838Y001875D03*
X015845Y001890D03*
X015880Y001950D03*
X015920Y002000D03*
X015920Y002055D03*
X016020Y002083D03*
X016023Y002078D03*
X016025Y002073D03*
X016028Y002068D03*
X016028Y001988D03*
X016025Y001983D03*
X016023Y001978D03*
X016100Y001938D03*
X016103Y001940D03*
X016103Y001943D03*
X016105Y001945D03*
X016105Y001948D03*
X016108Y001953D03*
X016110Y001958D03*
X016098Y001933D03*
X016078Y001895D03*
X016005Y001823D03*
X015998Y001805D03*
X015995Y001803D03*
X015995Y001800D03*
X015993Y001795D03*
X015993Y001713D03*
X015995Y001708D03*
X016005Y001685D03*
X015943Y001623D03*
X015920Y001660D03*
X015918Y001668D03*
X015915Y001673D03*
X015913Y001678D03*
X015913Y001680D03*
X015910Y001683D03*
X015910Y001685D03*
X015908Y001690D03*
X015825Y001663D03*
X015825Y001660D03*
X015828Y001655D03*
X015828Y001653D03*
X015830Y001650D03*
X015830Y001648D03*
X015833Y001643D03*
X015833Y001640D03*
X015835Y001638D03*
X015835Y001635D03*
X015838Y001633D03*
X015845Y001618D03*
X015880Y001560D03*
X015930Y001505D03*
X015930Y001450D03*
X016023Y001408D03*
X016028Y001420D03*
X016033Y001430D03*
X016035Y001435D03*
X016035Y001520D03*
X016033Y001525D03*
X016030Y001530D03*
X016028Y001535D03*
X016023Y001548D03*
X016105Y001575D03*
X016108Y001573D03*
X016108Y001570D03*
X016110Y001568D03*
X016110Y001565D03*
X016113Y001563D03*
X016113Y001560D03*
X016115Y001558D03*
X016115Y001555D03*
X016118Y001550D03*
X016120Y001543D03*
X016085Y001610D03*
X016193Y001598D03*
X016195Y001593D03*
X016198Y001590D03*
X016198Y001588D03*
X016198Y001585D03*
X016200Y001580D03*
X016203Y001575D03*
X016205Y001568D03*
X016205Y001565D03*
X016208Y001558D03*
X016210Y001553D03*
X016210Y001550D03*
X016218Y001445D03*
X016218Y001443D03*
X016218Y001440D03*
X016218Y001438D03*
X016213Y001415D03*
X016213Y001413D03*
X016210Y001405D03*
X016210Y001403D03*
X016208Y001400D03*
X016208Y001398D03*
X016208Y001395D03*
X016205Y001390D03*
X016205Y001388D03*
X016205Y001385D03*
X016203Y001380D03*
X016198Y001368D03*
X016115Y001398D03*
X016115Y001400D03*
X016118Y001405D03*
X016118Y001408D03*
X016113Y001395D03*
X016113Y001393D03*
X016110Y001390D03*
X016108Y001385D03*
X016105Y001380D03*
X016085Y001345D03*
X016150Y001280D03*
X016100Y001725D03*
X015905Y001810D03*
X015908Y001818D03*
X015910Y001823D03*
X015910Y001825D03*
X015913Y001828D03*
X015913Y001830D03*
X015913Y001833D03*
X015915Y001835D03*
X015918Y001840D03*
X015923Y001850D03*
X015943Y001888D03*
X016183Y001908D03*
X016185Y001913D03*
X016185Y001915D03*
X016188Y001918D03*
X016188Y001920D03*
X016188Y001923D03*
X016190Y001925D03*
X016190Y001928D03*
X016193Y001930D03*
X016193Y001933D03*
X016193Y001935D03*
X016195Y001938D03*
X016195Y001940D03*
X016195Y001943D03*
X016198Y001950D03*
X016203Y001968D03*
X016203Y001970D03*
X016203Y002083D03*
X016203Y002085D03*
X016203Y002088D03*
X016200Y002095D03*
X016198Y002103D03*
X016198Y002105D03*
X016198Y002108D03*
X016195Y002110D03*
X016195Y002113D03*
X016195Y002115D03*
X016193Y002118D03*
X016193Y002120D03*
X016190Y002125D03*
X016190Y002128D03*
X016188Y002135D03*
X016185Y002140D03*
X016105Y002110D03*
X016105Y002108D03*
X016103Y002113D03*
X016103Y002115D03*
X016100Y002118D03*
X016098Y002123D03*
X016108Y002103D03*
X016108Y002100D03*
X016078Y002160D03*
X016453Y001823D03*
X016563Y001815D03*
X016563Y001813D03*
X016563Y001810D03*
X016563Y001808D03*
X016563Y001805D03*
X016658Y001815D03*
X016735Y001823D03*
X016933Y001675D03*
X017103Y001753D03*
D86*
X017101Y001755D03*
X017034Y001805D03*
X017074Y001885D03*
X016881Y001613D03*
X016374Y001880D03*
X016374Y001883D03*
X016374Y001885D03*
X016374Y001888D03*
X016374Y001890D03*
X016184Y001910D03*
X016181Y001905D03*
X016179Y001903D03*
X016179Y001900D03*
X016176Y001898D03*
X016176Y001895D03*
X016174Y001893D03*
X016174Y001890D03*
X016171Y001888D03*
X016139Y001833D03*
X016099Y001780D03*
X016001Y001813D03*
X015999Y001808D03*
X015921Y001848D03*
X015919Y001845D03*
X015919Y001843D03*
X015916Y001838D03*
X015924Y001853D03*
X015926Y001858D03*
X015849Y001898D03*
X015846Y001893D03*
X015844Y001888D03*
X015841Y001885D03*
X015841Y001883D03*
X015839Y001880D03*
X015839Y001878D03*
X015881Y001948D03*
X016014Y001960D03*
X016014Y001963D03*
X016019Y001970D03*
X016021Y001973D03*
X016021Y001975D03*
X016094Y001928D03*
X016094Y001925D03*
X016091Y001923D03*
X016091Y001920D03*
X016089Y001918D03*
X016096Y001930D03*
X016099Y001935D03*
X016076Y001898D03*
X016021Y002080D03*
X016019Y002085D03*
X016014Y002093D03*
X016014Y002095D03*
X016091Y002133D03*
X016091Y002135D03*
X016094Y002130D03*
X016094Y002128D03*
X016096Y002125D03*
X016099Y002120D03*
X016076Y002158D03*
X016139Y002223D03*
X016174Y002163D03*
X016176Y002158D03*
X016179Y002153D03*
X016181Y002148D03*
X016184Y002145D03*
X016184Y002143D03*
X016186Y002138D03*
X016189Y002133D03*
X016189Y002130D03*
X016149Y001673D03*
X016184Y001615D03*
X016184Y001613D03*
X016186Y001610D03*
X016189Y001608D03*
X016189Y001605D03*
X016191Y001603D03*
X016191Y001600D03*
X016194Y001595D03*
X016199Y001583D03*
X016201Y001578D03*
X016104Y001578D03*
X016101Y001583D03*
X016026Y001538D03*
X016029Y001533D03*
X016031Y001528D03*
X016031Y001428D03*
X016029Y001425D03*
X016029Y001423D03*
X016026Y001418D03*
X016024Y001415D03*
X016024Y001413D03*
X016024Y001410D03*
X016099Y001370D03*
X016101Y001373D03*
X016101Y001375D03*
X016104Y001378D03*
X016106Y001383D03*
X016109Y001388D03*
X016191Y001355D03*
X016191Y001353D03*
X016194Y001358D03*
X016194Y001360D03*
X016196Y001363D03*
X016196Y001365D03*
X016199Y001370D03*
X016199Y001373D03*
X016201Y001375D03*
X016201Y001378D03*
X016204Y001383D03*
X016184Y001340D03*
X016149Y001283D03*
X015849Y001613D03*
X015846Y001615D03*
X015844Y001620D03*
X015841Y001623D03*
X015841Y001625D03*
X015839Y001628D03*
X015839Y001630D03*
X015919Y001663D03*
X015919Y001665D03*
X015916Y001670D03*
X015914Y001675D03*
X015921Y001658D03*
X015924Y001655D03*
X015926Y001650D03*
X016001Y001695D03*
X015999Y001700D03*
X015999Y001703D03*
X015996Y001705D03*
X016006Y001688D03*
X016296Y001680D03*
X017414Y001868D03*
D87*
X017454Y001885D03*
X017036Y001803D03*
X017051Y001678D03*
X016889Y001825D03*
X016734Y001820D03*
X016451Y001820D03*
X016164Y001875D03*
X016161Y001870D03*
X016156Y001863D03*
X016154Y001860D03*
X016149Y001853D03*
X016146Y001850D03*
X016139Y001838D03*
X016099Y001778D03*
X016099Y001730D03*
X016149Y001668D03*
X016159Y001653D03*
X016164Y001645D03*
X016166Y001643D03*
X016169Y001640D03*
X016169Y001638D03*
X016171Y001635D03*
X016174Y001633D03*
X016176Y001628D03*
X016096Y001590D03*
X016094Y001593D03*
X016091Y001595D03*
X016089Y001600D03*
X016086Y001603D03*
X016086Y001605D03*
X015941Y001628D03*
X015941Y001630D03*
X015936Y001638D03*
X015934Y001640D03*
X015931Y001643D03*
X015866Y001585D03*
X015864Y001588D03*
X015861Y001590D03*
X015869Y001580D03*
X015871Y001578D03*
X015879Y001565D03*
X015854Y001603D03*
X015931Y001500D03*
X015929Y001455D03*
X016086Y001353D03*
X016086Y001350D03*
X016089Y001355D03*
X016091Y001360D03*
X016094Y001363D03*
X016171Y001320D03*
X016174Y001323D03*
X016176Y001325D03*
X016176Y001328D03*
X016179Y001330D03*
X016169Y001315D03*
X016149Y001285D03*
X015931Y001865D03*
X015934Y001868D03*
X015936Y001870D03*
X015941Y001880D03*
X015871Y001930D03*
X015869Y001928D03*
X015866Y001923D03*
X015864Y001920D03*
X015861Y001918D03*
X015856Y001910D03*
X015879Y001943D03*
X015921Y002050D03*
X016079Y002150D03*
X016079Y002153D03*
X016081Y002148D03*
X016084Y002145D03*
X016161Y002183D03*
X016161Y002185D03*
X016159Y002188D03*
X016164Y002180D03*
X016166Y002175D03*
X016139Y002218D03*
X016084Y001910D03*
X016081Y001908D03*
X016079Y001905D03*
X016079Y001903D03*
D88*
X016150Y001855D03*
X016153Y001858D03*
X016145Y001848D03*
X016143Y001845D03*
X016140Y001840D03*
X016100Y001733D03*
X016150Y001665D03*
X016153Y001660D03*
X016155Y001658D03*
X016158Y001655D03*
X016160Y001650D03*
X016163Y001648D03*
X016090Y001598D03*
X015940Y001633D03*
X015938Y001635D03*
X015868Y001583D03*
X015873Y001575D03*
X015875Y001573D03*
X015878Y001570D03*
X015878Y001568D03*
X015930Y001498D03*
X015930Y001458D03*
X016090Y001358D03*
X016163Y001308D03*
X016165Y001310D03*
X016168Y001313D03*
X016170Y001318D03*
X016160Y001303D03*
X016158Y001300D03*
X016150Y001288D03*
X016885Y001735D03*
X017040Y001800D03*
X017095Y001760D03*
X017243Y001825D03*
X017240Y001680D03*
X017453Y001678D03*
X016158Y002190D03*
X016155Y002193D03*
X016153Y002195D03*
X016150Y002200D03*
X016148Y002203D03*
X016140Y002215D03*
X015920Y002048D03*
X015920Y002008D03*
X015920Y002005D03*
X015878Y001940D03*
X015878Y001938D03*
X015875Y001935D03*
X015873Y001933D03*
X015868Y001925D03*
X015940Y001878D03*
X015940Y001875D03*
X015938Y001873D03*
D89*
X016099Y001775D03*
X016099Y001773D03*
X016141Y001843D03*
X016151Y001663D03*
X016161Y001305D03*
X016156Y001298D03*
X016154Y001295D03*
X016151Y001293D03*
X016151Y001290D03*
X016881Y001703D03*
X016926Y001678D03*
X016941Y001805D03*
X017044Y001798D03*
X017091Y001763D03*
X016151Y002198D03*
X016146Y002205D03*
X016144Y002208D03*
X016141Y002210D03*
X016141Y002213D03*
D90*
X016139Y002235D03*
X016079Y002173D03*
X016016Y002110D03*
X015921Y002063D03*
X015921Y001993D03*
X015941Y001900D03*
X016016Y001945D03*
X016079Y001883D03*
X016139Y001820D03*
X016101Y001718D03*
X016149Y001685D03*
X016086Y001623D03*
X016024Y001560D03*
X015941Y001610D03*
X015879Y001548D03*
X016024Y001395D03*
X016086Y001333D03*
X016839Y001663D03*
X016841Y001670D03*
X016844Y001673D03*
X016846Y001675D03*
X016881Y001610D03*
X016929Y001630D03*
X016931Y001633D03*
X016936Y001638D03*
X016939Y001640D03*
X016941Y001643D03*
X016941Y001645D03*
X016944Y001648D03*
X016944Y001650D03*
X016944Y001653D03*
X017011Y001698D03*
X016924Y001755D03*
X016926Y001760D03*
X016929Y001793D03*
X016926Y001800D03*
X017071Y001888D03*
X017111Y001865D03*
X017496Y001865D03*
X016574Y001863D03*
X016574Y001890D03*
X016574Y001823D03*
X016274Y001828D03*
X016274Y001830D03*
X016004Y001838D03*
D91*
X016005Y001820D03*
X016005Y001818D03*
X016003Y001815D03*
X016000Y001810D03*
X015925Y001855D03*
X015928Y001860D03*
X015930Y001863D03*
X015943Y001883D03*
X015943Y001885D03*
X015880Y001945D03*
X015860Y001915D03*
X015858Y001913D03*
X015855Y001908D03*
X015853Y001905D03*
X015853Y001903D03*
X015850Y001900D03*
X015848Y001895D03*
X015920Y002003D03*
X015920Y002053D03*
X016015Y002090D03*
X016018Y002088D03*
X016088Y002138D03*
X016088Y002140D03*
X016085Y002143D03*
X016078Y002155D03*
X016138Y002220D03*
X016165Y002178D03*
X016168Y002173D03*
X016170Y002170D03*
X016170Y002168D03*
X016173Y002165D03*
X016175Y002160D03*
X016178Y002155D03*
X016180Y002150D03*
X016018Y001968D03*
X016015Y001965D03*
X016085Y001913D03*
X016088Y001915D03*
X016078Y001900D03*
X016158Y001865D03*
X016160Y001868D03*
X016163Y001873D03*
X016165Y001878D03*
X016168Y001880D03*
X016168Y001883D03*
X016170Y001885D03*
X016138Y001835D03*
X016100Y001728D03*
X016148Y001670D03*
X016175Y001630D03*
X016178Y001625D03*
X016180Y001623D03*
X016180Y001620D03*
X016183Y001618D03*
X016103Y001580D03*
X016100Y001585D03*
X016098Y001588D03*
X016085Y001608D03*
X016023Y001545D03*
X016023Y001543D03*
X016025Y001540D03*
X015930Y001503D03*
X015930Y001453D03*
X015880Y001563D03*
X015860Y001593D03*
X015858Y001595D03*
X015858Y001598D03*
X015855Y001600D03*
X015853Y001605D03*
X015850Y001608D03*
X015850Y001610D03*
X015928Y001648D03*
X015930Y001645D03*
X015925Y001653D03*
X015943Y001625D03*
X016005Y001690D03*
X016003Y001693D03*
X016000Y001698D03*
X016098Y001368D03*
X016095Y001365D03*
X016085Y001348D03*
X016180Y001335D03*
X016180Y001333D03*
X016183Y001338D03*
X016185Y001343D03*
X016188Y001345D03*
X016188Y001348D03*
X016190Y001350D03*
X017098Y001758D03*
X017415Y001695D03*
D92*
X017494Y001695D03*
X017296Y001735D03*
X017294Y001725D03*
X017294Y001723D03*
X017291Y001718D03*
X017291Y001715D03*
X017289Y001713D03*
X017289Y001710D03*
X017286Y001708D03*
X017286Y001705D03*
X017284Y001703D03*
X017281Y001700D03*
X017279Y001698D03*
X017276Y001695D03*
X017204Y001698D03*
X017201Y001700D03*
X017199Y001703D03*
X017196Y001705D03*
X017196Y001708D03*
X017194Y001710D03*
X017191Y001715D03*
X017191Y001718D03*
X017189Y001723D03*
X017189Y001725D03*
X017186Y001735D03*
X017186Y001770D03*
X017189Y001780D03*
X017189Y001783D03*
X017191Y001788D03*
X017191Y001790D03*
X017194Y001793D03*
X017194Y001795D03*
X017196Y001798D03*
X017199Y001803D03*
X017201Y001805D03*
X017204Y001808D03*
X017206Y001810D03*
X017279Y001808D03*
X017281Y001805D03*
X017284Y001803D03*
X017286Y001800D03*
X017286Y001798D03*
X017289Y001795D03*
X017289Y001793D03*
X017291Y001790D03*
X017291Y001788D03*
X017294Y001783D03*
X017294Y001780D03*
X017296Y001770D03*
X017111Y001723D03*
X017111Y001720D03*
X017111Y001718D03*
X017109Y001715D03*
X017109Y001713D03*
X017106Y001708D03*
X017104Y001705D03*
X017019Y001830D03*
X017019Y001833D03*
X017019Y001835D03*
X017019Y001838D03*
X017021Y001848D03*
X017026Y001858D03*
X017029Y001860D03*
X017031Y001863D03*
X016914Y001745D03*
X016881Y001730D03*
X016854Y001750D03*
X016851Y001753D03*
X016849Y001755D03*
X016849Y001758D03*
X016846Y001760D03*
X016846Y001763D03*
X016846Y001765D03*
X016844Y001770D03*
X016844Y001773D03*
X016844Y001775D03*
X016844Y001778D03*
X016844Y001780D03*
X016844Y001783D03*
X016844Y001785D03*
X016844Y001788D03*
X016846Y001795D03*
X016849Y001803D03*
X016854Y001810D03*
X016856Y001813D03*
X016759Y001790D03*
X016759Y001788D03*
X016759Y001785D03*
X016666Y001823D03*
X016574Y001865D03*
X016574Y001868D03*
X016574Y001885D03*
X016574Y001888D03*
X016474Y001795D03*
X016476Y001790D03*
X016476Y001788D03*
X016476Y001785D03*
X016384Y001898D03*
X016271Y001825D03*
X016274Y001710D03*
X016274Y001708D03*
X016149Y001683D03*
X016086Y001620D03*
X016024Y001558D03*
X015941Y001613D03*
X015879Y001550D03*
X016024Y001398D03*
X016086Y001335D03*
X016839Y001643D03*
X016839Y001645D03*
X016839Y001648D03*
X016841Y001640D03*
X016924Y001628D03*
X016944Y001663D03*
X016944Y001665D03*
X016139Y001823D03*
X016099Y001788D03*
X016079Y001885D03*
X016016Y001948D03*
X015941Y001898D03*
X016004Y001835D03*
X016016Y002108D03*
X016079Y002170D03*
X016139Y002233D03*
D93*
X016139Y002230D03*
X016079Y002168D03*
X016016Y002105D03*
X015921Y001995D03*
X016016Y001950D03*
X016004Y001833D03*
X016139Y001825D03*
X016269Y001823D03*
X016276Y001700D03*
X016149Y001680D03*
X016086Y001618D03*
X016024Y001555D03*
X015941Y001615D03*
X015879Y001553D03*
X016004Y001678D03*
X016024Y001400D03*
X016086Y001338D03*
X016844Y001635D03*
X016846Y001633D03*
X016849Y001630D03*
X016859Y001745D03*
X017016Y001695D03*
X017096Y001698D03*
X017111Y001733D03*
X017111Y001735D03*
X017111Y001738D03*
X017211Y001693D03*
X017271Y001693D03*
X017374Y001738D03*
X017374Y001740D03*
X017371Y001745D03*
X017371Y001748D03*
X017369Y001753D03*
X017369Y001755D03*
X017369Y001758D03*
X017369Y001760D03*
X017366Y001765D03*
X017366Y001768D03*
X017366Y001770D03*
X017366Y001773D03*
X017366Y001775D03*
X017366Y001778D03*
X017366Y001780D03*
X017366Y001783D03*
X017366Y001785D03*
X017366Y001788D03*
X017366Y001790D03*
X017366Y001793D03*
X017366Y001795D03*
X017366Y001798D03*
X017369Y001803D03*
X017369Y001805D03*
X017369Y001808D03*
X017369Y001810D03*
X017371Y001815D03*
X017371Y001818D03*
X017374Y001823D03*
X017374Y001825D03*
X017376Y001830D03*
X017379Y001835D03*
X017381Y001840D03*
X017384Y001843D03*
X017384Y001845D03*
X017386Y001848D03*
X017389Y001850D03*
X017391Y001853D03*
X017394Y001855D03*
X017491Y001868D03*
X017376Y001733D03*
X017379Y001728D03*
X017381Y001725D03*
X017381Y001723D03*
X017384Y001720D03*
X017386Y001718D03*
X017389Y001713D03*
X017276Y001810D03*
X017271Y001813D03*
X017211Y001813D03*
X017021Y001823D03*
X016574Y001870D03*
X016574Y001873D03*
X016574Y001875D03*
X016574Y001878D03*
X016574Y001880D03*
X016574Y001883D03*
D94*
X016566Y001818D03*
X016454Y001825D03*
X016139Y001828D03*
X016099Y001785D03*
X015986Y001773D03*
X015984Y001755D03*
X015984Y001753D03*
X015984Y001748D03*
X015986Y001735D03*
X016004Y001680D03*
X015941Y001618D03*
X015879Y001555D03*
X016024Y001553D03*
X016041Y001503D03*
X016041Y001500D03*
X016041Y001455D03*
X016041Y001453D03*
X016024Y001403D03*
X016086Y001340D03*
X016131Y001460D03*
X016131Y001463D03*
X016131Y001465D03*
X016131Y001468D03*
X016131Y001470D03*
X016131Y001473D03*
X016131Y001475D03*
X016131Y001478D03*
X016131Y001480D03*
X016131Y001483D03*
X016131Y001485D03*
X016131Y001488D03*
X016131Y001490D03*
X016131Y001493D03*
X016131Y001495D03*
X016086Y001615D03*
X016149Y001678D03*
X016016Y001953D03*
X016016Y002103D03*
X016139Y002228D03*
X015814Y001803D03*
X015814Y001705D03*
X016736Y001825D03*
X017039Y001868D03*
X017109Y001743D03*
X016851Y001628D03*
X017401Y001703D03*
X017404Y001863D03*
D95*
X017409Y001698D03*
X017104Y001750D03*
X017031Y001808D03*
X017029Y001810D03*
X016874Y001705D03*
X016394Y001803D03*
X016376Y001893D03*
X016199Y001953D03*
X016199Y001955D03*
X016199Y001958D03*
X016201Y001960D03*
X016201Y001963D03*
X016201Y001965D03*
X016204Y001973D03*
X016204Y001975D03*
X016206Y001988D03*
X016206Y001990D03*
X016206Y001993D03*
X016206Y001995D03*
X016206Y001998D03*
X016196Y001948D03*
X016196Y001945D03*
X016114Y001968D03*
X016114Y001970D03*
X016114Y001973D03*
X016116Y001978D03*
X016119Y001990D03*
X016121Y002005D03*
X016111Y001965D03*
X016111Y001963D03*
X016111Y001960D03*
X016109Y001955D03*
X016106Y001950D03*
X016029Y001990D03*
X016029Y001993D03*
X016031Y001995D03*
X016031Y001998D03*
X016026Y001985D03*
X016024Y001980D03*
X016014Y001958D03*
X016034Y002013D03*
X016034Y002043D03*
X016031Y002058D03*
X016031Y002060D03*
X016029Y002063D03*
X016029Y002065D03*
X016026Y002070D03*
X016024Y002075D03*
X016014Y002098D03*
X016106Y002105D03*
X016109Y002098D03*
X016111Y002095D03*
X016111Y002093D03*
X016111Y002090D03*
X016114Y002088D03*
X016114Y002085D03*
X016114Y002083D03*
X016116Y002078D03*
X016119Y002068D03*
X016119Y002065D03*
X016121Y002050D03*
X016206Y002055D03*
X016206Y002058D03*
X016204Y002078D03*
X016204Y002080D03*
X016201Y002090D03*
X016201Y002093D03*
X016199Y002098D03*
X016199Y002100D03*
X016191Y002123D03*
X016139Y002225D03*
X016139Y001830D03*
X016099Y001783D03*
X016006Y001825D03*
X015994Y001798D03*
X015991Y001793D03*
X015991Y001790D03*
X015989Y001788D03*
X015989Y001785D03*
X015989Y001725D03*
X015989Y001723D03*
X015989Y001720D03*
X015991Y001718D03*
X015991Y001715D03*
X015994Y001710D03*
X015909Y001688D03*
X015906Y001693D03*
X015906Y001695D03*
X015906Y001698D03*
X015904Y001700D03*
X015904Y001703D03*
X015901Y001710D03*
X015901Y001713D03*
X015901Y001715D03*
X015899Y001723D03*
X015899Y001725D03*
X015899Y001728D03*
X015899Y001730D03*
X015899Y001778D03*
X015899Y001780D03*
X015899Y001783D03*
X015899Y001785D03*
X015901Y001793D03*
X015901Y001795D03*
X015901Y001798D03*
X015904Y001805D03*
X015904Y001808D03*
X015906Y001813D03*
X015906Y001815D03*
X015909Y001820D03*
X015824Y001838D03*
X015824Y001840D03*
X015824Y001843D03*
X015826Y001848D03*
X015826Y001850D03*
X015831Y001863D03*
X015821Y001835D03*
X015821Y001833D03*
X015819Y001828D03*
X015819Y001825D03*
X015819Y001823D03*
X015816Y001818D03*
X015816Y001815D03*
X015816Y001813D03*
X015816Y001810D03*
X015811Y001785D03*
X015811Y001783D03*
X015811Y001725D03*
X015811Y001723D03*
X015811Y001720D03*
X015811Y001718D03*
X015811Y001715D03*
X015816Y001698D03*
X015816Y001695D03*
X015816Y001693D03*
X015816Y001690D03*
X015819Y001685D03*
X015819Y001683D03*
X015819Y001680D03*
X015821Y001678D03*
X015821Y001675D03*
X015821Y001673D03*
X015824Y001670D03*
X015824Y001668D03*
X015824Y001665D03*
X015826Y001658D03*
X015831Y001645D03*
X015879Y001558D03*
X015941Y001620D03*
X016024Y001550D03*
X016034Y001523D03*
X016036Y001518D03*
X016036Y001515D03*
X016039Y001513D03*
X016039Y001510D03*
X016044Y001493D03*
X016044Y001490D03*
X016044Y001465D03*
X016039Y001445D03*
X016039Y001443D03*
X016036Y001440D03*
X016036Y001438D03*
X016034Y001433D03*
X016024Y001405D03*
X016086Y001343D03*
X016116Y001403D03*
X016119Y001410D03*
X016119Y001413D03*
X016121Y001415D03*
X016121Y001418D03*
X016124Y001420D03*
X016124Y001423D03*
X016124Y001425D03*
X016126Y001433D03*
X016126Y001435D03*
X016129Y001450D03*
X016129Y001453D03*
X016129Y001505D03*
X016129Y001508D03*
X016129Y001510D03*
X016126Y001520D03*
X016126Y001523D03*
X016126Y001525D03*
X016124Y001530D03*
X016124Y001533D03*
X016124Y001535D03*
X016121Y001538D03*
X016121Y001540D03*
X016119Y001545D03*
X016119Y001548D03*
X016116Y001553D03*
X016086Y001613D03*
X016149Y001675D03*
X016204Y001573D03*
X016204Y001570D03*
X016206Y001563D03*
X016206Y001560D03*
X016209Y001555D03*
X016211Y001548D03*
X016211Y001545D03*
X016211Y001543D03*
X016214Y001540D03*
X016214Y001538D03*
X016214Y001535D03*
X016214Y001533D03*
X016214Y001530D03*
X016216Y001523D03*
X016216Y001520D03*
X016216Y001518D03*
X016216Y001515D03*
X016216Y001513D03*
X016216Y001510D03*
X016219Y001508D03*
X016219Y001505D03*
X016219Y001503D03*
X016219Y001500D03*
X016219Y001498D03*
X016219Y001495D03*
X016219Y001493D03*
X016219Y001490D03*
X016219Y001488D03*
X016219Y001485D03*
X016219Y001483D03*
X016219Y001480D03*
X016219Y001478D03*
X016219Y001475D03*
X016219Y001473D03*
X016219Y001470D03*
X016219Y001468D03*
X016219Y001465D03*
X016219Y001463D03*
X016219Y001460D03*
X016219Y001458D03*
X016219Y001455D03*
X016219Y001453D03*
X016219Y001450D03*
X016219Y001448D03*
X016216Y001435D03*
X016216Y001433D03*
X016216Y001430D03*
X016214Y001425D03*
X016214Y001423D03*
X016214Y001420D03*
X016214Y001418D03*
X016211Y001410D03*
X016211Y001408D03*
X016206Y001393D03*
D96*
X016026Y001380D03*
X016086Y001638D03*
X016334Y001698D03*
D97*
X016298Y001683D03*
X016480Y001690D03*
X016450Y001818D03*
X016100Y001735D03*
X015930Y001495D03*
X015930Y001493D03*
X015930Y001490D03*
X015930Y001465D03*
X015930Y001463D03*
X015930Y001460D03*
X015920Y002010D03*
X015920Y002013D03*
X015920Y002045D03*
X016733Y001818D03*
X016763Y001690D03*
X016940Y001808D03*
X017088Y001765D03*
D98*
X017046Y001795D03*
X016939Y001810D03*
X016761Y001688D03*
X016761Y001685D03*
X016761Y001683D03*
X016761Y001680D03*
X016761Y001678D03*
X016666Y001678D03*
X016666Y001680D03*
X016666Y001683D03*
X016666Y001685D03*
X016666Y001688D03*
X016666Y001690D03*
X016479Y001688D03*
X016479Y001685D03*
X016479Y001683D03*
X016479Y001680D03*
X016479Y001678D03*
X016384Y001678D03*
X016384Y001680D03*
X016384Y001683D03*
X016384Y001685D03*
X016384Y001688D03*
X016384Y001690D03*
X016099Y001738D03*
X016099Y001740D03*
X016099Y001743D03*
X016099Y001745D03*
X016099Y001763D03*
X016099Y001765D03*
X016099Y001768D03*
X016099Y001770D03*
X015921Y002015D03*
X015921Y002040D03*
X015921Y002043D03*
X016881Y001615D03*
X015929Y001488D03*
X015929Y001470D03*
X015929Y001468D03*
D99*
X015930Y001473D03*
X015930Y001483D03*
X015930Y001485D03*
X016298Y001685D03*
X016298Y001688D03*
X016573Y001690D03*
X016885Y001738D03*
X016890Y001823D03*
X016938Y001813D03*
X017050Y001793D03*
X017085Y001768D03*
X017075Y001883D03*
X017243Y001823D03*
X017240Y001683D03*
X015920Y002018D03*
X015920Y002020D03*
X015920Y002023D03*
X015920Y002035D03*
X015920Y002038D03*
D100*
X015921Y002033D03*
X015921Y002030D03*
X016449Y001815D03*
X016574Y001688D03*
X016574Y001685D03*
X016574Y001683D03*
X016574Y001680D03*
X016574Y001678D03*
X016731Y001815D03*
X016886Y001700D03*
X017054Y001790D03*
X017081Y001770D03*
X016296Y001693D03*
X016296Y001690D03*
X016099Y001748D03*
X016099Y001750D03*
X016099Y001758D03*
X016099Y001760D03*
X015931Y001480D03*
X015929Y001475D03*
D101*
X015930Y001478D03*
X016100Y001753D03*
X016100Y001755D03*
X016295Y001695D03*
X016885Y001740D03*
X016918Y001680D03*
X016935Y001815D03*
X017058Y001788D03*
X017075Y001775D03*
X017078Y001773D03*
X015920Y002025D03*
X015920Y002028D03*
D102*
X015941Y001913D03*
X016079Y001870D03*
X016139Y001808D03*
X016149Y001698D03*
X016001Y001658D03*
X015879Y001535D03*
X016079Y002185D03*
X016139Y002248D03*
D103*
X016139Y002245D03*
X016079Y002183D03*
X015941Y001910D03*
X016079Y001873D03*
X016139Y001810D03*
X016149Y001695D03*
X016001Y001660D03*
X016026Y001573D03*
X015879Y001538D03*
X016574Y001855D03*
X016574Y001898D03*
D104*
X016581Y001828D03*
X016281Y001858D03*
X016281Y001860D03*
X016139Y001813D03*
X016099Y001793D03*
X016079Y001875D03*
X015941Y001908D03*
X016001Y001663D03*
X016026Y001570D03*
X015879Y001540D03*
X016149Y001693D03*
X016864Y001720D03*
X016866Y001725D03*
X017116Y001828D03*
X016139Y002243D03*
X016079Y002180D03*
D105*
X016079Y002178D03*
X016139Y002240D03*
X015921Y001990D03*
X015941Y001905D03*
X016079Y001878D03*
X016139Y001815D03*
X016149Y001690D03*
X016001Y001665D03*
X016026Y001568D03*
X015879Y001543D03*
X016279Y001848D03*
X016279Y001850D03*
X016391Y001903D03*
X016574Y001895D03*
X016574Y001858D03*
X016674Y001828D03*
X016861Y001715D03*
X017006Y001725D03*
X017006Y001728D03*
X017006Y001730D03*
X017006Y001733D03*
X017006Y001735D03*
X017006Y001738D03*
X017116Y001830D03*
X017116Y001833D03*
X017116Y001835D03*
X017116Y001838D03*
X017116Y001840D03*
X017116Y001843D03*
X017501Y001843D03*
X017501Y001845D03*
X017501Y001848D03*
X017501Y001850D03*
X017501Y001840D03*
X017501Y001838D03*
X017501Y001725D03*
X017501Y001723D03*
X017501Y001720D03*
X017501Y001718D03*
X017501Y001715D03*
D106*
X017499Y001700D03*
X017499Y001863D03*
X017114Y001860D03*
X017009Y001703D03*
X017009Y001700D03*
X016861Y001710D03*
X016889Y001830D03*
X016574Y001860D03*
X016574Y001893D03*
X016276Y001840D03*
X016276Y001838D03*
X016139Y001818D03*
X016099Y001790D03*
X016079Y001880D03*
X016004Y001840D03*
X015941Y001903D03*
X016016Y001943D03*
X016016Y002113D03*
X016079Y002175D03*
X016139Y002238D03*
X016149Y001688D03*
X015879Y001545D03*
D107*
X015940Y001595D03*
X016025Y001575D03*
X016018Y001930D03*
X015880Y001975D03*
X016018Y002125D03*
D108*
X016890Y001698D03*
X016883Y001618D03*
X017243Y001820D03*
X017455Y001883D03*
X017455Y001680D03*
D109*
X017241Y001688D03*
X017241Y001818D03*
X016894Y001695D03*
X016884Y001620D03*
D110*
X016884Y001623D03*
X016901Y001688D03*
X017076Y001875D03*
D111*
X017073Y001870D03*
X017050Y001688D03*
X016885Y001625D03*
D112*
X017049Y001680D03*
X017071Y001778D03*
X017069Y001780D03*
X017064Y001783D03*
X017061Y001785D03*
X017241Y001685D03*
D113*
X017054Y001693D03*
X016899Y001683D03*
X017454Y001688D03*
D114*
X017048Y001683D03*
X016288Y001818D03*
D115*
X016285Y001815D03*
X016285Y001813D03*
X016285Y001810D03*
X016285Y001808D03*
X016285Y001805D03*
X016898Y001690D03*
X017455Y001683D03*
D116*
X017048Y001685D03*
X016903Y001685D03*
X017075Y001873D03*
D117*
X017456Y001878D03*
X017456Y001685D03*
D118*
X017455Y001875D03*
X017053Y001690D03*
D119*
X016896Y001693D03*
X017076Y001878D03*
X017241Y001815D03*
X017241Y001690D03*
X017456Y001880D03*
D120*
X017453Y001873D03*
X017453Y001690D03*
X016428Y001813D03*
D121*
X016430Y001805D03*
X017450Y001870D03*
X017450Y001693D03*
D122*
X016885Y001743D03*
X016290Y001820D03*
D123*
X016703Y001805D03*
D124*
X016429Y001808D03*
X016429Y001810D03*
D125*
X016701Y001810D03*
X016701Y001808D03*
D126*
X016700Y001813D03*
D127*
X016910Y001818D03*
D128*
X016911Y001820D03*
D129*
X017076Y001880D03*
D130*
X016078Y002188D03*
M02*
