G75*
%MOIN*%
%OFA0B0*%
%FSLAX24Y24*%
%IPPOS*%
%LPD*%
%AMOC8*
5,1,8,0,0,1.08239X$1,22.5*
%
%ADD10OC8,0.0700*%
%ADD11C,0.0740*%
%ADD12OC8,0.0740*%
%ADD13C,0.0320*%
%ADD14C,0.0240*%
%ADD15C,0.0340*%
%ADD16C,0.0100*%
%ADD17C,0.0120*%
D10*
X004200Y001650D03*
X005200Y001650D03*
X006200Y001650D03*
X007200Y001650D03*
X008200Y001650D03*
X009200Y001650D03*
X010200Y001650D03*
X011200Y001650D03*
X012200Y001650D03*
X013200Y001650D03*
X014200Y001650D03*
X015200Y001650D03*
X003200Y002650D03*
X003200Y003650D03*
X003200Y004650D03*
X003200Y005650D03*
X003200Y006650D03*
X003200Y007650D03*
X003200Y008650D03*
X003200Y009650D03*
X004200Y010650D03*
X005200Y010650D03*
X006200Y010650D03*
X007200Y010650D03*
X008200Y010650D03*
X009200Y010650D03*
X010200Y010650D03*
X011200Y010650D03*
X012200Y010650D03*
X013200Y010650D03*
X014200Y010650D03*
X015200Y010650D03*
D11*
X018900Y009650D03*
X019900Y009650D03*
X020900Y009650D03*
X020900Y008650D03*
X019900Y008650D03*
X018900Y008650D03*
X018900Y007650D03*
X019900Y007650D03*
X020900Y007650D03*
X020900Y006650D03*
X019900Y006650D03*
X018900Y006650D03*
X018900Y005650D03*
X019900Y005650D03*
X020900Y005650D03*
X020900Y004650D03*
X019900Y004650D03*
X018900Y004650D03*
X018900Y003650D03*
X019900Y003650D03*
X020900Y003650D03*
X020900Y002650D03*
X019900Y002650D03*
X018900Y002650D03*
X006200Y008450D03*
X005200Y008450D03*
X005200Y009450D03*
X006200Y009450D03*
X019900Y011250D03*
X020900Y011250D03*
D12*
X002200Y009650D03*
X001200Y009650D03*
X001200Y008650D03*
X002200Y008650D03*
X002200Y007650D03*
X001200Y007650D03*
X001200Y006650D03*
X002200Y006650D03*
X002200Y005650D03*
X001200Y005650D03*
X001200Y004650D03*
X002200Y004650D03*
X002200Y003650D03*
X001200Y003650D03*
X001200Y002650D03*
X002200Y002650D03*
D13*
X019900Y002650D02*
X019900Y003650D01*
X019900Y004650D01*
X019900Y005650D01*
X019900Y006650D01*
X019900Y007650D01*
X019900Y008650D01*
X019900Y009650D01*
X020900Y009650D02*
X020900Y010350D01*
X020900Y011250D01*
X020900Y009650D02*
X020900Y008650D01*
X020900Y007650D01*
X020900Y006650D01*
X020900Y005650D01*
X020900Y004650D01*
X020900Y003650D01*
X020900Y002650D01*
D14*
X020900Y000650D01*
X018500Y000650D01*
X017600Y001550D01*
X017000Y001550D01*
X016100Y000650D01*
X004300Y000650D01*
X004200Y000750D01*
X004200Y001650D01*
X004200Y002650D01*
X003200Y002650D01*
X002200Y002650D01*
X001200Y002650D01*
X002200Y003650D02*
X003200Y003650D01*
X003700Y004450D02*
X004600Y004450D01*
X006200Y004450D01*
X009900Y004450D01*
X010100Y004450D01*
X010300Y004250D01*
X017200Y004250D01*
X017500Y004550D01*
X017500Y007450D01*
X017500Y009450D01*
X016300Y009450D01*
X016700Y010350D02*
X017400Y010350D01*
X016700Y010350D02*
X016500Y010550D01*
X016500Y011450D01*
X016200Y011750D01*
X004300Y011750D01*
X004200Y011650D01*
X004200Y010650D01*
X004200Y010150D01*
X004900Y009450D01*
X005200Y009450D01*
X005200Y008450D01*
X003200Y008650D02*
X002200Y008650D01*
X002200Y007650D02*
X003200Y007650D01*
X007800Y007650D02*
X010200Y007650D01*
X011400Y007650D01*
X011500Y007750D01*
X011500Y004950D01*
X011600Y004850D01*
X011800Y004650D01*
X014200Y004650D01*
X011600Y004850D02*
X010900Y004850D01*
X007700Y004850D01*
X005600Y004850D01*
X003700Y004450D02*
X003500Y004650D01*
X003200Y004650D01*
X002200Y004650D01*
X001200Y004650D01*
X005200Y001650D02*
X005200Y001150D01*
X005300Y001050D01*
X015800Y001050D01*
X016700Y001950D01*
X017800Y001950D01*
X017900Y002050D01*
X017900Y011750D01*
X018400Y010750D02*
X018300Y010650D01*
X018300Y001650D01*
X018400Y001550D01*
X018900Y001550D01*
X011500Y007750D02*
X011500Y009250D01*
X016000Y010750D02*
X016000Y011250D01*
X015900Y011350D01*
X005300Y011350D01*
X005200Y011250D01*
X005200Y010650D01*
X018400Y010750D02*
X018700Y010750D01*
D15*
X018700Y010750D03*
X017400Y010350D03*
X016300Y009450D03*
X014800Y008785D03*
X014700Y009250D03*
X013500Y009250D03*
X012700Y009250D03*
X012200Y009250D03*
X011500Y009250D03*
X010200Y007650D03*
X010900Y007250D03*
X012200Y007050D03*
X012500Y006750D03*
X012800Y006350D03*
X012500Y006050D03*
X010600Y005750D03*
X010300Y006150D03*
X008300Y006950D03*
X007800Y007650D03*
X004100Y005750D03*
X005600Y004850D03*
X006200Y004450D03*
X007700Y004850D03*
X008000Y005250D03*
X009900Y004450D03*
X010900Y004850D03*
X014200Y004650D03*
X014800Y006650D03*
X015400Y007550D03*
X016000Y010750D03*
X017900Y011750D03*
X020900Y010350D03*
X018900Y001550D03*
X004700Y001050D03*
X004200Y002650D03*
D16*
X000500Y000348D02*
X000500Y000150D01*
X000698Y000150D01*
X000500Y000150D01*
X000500Y000348D01*
X000698Y000150D01*
X000600Y000150D02*
X000600Y000248D01*
X000598Y000250D02*
X000500Y000250D01*
X000743Y000544D02*
X000894Y000393D01*
X001093Y000311D01*
X001200Y000300D01*
X001200Y000356D01*
X001200Y000300D02*
X020800Y000300D01*
X020800Y002170D01*
X020785Y002172D02*
X020850Y002162D01*
X020850Y002600D01*
X020950Y002600D01*
X020950Y002162D01*
X021015Y002172D01*
X021088Y002196D01*
X021157Y002231D01*
X021219Y002276D01*
X021274Y002331D01*
X021319Y002393D01*
X021350Y002454D01*
X021350Y000850D01*
X017844Y000850D01*
X017844Y000792D02*
X017761Y000592D01*
X017608Y000439D01*
X017408Y000356D01*
X017192Y000356D01*
X016992Y000439D01*
X016839Y000592D01*
X016756Y000792D01*
X016756Y001008D01*
X016839Y001208D01*
X016992Y001361D01*
X017192Y001444D01*
X017408Y001444D01*
X017608Y001361D01*
X017761Y001208D01*
X017844Y001008D01*
X017844Y000792D01*
X017826Y000750D02*
X021340Y000750D01*
X021339Y000743D02*
X021257Y000544D01*
X021106Y000393D01*
X020907Y000311D01*
X020800Y000300D01*
X020700Y000300D02*
X020700Y002202D01*
X020712Y002196D02*
X020785Y002172D01*
X020712Y002196D02*
X020643Y002231D01*
X020581Y002276D01*
X020526Y002331D01*
X020481Y002393D01*
X020446Y002462D01*
X020422Y002535D01*
X020420Y002548D01*
X020420Y002547D01*
X020341Y002355D01*
X020195Y002209D01*
X020003Y002130D01*
X019797Y002130D01*
X019605Y002209D01*
X019459Y002355D01*
X019400Y002498D01*
X019400Y000300D01*
X019500Y000300D02*
X019500Y002315D01*
X019465Y002350D02*
X019335Y002350D01*
X019341Y002355D02*
X019400Y002498D01*
X019380Y002450D02*
X019420Y002450D01*
X019341Y002355D02*
X019195Y002209D01*
X019003Y002130D01*
X018797Y002130D01*
X018605Y002209D01*
X018570Y002245D01*
X018570Y001820D01*
X018717Y001820D01*
X018719Y001821D01*
X018836Y001870D01*
X018964Y001870D01*
X019081Y001821D01*
X019171Y001731D01*
X019220Y001614D01*
X019220Y001486D01*
X019171Y001369D01*
X019081Y001279D01*
X018964Y001230D01*
X018836Y001230D01*
X018719Y001279D01*
X018717Y001280D01*
X018346Y001280D01*
X018247Y001321D01*
X018171Y001397D01*
X018071Y001497D01*
X018030Y001596D01*
X018030Y001798D01*
X017953Y001721D01*
X017854Y001680D01*
X016812Y001680D01*
X015953Y000821D01*
X015854Y000780D01*
X005246Y000780D01*
X005147Y000821D01*
X005071Y000897D01*
X005071Y000897D01*
X005009Y000959D01*
X004971Y000869D01*
X004881Y000779D01*
X004764Y000730D01*
X004636Y000730D01*
X004519Y000779D01*
X004429Y000869D01*
X004380Y000986D01*
X004380Y001114D01*
X004417Y001202D01*
X004395Y001180D01*
X004250Y001180D01*
X004250Y001600D01*
X004150Y001600D01*
X004150Y001180D01*
X004005Y001180D01*
X003730Y001455D01*
X003730Y001600D01*
X004150Y001600D01*
X004150Y001700D01*
X004150Y002120D01*
X004005Y002120D01*
X003730Y001845D01*
X003730Y001700D01*
X004150Y001700D01*
X004250Y001700D01*
X004250Y002120D01*
X004395Y002120D01*
X004500Y002015D01*
X004500Y004180D01*
X003646Y004180D01*
X003547Y004221D01*
X003513Y004256D01*
X003407Y004150D01*
X004500Y004150D01*
X004500Y004050D02*
X003507Y004050D01*
X003500Y004057D02*
X003500Y004243D01*
X003507Y004250D02*
X003518Y004250D01*
X003600Y004199D02*
X003600Y003957D01*
X003607Y003950D02*
X004500Y003950D01*
X004500Y003850D02*
X003700Y003850D01*
X003700Y003857D02*
X003407Y004150D01*
X002993Y004150D01*
X002435Y004150D01*
X002665Y004380D01*
X002763Y004380D01*
X002993Y004150D01*
X002763Y003920D01*
X002665Y003920D01*
X002435Y004150D01*
X002500Y004085D02*
X002500Y004215D01*
X002535Y004250D02*
X002893Y004250D01*
X002900Y004243D02*
X002900Y004057D01*
X002893Y004050D02*
X002535Y004050D01*
X002600Y003985D02*
X002600Y004315D01*
X002635Y004350D02*
X002793Y004350D01*
X002800Y004343D02*
X002800Y003957D01*
X002793Y003950D02*
X002635Y003950D01*
X002700Y003920D02*
X002700Y004380D01*
X002993Y004150D02*
X003407Y004150D01*
X003400Y004150D02*
X003400Y004150D01*
X003300Y004150D02*
X003300Y004150D01*
X003200Y004150D02*
X003200Y004150D01*
X003100Y004150D02*
X003100Y004150D01*
X003000Y004150D02*
X003000Y004150D01*
X003700Y004180D02*
X003700Y000300D01*
X003800Y000300D02*
X003800Y001385D01*
X003835Y001350D02*
X001569Y001350D01*
X001558Y001361D02*
X001358Y001444D01*
X001142Y001444D01*
X000942Y001361D01*
X000789Y001208D01*
X000706Y001008D01*
X000706Y000792D01*
X000789Y000592D01*
X000942Y000439D01*
X001142Y000356D01*
X001358Y000356D01*
X001558Y000439D01*
X001711Y000592D01*
X001794Y000792D01*
X001794Y001008D01*
X001711Y001208D01*
X001558Y001361D01*
X001600Y001319D02*
X001600Y002357D01*
X001593Y002350D02*
X001807Y002350D01*
X001800Y002357D02*
X001800Y000300D01*
X001900Y000300D02*
X001900Y002257D01*
X001907Y002250D02*
X001493Y002250D01*
X001500Y002257D02*
X001500Y001385D01*
X001400Y001426D02*
X001400Y002160D01*
X001403Y002160D02*
X001690Y002447D01*
X001690Y002600D01*
X001250Y002600D01*
X001250Y002700D01*
X001690Y002700D01*
X001690Y002853D01*
X001413Y003130D01*
X001415Y003130D01*
X001700Y003415D01*
X001985Y003130D01*
X001987Y003130D01*
X001710Y002853D01*
X001710Y002700D01*
X002150Y002700D01*
X002150Y002600D01*
X002250Y002600D01*
X002250Y002700D01*
X002690Y002700D01*
X002690Y002853D01*
X002413Y003130D01*
X002415Y003130D01*
X002665Y003380D01*
X002763Y003380D01*
X002993Y003150D01*
X002435Y003150D01*
X002500Y003215D02*
X002500Y003043D01*
X002493Y003050D02*
X002935Y003050D01*
X002900Y003015D02*
X002900Y003243D01*
X002893Y003250D02*
X002535Y003250D01*
X002600Y003315D02*
X002600Y002943D01*
X002593Y002950D02*
X002835Y002950D01*
X002800Y002915D02*
X002800Y003343D01*
X002793Y003350D02*
X002635Y003350D01*
X002700Y003380D02*
X002700Y000300D01*
X002800Y000300D02*
X002800Y002385D01*
X002835Y002350D02*
X002593Y002350D01*
X002600Y002357D02*
X002600Y000300D01*
X002500Y000300D02*
X002500Y002257D01*
X002493Y002250D02*
X002935Y002250D01*
X002900Y002285D02*
X002900Y000300D01*
X003000Y000300D02*
X003000Y002185D01*
X003005Y002180D02*
X003150Y002180D01*
X003150Y002600D01*
X003250Y002600D01*
X003250Y002700D01*
X003670Y002700D01*
X003670Y002845D01*
X003395Y003120D01*
X003250Y003120D01*
X003250Y002700D01*
X003150Y002700D01*
X003150Y003120D01*
X003005Y003120D01*
X002730Y002845D01*
X002730Y002700D01*
X003150Y002700D01*
X003150Y002600D01*
X002730Y002600D01*
X002730Y002455D01*
X003005Y002180D01*
X003100Y002180D02*
X003100Y000300D01*
X003200Y000300D02*
X003200Y002600D01*
X003250Y002600D02*
X003250Y002180D01*
X003395Y002180D01*
X003670Y002455D01*
X003670Y002600D01*
X003250Y002600D01*
X003250Y002650D02*
X004500Y002650D01*
X004500Y002550D02*
X003670Y002550D01*
X003600Y002600D02*
X003600Y002700D01*
X003670Y002750D02*
X004500Y002750D01*
X004500Y002850D02*
X003665Y002850D01*
X003600Y002915D02*
X003600Y003343D01*
X003607Y003350D02*
X004500Y003350D01*
X004500Y003250D02*
X003507Y003250D01*
X003500Y003243D02*
X003500Y003015D01*
X003465Y003050D02*
X004500Y003050D01*
X004500Y003150D02*
X003407Y003150D01*
X003700Y003443D01*
X003700Y003857D01*
X003700Y003750D02*
X004500Y003750D01*
X004500Y003650D02*
X003700Y003650D01*
X003700Y003550D02*
X004500Y003550D01*
X004500Y003450D02*
X003700Y003450D01*
X003407Y003150D02*
X002993Y003150D01*
X003000Y003150D02*
X003000Y003115D01*
X003100Y003120D02*
X003100Y003150D01*
X003200Y003150D02*
X003200Y002700D01*
X003150Y002750D02*
X003250Y002750D01*
X003300Y002700D02*
X003300Y002600D01*
X003250Y002550D02*
X003150Y002550D01*
X003100Y002600D02*
X003100Y002700D01*
X003150Y002650D02*
X002250Y002650D01*
X002250Y002600D02*
X002690Y002600D01*
X002690Y002447D01*
X002403Y002160D01*
X002250Y002160D01*
X002250Y002600D01*
X002300Y002600D02*
X002300Y002700D01*
X002400Y002700D02*
X002400Y002600D01*
X002500Y002600D02*
X002500Y002700D01*
X002600Y002700D02*
X002600Y002600D01*
X002690Y002550D02*
X002730Y002550D01*
X002800Y002600D02*
X002800Y002700D01*
X002730Y002750D02*
X002690Y002750D01*
X002690Y002850D02*
X002735Y002850D01*
X002900Y002700D02*
X002900Y002600D01*
X003000Y002600D02*
X003000Y002700D01*
X003150Y002850D02*
X003250Y002850D01*
X003250Y002950D02*
X003150Y002950D01*
X003150Y003050D02*
X003250Y003050D01*
X003300Y003120D02*
X003300Y003150D01*
X003400Y003150D02*
X003400Y003115D01*
X003565Y002950D02*
X004500Y002950D01*
X004900Y002950D02*
X017630Y002950D01*
X017630Y002850D02*
X004900Y002850D01*
X004900Y002750D02*
X017630Y002750D01*
X017630Y002650D02*
X004900Y002650D01*
X004900Y002550D02*
X017630Y002550D01*
X017630Y002450D02*
X004900Y002450D01*
X004900Y002350D02*
X017630Y002350D01*
X017630Y002250D02*
X004900Y002250D01*
X004900Y002150D02*
X016518Y002150D01*
X016500Y002132D02*
X016500Y003980D01*
X016600Y003980D02*
X016600Y002201D01*
X016646Y002220D02*
X016547Y002179D01*
X016471Y002103D01*
X015688Y001320D01*
X015577Y001320D01*
X015700Y001443D01*
X015700Y001857D01*
X015407Y002150D01*
X014993Y002150D01*
X014700Y001857D01*
X014700Y003980D01*
X014600Y003980D02*
X014600Y001957D01*
X014607Y001950D02*
X014793Y001950D01*
X014800Y001957D02*
X014800Y003980D01*
X014900Y003980D02*
X014900Y002057D01*
X014893Y002050D02*
X014507Y002050D01*
X014500Y002057D02*
X014500Y003980D01*
X014400Y003980D02*
X014400Y002150D01*
X014407Y002150D02*
X013993Y002150D01*
X013700Y001857D01*
X013700Y003980D01*
X013800Y003980D02*
X013800Y001957D01*
X013793Y001950D02*
X013607Y001950D01*
X013600Y001957D02*
X013600Y003980D01*
X013500Y003980D02*
X013500Y002057D01*
X013507Y002050D02*
X013893Y002050D01*
X013900Y002057D02*
X013900Y003980D01*
X014000Y003980D02*
X014000Y002150D01*
X014100Y002150D02*
X014100Y003980D01*
X014200Y003980D02*
X014200Y002150D01*
X014300Y002150D02*
X014300Y003980D01*
X014300Y004520D02*
X014300Y008950D01*
X014200Y008950D02*
X014200Y004520D01*
X014100Y004520D02*
X014100Y008950D01*
X014076Y008950D02*
X014588Y008950D01*
X014636Y008930D01*
X014764Y008930D01*
X014881Y008979D01*
X014971Y009069D01*
X015020Y009186D01*
X015020Y009314D01*
X014971Y009431D01*
X014881Y009521D01*
X014764Y009570D01*
X014636Y009570D01*
X014519Y009521D01*
X014429Y009431D01*
X014395Y009350D01*
X014006Y009350D01*
X013929Y009355D01*
X013924Y009350D01*
X013805Y009350D01*
X013800Y009362D02*
X013800Y010343D01*
X013793Y010350D02*
X013607Y010350D01*
X013600Y010343D02*
X013600Y009555D01*
X013612Y009550D02*
X014588Y009550D01*
X014600Y009555D02*
X014600Y010343D01*
X014607Y010350D02*
X014793Y010350D01*
X014800Y010343D02*
X014800Y009555D01*
X014812Y009550D02*
X015995Y009550D01*
X016000Y009562D02*
X016000Y010430D01*
X015936Y010430D02*
X016064Y010430D01*
X016181Y010479D01*
X016271Y010569D01*
X016320Y010686D01*
X016320Y010814D01*
X016271Y010931D01*
X016270Y010933D01*
X016270Y011304D01*
X016229Y011403D01*
X016153Y011479D01*
X016053Y011579D01*
X015954Y011620D01*
X005246Y011620D01*
X005147Y011579D01*
X005071Y011503D01*
X004971Y011403D01*
X004930Y011304D01*
X004930Y011087D01*
X004700Y010857D01*
X004700Y012000D01*
X004600Y012000D02*
X004600Y010915D01*
X004565Y010950D02*
X004793Y010950D01*
X004800Y010957D02*
X004800Y012000D01*
X004900Y012000D02*
X004900Y011057D01*
X004893Y011050D02*
X004465Y011050D01*
X004500Y011015D02*
X004500Y012000D01*
X004400Y012000D02*
X004400Y011115D01*
X004395Y011120D02*
X004250Y011120D01*
X004250Y010700D01*
X004150Y010700D01*
X004150Y011120D01*
X004005Y011120D01*
X003730Y010845D01*
X003730Y010700D01*
X004150Y010700D01*
X004150Y010600D01*
X003730Y010600D01*
X003730Y010455D01*
X004005Y010180D01*
X004150Y010180D01*
X004150Y010600D01*
X004250Y010600D01*
X004250Y010700D01*
X004670Y010700D01*
X004670Y010845D01*
X004395Y011120D01*
X004300Y011120D02*
X004300Y012000D01*
X004200Y012000D02*
X004200Y010700D01*
X004150Y010750D02*
X004250Y010750D01*
X004300Y010700D02*
X004300Y010600D01*
X004250Y010600D02*
X004670Y010600D01*
X004670Y010455D01*
X004395Y010180D01*
X004250Y010180D01*
X004250Y010600D01*
X004200Y010600D02*
X004200Y007650D01*
X004183Y007650D02*
X004000Y007833D01*
X004000Y008033D01*
X003800Y008233D01*
X003683Y008350D01*
X003607Y008350D01*
X003700Y008443D01*
X003700Y008857D01*
X003407Y009150D01*
X004812Y009150D01*
X004800Y009167D02*
X004800Y008733D01*
X004812Y008750D02*
X003700Y008750D01*
X003700Y008850D02*
X004917Y008850D01*
X004900Y008838D02*
X004900Y009062D01*
X004917Y009050D02*
X003507Y009050D01*
X003500Y009057D02*
X003500Y009243D01*
X003507Y009250D02*
X004752Y009250D01*
X004746Y009262D02*
X004781Y009193D01*
X004826Y009131D01*
X004881Y009076D01*
X004943Y009031D01*
X005012Y008996D01*
X005085Y008972D01*
X005150Y008962D01*
X005150Y009400D01*
X004712Y009400D01*
X004722Y009335D01*
X004746Y009262D01*
X004720Y009350D02*
X003607Y009350D01*
X003600Y009343D02*
X003600Y008957D01*
X003607Y008950D02*
X006048Y008950D01*
X005905Y008891D01*
X005759Y008745D01*
X005680Y008553D01*
X005680Y008552D01*
X005678Y008565D01*
X005654Y008638D01*
X005619Y008707D01*
X005574Y008769D01*
X005519Y008824D01*
X005457Y008869D01*
X005388Y008904D01*
X005315Y008928D01*
X005250Y008938D01*
X005250Y008500D01*
X005150Y008500D01*
X005150Y008938D01*
X005085Y008928D01*
X005012Y008904D01*
X004943Y008869D01*
X004881Y008824D01*
X004826Y008769D01*
X004781Y008707D01*
X004746Y008638D01*
X004722Y008565D01*
X004712Y008500D01*
X005150Y008500D01*
X005150Y008400D01*
X005250Y008400D01*
X005250Y007962D01*
X005315Y007972D01*
X005388Y007996D01*
X005457Y008031D01*
X005519Y008076D01*
X005574Y008131D01*
X005619Y008193D01*
X005654Y008262D01*
X005678Y008335D01*
X005680Y008348D01*
X005680Y008347D01*
X005759Y008155D01*
X005905Y008009D01*
X006097Y007930D01*
X006303Y007930D01*
X006495Y008009D01*
X006641Y008155D01*
X006720Y008347D01*
X006720Y008553D01*
X006641Y008745D01*
X006495Y008891D01*
X006352Y008950D01*
X012000Y008950D01*
X012000Y008997D02*
X011929Y009069D01*
X011880Y009186D01*
X011880Y009314D01*
X011929Y009431D01*
X012019Y009521D01*
X012136Y009570D01*
X012264Y009570D01*
X012381Y009521D01*
X012450Y009453D01*
X012519Y009521D01*
X012636Y009570D01*
X012764Y009570D01*
X012881Y009521D01*
X012971Y009431D01*
X013020Y009314D01*
X013020Y009186D01*
X012971Y009069D01*
X012912Y009009D01*
X013180Y009239D01*
X013180Y009314D01*
X013229Y009431D01*
X013319Y009521D01*
X013436Y009570D01*
X013564Y009570D01*
X013681Y009521D01*
X013771Y009431D01*
X013820Y009314D01*
X013820Y009258D01*
X013863Y009296D01*
X013917Y009350D01*
X013924Y009350D01*
X013900Y009333D02*
X013900Y010243D01*
X013893Y010250D02*
X013507Y010250D01*
X013500Y010243D02*
X013500Y009570D01*
X013400Y009555D02*
X013400Y010150D01*
X013407Y010150D02*
X013993Y010150D01*
X014407Y010150D01*
X014993Y010150D01*
X015407Y010150D01*
X017630Y010150D01*
X017630Y010050D02*
X003507Y010050D01*
X003500Y010057D02*
X003500Y012000D01*
X003600Y012000D02*
X003600Y009957D01*
X003607Y009950D02*
X006048Y009950D01*
X006000Y009930D02*
X006000Y010150D01*
X005993Y010150D02*
X005407Y010150D01*
X005700Y010443D01*
X005700Y009602D01*
X005678Y009565D02*
X005654Y009638D01*
X005619Y009707D01*
X005574Y009769D01*
X005519Y009824D01*
X005457Y009869D01*
X005388Y009904D01*
X005315Y009928D01*
X005250Y009938D01*
X005250Y009500D01*
X005150Y009500D01*
X005150Y009938D01*
X005085Y009928D01*
X005012Y009904D01*
X004943Y009869D01*
X004881Y009824D01*
X004826Y009769D01*
X004781Y009707D01*
X004746Y009638D01*
X004722Y009565D01*
X004712Y009500D01*
X005150Y009500D01*
X005150Y009400D01*
X005250Y009400D01*
X005250Y008962D01*
X005315Y008972D01*
X005388Y008996D01*
X005457Y009031D01*
X005519Y009076D01*
X005574Y009131D01*
X005619Y009193D01*
X005654Y009262D01*
X005678Y009335D01*
X005680Y009348D01*
X005680Y009347D01*
X005759Y009155D01*
X005905Y009009D01*
X006048Y008950D01*
X006000Y008930D02*
X006000Y008970D01*
X005900Y009015D02*
X005900Y008885D01*
X005865Y008850D02*
X005483Y008850D01*
X005500Y008838D02*
X005500Y009062D01*
X005483Y009050D02*
X005865Y009050D01*
X005800Y009115D02*
X005800Y008785D01*
X005765Y008750D02*
X005588Y008750D01*
X005600Y008733D02*
X005600Y009167D01*
X005588Y009150D02*
X005765Y009150D01*
X005720Y009250D02*
X005648Y009250D01*
X005700Y009298D02*
X005700Y008602D01*
X005720Y008650D02*
X005648Y008650D01*
X005400Y008898D02*
X005400Y009002D01*
X005300Y008970D02*
X005300Y008930D01*
X005250Y008850D02*
X005150Y008850D01*
X005100Y008930D02*
X005100Y008970D01*
X005150Y009050D02*
X005250Y009050D01*
X005250Y009150D02*
X005150Y009150D01*
X005150Y009250D02*
X005250Y009250D01*
X005250Y009350D02*
X005150Y009350D01*
X005200Y009400D02*
X005200Y008500D01*
X005150Y008550D02*
X005250Y008550D01*
X005250Y008650D02*
X005150Y008650D01*
X005150Y008750D02*
X005250Y008750D01*
X005000Y008898D02*
X005000Y009002D01*
X005000Y009400D02*
X005000Y009500D01*
X005100Y009500D02*
X005100Y009400D01*
X005150Y009450D02*
X003700Y009450D01*
X003700Y009443D02*
X003700Y009857D01*
X003407Y010150D01*
X002993Y010150D01*
X002714Y009871D01*
X002415Y010170D01*
X001985Y010170D01*
X001700Y009885D01*
X001415Y010170D01*
X000985Y010170D01*
X000680Y009865D01*
X000680Y009435D01*
X000965Y009150D01*
X000650Y009150D01*
X000650Y009050D02*
X000865Y009050D01*
X000900Y009085D02*
X000900Y009215D01*
X000865Y009250D02*
X000650Y009250D01*
X000650Y009350D02*
X000765Y009350D01*
X000800Y009315D02*
X000800Y008985D01*
X000765Y008950D02*
X000650Y008950D01*
X000700Y008885D02*
X000700Y009415D01*
X000680Y009450D02*
X000650Y009450D01*
X000650Y009550D02*
X000680Y009550D01*
X000680Y009650D02*
X000650Y009650D01*
X000650Y009750D02*
X000680Y009750D01*
X000680Y009850D02*
X000650Y009850D01*
X000700Y009885D02*
X000700Y011652D01*
X000699Y011650D02*
X000765Y011650D01*
X000789Y011708D02*
X000706Y011508D01*
X000706Y011292D01*
X000789Y011092D01*
X000942Y010939D01*
X001142Y010856D01*
X001358Y010856D01*
X001558Y010939D01*
X001711Y011092D01*
X001794Y011292D01*
X001794Y011508D01*
X001711Y011708D01*
X001558Y011861D01*
X001358Y011944D01*
X001142Y011944D01*
X000942Y011861D01*
X000789Y011708D01*
X000800Y011719D02*
X000800Y011813D01*
X000837Y011850D02*
X000931Y011850D01*
X000900Y011819D02*
X000900Y011910D01*
X000894Y011907D02*
X001093Y011989D01*
X001200Y012000D01*
X001200Y011944D01*
X001200Y012000D02*
X017697Y012000D01*
X017629Y011931D01*
X017601Y011864D01*
X017408Y011944D01*
X017192Y011944D01*
X016992Y011861D01*
X016839Y011708D01*
X016756Y011508D01*
X016756Y011292D01*
X016839Y011092D01*
X016992Y010939D01*
X017192Y010856D01*
X017408Y010856D01*
X017608Y010939D01*
X017630Y010961D01*
X017630Y009688D01*
X017554Y009720D01*
X016483Y009720D01*
X016481Y009721D01*
X016364Y009770D01*
X016236Y009770D01*
X016119Y009721D01*
X016029Y009631D01*
X015980Y009514D01*
X015980Y009386D01*
X016029Y009269D01*
X016119Y009179D01*
X016236Y009130D01*
X016364Y009130D01*
X016481Y009179D01*
X016483Y009180D01*
X017230Y009180D01*
X017230Y007760D01*
X015643Y007760D01*
X015581Y007821D01*
X015464Y007870D01*
X015336Y007870D01*
X015219Y007821D01*
X015129Y007731D01*
X015080Y007614D01*
X015080Y007486D01*
X015129Y007369D01*
X015219Y007279D01*
X015336Y007230D01*
X015464Y007230D01*
X015581Y007279D01*
X015643Y007340D01*
X017230Y007340D01*
X017230Y004662D01*
X017088Y004520D01*
X010412Y004520D01*
X010253Y004679D01*
X010154Y004720D01*
X010083Y004720D01*
X010081Y004721D01*
X009964Y004770D01*
X009836Y004770D01*
X009719Y004721D01*
X009717Y004720D01*
X006383Y004720D01*
X006381Y004721D01*
X006264Y004770D01*
X006136Y004770D01*
X006019Y004721D01*
X006017Y004720D01*
X003812Y004720D01*
X003700Y004832D01*
X003700Y004857D01*
X003607Y004950D01*
X007483Y004950D01*
X007888Y004950D01*
X007900Y004945D02*
X007900Y004720D01*
X008000Y004720D02*
X008000Y004930D01*
X007936Y004930D02*
X008064Y004930D01*
X008181Y004979D01*
X008271Y005069D01*
X008320Y005186D01*
X008320Y005314D01*
X008271Y005431D01*
X008181Y005521D01*
X008112Y005550D01*
X010347Y005550D01*
X010419Y005479D01*
X010536Y005430D01*
X010664Y005430D01*
X010781Y005479D01*
X010871Y005569D01*
X010920Y005686D01*
X010920Y005814D01*
X010871Y005931D01*
X010781Y006021D01*
X010664Y006070D01*
X010613Y006070D01*
X010620Y006086D01*
X010620Y006214D01*
X010571Y006331D01*
X010481Y006421D01*
X010364Y006470D01*
X010236Y006470D01*
X010119Y006421D01*
X010047Y006350D01*
X003607Y006350D01*
X003700Y006443D01*
X003700Y006857D01*
X003607Y006950D01*
X003717Y006950D01*
X003800Y006867D01*
X003800Y006350D01*
X003900Y006350D02*
X003900Y006767D01*
X003917Y006750D02*
X003700Y006750D01*
X003700Y006650D02*
X008188Y006650D01*
X008200Y006645D02*
X008200Y006350D01*
X008100Y006350D02*
X008100Y006697D01*
X008119Y006679D02*
X008236Y006630D01*
X008364Y006630D01*
X008481Y006679D01*
X008571Y006769D01*
X008620Y006886D01*
X008620Y007014D01*
X008605Y007050D01*
X010617Y007050D01*
X010717Y006950D01*
X008620Y006950D01*
X008605Y006850D02*
X011947Y006850D01*
X011929Y006869D02*
X011880Y006986D01*
X011880Y007114D01*
X011929Y007231D01*
X012000Y007303D01*
X012000Y008997D01*
X011947Y009050D02*
X006535Y009050D01*
X006500Y009015D02*
X006500Y008885D01*
X006535Y008850D02*
X012000Y008850D01*
X012000Y008750D02*
X006635Y008750D01*
X006600Y008785D02*
X006600Y009115D01*
X006635Y009150D02*
X011895Y009150D01*
X011900Y009138D02*
X011900Y007162D01*
X011895Y007150D02*
X011205Y007150D01*
X011200Y007138D02*
X011200Y004520D01*
X011100Y004520D02*
X011100Y006997D01*
X011081Y006979D02*
X011171Y007069D01*
X011220Y007186D01*
X011220Y007314D01*
X011171Y007431D01*
X011081Y007521D01*
X010964Y007570D01*
X010836Y007570D01*
X010719Y007521D01*
X010647Y007450D01*
X007583Y007450D01*
X007500Y007533D01*
X007383Y007650D01*
X004183Y007650D01*
X012000Y007650D01*
X012000Y007550D02*
X011012Y007550D01*
X011000Y007555D02*
X011000Y010150D01*
X010993Y010150D02*
X010407Y010150D01*
X010700Y010443D01*
X010700Y007503D01*
X010647Y007450D02*
X007583Y007450D01*
X007600Y007450D02*
X007600Y010343D01*
X007607Y010350D02*
X007793Y010350D01*
X007800Y010343D02*
X007800Y007450D01*
X007700Y007450D02*
X007700Y010443D01*
X007407Y010150D01*
X007993Y010150D01*
X008407Y010150D01*
X008993Y010150D01*
X009407Y010150D01*
X009993Y010150D01*
X010407Y010150D01*
X010400Y010150D02*
X010400Y007450D01*
X010300Y007450D02*
X010300Y010150D01*
X010200Y010150D02*
X010200Y007450D01*
X010100Y007450D02*
X010100Y010150D01*
X010000Y010150D02*
X010000Y007450D01*
X009900Y007450D02*
X009900Y010243D01*
X009893Y010250D02*
X009507Y010250D01*
X009500Y010243D02*
X009500Y007450D01*
X009400Y007450D02*
X009400Y010150D01*
X009407Y010150D02*
X009700Y010443D01*
X009700Y007450D01*
X009600Y007450D02*
X009600Y010343D01*
X009607Y010350D02*
X009793Y010350D01*
X009800Y010343D02*
X009800Y007450D01*
X009800Y007050D02*
X009800Y006350D01*
X009900Y006350D02*
X009900Y007050D01*
X010000Y007050D02*
X010000Y006350D01*
X010047Y006350D02*
X003607Y006350D01*
X003700Y006350D02*
X003700Y006950D01*
X003700Y006850D02*
X003817Y006850D01*
X003800Y006867D02*
X003917Y006750D01*
X008047Y006750D01*
X008119Y006679D01*
X008000Y006750D02*
X008000Y006350D01*
X007900Y006350D02*
X007900Y006750D01*
X007800Y006750D02*
X007800Y006350D01*
X007700Y006350D02*
X007700Y006750D01*
X007600Y006750D02*
X007600Y006350D01*
X007500Y006350D02*
X007500Y006750D01*
X007400Y006750D02*
X007400Y006350D01*
X007300Y006350D02*
X007300Y006750D01*
X007200Y006750D02*
X007200Y006350D01*
X007100Y006350D02*
X007100Y006750D01*
X007000Y006750D02*
X007000Y006350D01*
X006900Y006350D02*
X006900Y006750D01*
X006800Y006750D02*
X006800Y006350D01*
X006700Y006350D02*
X006700Y006750D01*
X006600Y006750D02*
X006600Y006350D01*
X006500Y006350D02*
X006500Y006750D01*
X006400Y006750D02*
X006400Y006350D01*
X006300Y006350D02*
X006300Y006750D01*
X006200Y006750D02*
X006200Y006350D01*
X006100Y006350D02*
X006100Y006750D01*
X006000Y006750D02*
X006000Y006350D01*
X005900Y006350D02*
X005900Y006750D01*
X005800Y006750D02*
X005800Y006350D01*
X005700Y006350D02*
X005700Y006750D01*
X005600Y006750D02*
X005600Y006350D01*
X005500Y006350D02*
X005500Y006750D01*
X005400Y006750D02*
X005400Y006350D01*
X005300Y006350D02*
X005300Y006750D01*
X005200Y006750D02*
X005200Y006350D01*
X005100Y006350D02*
X005100Y006750D01*
X005000Y006750D02*
X005000Y006350D01*
X004900Y006350D02*
X004900Y006750D01*
X004800Y006750D02*
X004800Y006350D01*
X004700Y006350D02*
X004700Y006750D01*
X004600Y006750D02*
X004600Y006350D01*
X004500Y006350D02*
X004500Y006750D01*
X004400Y006750D02*
X004400Y006350D01*
X004300Y006350D02*
X004300Y006750D01*
X004200Y006750D02*
X004200Y006350D01*
X004100Y006350D02*
X004100Y006750D01*
X004000Y006750D02*
X004000Y006350D01*
X003700Y006450D02*
X010188Y006450D01*
X010200Y006455D02*
X010200Y007050D01*
X010300Y007050D02*
X010300Y006470D01*
X010400Y006455D02*
X010400Y007050D01*
X010500Y007050D02*
X010500Y006403D01*
X010553Y006350D02*
X012388Y006350D01*
X012400Y006355D02*
X012400Y006445D01*
X012388Y006450D02*
X010412Y006450D01*
X010600Y006262D02*
X010600Y007050D01*
X010700Y006967D02*
X010700Y006055D01*
X010712Y006050D02*
X012180Y006050D01*
X012180Y006114D02*
X012180Y005986D01*
X012229Y005869D01*
X012319Y005779D01*
X012436Y005730D01*
X012564Y005730D01*
X012681Y005779D01*
X012753Y005850D01*
X013183Y005850D01*
X017230Y005850D01*
X017230Y005750D02*
X012612Y005750D01*
X012600Y005745D02*
X012600Y004520D01*
X012700Y004520D02*
X012700Y005797D01*
X012800Y005850D02*
X012800Y004520D01*
X012900Y004520D02*
X012900Y005850D01*
X013000Y005850D02*
X013000Y004520D01*
X013100Y004520D02*
X013100Y005850D01*
X013183Y005850D02*
X013300Y005967D01*
X013300Y008260D01*
X013300Y004520D01*
X013400Y004520D02*
X013400Y008349D01*
X013401Y008350D02*
X017230Y008350D01*
X017230Y008450D02*
X013514Y008450D01*
X013500Y008438D02*
X013500Y004520D01*
X013600Y004520D02*
X013600Y008527D01*
X013626Y008550D02*
X017230Y008550D01*
X017230Y008650D02*
X013739Y008650D01*
X013700Y008616D02*
X013700Y004520D01*
X013800Y004520D02*
X013800Y008705D01*
X013851Y008750D02*
X017230Y008750D01*
X017230Y008850D02*
X013964Y008850D01*
X014000Y008882D02*
X014000Y004520D01*
X013900Y004520D02*
X013900Y008794D01*
X014076Y008950D02*
X013300Y008260D01*
X013300Y008250D02*
X017230Y008250D01*
X017230Y008150D02*
X013300Y008150D01*
X013300Y008050D02*
X017230Y008050D01*
X017230Y007950D02*
X013300Y007950D01*
X013300Y007850D02*
X015288Y007850D01*
X015300Y007855D02*
X015300Y010150D01*
X015400Y010150D02*
X015400Y007870D01*
X015500Y007855D02*
X015500Y010243D01*
X015507Y010250D02*
X017630Y010250D01*
X017630Y010350D02*
X015607Y010350D01*
X015600Y010343D02*
X015600Y007803D01*
X015512Y007850D02*
X017230Y007850D01*
X017200Y007760D02*
X017200Y009180D01*
X017230Y009150D02*
X016412Y009150D01*
X016400Y009145D02*
X016400Y007760D01*
X016300Y007760D02*
X016300Y009130D01*
X016200Y009145D02*
X016200Y007760D01*
X016100Y007760D02*
X016100Y009197D01*
X016047Y009250D02*
X015020Y009250D01*
X015005Y009350D02*
X015995Y009350D01*
X016000Y009338D02*
X016000Y007760D01*
X015900Y007760D02*
X015900Y010445D01*
X015888Y010450D02*
X015700Y010450D01*
X015700Y010443D02*
X015700Y010638D01*
X015700Y007760D01*
X015800Y007760D02*
X015800Y010497D01*
X015819Y010479D02*
X015936Y010430D01*
X015819Y010479D02*
X015729Y010569D01*
X015700Y010638D01*
X015700Y010550D02*
X015747Y010550D01*
X015700Y010443D02*
X015407Y010150D01*
X015200Y010150D02*
X015200Y007803D01*
X015147Y007750D02*
X013300Y007750D01*
X013300Y007650D02*
X015095Y007650D01*
X015100Y007662D02*
X015100Y010150D01*
X015000Y010150D02*
X015000Y009362D01*
X014953Y009450D02*
X015980Y009450D01*
X016047Y009650D02*
X006680Y009650D01*
X006700Y009602D02*
X006700Y010443D01*
X006993Y010150D01*
X006407Y010150D01*
X006700Y010443D01*
X006700Y010857D01*
X006700Y011080D01*
X006600Y011080D02*
X006600Y010957D01*
X006607Y010950D02*
X006793Y010950D01*
X006800Y010957D02*
X006800Y011080D01*
X006893Y011050D02*
X006507Y011050D01*
X006500Y011057D02*
X006500Y011080D01*
X006477Y011080D02*
X006923Y011080D01*
X006700Y010857D01*
X006477Y011080D01*
X006700Y010857D02*
X006700Y010443D01*
X006700Y010450D02*
X006700Y010450D01*
X006700Y010550D02*
X006700Y010550D01*
X006700Y010650D02*
X006700Y010650D01*
X006700Y010750D02*
X006700Y010750D01*
X006700Y010850D02*
X006700Y010850D01*
X006900Y011057D02*
X006900Y011080D01*
X007477Y011080D02*
X007923Y011080D01*
X007700Y010857D01*
X007700Y011080D01*
X007800Y011080D02*
X007800Y010957D01*
X007793Y010950D02*
X007607Y010950D01*
X007600Y010957D02*
X007600Y011080D01*
X007507Y011050D02*
X007893Y011050D01*
X007900Y011057D02*
X007900Y011080D01*
X007700Y010857D02*
X007700Y010443D01*
X007993Y010150D01*
X008000Y010150D02*
X008000Y007450D01*
X007900Y007450D02*
X007900Y010243D01*
X007893Y010250D02*
X007507Y010250D01*
X007500Y010243D02*
X007500Y007533D01*
X007483Y007550D02*
X010788Y007550D01*
X010800Y007555D02*
X010800Y010343D01*
X010793Y010350D02*
X010607Y010350D01*
X010600Y010343D02*
X010600Y007450D01*
X010500Y007450D02*
X010500Y010243D01*
X010507Y010250D02*
X010893Y010250D01*
X010900Y010243D02*
X010900Y007570D01*
X011100Y007503D02*
X011100Y010150D01*
X011200Y010150D02*
X011200Y007362D01*
X011205Y007350D02*
X012000Y007350D01*
X012000Y007450D02*
X011153Y007450D01*
X011220Y007250D02*
X011947Y007250D01*
X011880Y007050D02*
X011153Y007050D01*
X011081Y006979D02*
X010964Y006930D01*
X010836Y006930D01*
X010788Y006950D01*
X010717Y006950D01*
X010800Y006945D02*
X010800Y006003D01*
X010853Y005950D02*
X012195Y005950D01*
X012200Y005938D02*
X012200Y004520D01*
X012300Y004520D02*
X012300Y005797D01*
X012247Y005850D02*
X010905Y005850D01*
X010900Y005862D02*
X010900Y006930D01*
X011000Y006945D02*
X011000Y004520D01*
X010900Y004520D02*
X010900Y005638D01*
X010905Y005650D02*
X017230Y005650D01*
X017230Y005550D02*
X010853Y005550D01*
X010800Y005497D02*
X010800Y004520D01*
X010700Y004520D02*
X010700Y005445D01*
X010712Y005450D02*
X017230Y005450D01*
X017230Y005350D02*
X008305Y005350D01*
X008300Y005362D02*
X008300Y005550D01*
X008400Y005550D02*
X008400Y004720D01*
X008300Y004720D02*
X008300Y005138D01*
X008305Y005150D02*
X017230Y005150D01*
X017230Y005050D02*
X008253Y005050D01*
X008200Y004997D02*
X008200Y004720D01*
X008100Y004720D02*
X008100Y004945D01*
X008112Y004950D02*
X017230Y004950D01*
X017230Y004850D02*
X003700Y004850D01*
X003700Y004832D02*
X003700Y004950D01*
X003800Y004950D02*
X003800Y004732D01*
X003782Y004750D02*
X006088Y004750D01*
X006100Y004755D02*
X006100Y004950D01*
X006200Y004950D02*
X006200Y004770D01*
X006300Y004755D02*
X006300Y004950D01*
X006400Y004950D02*
X006400Y004720D01*
X006312Y004750D02*
X009788Y004750D01*
X009800Y004755D02*
X009800Y005550D01*
X009900Y005550D02*
X009900Y004770D01*
X010000Y004755D02*
X010000Y005550D01*
X010100Y005550D02*
X010100Y004720D01*
X010012Y004750D02*
X017230Y004750D01*
X017218Y004650D02*
X010282Y004650D01*
X010300Y004632D02*
X010300Y005550D01*
X010200Y005550D02*
X010200Y004701D01*
X010382Y004550D02*
X017118Y004550D01*
X017100Y004532D02*
X017100Y007340D01*
X017000Y007340D02*
X017000Y004520D01*
X016900Y004520D02*
X016900Y007340D01*
X016800Y007340D02*
X016800Y004520D01*
X016700Y004520D02*
X016700Y007340D01*
X016600Y007340D02*
X016600Y004520D01*
X016500Y004520D02*
X016500Y007340D01*
X016400Y007340D02*
X016400Y004520D01*
X016300Y004520D02*
X016300Y007340D01*
X016200Y007340D02*
X016200Y004520D01*
X016100Y004520D02*
X016100Y007340D01*
X016000Y007340D02*
X016000Y004520D01*
X015900Y004520D02*
X015900Y007340D01*
X015800Y007340D02*
X015800Y004520D01*
X015700Y004520D02*
X015700Y007340D01*
X015600Y007297D02*
X015600Y004520D01*
X015500Y004520D02*
X015500Y007245D01*
X015512Y007250D02*
X017230Y007250D01*
X017200Y007340D02*
X017200Y004632D01*
X017582Y004250D02*
X017630Y004250D01*
X017600Y004268D02*
X017600Y002220D01*
X017630Y002220D02*
X016646Y002220D01*
X016700Y002220D02*
X016700Y003980D01*
X016800Y003980D02*
X016800Y002220D01*
X016900Y002220D02*
X016900Y003980D01*
X017000Y003980D02*
X017000Y002220D01*
X017100Y002220D02*
X017100Y003980D01*
X017200Y003980D02*
X017200Y002220D01*
X017300Y002220D02*
X017300Y003999D01*
X017254Y003980D02*
X017353Y004021D01*
X017630Y004298D01*
X017630Y002220D01*
X017500Y002220D02*
X017500Y004168D01*
X017482Y004150D02*
X017630Y004150D01*
X017630Y004050D02*
X017382Y004050D01*
X017400Y004068D02*
X017400Y002220D01*
X017400Y001680D02*
X017400Y001444D01*
X017300Y001444D02*
X017300Y001680D01*
X017200Y001680D02*
X017200Y001444D01*
X017100Y001406D02*
X017100Y001680D01*
X017000Y001680D02*
X017000Y001364D01*
X016981Y001350D02*
X016482Y001350D01*
X016500Y001368D02*
X016500Y000300D01*
X016600Y000300D02*
X016600Y001468D01*
X016582Y001450D02*
X018118Y001450D01*
X018100Y001468D02*
X018100Y000300D01*
X018200Y000300D02*
X018200Y001368D01*
X018218Y001350D02*
X017619Y001350D01*
X017600Y001364D02*
X017600Y001680D01*
X017700Y001680D02*
X017700Y001269D01*
X017719Y001250D02*
X018788Y001250D01*
X018800Y001245D02*
X018800Y000300D01*
X018700Y000300D02*
X018700Y001280D01*
X018600Y001280D02*
X018600Y000300D01*
X018500Y000300D02*
X018500Y001280D01*
X018400Y001280D02*
X018400Y000300D01*
X018300Y000300D02*
X018300Y001299D01*
X018049Y001550D02*
X016682Y001550D01*
X016700Y001568D02*
X016700Y000300D01*
X016800Y000300D02*
X016800Y000686D01*
X016815Y000650D02*
X001735Y000650D01*
X001700Y000581D02*
X001700Y000300D01*
X001600Y000300D02*
X001600Y000481D01*
X001569Y000450D02*
X016981Y000450D01*
X017000Y000436D02*
X017000Y000300D01*
X017100Y000300D02*
X017100Y000394D01*
X017200Y000356D02*
X017200Y000300D01*
X017300Y000300D02*
X017300Y000356D01*
X017400Y000356D02*
X017400Y000300D01*
X017500Y000300D02*
X017500Y000394D01*
X017600Y000436D02*
X017600Y000300D01*
X017700Y000300D02*
X017700Y000531D01*
X017719Y000550D02*
X021260Y000550D01*
X021200Y000487D02*
X021200Y002262D01*
X021183Y002250D02*
X021350Y002250D01*
X021350Y002150D02*
X020052Y002150D01*
X020100Y002170D02*
X020100Y000300D01*
X020000Y000300D02*
X020000Y002130D01*
X019900Y002130D02*
X019900Y000300D01*
X019800Y000300D02*
X019800Y002130D01*
X019748Y002150D02*
X019052Y002150D01*
X019100Y002170D02*
X019100Y001803D01*
X019153Y001750D02*
X021350Y001750D01*
X021350Y001650D02*
X019205Y001650D01*
X019200Y001662D02*
X019200Y002215D01*
X019235Y002250D02*
X019565Y002250D01*
X019600Y002215D02*
X019600Y000300D01*
X019700Y000300D02*
X019700Y002170D01*
X019300Y002315D02*
X019300Y000300D01*
X019200Y000300D02*
X019200Y001438D01*
X019205Y001450D02*
X021350Y001450D01*
X021350Y001350D02*
X019153Y001350D01*
X019100Y001297D02*
X019100Y000300D01*
X019000Y000300D02*
X019000Y001245D01*
X019012Y001250D02*
X021350Y001250D01*
X021350Y001150D02*
X017785Y001150D01*
X017800Y001114D02*
X017800Y001680D01*
X017900Y001699D02*
X017900Y000300D01*
X018000Y000300D02*
X018000Y001768D01*
X017982Y001750D02*
X018030Y001750D01*
X018030Y001650D02*
X016782Y001650D01*
X016800Y001668D02*
X016800Y001114D01*
X016815Y001150D02*
X016282Y001150D01*
X016300Y001168D02*
X016300Y000300D01*
X016400Y000300D02*
X016400Y001268D01*
X016382Y001250D02*
X016881Y001250D01*
X016900Y001269D02*
X016900Y001680D01*
X016318Y001950D02*
X015607Y001950D01*
X015600Y001957D02*
X015600Y003980D01*
X015500Y003980D02*
X015500Y002057D01*
X015507Y002050D02*
X016418Y002050D01*
X016400Y002032D02*
X016400Y003980D01*
X016300Y003980D02*
X016300Y001932D01*
X016218Y001850D02*
X015700Y001850D01*
X015700Y001750D02*
X016118Y001750D01*
X016100Y001732D02*
X016100Y003980D01*
X016200Y003980D02*
X016200Y001832D01*
X016018Y001650D02*
X015700Y001650D01*
X015700Y001550D02*
X015918Y001550D01*
X015900Y001532D02*
X015900Y003980D01*
X016000Y003980D02*
X016000Y001632D01*
X015818Y001450D02*
X015700Y001450D01*
X015800Y001432D02*
X015800Y003980D01*
X015700Y003980D02*
X015700Y001332D01*
X015718Y001350D02*
X015607Y001350D01*
X015600Y001343D02*
X015600Y001320D01*
X016082Y000950D02*
X016756Y000950D01*
X016756Y000850D02*
X015982Y000850D01*
X016000Y000868D02*
X016000Y000300D01*
X015900Y000300D02*
X015900Y000799D01*
X015800Y000780D02*
X015800Y000300D01*
X015700Y000300D02*
X015700Y000780D01*
X015600Y000780D02*
X015600Y000300D01*
X015500Y000300D02*
X015500Y000780D01*
X015400Y000780D02*
X015400Y000300D01*
X015300Y000300D02*
X015300Y000780D01*
X015200Y000780D02*
X015200Y000300D01*
X015100Y000300D02*
X015100Y000780D01*
X015000Y000780D02*
X015000Y000300D01*
X014900Y000300D02*
X014900Y000780D01*
X014800Y000780D02*
X014800Y000300D01*
X014700Y000300D02*
X014700Y000780D01*
X014600Y000780D02*
X014600Y000300D01*
X014500Y000300D02*
X014500Y000780D01*
X014400Y000780D02*
X014400Y000300D01*
X014300Y000300D02*
X014300Y000780D01*
X014200Y000780D02*
X014200Y000300D01*
X014100Y000300D02*
X014100Y000780D01*
X014000Y000780D02*
X014000Y000300D01*
X013900Y000300D02*
X013900Y000780D01*
X013800Y000780D02*
X013800Y000300D01*
X013700Y000300D02*
X013700Y000780D01*
X013600Y000780D02*
X013600Y000300D01*
X013500Y000300D02*
X013500Y000780D01*
X013400Y000780D02*
X013400Y000300D01*
X013300Y000300D02*
X013300Y000780D01*
X013200Y000780D02*
X013200Y000300D01*
X013100Y000300D02*
X013100Y000780D01*
X013000Y000780D02*
X013000Y000300D01*
X012900Y000300D02*
X012900Y000780D01*
X012800Y000780D02*
X012800Y000300D01*
X012700Y000300D02*
X012700Y000780D01*
X012600Y000780D02*
X012600Y000300D01*
X012500Y000300D02*
X012500Y000780D01*
X012400Y000780D02*
X012400Y000300D01*
X012300Y000300D02*
X012300Y000780D01*
X012200Y000780D02*
X012200Y000300D01*
X012100Y000300D02*
X012100Y000780D01*
X012000Y000780D02*
X012000Y000300D01*
X011900Y000300D02*
X011900Y000780D01*
X011800Y000780D02*
X011800Y000300D01*
X011700Y000300D02*
X011700Y000780D01*
X011600Y000780D02*
X011600Y000300D01*
X011500Y000300D02*
X011500Y000780D01*
X011400Y000780D02*
X011400Y000300D01*
X011300Y000300D02*
X011300Y000780D01*
X011200Y000780D02*
X011200Y000300D01*
X011100Y000300D02*
X011100Y000780D01*
X011000Y000780D02*
X011000Y000300D01*
X010900Y000300D02*
X010900Y000780D01*
X010800Y000780D02*
X010800Y000300D01*
X010700Y000300D02*
X010700Y000780D01*
X010600Y000780D02*
X010600Y000300D01*
X010500Y000300D02*
X010500Y000780D01*
X010400Y000780D02*
X010400Y000300D01*
X010300Y000300D02*
X010300Y000780D01*
X010200Y000780D02*
X010200Y000300D01*
X010100Y000300D02*
X010100Y000780D01*
X010000Y000780D02*
X010000Y000300D01*
X009900Y000300D02*
X009900Y000780D01*
X009800Y000780D02*
X009800Y000300D01*
X009700Y000300D02*
X009700Y000780D01*
X009600Y000780D02*
X009600Y000300D01*
X009500Y000300D02*
X009500Y000780D01*
X009400Y000780D02*
X009400Y000300D01*
X009300Y000300D02*
X009300Y000780D01*
X009200Y000780D02*
X009200Y000300D01*
X009100Y000300D02*
X009100Y000780D01*
X009000Y000780D02*
X009000Y000300D01*
X008900Y000300D02*
X008900Y000780D01*
X008800Y000780D02*
X008800Y000300D01*
X008700Y000300D02*
X008700Y000780D01*
X008600Y000780D02*
X008600Y000300D01*
X008500Y000300D02*
X008500Y000780D01*
X008400Y000780D02*
X008400Y000300D01*
X008300Y000300D02*
X008300Y000780D01*
X008200Y000780D02*
X008200Y000300D01*
X008100Y000300D02*
X008100Y000780D01*
X008000Y000780D02*
X008000Y000300D01*
X007900Y000300D02*
X007900Y000780D01*
X007800Y000780D02*
X007800Y000300D01*
X007700Y000300D02*
X007700Y000780D01*
X007600Y000780D02*
X007600Y000300D01*
X007500Y000300D02*
X007500Y000780D01*
X007400Y000780D02*
X007400Y000300D01*
X007300Y000300D02*
X007300Y000780D01*
X007200Y000780D02*
X007200Y000300D01*
X007100Y000300D02*
X007100Y000780D01*
X007000Y000780D02*
X007000Y000300D01*
X006900Y000300D02*
X006900Y000780D01*
X006800Y000780D02*
X006800Y000300D01*
X006700Y000300D02*
X006700Y000780D01*
X006600Y000780D02*
X006600Y000300D01*
X006500Y000300D02*
X006500Y000780D01*
X006400Y000780D02*
X006400Y000300D01*
X006300Y000300D02*
X006300Y000780D01*
X006200Y000780D02*
X006200Y000300D01*
X006100Y000300D02*
X006100Y000780D01*
X006000Y000780D02*
X006000Y000300D01*
X005900Y000300D02*
X005900Y000780D01*
X005800Y000780D02*
X005800Y000300D01*
X005700Y000300D02*
X005700Y000780D01*
X005600Y000780D02*
X005600Y000300D01*
X005500Y000300D02*
X005500Y000780D01*
X005400Y000780D02*
X005400Y000300D01*
X005300Y000300D02*
X005300Y000780D01*
X005200Y000799D02*
X005200Y000300D01*
X005100Y000300D02*
X005100Y000868D01*
X005118Y000850D02*
X004953Y000850D01*
X004900Y000797D02*
X004900Y000300D01*
X004800Y000300D02*
X004800Y000745D01*
X004812Y000750D02*
X016774Y000750D01*
X016881Y000550D02*
X001669Y000550D01*
X001500Y000415D02*
X001500Y000300D01*
X001400Y000300D02*
X001400Y000374D01*
X001300Y000356D02*
X001300Y000300D01*
X001100Y000310D02*
X001100Y000374D01*
X001000Y000349D02*
X001000Y000415D01*
X000998Y000350D02*
X021002Y000350D01*
X021000Y000349D02*
X021000Y002170D01*
X020950Y002250D02*
X020850Y002250D01*
X020850Y002350D02*
X020950Y002350D01*
X020950Y002450D02*
X020850Y002450D01*
X020850Y002550D02*
X020950Y002550D01*
X020900Y002600D02*
X020900Y000310D01*
X021100Y000390D02*
X021100Y002202D01*
X021288Y002350D02*
X021350Y002350D01*
X021300Y002367D02*
X021300Y000648D01*
X021301Y000650D02*
X017785Y000650D01*
X017800Y000686D02*
X017800Y000300D01*
X017619Y000450D02*
X021163Y000450D01*
X021400Y000248D02*
X021400Y000150D01*
X021302Y000150D02*
X021500Y000150D01*
X021500Y000348D01*
X021302Y000150D01*
X021500Y000150D01*
X021500Y000250D02*
X021402Y000250D01*
X021339Y000743D02*
X021350Y000850D01*
X021350Y000950D02*
X017844Y000950D01*
X017826Y001050D02*
X021350Y001050D01*
X021350Y001550D02*
X019220Y001550D01*
X019012Y001850D02*
X021350Y001850D01*
X021350Y001950D02*
X018570Y001950D01*
X018570Y001850D02*
X018788Y001850D01*
X018800Y001855D02*
X018800Y002130D01*
X018748Y002150D02*
X018570Y002150D01*
X018600Y002215D02*
X018600Y001820D01*
X018700Y001820D02*
X018700Y002170D01*
X018570Y002050D02*
X021350Y002050D01*
X021348Y002450D02*
X021350Y002450D01*
X020950Y002700D02*
X020850Y002700D01*
X020850Y003138D01*
X020785Y003128D01*
X020712Y003104D01*
X020643Y003069D01*
X020581Y003024D01*
X020526Y002969D01*
X020481Y002907D01*
X020446Y002838D01*
X020422Y002765D01*
X020420Y002752D01*
X020420Y002753D01*
X020341Y002945D01*
X020210Y003075D01*
X020210Y003225D01*
X020341Y003355D01*
X020420Y003547D01*
X020420Y003548D01*
X020422Y003535D01*
X020446Y003462D01*
X020481Y003393D01*
X020526Y003331D01*
X020581Y003276D01*
X020643Y003231D01*
X020712Y003196D01*
X020785Y003172D01*
X020850Y003162D01*
X020850Y003600D01*
X020950Y003600D01*
X020950Y003162D01*
X021015Y003172D01*
X021088Y003196D01*
X021157Y003231D01*
X021219Y003276D01*
X021274Y003331D01*
X021319Y003393D01*
X021350Y003454D01*
X021350Y002846D01*
X021319Y002907D01*
X021274Y002969D01*
X021219Y003024D01*
X021157Y003069D01*
X021088Y003104D01*
X021015Y003128D01*
X020950Y003138D01*
X020950Y002700D01*
X020900Y002700D02*
X020900Y003600D01*
X020850Y003550D02*
X020950Y003550D01*
X020950Y003450D02*
X020850Y003450D01*
X020850Y003350D02*
X020950Y003350D01*
X020950Y003250D02*
X020850Y003250D01*
X020800Y003170D02*
X020800Y003130D01*
X020850Y003050D02*
X020950Y003050D01*
X021000Y003130D02*
X021000Y003170D01*
X021100Y003202D02*
X021100Y003098D01*
X021183Y003050D02*
X021350Y003050D01*
X021350Y003150D02*
X020210Y003150D01*
X020235Y003050D02*
X020617Y003050D01*
X020600Y003038D02*
X020600Y003262D01*
X020617Y003250D02*
X020235Y003250D01*
X020300Y003315D02*
X020300Y002985D01*
X020335Y002950D02*
X020512Y002950D01*
X020500Y002933D02*
X020500Y003367D01*
X020512Y003350D02*
X020335Y003350D01*
X020380Y003450D02*
X020452Y003450D01*
X020400Y003498D02*
X020400Y002802D01*
X020380Y002850D02*
X020452Y002850D01*
X020700Y003098D02*
X020700Y003202D01*
X020850Y002950D02*
X020950Y002950D01*
X020950Y002850D02*
X020850Y002850D01*
X020850Y002750D02*
X020950Y002750D01*
X021288Y002950D02*
X021350Y002950D01*
X021300Y002933D02*
X021300Y003367D01*
X021288Y003350D02*
X021350Y003350D01*
X021350Y003250D02*
X021183Y003250D01*
X021200Y003262D02*
X021200Y003038D01*
X021348Y002850D02*
X021350Y002850D01*
X020512Y002350D02*
X020335Y002350D01*
X020300Y002315D02*
X020300Y000300D01*
X020200Y000300D02*
X020200Y002215D01*
X020235Y002250D02*
X020617Y002250D01*
X020600Y002262D02*
X020600Y000300D01*
X020500Y000300D02*
X020500Y002367D01*
X020452Y002450D02*
X020380Y002450D01*
X020400Y002498D02*
X020400Y000300D01*
X018900Y000300D02*
X018900Y001230D01*
X019000Y001855D02*
X019000Y002130D01*
X018900Y002130D02*
X018900Y001870D01*
X017500Y001680D02*
X017500Y001406D01*
X016774Y001050D02*
X016182Y001050D01*
X016200Y001068D02*
X016200Y000300D01*
X016100Y000300D02*
X016100Y000968D01*
X016900Y000531D02*
X016900Y000300D01*
X014823Y001320D02*
X014577Y001320D01*
X014700Y001443D01*
X014700Y001320D01*
X014607Y001350D02*
X014793Y001350D01*
X014800Y001343D02*
X014800Y001320D01*
X014823Y001320D02*
X014700Y001443D01*
X014700Y001857D01*
X014407Y002150D01*
X014700Y001857D02*
X014700Y001443D01*
X014700Y001450D02*
X014700Y001450D01*
X014700Y001550D02*
X014700Y001550D01*
X014700Y001650D02*
X014700Y001650D01*
X014700Y001750D02*
X014700Y001750D01*
X014700Y001850D02*
X014700Y001850D01*
X015000Y002150D02*
X015000Y003980D01*
X015100Y003980D02*
X015100Y002150D01*
X015200Y002150D02*
X015200Y003980D01*
X015300Y003980D02*
X015300Y002150D01*
X015400Y002150D02*
X015400Y003980D01*
X015400Y004520D02*
X015400Y007230D01*
X015300Y007245D02*
X015300Y004520D01*
X015200Y004520D02*
X015200Y007297D01*
X015147Y007350D02*
X013300Y007350D01*
X013300Y007450D02*
X015095Y007450D01*
X015100Y007438D02*
X015100Y004520D01*
X015000Y004520D02*
X015000Y009138D01*
X015005Y009150D02*
X016188Y009150D01*
X016500Y009180D02*
X016500Y007760D01*
X016600Y007760D02*
X016600Y009180D01*
X016700Y009180D02*
X016700Y007760D01*
X016800Y007760D02*
X016800Y009180D01*
X016900Y009180D02*
X016900Y007760D01*
X017000Y007760D02*
X017000Y009180D01*
X017100Y009180D02*
X017100Y007760D01*
X017230Y007150D02*
X013300Y007150D01*
X013300Y007050D02*
X017230Y007050D01*
X017230Y006950D02*
X013300Y006950D01*
X013300Y006850D02*
X017230Y006850D01*
X017230Y006750D02*
X013300Y006750D01*
X013300Y006650D02*
X017230Y006650D01*
X017230Y006550D02*
X013300Y006550D01*
X013300Y006450D02*
X017230Y006450D01*
X017230Y006350D02*
X013300Y006350D01*
X013300Y006250D02*
X017230Y006250D01*
X017230Y006150D02*
X013300Y006150D01*
X013300Y006050D02*
X017230Y006050D01*
X017230Y005950D02*
X013283Y005950D01*
X013200Y005867D02*
X013200Y004520D01*
X012500Y004520D02*
X012500Y005730D01*
X012400Y005745D02*
X012400Y004520D01*
X012100Y004520D02*
X012100Y006745D01*
X012088Y006750D02*
X008553Y006750D01*
X008500Y006697D02*
X008500Y006350D01*
X008600Y006350D02*
X008600Y006838D01*
X008700Y007050D02*
X008700Y006350D01*
X008800Y006350D02*
X008800Y007050D01*
X008900Y007050D02*
X008900Y006350D01*
X009000Y006350D02*
X009000Y007050D01*
X009100Y007050D02*
X009100Y006350D01*
X009200Y006350D02*
X009200Y007050D01*
X009300Y007050D02*
X009300Y006350D01*
X009400Y006350D02*
X009400Y007050D01*
X009500Y007050D02*
X009500Y006350D01*
X009600Y006350D02*
X009600Y007050D01*
X009700Y007050D02*
X009700Y006350D01*
X010100Y006403D02*
X010100Y007050D01*
X010800Y007150D02*
X010900Y007250D01*
X007500Y007250D01*
X007300Y007450D01*
X004100Y007450D01*
X003800Y007750D01*
X003800Y007950D01*
X003600Y008150D01*
X001600Y008150D01*
X001200Y007750D01*
X001200Y007650D01*
X000680Y007650D02*
X000650Y007650D01*
X000650Y007550D02*
X000680Y007550D01*
X000680Y007450D02*
X000650Y007450D01*
X000680Y007435D02*
X000965Y007150D01*
X000650Y007150D01*
X000650Y007050D02*
X000865Y007050D01*
X000900Y007085D02*
X000900Y007215D01*
X000865Y007250D02*
X000650Y007250D01*
X000650Y007350D02*
X000765Y007350D01*
X000800Y007315D02*
X000800Y006985D01*
X000765Y006950D02*
X000650Y006950D01*
X000700Y006885D02*
X000700Y007415D01*
X000680Y007435D02*
X000680Y007865D01*
X000965Y008150D01*
X000680Y008435D01*
X000680Y008865D01*
X000965Y009150D01*
X001435Y009150D02*
X001965Y009150D01*
X001700Y008885D01*
X001700Y009415D01*
X001965Y009150D01*
X001900Y009085D02*
X001900Y009215D01*
X001865Y009250D02*
X001535Y009250D01*
X001500Y009215D02*
X001500Y009085D01*
X001535Y009050D02*
X001865Y009050D01*
X001800Y008985D02*
X001800Y009315D01*
X001765Y009350D02*
X001635Y009350D01*
X001600Y009315D02*
X001600Y008985D01*
X001635Y008950D02*
X001765Y008950D01*
X001700Y008885D02*
X001435Y009150D01*
X001700Y009415D01*
X001700Y009885D02*
X001700Y011081D01*
X001669Y011050D02*
X003935Y011050D01*
X003900Y011015D02*
X003900Y012000D01*
X003800Y012000D02*
X003800Y010915D01*
X003835Y010950D02*
X001569Y010950D01*
X001600Y010981D02*
X001600Y009985D01*
X001635Y009950D02*
X001765Y009950D01*
X001800Y009985D02*
X001800Y012000D01*
X001900Y012000D02*
X001900Y010085D01*
X001865Y010050D02*
X001535Y010050D01*
X001500Y010085D02*
X001500Y010915D01*
X001400Y010874D02*
X001400Y010170D01*
X001435Y010150D02*
X001965Y010150D01*
X002000Y010170D02*
X002000Y012000D01*
X002100Y012000D02*
X002100Y010170D01*
X002200Y010170D02*
X002200Y012000D01*
X002300Y012000D02*
X002300Y010170D01*
X002400Y010170D02*
X002400Y012000D01*
X002500Y012000D02*
X002500Y010085D01*
X002535Y010050D02*
X002893Y010050D01*
X002900Y010057D02*
X002900Y012000D01*
X003000Y012000D02*
X003000Y010150D01*
X003100Y010150D02*
X003100Y012000D01*
X003200Y012000D02*
X003200Y010150D01*
X003300Y010150D02*
X003300Y012000D01*
X003400Y012000D02*
X003400Y010150D01*
X003735Y010450D02*
X000650Y010450D01*
X000650Y010350D02*
X003835Y010350D01*
X003800Y010385D02*
X003800Y008233D01*
X003783Y008250D02*
X004752Y008250D01*
X004746Y008262D02*
X004781Y008193D01*
X004826Y008131D01*
X004881Y008076D01*
X004943Y008031D01*
X005012Y007996D01*
X005085Y007972D01*
X005150Y007962D01*
X005150Y008400D01*
X004712Y008400D01*
X004722Y008335D01*
X004746Y008262D01*
X004720Y008350D02*
X003607Y008350D01*
X003700Y008333D02*
X003700Y012000D01*
X004000Y012000D02*
X004000Y011115D01*
X004100Y011120D02*
X004100Y012000D01*
X005000Y012000D02*
X005000Y011432D01*
X005018Y011450D02*
X001794Y011450D01*
X001794Y011350D02*
X004949Y011350D01*
X004930Y011250D02*
X001776Y011250D01*
X001735Y011150D02*
X004930Y011150D01*
X004700Y010857D02*
X004700Y010443D01*
X004700Y007650D01*
X004600Y007650D02*
X004600Y010385D01*
X004565Y010350D02*
X004793Y010350D01*
X004800Y010343D02*
X004800Y009733D01*
X004812Y009750D02*
X003700Y009750D01*
X003700Y009850D02*
X004917Y009850D01*
X004900Y009838D02*
X004900Y010243D01*
X004893Y010250D02*
X004465Y010250D01*
X004500Y010285D02*
X004500Y007650D01*
X004400Y007650D02*
X004400Y010185D01*
X004300Y010180D02*
X004300Y007650D01*
X004100Y007733D02*
X004100Y010180D01*
X004150Y010250D02*
X004250Y010250D01*
X004250Y010350D02*
X004150Y010350D01*
X004150Y010450D02*
X004250Y010450D01*
X004250Y010550D02*
X004150Y010550D01*
X004100Y010600D02*
X004100Y010700D01*
X004150Y010650D02*
X000650Y010650D01*
X000650Y010750D02*
X003730Y010750D01*
X003800Y010700D02*
X003800Y010600D01*
X003730Y010550D02*
X000650Y010550D01*
X000650Y010250D02*
X003935Y010250D01*
X003900Y010285D02*
X003900Y008133D01*
X003883Y008150D02*
X004812Y008150D01*
X004800Y008167D02*
X004800Y007650D01*
X004900Y007650D02*
X004900Y008062D01*
X004917Y008050D02*
X003983Y008050D01*
X004000Y007950D02*
X006048Y007950D01*
X006000Y007970D02*
X006000Y007650D01*
X005900Y007650D02*
X005900Y008015D01*
X005865Y008050D02*
X005483Y008050D01*
X005500Y008062D02*
X005500Y007650D01*
X005600Y007650D02*
X005600Y008167D01*
X005588Y008150D02*
X005765Y008150D01*
X005800Y008115D02*
X005800Y007650D01*
X005700Y007650D02*
X005700Y008298D01*
X005720Y008250D02*
X005648Y008250D01*
X005400Y008002D02*
X005400Y007650D01*
X005300Y007650D02*
X005300Y007970D01*
X005250Y008050D02*
X005150Y008050D01*
X005100Y007970D02*
X005100Y007650D01*
X005200Y007650D02*
X005200Y008400D01*
X005150Y008350D02*
X005250Y008350D01*
X005250Y008250D02*
X005150Y008250D01*
X005150Y008150D02*
X005250Y008150D01*
X005000Y008002D02*
X005000Y007650D01*
X005000Y007250D02*
X005000Y007150D01*
X005100Y007150D02*
X005100Y007250D01*
X005200Y007250D02*
X005200Y007150D01*
X005300Y007150D02*
X005300Y007250D01*
X005400Y007250D02*
X005400Y007150D01*
X005500Y007150D02*
X005500Y007250D01*
X005600Y007250D02*
X005600Y007150D01*
X005700Y007150D02*
X005700Y007250D01*
X005800Y007250D02*
X005800Y007150D01*
X005900Y007150D02*
X005900Y007250D01*
X006000Y007250D02*
X006000Y007150D01*
X006100Y007150D02*
X006100Y007250D01*
X006200Y007250D02*
X006200Y007150D01*
X006300Y007150D02*
X006300Y007250D01*
X006400Y007250D02*
X006400Y007150D01*
X006500Y007150D02*
X006500Y007250D01*
X006600Y007250D02*
X006600Y007150D01*
X006700Y007150D02*
X006700Y007250D01*
X006800Y007250D02*
X006800Y007150D01*
X006900Y007150D02*
X006900Y007250D01*
X007000Y007250D02*
X007000Y007150D01*
X007100Y007150D02*
X007100Y007250D01*
X007200Y007250D02*
X007200Y007150D01*
X007300Y007150D02*
X007300Y007167D01*
X007317Y007150D01*
X004083Y007150D01*
X004000Y007233D01*
X003883Y007350D01*
X003607Y007350D01*
X003700Y007443D01*
X003700Y007567D01*
X003700Y007350D01*
X003607Y007350D02*
X003917Y007350D01*
X003900Y007333D02*
X003900Y007367D01*
X003800Y007350D02*
X003800Y007467D01*
X003817Y007450D02*
X003700Y007450D01*
X003700Y007550D02*
X003717Y007550D01*
X004017Y007250D01*
X003983Y007250D01*
X004000Y007233D02*
X004000Y007267D01*
X004017Y007250D02*
X004183Y007250D01*
X007217Y007250D01*
X007300Y007167D01*
X007317Y007150D02*
X004083Y007150D01*
X004100Y007150D02*
X004100Y007250D01*
X004200Y007250D02*
X004200Y007150D01*
X004300Y007150D02*
X004300Y007250D01*
X004400Y007250D02*
X004400Y007150D01*
X004500Y007150D02*
X004500Y007250D01*
X004600Y007250D02*
X004600Y007150D01*
X004700Y007150D02*
X004700Y007250D01*
X004800Y007250D02*
X004800Y007150D01*
X004900Y007150D02*
X004900Y007250D01*
X004000Y007233D02*
X004000Y007233D01*
X003800Y007150D02*
X004000Y006950D01*
X008300Y006950D01*
X008300Y006630D02*
X008300Y006350D01*
X008400Y006350D02*
X008400Y006645D01*
X008412Y006650D02*
X012195Y006650D01*
X012200Y006638D02*
X012200Y006162D01*
X012195Y006150D02*
X010620Y006150D01*
X010605Y006250D02*
X012247Y006250D01*
X012229Y006231D02*
X012180Y006114D01*
X012229Y006231D02*
X012319Y006321D01*
X012436Y006370D01*
X012480Y006370D01*
X012480Y006414D01*
X012487Y006430D01*
X012436Y006430D01*
X012319Y006479D01*
X012229Y006569D01*
X012180Y006686D01*
X012180Y006730D01*
X012136Y006730D01*
X012019Y006779D01*
X011929Y006869D01*
X011900Y006938D02*
X011900Y004520D01*
X011800Y004520D02*
X011800Y010343D01*
X011793Y010350D02*
X011607Y010350D01*
X011600Y010343D02*
X011600Y004520D01*
X011700Y004520D02*
X011700Y010443D01*
X011993Y010150D01*
X011407Y010150D01*
X011700Y010443D01*
X011700Y010857D01*
X011700Y011080D01*
X011600Y011080D02*
X011600Y010957D01*
X011607Y010950D02*
X011793Y010950D01*
X011800Y010957D02*
X011800Y011080D01*
X011893Y011050D02*
X011507Y011050D01*
X011500Y011057D02*
X011500Y011080D01*
X011477Y011080D02*
X011923Y011080D01*
X011700Y010857D01*
X011477Y011080D01*
X011700Y010857D02*
X011700Y010443D01*
X011700Y010450D02*
X011700Y010450D01*
X011700Y010550D02*
X011700Y010550D01*
X011700Y010650D02*
X011700Y010650D01*
X011700Y010750D02*
X011700Y010750D01*
X011700Y010850D02*
X011700Y010850D01*
X011900Y011057D02*
X011900Y011080D01*
X012477Y011080D02*
X012923Y011080D01*
X012700Y010857D01*
X012700Y011080D01*
X012600Y011080D02*
X012600Y010957D01*
X012607Y010950D02*
X012793Y010950D01*
X012800Y010957D02*
X012800Y011080D01*
X012893Y011050D02*
X012507Y011050D01*
X012500Y011057D02*
X012500Y011080D01*
X012477Y011080D02*
X012700Y010857D01*
X012700Y010443D01*
X012700Y009570D01*
X012600Y009555D02*
X012600Y010343D01*
X012607Y010350D02*
X012793Y010350D01*
X012800Y010343D02*
X012800Y009555D01*
X012812Y009550D02*
X013388Y009550D01*
X013300Y009503D02*
X013300Y010150D01*
X013200Y010150D02*
X013200Y009362D01*
X013195Y009350D02*
X013005Y009350D01*
X013000Y009362D02*
X013000Y010150D01*
X012993Y010150D02*
X012407Y010150D01*
X012700Y010443D01*
X012993Y010150D01*
X013407Y010150D01*
X013700Y010443D01*
X013700Y009503D01*
X013753Y009450D02*
X014447Y009450D01*
X014500Y009503D02*
X014500Y010243D01*
X014507Y010250D02*
X014893Y010250D01*
X014900Y010243D02*
X014900Y009503D01*
X014700Y009570D02*
X014700Y010443D01*
X014993Y010150D01*
X014700Y010443D02*
X014700Y010857D01*
X014700Y011080D01*
X014600Y011080D02*
X014600Y010957D01*
X014607Y010950D02*
X014793Y010950D01*
X014800Y010957D02*
X014800Y011080D01*
X014893Y011050D02*
X014507Y011050D01*
X014500Y011057D02*
X014500Y011080D01*
X014477Y011080D02*
X014923Y011080D01*
X014700Y010857D01*
X014477Y011080D01*
X014700Y010857D02*
X014700Y010443D01*
X014407Y010150D01*
X014400Y010150D02*
X014400Y009362D01*
X014395Y009350D02*
X014006Y009350D01*
X014000Y009350D02*
X014000Y010150D01*
X013993Y010150D02*
X013700Y010443D01*
X013700Y010857D01*
X013700Y011080D01*
X013800Y011080D02*
X013800Y010957D01*
X013793Y010950D02*
X013607Y010950D01*
X013600Y010957D02*
X013600Y011080D01*
X013507Y011050D02*
X013893Y011050D01*
X013900Y011057D02*
X013900Y011080D01*
X013923Y011080D02*
X013700Y010857D01*
X013477Y011080D01*
X013923Y011080D01*
X013700Y010857D02*
X013700Y010443D01*
X013700Y010450D02*
X013700Y010450D01*
X013700Y010550D02*
X013700Y010550D01*
X013700Y010650D02*
X013700Y010650D01*
X013700Y010750D02*
X013700Y010750D01*
X013700Y010850D02*
X013700Y010850D01*
X013500Y011057D02*
X013500Y011080D01*
X012900Y011057D02*
X012900Y011080D01*
X012700Y010857D02*
X012700Y010443D01*
X012700Y010450D02*
X012700Y010450D01*
X012700Y010550D02*
X012700Y010550D01*
X012700Y010650D02*
X012700Y010650D01*
X012700Y010750D02*
X012700Y010750D01*
X012700Y010850D02*
X012700Y010850D01*
X012507Y010250D02*
X012893Y010250D01*
X012900Y010243D02*
X012900Y009503D01*
X012953Y009450D02*
X013247Y009450D01*
X013180Y009250D02*
X013020Y009250D01*
X013005Y009150D02*
X013076Y009150D01*
X013100Y009171D02*
X013100Y010150D01*
X012500Y010243D02*
X012500Y009503D01*
X012588Y009550D02*
X012312Y009550D01*
X012300Y009555D02*
X012300Y010150D01*
X012200Y010150D02*
X012200Y009570D01*
X012100Y009555D02*
X012100Y010150D01*
X012000Y010150D02*
X012000Y009503D01*
X011947Y009450D02*
X006720Y009450D01*
X006720Y009350D02*
X011895Y009350D01*
X011900Y009362D02*
X011900Y010243D01*
X011893Y010250D02*
X011507Y010250D01*
X011500Y010243D02*
X011500Y004520D01*
X011400Y004520D02*
X011400Y010150D01*
X011407Y010150D02*
X010993Y010150D01*
X010700Y010443D01*
X010700Y010857D01*
X010700Y011080D01*
X010800Y011080D02*
X010800Y010957D01*
X010793Y010950D02*
X010607Y010950D01*
X010600Y010957D02*
X010600Y011080D01*
X010507Y011050D02*
X010893Y011050D01*
X010900Y011057D02*
X010900Y011080D01*
X010923Y011080D02*
X010700Y010857D01*
X010477Y011080D01*
X010923Y011080D01*
X010700Y010857D02*
X010700Y010443D01*
X010700Y010450D02*
X010700Y010450D01*
X010700Y010550D02*
X010700Y010550D01*
X010700Y010650D02*
X010700Y010650D01*
X010700Y010750D02*
X010700Y010750D01*
X010700Y010850D02*
X010700Y010850D01*
X010500Y011057D02*
X010500Y011080D01*
X009923Y011080D02*
X009700Y010857D01*
X009700Y011080D01*
X009600Y011080D02*
X009600Y010957D01*
X009607Y010950D02*
X009793Y010950D01*
X009800Y010957D02*
X009800Y011080D01*
X009893Y011050D02*
X009507Y011050D01*
X009500Y011057D02*
X009500Y011080D01*
X009477Y011080D02*
X009923Y011080D01*
X009900Y011080D02*
X009900Y011057D01*
X009700Y010857D02*
X009700Y010443D01*
X009993Y010150D01*
X009700Y010443D02*
X009700Y010857D01*
X009477Y011080D01*
X009700Y010850D02*
X009700Y010850D01*
X009700Y010750D02*
X009700Y010750D01*
X009700Y010650D02*
X009700Y010650D01*
X009700Y010550D02*
X009700Y010550D01*
X009700Y010450D02*
X009700Y010450D01*
X009300Y010150D02*
X009300Y007450D01*
X009200Y007450D02*
X009200Y010150D01*
X009100Y010150D02*
X009100Y007450D01*
X009000Y007450D02*
X009000Y010150D01*
X008993Y010150D02*
X008700Y010443D01*
X008700Y007450D01*
X008800Y007450D02*
X008800Y010343D01*
X008793Y010350D02*
X008607Y010350D01*
X008600Y010343D02*
X008600Y007450D01*
X008500Y007450D02*
X008500Y010243D01*
X008507Y010250D02*
X008893Y010250D01*
X008900Y010243D02*
X008900Y007450D01*
X008400Y007450D02*
X008400Y010150D01*
X008407Y010150D02*
X008700Y010443D01*
X008700Y010857D01*
X008700Y011080D01*
X008800Y011080D02*
X008800Y010957D01*
X008793Y010950D02*
X008607Y010950D01*
X008600Y010957D02*
X008600Y011080D01*
X008507Y011050D02*
X008893Y011050D01*
X008900Y011057D02*
X008900Y011080D01*
X008923Y011080D02*
X008700Y010857D01*
X008477Y011080D01*
X008923Y011080D01*
X008700Y010857D02*
X008700Y010443D01*
X008700Y010450D02*
X008700Y010450D01*
X008700Y010550D02*
X008700Y010550D01*
X008700Y010650D02*
X008700Y010650D01*
X008700Y010750D02*
X008700Y010750D01*
X008700Y010850D02*
X008700Y010850D01*
X008500Y011057D02*
X008500Y011080D01*
X008500Y011620D02*
X008500Y012000D01*
X008600Y012000D02*
X008600Y011620D01*
X008700Y011620D02*
X008700Y012000D01*
X008800Y012000D02*
X008800Y011620D01*
X008900Y011620D02*
X008900Y012000D01*
X009000Y012000D02*
X009000Y011620D01*
X009100Y011620D02*
X009100Y012000D01*
X009200Y012000D02*
X009200Y011620D01*
X009300Y011620D02*
X009300Y012000D01*
X009400Y012000D02*
X009400Y011620D01*
X009500Y011620D02*
X009500Y012000D01*
X009600Y012000D02*
X009600Y011620D01*
X009700Y011620D02*
X009700Y012000D01*
X009800Y012000D02*
X009800Y011620D01*
X009900Y011620D02*
X009900Y012000D01*
X010000Y012000D02*
X010000Y011620D01*
X010100Y011620D02*
X010100Y012000D01*
X010200Y012000D02*
X010200Y011620D01*
X010300Y011620D02*
X010300Y012000D01*
X010400Y012000D02*
X010400Y011620D01*
X010500Y011620D02*
X010500Y012000D01*
X010600Y012000D02*
X010600Y011620D01*
X010700Y011620D02*
X010700Y012000D01*
X010800Y012000D02*
X010800Y011620D01*
X010900Y011620D02*
X010900Y012000D01*
X011000Y012000D02*
X011000Y011620D01*
X011100Y011620D02*
X011100Y012000D01*
X011200Y012000D02*
X011200Y011620D01*
X011300Y011620D02*
X011300Y012000D01*
X011400Y012000D02*
X011400Y011620D01*
X011500Y011620D02*
X011500Y012000D01*
X011600Y012000D02*
X011600Y011620D01*
X011700Y011620D02*
X011700Y012000D01*
X011800Y012000D02*
X011800Y011620D01*
X011900Y011620D02*
X011900Y012000D01*
X012000Y012000D02*
X012000Y011620D01*
X012100Y011620D02*
X012100Y012000D01*
X012200Y012000D02*
X012200Y011620D01*
X012300Y011620D02*
X012300Y012000D01*
X012400Y012000D02*
X012400Y011620D01*
X012500Y011620D02*
X012500Y012000D01*
X012600Y012000D02*
X012600Y011620D01*
X012700Y011620D02*
X012700Y012000D01*
X012800Y012000D02*
X012800Y011620D01*
X012900Y011620D02*
X012900Y012000D01*
X013000Y012000D02*
X013000Y011620D01*
X013100Y011620D02*
X013100Y012000D01*
X013200Y012000D02*
X013200Y011620D01*
X013300Y011620D02*
X013300Y012000D01*
X013400Y012000D02*
X013400Y011620D01*
X013500Y011620D02*
X013500Y012000D01*
X013600Y012000D02*
X013600Y011620D01*
X013700Y011620D02*
X013700Y012000D01*
X013800Y012000D02*
X013800Y011620D01*
X013900Y011620D02*
X013900Y012000D01*
X014000Y012000D02*
X014000Y011620D01*
X014100Y011620D02*
X014100Y012000D01*
X014200Y012000D02*
X014200Y011620D01*
X014300Y011620D02*
X014300Y012000D01*
X014400Y012000D02*
X014400Y011620D01*
X014500Y011620D02*
X014500Y012000D01*
X014600Y012000D02*
X014600Y011620D01*
X014700Y011620D02*
X014700Y012000D01*
X014800Y012000D02*
X014800Y011620D01*
X014900Y011620D02*
X014900Y012000D01*
X015000Y012000D02*
X015000Y011620D01*
X015100Y011620D02*
X015100Y012000D01*
X015200Y012000D02*
X015200Y011620D01*
X015300Y011620D02*
X015300Y012000D01*
X015400Y012000D02*
X015400Y011620D01*
X015500Y011620D02*
X015500Y012000D01*
X015600Y012000D02*
X015600Y011620D01*
X015700Y011620D02*
X015700Y012000D01*
X015800Y012000D02*
X015800Y011620D01*
X015900Y011620D02*
X015900Y012000D01*
X016000Y012000D02*
X016000Y011601D01*
X016082Y011550D02*
X016774Y011550D01*
X016800Y011614D02*
X016800Y012000D01*
X016900Y012000D02*
X016900Y011769D01*
X016881Y011750D02*
X001669Y011750D01*
X001700Y011719D02*
X001700Y012000D01*
X001600Y012000D02*
X001600Y011819D01*
X001569Y011850D02*
X016981Y011850D01*
X017000Y011864D02*
X017000Y012000D01*
X017100Y012000D02*
X017100Y011906D01*
X017200Y011944D02*
X017200Y012000D01*
X017300Y012000D02*
X017300Y011944D01*
X017400Y011944D02*
X017400Y012000D01*
X017500Y012000D02*
X017500Y011906D01*
X017600Y011864D02*
X017600Y012000D01*
X017647Y011950D02*
X000998Y011950D01*
X001000Y011951D02*
X001000Y011885D01*
X000894Y011907D02*
X000743Y011756D01*
X000661Y011557D01*
X000650Y011450D01*
X000706Y011450D01*
X000650Y011450D02*
X000650Y000850D01*
X000706Y000850D01*
X000650Y000850D02*
X000661Y000743D01*
X000743Y000544D01*
X000740Y000550D02*
X000831Y000550D01*
X000800Y000581D02*
X000800Y000487D01*
X000837Y000450D02*
X000931Y000450D01*
X000900Y000481D02*
X000900Y000390D01*
X000765Y000650D02*
X000699Y000650D01*
X000700Y000647D02*
X000700Y003415D01*
X000680Y003435D02*
X000985Y003130D01*
X000987Y003130D01*
X000710Y002853D01*
X000710Y002700D01*
X001150Y002700D01*
X001150Y002600D01*
X001250Y002600D01*
X001250Y002160D01*
X001403Y002160D01*
X001300Y002160D02*
X001300Y001444D01*
X001200Y001444D02*
X001200Y002600D01*
X001150Y002600D02*
X001150Y002160D01*
X000997Y002160D01*
X000710Y002447D01*
X000710Y002600D01*
X001150Y002600D01*
X001100Y002600D02*
X001100Y002700D01*
X001150Y002650D02*
X000650Y002650D01*
X000650Y002550D02*
X000710Y002550D01*
X000710Y002450D02*
X000650Y002450D01*
X000650Y002350D02*
X000807Y002350D01*
X000800Y002357D02*
X000800Y001219D01*
X000831Y001250D02*
X000650Y001250D01*
X000650Y001150D02*
X000765Y001150D01*
X000724Y001050D02*
X000650Y001050D01*
X000650Y000950D02*
X000706Y000950D01*
X000724Y000750D02*
X000660Y000750D01*
X001669Y001250D02*
X003935Y001250D01*
X003900Y001285D02*
X003900Y000300D01*
X004000Y000300D02*
X004000Y001185D01*
X004100Y001180D02*
X004100Y000300D01*
X004200Y000300D02*
X004200Y001600D01*
X004150Y001550D02*
X004250Y001550D01*
X004250Y001450D02*
X004150Y001450D01*
X004150Y001350D02*
X004250Y001350D01*
X004250Y001250D02*
X004150Y001250D01*
X004300Y001180D02*
X004300Y000300D01*
X004400Y000300D02*
X004400Y000938D01*
X004395Y000950D02*
X001794Y000950D01*
X001794Y000850D02*
X004447Y000850D01*
X004500Y000797D02*
X004500Y000300D01*
X004600Y000300D02*
X004600Y000745D01*
X004588Y000750D02*
X001776Y000750D01*
X001776Y001050D02*
X004380Y001050D01*
X004395Y001150D02*
X001735Y001150D01*
X001700Y001219D02*
X001700Y003415D01*
X001635Y003350D02*
X001765Y003350D01*
X001800Y003315D02*
X001800Y002943D01*
X001807Y002950D02*
X001593Y002950D01*
X001600Y002943D02*
X001600Y003315D01*
X001535Y003250D02*
X001865Y003250D01*
X001900Y003215D02*
X001900Y003043D01*
X001907Y003050D02*
X001493Y003050D01*
X001500Y003043D02*
X001500Y003215D01*
X001435Y003150D02*
X001965Y003150D01*
X001710Y002850D02*
X001690Y002850D01*
X001690Y002750D02*
X001710Y002750D01*
X001800Y002700D02*
X001800Y002600D01*
X001710Y002600D02*
X001710Y002447D01*
X001997Y002160D01*
X002150Y002160D01*
X002150Y002600D01*
X001710Y002600D01*
X001710Y002550D02*
X001690Y002550D01*
X001690Y002450D02*
X001710Y002450D01*
X001600Y002600D02*
X001600Y002700D01*
X001500Y002700D02*
X001500Y002600D01*
X001400Y002600D02*
X001400Y002700D01*
X001300Y002700D02*
X001300Y002600D01*
X001250Y002650D02*
X002150Y002650D01*
X002100Y002600D02*
X002100Y002700D01*
X002000Y002700D02*
X002000Y002600D01*
X001900Y002600D02*
X001900Y002700D01*
X002150Y002550D02*
X002250Y002550D01*
X002200Y002600D02*
X002200Y000300D01*
X002300Y000300D02*
X002300Y002160D01*
X002400Y002160D02*
X002400Y000300D01*
X002100Y000300D02*
X002100Y002160D01*
X002000Y002160D02*
X002000Y000300D01*
X003300Y000300D02*
X003300Y002180D01*
X003250Y002250D02*
X003150Y002250D01*
X003150Y002350D02*
X003250Y002350D01*
X003250Y002450D02*
X003150Y002450D01*
X003400Y002600D02*
X003400Y002700D01*
X003500Y002700D02*
X003500Y002600D01*
X003665Y002450D02*
X004500Y002450D01*
X004500Y002350D02*
X003565Y002350D01*
X003600Y002385D02*
X003600Y000300D01*
X003500Y000300D02*
X003500Y002285D01*
X003465Y002250D02*
X004500Y002250D01*
X004500Y002150D02*
X000650Y002150D01*
X000650Y002050D02*
X003935Y002050D01*
X003900Y002015D02*
X003900Y004180D01*
X003800Y004180D02*
X003800Y001915D01*
X003835Y001950D02*
X000650Y001950D01*
X000650Y001850D02*
X003735Y001850D01*
X003730Y001750D02*
X000650Y001750D01*
X000650Y001650D02*
X004150Y001650D01*
X004100Y001600D02*
X004100Y001700D01*
X004150Y001750D02*
X004250Y001750D01*
X004200Y001700D02*
X004200Y004180D01*
X004300Y004180D02*
X004300Y002120D01*
X004250Y002050D02*
X004150Y002050D01*
X004100Y002120D02*
X004100Y004180D01*
X004000Y004180D02*
X004000Y002115D01*
X004150Y001950D02*
X004250Y001950D01*
X004250Y001850D02*
X004150Y001850D01*
X004000Y001700D02*
X004000Y001600D01*
X003900Y001600D02*
X003900Y001700D01*
X003800Y001700D02*
X003800Y001600D01*
X003730Y001550D02*
X000650Y001550D01*
X000650Y001450D02*
X003735Y001450D01*
X004400Y001185D02*
X004400Y001162D01*
X004700Y001050D02*
X004700Y004350D01*
X004600Y004450D01*
X004600Y004720D02*
X004600Y004950D01*
X004700Y004950D02*
X004700Y004720D01*
X004800Y004720D02*
X004800Y004950D01*
X004900Y004950D02*
X004900Y004720D01*
X005000Y004720D02*
X005000Y004950D01*
X005100Y004950D02*
X005100Y004720D01*
X005200Y004720D02*
X005200Y004950D01*
X005300Y004950D02*
X005300Y004720D01*
X005400Y004720D02*
X005400Y004950D01*
X005500Y004950D02*
X005500Y004720D01*
X005600Y004720D02*
X005600Y004950D01*
X005700Y004950D02*
X005700Y004720D01*
X005800Y004720D02*
X005800Y004950D01*
X005900Y004950D02*
X005900Y004720D01*
X006000Y004720D02*
X006000Y004950D01*
X006500Y004950D02*
X006500Y004720D01*
X006600Y004720D02*
X006600Y004950D01*
X006700Y004950D02*
X006700Y004720D01*
X006800Y004720D02*
X006800Y004950D01*
X006900Y004950D02*
X006900Y004720D01*
X007000Y004720D02*
X007000Y004950D01*
X007100Y004950D02*
X007100Y004720D01*
X007200Y004720D02*
X007200Y004950D01*
X007300Y004950D02*
X007300Y004720D01*
X007400Y004720D02*
X007400Y004950D01*
X007483Y004950D02*
X007583Y005050D01*
X007747Y005050D01*
X007819Y004979D01*
X007936Y004930D01*
X007800Y004997D02*
X007800Y004720D01*
X007700Y004720D02*
X007700Y005050D01*
X007600Y005050D02*
X007600Y004720D01*
X007500Y004720D02*
X007500Y004967D01*
X007400Y005150D02*
X007500Y005250D01*
X008000Y005250D01*
X008320Y005250D02*
X017230Y005250D01*
X018570Y005245D02*
X018570Y005055D01*
X018605Y005091D01*
X018748Y005150D01*
X018570Y005150D01*
X018605Y005209D02*
X018570Y005245D01*
X018600Y005215D02*
X018600Y005085D01*
X018700Y005130D02*
X018700Y005170D01*
X018748Y005150D02*
X018605Y005209D01*
X019052Y005150D02*
X019590Y005150D01*
X019590Y005225D02*
X019590Y005075D01*
X019459Y004945D01*
X019400Y004802D01*
X019400Y005498D01*
X019459Y005355D01*
X019590Y005225D01*
X019565Y005250D02*
X019235Y005250D01*
X019200Y005215D02*
X019200Y005085D01*
X019195Y005091D02*
X019052Y005150D01*
X019195Y005209D01*
X019341Y005355D01*
X019400Y005498D01*
X019380Y005450D02*
X019420Y005450D01*
X019465Y005350D02*
X019335Y005350D01*
X019300Y005315D02*
X019300Y004985D01*
X019335Y004950D02*
X019465Y004950D01*
X019500Y004985D02*
X019500Y005315D01*
X019195Y005091D02*
X019341Y004945D01*
X019400Y004802D01*
X019380Y004850D02*
X019420Y004850D01*
X019565Y005050D02*
X019235Y005050D01*
X019100Y005130D02*
X019100Y005170D01*
X019400Y005802D02*
X019341Y005945D01*
X019195Y006091D01*
X019052Y006150D01*
X019590Y006150D01*
X019590Y006225D02*
X019590Y006075D01*
X019459Y005945D01*
X019400Y005802D01*
X019400Y006498D01*
X019459Y006355D01*
X019590Y006225D01*
X019565Y006250D02*
X019235Y006250D01*
X019200Y006215D02*
X019200Y006085D01*
X019235Y006050D02*
X019565Y006050D01*
X019500Y005985D02*
X019500Y006315D01*
X019465Y006350D02*
X019335Y006350D01*
X019341Y006355D02*
X019400Y006498D01*
X019380Y006450D02*
X019420Y006450D01*
X019341Y006355D02*
X019195Y006209D01*
X019052Y006150D01*
X019100Y006130D02*
X019100Y006170D01*
X019300Y006315D02*
X019300Y005985D01*
X019335Y005950D02*
X019465Y005950D01*
X019420Y005850D02*
X019380Y005850D01*
X018748Y006150D02*
X018570Y006150D01*
X018605Y006209D02*
X018570Y006245D01*
X018570Y006055D01*
X018605Y006091D01*
X018748Y006150D01*
X018605Y006209D01*
X018600Y006215D02*
X018600Y006085D01*
X018700Y006130D02*
X018700Y006170D01*
X019400Y006802D02*
X019341Y006945D01*
X019195Y007091D01*
X019052Y007150D01*
X019590Y007150D01*
X019590Y007225D02*
X019590Y007075D01*
X019459Y006945D01*
X019400Y006802D01*
X019400Y007498D01*
X019459Y007355D01*
X019590Y007225D01*
X019565Y007250D02*
X019235Y007250D01*
X019200Y007215D02*
X019200Y007085D01*
X019235Y007050D02*
X019565Y007050D01*
X019500Y006985D02*
X019500Y007315D01*
X019465Y007350D02*
X019335Y007350D01*
X019341Y007355D02*
X019400Y007498D01*
X019380Y007450D02*
X019420Y007450D01*
X019341Y007355D02*
X019195Y007209D01*
X019052Y007150D01*
X019100Y007130D02*
X019100Y007170D01*
X019300Y007315D02*
X019300Y006985D01*
X019335Y006950D02*
X019465Y006950D01*
X019420Y006850D02*
X019380Y006850D01*
X018748Y007150D02*
X018570Y007150D01*
X018605Y007209D02*
X018570Y007245D01*
X018570Y007055D01*
X018605Y007091D01*
X018748Y007150D01*
X018605Y007209D01*
X018600Y007215D02*
X018600Y007085D01*
X018700Y007130D02*
X018700Y007170D01*
X019400Y007802D02*
X019341Y007945D01*
X019195Y008091D01*
X019052Y008150D01*
X019590Y008150D01*
X019590Y008225D02*
X019590Y008075D01*
X019459Y007945D01*
X019400Y007802D01*
X019400Y008498D01*
X019459Y008355D01*
X019590Y008225D01*
X019565Y008250D02*
X019235Y008250D01*
X019200Y008215D02*
X019200Y008085D01*
X019235Y008050D02*
X019565Y008050D01*
X019500Y007985D02*
X019500Y008315D01*
X019465Y008350D02*
X019335Y008350D01*
X019341Y008355D02*
X019400Y008498D01*
X019380Y008450D02*
X019420Y008450D01*
X019341Y008355D02*
X019195Y008209D01*
X019052Y008150D01*
X019100Y008130D02*
X019100Y008170D01*
X019300Y008315D02*
X019300Y007985D01*
X019335Y007950D02*
X019465Y007950D01*
X019420Y007850D02*
X019380Y007850D01*
X018748Y008150D02*
X018570Y008150D01*
X018605Y008209D02*
X018570Y008245D01*
X018570Y008055D01*
X018605Y008091D01*
X018748Y008150D01*
X018605Y008209D01*
X018600Y008215D02*
X018600Y008085D01*
X018700Y008130D02*
X018700Y008170D01*
X019400Y008802D02*
X019341Y008945D01*
X019195Y009091D01*
X019052Y009150D01*
X019590Y009150D01*
X019590Y009225D02*
X019590Y009075D01*
X019459Y008945D01*
X019400Y008802D01*
X019400Y009498D01*
X019459Y009355D01*
X019590Y009225D01*
X019565Y009250D02*
X019235Y009250D01*
X019200Y009215D02*
X019200Y009085D01*
X019235Y009050D02*
X019565Y009050D01*
X019500Y008985D02*
X019500Y009315D01*
X019465Y009350D02*
X019335Y009350D01*
X019341Y009355D02*
X019400Y009498D01*
X019380Y009450D02*
X019420Y009450D01*
X019341Y009355D02*
X019195Y009209D01*
X019052Y009150D01*
X019100Y009130D02*
X019100Y009170D01*
X019300Y009315D02*
X019300Y008985D01*
X019335Y008950D02*
X019465Y008950D01*
X019420Y008850D02*
X019380Y008850D01*
X018748Y009150D02*
X018570Y009150D01*
X018605Y009209D02*
X018570Y009245D01*
X018570Y009055D01*
X018605Y009091D01*
X018748Y009150D01*
X018605Y009209D01*
X018600Y009215D02*
X018600Y009085D01*
X018700Y009130D02*
X018700Y009170D01*
X019400Y009802D02*
X019341Y009945D01*
X019195Y010091D01*
X019003Y010170D01*
X018797Y010170D01*
X018605Y010091D01*
X018570Y010055D01*
X018570Y010457D01*
X018636Y010430D01*
X018764Y010430D01*
X018881Y010479D01*
X018971Y010569D01*
X019020Y010686D01*
X019020Y010814D01*
X018971Y010931D01*
X018881Y011021D01*
X018764Y011070D01*
X018636Y011070D01*
X018519Y011021D01*
X018517Y011020D01*
X018346Y011020D01*
X018247Y010979D01*
X018170Y010902D01*
X018170Y011567D01*
X018171Y011569D01*
X018220Y011686D01*
X018220Y011814D01*
X018171Y011931D01*
X018103Y012000D01*
X020800Y012000D01*
X020800Y011730D01*
X020785Y011728D02*
X020712Y011704D01*
X020643Y011669D01*
X020581Y011624D01*
X020526Y011569D01*
X020481Y011507D01*
X020446Y011438D01*
X020422Y011365D01*
X020420Y011352D01*
X020420Y011353D01*
X020341Y011545D01*
X020195Y011691D01*
X020003Y011770D01*
X019797Y011770D01*
X019605Y011691D01*
X019459Y011545D01*
X019380Y011353D01*
X019380Y011147D01*
X019459Y010955D01*
X019605Y010809D01*
X019797Y010730D01*
X020003Y010730D01*
X020195Y010809D01*
X020341Y010955D01*
X020420Y011147D01*
X020420Y011148D01*
X020422Y011135D01*
X020446Y011062D01*
X020481Y010993D01*
X020526Y010931D01*
X020581Y010876D01*
X020643Y010831D01*
X020712Y010796D01*
X020785Y010772D01*
X020850Y010762D01*
X020850Y011200D01*
X020950Y011200D01*
X020950Y010762D01*
X021015Y010772D01*
X021088Y010796D01*
X021157Y010831D01*
X021219Y010876D01*
X021274Y010931D01*
X021319Y010993D01*
X021350Y011054D01*
X021350Y009846D01*
X021319Y009907D01*
X021274Y009969D01*
X021219Y010024D01*
X021157Y010069D01*
X021088Y010104D01*
X021015Y010128D01*
X020950Y010138D01*
X020950Y009700D01*
X020850Y009700D01*
X020850Y010138D01*
X020785Y010128D01*
X020712Y010104D01*
X020643Y010069D01*
X020581Y010024D01*
X020526Y009969D01*
X020481Y009907D01*
X020446Y009838D01*
X020422Y009765D01*
X020420Y009752D01*
X020420Y009753D01*
X020341Y009945D01*
X020195Y010091D01*
X020003Y010170D01*
X019797Y010170D01*
X019605Y010091D01*
X019459Y009945D01*
X019400Y009802D01*
X019400Y011098D01*
X019420Y011050D02*
X018812Y011050D01*
X018800Y011055D02*
X018800Y012000D01*
X018700Y012000D02*
X018700Y011070D01*
X018600Y011055D02*
X018600Y012000D01*
X018500Y012000D02*
X018500Y011020D01*
X018588Y011050D02*
X018170Y011050D01*
X018170Y010950D02*
X018218Y010950D01*
X018200Y010932D02*
X018200Y011638D01*
X018205Y011650D02*
X019565Y011650D01*
X019600Y011685D02*
X019600Y012000D01*
X019700Y012000D02*
X019700Y011730D01*
X019748Y011750D02*
X018220Y011750D01*
X018205Y011850D02*
X021163Y011850D01*
X021200Y011813D02*
X021200Y011638D01*
X021183Y011650D02*
X021301Y011650D01*
X021300Y011652D02*
X021300Y011533D01*
X021288Y011550D02*
X021340Y011550D01*
X021339Y011557D02*
X021350Y011450D01*
X021348Y011450D01*
X021350Y011450D02*
X021350Y011446D01*
X021319Y011507D01*
X021274Y011569D01*
X021219Y011624D01*
X021157Y011669D01*
X021088Y011704D01*
X021015Y011728D01*
X020950Y011738D01*
X020950Y011300D01*
X020850Y011300D01*
X020850Y011738D01*
X020785Y011728D01*
X020700Y011698D02*
X020700Y012000D01*
X020800Y012000D02*
X020907Y011989D01*
X021106Y011907D01*
X021257Y011756D01*
X021339Y011557D01*
X021260Y011750D02*
X020052Y011750D01*
X020100Y011730D02*
X020100Y012000D01*
X020000Y012000D02*
X020000Y011770D01*
X019900Y011770D02*
X019900Y012000D01*
X019800Y012000D02*
X019800Y011770D01*
X019500Y011585D02*
X019500Y012000D01*
X019400Y012000D02*
X019400Y011402D01*
X019420Y011450D02*
X018170Y011450D01*
X018170Y011350D02*
X019380Y011350D01*
X019380Y011250D02*
X018170Y011250D01*
X018170Y011150D02*
X019380Y011150D01*
X019465Y010950D02*
X018953Y010950D01*
X018900Y011003D02*
X018900Y012000D01*
X019000Y012000D02*
X019000Y010862D01*
X019005Y010850D02*
X019565Y010850D01*
X019600Y010815D02*
X019600Y010085D01*
X019565Y010050D02*
X019235Y010050D01*
X019200Y010085D02*
X019200Y012000D01*
X019300Y012000D02*
X019300Y009985D01*
X019335Y009950D02*
X019465Y009950D01*
X019500Y009985D02*
X019500Y010915D01*
X019700Y010770D02*
X019700Y010130D01*
X019748Y010150D02*
X019052Y010150D01*
X019100Y010130D02*
X019100Y012000D01*
X019465Y011550D02*
X018170Y011550D01*
X018200Y011862D02*
X018200Y012000D01*
X018153Y011950D02*
X021002Y011950D01*
X021000Y011951D02*
X021000Y011730D01*
X020950Y011650D02*
X020850Y011650D01*
X020850Y011550D02*
X020950Y011550D01*
X020950Y011450D02*
X020850Y011450D01*
X020850Y011350D02*
X020950Y011350D01*
X020900Y011300D02*
X020900Y011990D01*
X021100Y011910D02*
X021100Y011698D01*
X021500Y011952D02*
X021302Y012150D01*
X021500Y012150D01*
X021500Y011952D01*
X021500Y012050D02*
X021402Y012050D01*
X021400Y012052D02*
X021400Y012150D01*
X020600Y012000D02*
X020600Y011638D01*
X020617Y011650D02*
X020235Y011650D01*
X020200Y011685D02*
X020200Y012000D01*
X020300Y012000D02*
X020300Y011585D01*
X020335Y011550D02*
X020512Y011550D01*
X020500Y011533D02*
X020500Y012000D01*
X020400Y012000D02*
X020400Y011402D01*
X020380Y011450D02*
X020452Y011450D01*
X020850Y011150D02*
X020950Y011150D01*
X020900Y011200D02*
X020900Y009700D01*
X020850Y009750D02*
X020950Y009750D01*
X020950Y009850D02*
X020850Y009850D01*
X020850Y009950D02*
X020950Y009950D01*
X020950Y010050D02*
X020850Y010050D01*
X020800Y010130D02*
X020800Y010770D01*
X020850Y010850D02*
X020950Y010850D01*
X021000Y010770D02*
X021000Y010130D01*
X021100Y010098D02*
X021100Y010802D01*
X021183Y010850D02*
X021350Y010850D01*
X021350Y010750D02*
X020052Y010750D01*
X020100Y010770D02*
X020100Y010130D01*
X020052Y010150D02*
X021350Y010150D01*
X021350Y010050D02*
X021183Y010050D01*
X021200Y010038D02*
X021200Y010862D01*
X021288Y010950D02*
X021350Y010950D01*
X021300Y010967D02*
X021300Y009933D01*
X021288Y009950D02*
X021350Y009950D01*
X021348Y009850D02*
X021350Y009850D01*
X020950Y009600D02*
X020950Y009162D01*
X021015Y009172D01*
X021088Y009196D01*
X021157Y009231D01*
X021219Y009276D01*
X021274Y009331D01*
X021319Y009393D01*
X021350Y009454D01*
X021350Y008846D01*
X021319Y008907D01*
X021274Y008969D01*
X021219Y009024D01*
X021157Y009069D01*
X021088Y009104D01*
X021015Y009128D01*
X020950Y009138D01*
X020950Y008700D01*
X020850Y008700D01*
X020850Y009138D01*
X020785Y009128D01*
X020712Y009104D01*
X020643Y009069D01*
X020581Y009024D01*
X020526Y008969D01*
X020481Y008907D01*
X020446Y008838D01*
X020422Y008765D01*
X020420Y008752D01*
X020420Y008753D01*
X020341Y008945D01*
X020210Y009075D01*
X020210Y009225D01*
X020341Y009355D01*
X020420Y009547D01*
X020420Y009548D01*
X020422Y009535D01*
X020446Y009462D01*
X020481Y009393D01*
X020526Y009331D01*
X020581Y009276D01*
X020643Y009231D01*
X020712Y009196D01*
X020785Y009172D01*
X020850Y009162D01*
X020850Y009600D01*
X020950Y009600D01*
X020900Y009600D02*
X020900Y008700D01*
X020850Y008750D02*
X020950Y008750D01*
X020950Y008850D02*
X020850Y008850D01*
X020850Y008950D02*
X020950Y008950D01*
X020950Y009050D02*
X020850Y009050D01*
X020800Y009130D02*
X020800Y009170D01*
X020850Y009250D02*
X020950Y009250D01*
X021000Y009170D02*
X021000Y009130D01*
X021100Y009098D02*
X021100Y009202D01*
X021183Y009250D02*
X021350Y009250D01*
X021350Y009350D02*
X021288Y009350D01*
X021300Y009367D02*
X021300Y008933D01*
X021288Y008950D02*
X021350Y008950D01*
X021350Y009050D02*
X021183Y009050D01*
X021200Y009038D02*
X021200Y009262D01*
X021350Y009150D02*
X020210Y009150D01*
X020235Y009050D02*
X020617Y009050D01*
X020600Y009038D02*
X020600Y009262D01*
X020617Y009250D02*
X020235Y009250D01*
X020300Y009315D02*
X020300Y008985D01*
X020335Y008950D02*
X020512Y008950D01*
X020500Y008933D02*
X020500Y009367D01*
X020512Y009350D02*
X020335Y009350D01*
X020380Y009450D02*
X020452Y009450D01*
X020400Y009498D02*
X020400Y008802D01*
X020380Y008850D02*
X020452Y008850D01*
X020420Y008548D02*
X020422Y008535D01*
X020446Y008462D01*
X020481Y008393D01*
X020526Y008331D01*
X020581Y008276D01*
X020643Y008231D01*
X020712Y008196D01*
X020785Y008172D01*
X020850Y008162D01*
X020850Y008600D01*
X020950Y008600D01*
X020950Y008162D01*
X021015Y008172D01*
X021088Y008196D01*
X021157Y008231D01*
X021219Y008276D01*
X021274Y008331D01*
X021319Y008393D01*
X021350Y008454D01*
X021350Y007846D01*
X021319Y007907D01*
X021274Y007969D01*
X021219Y008024D01*
X021157Y008069D01*
X021088Y008104D01*
X021015Y008128D01*
X020950Y008138D01*
X020950Y007700D01*
X020850Y007700D01*
X020850Y008138D01*
X020785Y008128D01*
X020712Y008104D01*
X020643Y008069D01*
X020581Y008024D01*
X020526Y007969D01*
X020481Y007907D01*
X020446Y007838D01*
X020422Y007765D01*
X020420Y007752D01*
X020420Y007753D01*
X020341Y007945D01*
X020210Y008075D01*
X020210Y008225D01*
X020341Y008355D01*
X020420Y008547D01*
X020420Y008548D01*
X020400Y008498D02*
X020400Y007802D01*
X020380Y007850D02*
X020452Y007850D01*
X020500Y007933D02*
X020500Y008367D01*
X020512Y008350D02*
X020335Y008350D01*
X020300Y008315D02*
X020300Y007985D01*
X020335Y007950D02*
X020512Y007950D01*
X020600Y008038D02*
X020600Y008262D01*
X020617Y008250D02*
X020235Y008250D01*
X020210Y008150D02*
X021350Y008150D01*
X021350Y008050D02*
X021183Y008050D01*
X021200Y008038D02*
X021200Y008262D01*
X021183Y008250D02*
X021350Y008250D01*
X021350Y008350D02*
X021288Y008350D01*
X021300Y008367D02*
X021300Y007933D01*
X021288Y007950D02*
X021350Y007950D01*
X021348Y007850D02*
X021350Y007850D01*
X021100Y008098D02*
X021100Y008202D01*
X021000Y008170D02*
X021000Y008130D01*
X020950Y008050D02*
X020850Y008050D01*
X020800Y008130D02*
X020800Y008170D01*
X020850Y008250D02*
X020950Y008250D01*
X020950Y008350D02*
X020850Y008350D01*
X020850Y008450D02*
X020950Y008450D01*
X020950Y008550D02*
X020850Y008550D01*
X020900Y008600D02*
X020900Y007700D01*
X020850Y007750D02*
X020950Y007750D01*
X020950Y007850D02*
X020850Y007850D01*
X020850Y007950D02*
X020950Y007950D01*
X020617Y008050D02*
X020235Y008050D01*
X020700Y008098D02*
X020700Y008202D01*
X020452Y008450D02*
X020380Y008450D01*
X020700Y009098D02*
X020700Y009202D01*
X020850Y009350D02*
X020950Y009350D01*
X020950Y009450D02*
X020850Y009450D01*
X020850Y009550D02*
X020950Y009550D01*
X021348Y009450D02*
X021350Y009450D01*
X020512Y009950D02*
X020335Y009950D01*
X020300Y009985D02*
X020300Y010915D01*
X020335Y010950D02*
X020512Y010950D01*
X020500Y010967D02*
X020500Y009933D01*
X020452Y009850D02*
X020380Y009850D01*
X020400Y009802D02*
X020400Y011098D01*
X020380Y011050D02*
X020452Y011050D01*
X020600Y010862D02*
X020600Y010038D01*
X020617Y010050D02*
X020235Y010050D01*
X020200Y010085D02*
X020200Y010815D01*
X020235Y010850D02*
X020617Y010850D01*
X020700Y010802D02*
X020700Y010098D01*
X021350Y010250D02*
X018570Y010250D01*
X018570Y010350D02*
X021350Y010350D01*
X021350Y010450D02*
X018812Y010450D01*
X018800Y010445D02*
X018800Y010170D01*
X018748Y010150D02*
X018570Y010150D01*
X018600Y010085D02*
X018600Y010445D01*
X018588Y010450D02*
X018570Y010450D01*
X018700Y010430D02*
X018700Y010130D01*
X018900Y010170D02*
X018900Y010497D01*
X018953Y010550D02*
X021350Y010550D01*
X021350Y010650D02*
X019005Y010650D01*
X019000Y010638D02*
X019000Y010170D01*
X019380Y009850D02*
X019420Y009850D01*
X019800Y010170D02*
X019800Y010730D01*
X019748Y010750D02*
X019020Y010750D01*
X018400Y011020D02*
X018400Y012000D01*
X018300Y012000D02*
X018300Y011001D01*
X017630Y010950D02*
X017619Y010950D01*
X017600Y010936D02*
X017600Y009701D01*
X017630Y009750D02*
X016412Y009750D01*
X016400Y009755D02*
X016400Y012000D01*
X016300Y012000D02*
X016300Y010862D01*
X016305Y010850D02*
X017630Y010850D01*
X017630Y010750D02*
X016320Y010750D01*
X016305Y010650D02*
X017630Y010650D01*
X017630Y010550D02*
X016253Y010550D01*
X016200Y010497D02*
X016200Y009755D01*
X016188Y009750D02*
X006635Y009750D01*
X006641Y009745D02*
X006495Y009891D01*
X006303Y009970D01*
X006097Y009970D01*
X005905Y009891D01*
X005759Y009745D01*
X005680Y009553D01*
X005680Y009552D01*
X005678Y009565D01*
X005648Y009650D02*
X005720Y009650D01*
X005765Y009750D02*
X005588Y009750D01*
X005600Y009733D02*
X005600Y010343D01*
X005607Y010350D02*
X005793Y010350D01*
X005800Y010343D02*
X005800Y009785D01*
X005865Y009850D02*
X005483Y009850D01*
X005500Y009838D02*
X005500Y010243D01*
X005507Y010250D02*
X005893Y010250D01*
X005900Y010243D02*
X005900Y009885D01*
X006100Y009970D02*
X006100Y010150D01*
X006200Y010150D02*
X006200Y009970D01*
X006300Y009970D02*
X006300Y010150D01*
X006400Y010150D02*
X006400Y009930D01*
X006352Y009950D02*
X017630Y009950D01*
X017630Y009850D02*
X006535Y009850D01*
X006500Y009885D02*
X006500Y010243D01*
X006507Y010250D02*
X006893Y010250D01*
X006900Y010243D02*
X006900Y007650D01*
X006800Y007650D02*
X006800Y010343D01*
X006793Y010350D02*
X006607Y010350D01*
X006600Y010343D02*
X006600Y009785D01*
X006641Y009745D02*
X006720Y009553D01*
X006720Y009347D01*
X006641Y009155D01*
X006495Y009009D01*
X006352Y008950D01*
X006400Y008930D02*
X006400Y008970D01*
X006680Y008650D02*
X012000Y008650D01*
X012000Y008550D02*
X006720Y008550D01*
X006700Y008602D02*
X006700Y009298D01*
X006680Y009250D02*
X011880Y009250D01*
X012200Y009250D02*
X012200Y007050D01*
X011895Y006950D02*
X011012Y006950D01*
X012000Y006797D02*
X012000Y004520D01*
X011300Y004520D02*
X011300Y010150D01*
X011993Y010150D02*
X012407Y010150D01*
X012400Y010150D02*
X012400Y009503D01*
X012088Y009550D02*
X006720Y009550D01*
X006993Y010150D02*
X007407Y010150D01*
X007400Y010150D02*
X007400Y007633D01*
X007300Y007650D02*
X007300Y010150D01*
X007200Y010150D02*
X007200Y007650D01*
X007100Y007650D02*
X007100Y010150D01*
X007000Y010150D02*
X007000Y007650D01*
X006700Y007650D02*
X006700Y008298D01*
X006680Y008250D02*
X012000Y008250D01*
X012000Y008150D02*
X006635Y008150D01*
X006600Y008115D02*
X006600Y007650D01*
X006500Y007650D02*
X006500Y008015D01*
X006535Y008050D02*
X012000Y008050D01*
X012000Y007950D02*
X006352Y007950D01*
X006400Y007970D02*
X006400Y007650D01*
X006300Y007650D02*
X006300Y007930D01*
X006200Y007930D02*
X006200Y007650D01*
X006100Y007650D02*
X006100Y007930D01*
X006720Y008350D02*
X012000Y008350D01*
X012000Y008450D02*
X006720Y008450D01*
X005150Y008450D02*
X003700Y008450D01*
X003700Y008550D02*
X004720Y008550D01*
X004800Y008500D02*
X004800Y008400D01*
X004900Y008400D02*
X004900Y008500D01*
X005000Y008500D02*
X005000Y008400D01*
X005100Y008400D02*
X005100Y008500D01*
X004752Y008650D02*
X003700Y008650D01*
X003407Y009150D02*
X002993Y009150D01*
X002435Y009150D01*
X002714Y009429D01*
X002993Y009150D01*
X003407Y009150D01*
X003700Y009443D01*
X003700Y009550D02*
X004720Y009550D01*
X004800Y009500D02*
X004800Y009400D01*
X004900Y009400D02*
X004900Y009500D01*
X004752Y009650D02*
X003700Y009650D01*
X003400Y009150D02*
X003400Y009150D01*
X003300Y009150D02*
X003300Y009150D01*
X003200Y009150D02*
X003200Y009150D01*
X003100Y009150D02*
X003100Y009150D01*
X003000Y009150D02*
X003000Y009150D01*
X002993Y009150D02*
X002763Y008920D01*
X002665Y008920D01*
X002435Y009150D01*
X002500Y009085D02*
X002500Y009215D01*
X002535Y009250D02*
X002893Y009250D01*
X002900Y009243D02*
X002900Y009057D01*
X002893Y009050D02*
X002535Y009050D01*
X002600Y008985D02*
X002600Y009315D01*
X002635Y009350D02*
X002793Y009350D01*
X002800Y009343D02*
X002800Y008957D01*
X002793Y008950D02*
X002635Y008950D01*
X002700Y008920D02*
X002700Y009415D01*
X002700Y009885D02*
X002700Y012000D01*
X002800Y012000D02*
X002800Y009957D01*
X002793Y009950D02*
X002635Y009950D01*
X002600Y009985D02*
X002600Y012000D01*
X001776Y011550D02*
X005118Y011550D01*
X005100Y011532D02*
X005100Y012000D01*
X005200Y012000D02*
X005200Y011601D01*
X005300Y011620D02*
X005300Y012000D01*
X005400Y012000D02*
X005400Y011620D01*
X005500Y011620D02*
X005500Y012000D01*
X005600Y012000D02*
X005600Y011620D01*
X005700Y011620D02*
X005700Y012000D01*
X005800Y012000D02*
X005800Y011620D01*
X005900Y011620D02*
X005900Y012000D01*
X006000Y012000D02*
X006000Y011620D01*
X006100Y011620D02*
X006100Y012000D01*
X006200Y012000D02*
X006200Y011620D01*
X006300Y011620D02*
X006300Y012000D01*
X006400Y012000D02*
X006400Y011620D01*
X006500Y011620D02*
X006500Y012000D01*
X006600Y012000D02*
X006600Y011620D01*
X006700Y011620D02*
X006700Y012000D01*
X006800Y012000D02*
X006800Y011620D01*
X006900Y011620D02*
X006900Y012000D01*
X007000Y012000D02*
X007000Y011620D01*
X007100Y011620D02*
X007100Y012000D01*
X007200Y012000D02*
X007200Y011620D01*
X007300Y011620D02*
X007300Y012000D01*
X007400Y012000D02*
X007400Y011620D01*
X007500Y011620D02*
X007500Y012000D01*
X007600Y012000D02*
X007600Y011620D01*
X007700Y011620D02*
X007700Y012000D01*
X007800Y012000D02*
X007800Y011620D01*
X007900Y011620D02*
X007900Y012000D01*
X008000Y012000D02*
X008000Y011620D01*
X008100Y011620D02*
X008100Y012000D01*
X008200Y012000D02*
X008200Y011620D01*
X008300Y011620D02*
X008300Y012000D01*
X008400Y012000D02*
X008400Y011620D01*
X007700Y010857D02*
X007477Y011080D01*
X007500Y011080D02*
X007500Y011057D01*
X007700Y010857D02*
X007700Y010443D01*
X007700Y010450D02*
X007700Y010450D01*
X007700Y010550D02*
X007700Y010550D01*
X007700Y010650D02*
X007700Y010650D01*
X007700Y010750D02*
X007700Y010750D01*
X007700Y010850D02*
X007700Y010850D01*
X008100Y010150D02*
X008100Y007450D01*
X008200Y007450D02*
X008200Y010150D01*
X008300Y010150D02*
X008300Y007450D01*
X010300Y006150D02*
X002400Y006150D01*
X002200Y005950D01*
X002200Y005650D01*
X002635Y005350D02*
X002793Y005350D01*
X002635Y005350D01*
X002714Y005429D01*
X002793Y005350D01*
X002700Y005350D02*
X002700Y005415D01*
X002700Y004950D02*
X002700Y004920D01*
X002665Y004920D02*
X002635Y004950D01*
X002793Y004950D01*
X002763Y004920D01*
X002665Y004920D01*
X001765Y004950D02*
X001735Y004920D01*
X001665Y004920D01*
X001635Y004950D01*
X001765Y004950D01*
X001700Y004950D02*
X001700Y004920D01*
X001400Y005150D02*
X007400Y005150D01*
X007317Y005350D02*
X003607Y005350D01*
X003700Y005443D01*
X003700Y005857D01*
X003607Y005950D01*
X003847Y005950D01*
X003829Y005931D01*
X003780Y005814D01*
X003780Y005686D01*
X003829Y005569D01*
X003919Y005479D01*
X004036Y005430D01*
X004164Y005430D01*
X004281Y005479D01*
X004353Y005550D01*
X007888Y005550D01*
X007819Y005521D01*
X007747Y005450D01*
X007417Y005450D01*
X007317Y005350D01*
X003607Y005350D01*
X003700Y005350D02*
X003700Y005950D01*
X003800Y005950D02*
X003800Y005862D01*
X003795Y005850D02*
X003700Y005850D01*
X003700Y005750D02*
X003780Y005750D01*
X003795Y005650D02*
X003700Y005650D01*
X003700Y005550D02*
X003847Y005550D01*
X003900Y005497D02*
X003900Y005350D01*
X003800Y005350D02*
X003800Y005638D01*
X003700Y005450D02*
X003988Y005450D01*
X004000Y005445D02*
X004000Y005350D01*
X004100Y005350D02*
X004100Y005430D01*
X004200Y005445D02*
X004200Y005350D01*
X004300Y005350D02*
X004300Y005497D01*
X004212Y005450D02*
X007747Y005450D01*
X007700Y005450D02*
X007700Y005550D01*
X007800Y005550D02*
X007800Y005503D01*
X007600Y005550D02*
X007600Y005450D01*
X007500Y005450D02*
X007500Y005550D01*
X007400Y005550D02*
X007400Y005433D01*
X007300Y005350D02*
X007300Y005550D01*
X007200Y005550D02*
X007200Y005350D01*
X007100Y005350D02*
X007100Y005550D01*
X007000Y005550D02*
X007000Y005350D01*
X006900Y005350D02*
X006900Y005550D01*
X006800Y005550D02*
X006800Y005350D01*
X006700Y005350D02*
X006700Y005550D01*
X006600Y005550D02*
X006600Y005350D01*
X006500Y005350D02*
X006500Y005550D01*
X006400Y005550D02*
X006400Y005350D01*
X006300Y005350D02*
X006300Y005550D01*
X006200Y005550D02*
X006200Y005350D01*
X006100Y005350D02*
X006100Y005550D01*
X006000Y005550D02*
X006000Y005350D01*
X005900Y005350D02*
X005900Y005550D01*
X005800Y005550D02*
X005800Y005350D01*
X005700Y005350D02*
X005700Y005550D01*
X005600Y005550D02*
X005600Y005350D01*
X005500Y005350D02*
X005500Y005550D01*
X005400Y005550D02*
X005400Y005350D01*
X005300Y005350D02*
X005300Y005550D01*
X005200Y005550D02*
X005200Y005350D01*
X005100Y005350D02*
X005100Y005550D01*
X005000Y005550D02*
X005000Y005350D01*
X004900Y005350D02*
X004900Y005550D01*
X004800Y005550D02*
X004800Y005350D01*
X004700Y005350D02*
X004700Y005550D01*
X004600Y005550D02*
X004600Y005350D01*
X004500Y005350D02*
X004500Y005550D01*
X004400Y005550D02*
X004400Y005350D01*
X004400Y004950D02*
X004400Y004720D01*
X004500Y004720D02*
X004500Y004950D01*
X004300Y004950D02*
X004300Y004720D01*
X004200Y004720D02*
X004200Y004950D01*
X004100Y004950D02*
X004100Y004720D01*
X004000Y004720D02*
X004000Y004950D01*
X003900Y004950D02*
X003900Y004720D01*
X004400Y004180D02*
X004400Y002115D01*
X004465Y002050D02*
X004500Y002050D01*
X004900Y002057D02*
X004900Y004180D01*
X004900Y002057D01*
X004993Y002150D01*
X005407Y002150D01*
X005700Y001857D01*
X005700Y004180D01*
X005800Y004180D02*
X005800Y001957D01*
X005793Y001950D02*
X005607Y001950D01*
X005600Y001957D02*
X005600Y004180D01*
X005500Y004180D02*
X005500Y002057D01*
X005507Y002050D02*
X005893Y002050D01*
X005900Y002057D02*
X005900Y004180D01*
X006000Y004180D02*
X006000Y002150D01*
X005993Y002150D02*
X005700Y001857D01*
X005700Y001443D01*
X005700Y001320D01*
X005607Y001350D02*
X005793Y001350D01*
X005800Y001343D02*
X005800Y001320D01*
X005823Y001320D02*
X005577Y001320D01*
X005700Y001443D01*
X005823Y001320D01*
X005700Y001443D02*
X005700Y001857D01*
X005700Y001850D02*
X005700Y001850D01*
X005700Y001750D02*
X005700Y001750D01*
X005700Y001650D02*
X005700Y001650D01*
X005700Y001550D02*
X005700Y001550D01*
X005700Y001450D02*
X005700Y001450D01*
X005600Y001343D02*
X005600Y001320D01*
X005018Y000950D02*
X005005Y000950D01*
X005000Y000938D02*
X005000Y000300D01*
X004700Y000300D02*
X004700Y000730D01*
X003400Y000300D02*
X003400Y002185D01*
X002735Y002450D02*
X002690Y002450D01*
X002250Y002450D02*
X002150Y002450D01*
X002150Y002350D02*
X002250Y002350D01*
X002250Y002250D02*
X002150Y002250D01*
X001250Y002250D02*
X001150Y002250D01*
X001150Y002350D02*
X001250Y002350D01*
X001250Y002450D02*
X001150Y002450D01*
X001150Y002550D02*
X001250Y002550D01*
X001000Y002600D02*
X001000Y002700D01*
X000900Y002700D02*
X000900Y002600D01*
X000800Y002600D02*
X000800Y002700D01*
X000710Y002750D02*
X000650Y002750D01*
X000650Y002850D02*
X000710Y002850D01*
X000650Y002950D02*
X000807Y002950D01*
X000800Y002943D02*
X000800Y003315D01*
X000765Y003350D02*
X000650Y003350D01*
X000680Y003435D02*
X000680Y003865D01*
X000965Y004150D01*
X000650Y004150D01*
X000650Y004050D02*
X000865Y004050D01*
X000900Y004085D02*
X000900Y004215D01*
X000865Y004250D02*
X000650Y004250D01*
X000650Y004350D02*
X000765Y004350D01*
X000800Y004315D02*
X000800Y003985D01*
X000765Y003950D02*
X000650Y003950D01*
X000700Y003885D02*
X000700Y004415D01*
X000680Y004435D02*
X000965Y004150D01*
X000680Y003850D02*
X000650Y003850D01*
X000650Y003750D02*
X000680Y003750D01*
X000680Y003650D02*
X000650Y003650D01*
X000650Y003550D02*
X000680Y003550D01*
X000680Y003450D02*
X000650Y003450D01*
X000650Y003250D02*
X000865Y003250D01*
X000900Y003215D02*
X000900Y003043D01*
X000907Y003050D02*
X000650Y003050D01*
X000650Y003150D02*
X000965Y003150D01*
X001700Y003885D02*
X001435Y004150D01*
X001965Y004150D01*
X001700Y003885D01*
X001700Y004380D01*
X001735Y004380D02*
X001965Y004150D01*
X001900Y004085D02*
X001900Y004215D01*
X001865Y004250D02*
X001535Y004250D01*
X001500Y004215D02*
X001500Y004085D01*
X001535Y004050D02*
X001865Y004050D01*
X001800Y003985D02*
X001800Y004315D01*
X001765Y004350D02*
X001635Y004350D01*
X001665Y004380D02*
X001735Y004380D01*
X001665Y004380D02*
X001435Y004150D01*
X001600Y003985D02*
X001600Y004315D01*
X001635Y003950D02*
X001765Y003950D01*
X000680Y004435D02*
X000680Y004865D01*
X000965Y005150D01*
X000650Y005150D01*
X000650Y005050D02*
X000865Y005050D01*
X000900Y005085D02*
X000900Y005215D01*
X000865Y005250D02*
X000650Y005250D01*
X000650Y005350D02*
X000765Y005350D01*
X000800Y005315D02*
X000800Y004985D01*
X000765Y004950D02*
X000650Y004950D01*
X000700Y004885D02*
X000700Y005415D01*
X000680Y005435D02*
X000965Y005150D01*
X001200Y005350D02*
X001400Y005150D01*
X001200Y005350D02*
X001200Y005650D01*
X000680Y005650D02*
X000650Y005650D01*
X000650Y005550D02*
X000680Y005550D01*
X000680Y005450D02*
X000650Y005450D01*
X000680Y005435D02*
X000680Y005865D01*
X000965Y006150D01*
X000650Y006150D01*
X000650Y006050D02*
X000865Y006050D01*
X000900Y006085D02*
X000900Y006215D01*
X000865Y006250D02*
X000650Y006250D01*
X000650Y006350D02*
X000765Y006350D01*
X000800Y006315D02*
X000800Y005985D01*
X000765Y005950D02*
X000650Y005950D01*
X000700Y005885D02*
X000700Y006415D01*
X000680Y006435D02*
X000965Y006150D01*
X000680Y006435D02*
X000680Y006865D01*
X000965Y007150D01*
X000680Y006850D02*
X000650Y006850D01*
X000650Y006750D02*
X000680Y006750D01*
X000680Y006650D02*
X000650Y006650D01*
X000650Y006550D02*
X000680Y006550D01*
X000680Y006450D02*
X000650Y006450D01*
X001200Y006650D02*
X001200Y006750D01*
X001600Y007150D01*
X003800Y007150D01*
X003800Y006867D02*
X003800Y006867D01*
X003700Y006550D02*
X012247Y006550D01*
X012300Y006497D02*
X012300Y006303D01*
X012500Y006050D02*
X013100Y006050D01*
X013100Y008350D01*
X014000Y009150D01*
X014600Y009150D01*
X014700Y009250D01*
X014900Y008997D02*
X014900Y004520D01*
X014800Y004520D02*
X014800Y008945D01*
X014812Y008950D02*
X017230Y008950D01*
X017230Y009050D02*
X014953Y009050D01*
X014700Y008930D02*
X014700Y004520D01*
X014600Y004520D02*
X014600Y008945D01*
X014500Y008950D02*
X014500Y004520D01*
X014400Y004520D02*
X014400Y008950D01*
X014300Y009350D02*
X014300Y010150D01*
X014200Y010150D02*
X014200Y009350D01*
X014100Y009350D02*
X014100Y010150D01*
X014700Y010450D02*
X014700Y010450D01*
X014700Y010550D02*
X014700Y010550D01*
X014700Y010650D02*
X014700Y010650D01*
X014700Y010750D02*
X014700Y010750D01*
X014700Y010850D02*
X014700Y010850D01*
X014900Y011057D02*
X014900Y011080D01*
X015477Y011080D02*
X015699Y010859D01*
X015729Y010931D01*
X015730Y010933D01*
X015730Y011080D01*
X015477Y011080D01*
X015500Y011080D02*
X015500Y011057D01*
X015507Y011050D02*
X015730Y011050D01*
X015700Y011080D02*
X015700Y010862D01*
X015730Y010950D02*
X015607Y010950D01*
X015600Y010957D02*
X015600Y011080D01*
X016182Y011450D02*
X016756Y011450D01*
X016756Y011350D02*
X016251Y011350D01*
X016200Y011432D02*
X016200Y012000D01*
X016100Y012000D02*
X016100Y011532D01*
X016270Y011250D02*
X016774Y011250D01*
X016800Y011186D02*
X016800Y009720D01*
X016900Y009720D02*
X016900Y011031D01*
X016881Y011050D02*
X016270Y011050D01*
X016270Y010950D02*
X016981Y010950D01*
X017000Y010936D02*
X017000Y009720D01*
X017100Y009720D02*
X017100Y010894D01*
X017200Y010856D02*
X017200Y009720D01*
X017300Y009720D02*
X017300Y010856D01*
X017400Y010856D02*
X017400Y009720D01*
X017500Y009720D02*
X017500Y010894D01*
X016815Y011150D02*
X016270Y011150D01*
X016300Y010638D02*
X016300Y009770D01*
X016500Y009720D02*
X016500Y012000D01*
X016600Y012000D02*
X016600Y009720D01*
X016700Y009720D02*
X016700Y012000D01*
X016815Y011650D02*
X001735Y011650D01*
X001500Y011885D02*
X001500Y012000D01*
X001400Y012000D02*
X001400Y011926D01*
X001300Y011944D02*
X001300Y012000D01*
X001100Y011990D02*
X001100Y011926D01*
X000831Y011750D02*
X000740Y011750D01*
X000724Y011550D02*
X000660Y011550D01*
X000650Y011350D02*
X000706Y011350D01*
X000724Y011250D02*
X000650Y011250D01*
X000650Y011150D02*
X000765Y011150D01*
X000800Y011081D02*
X000800Y009985D01*
X000765Y009950D02*
X000650Y009950D01*
X000650Y010050D02*
X000865Y010050D01*
X000900Y010085D02*
X000900Y010981D01*
X000931Y010950D02*
X000650Y010950D01*
X000650Y010850D02*
X003735Y010850D01*
X003900Y010700D02*
X003900Y010600D01*
X004000Y010600D02*
X004000Y010700D01*
X004150Y010850D02*
X004250Y010850D01*
X004250Y010950D02*
X004150Y010950D01*
X004150Y011050D02*
X004250Y011050D01*
X004665Y010850D02*
X004700Y010850D01*
X004700Y010750D02*
X004670Y010750D01*
X004600Y010700D02*
X004600Y010600D01*
X004670Y010550D02*
X004700Y010550D01*
X004700Y010450D02*
X004665Y010450D01*
X004700Y010443D02*
X004993Y010150D01*
X002435Y010150D01*
X001300Y010170D02*
X001300Y010856D01*
X001200Y010856D02*
X001200Y010170D01*
X001100Y010170D02*
X001100Y010874D01*
X001000Y010915D02*
X001000Y010170D01*
X000965Y010150D02*
X000650Y010150D01*
X000650Y011050D02*
X000831Y011050D01*
X000500Y011952D02*
X000500Y012150D01*
X000500Y011952D01*
X000698Y012150D01*
X000500Y012150D01*
X000600Y012150D02*
X000600Y012052D01*
X000598Y012050D02*
X000500Y012050D01*
X004000Y010185D02*
X004000Y007833D01*
X004000Y007850D02*
X012000Y007850D01*
X012000Y007750D02*
X004083Y007750D01*
X003717Y007550D02*
X003700Y007567D01*
X002793Y007350D02*
X002635Y007350D01*
X002665Y007380D01*
X002763Y007380D01*
X002793Y007350D01*
X002635Y007350D01*
X002700Y007350D02*
X002700Y007380D01*
X002700Y006950D02*
X002700Y006885D01*
X002714Y006871D02*
X002793Y006950D01*
X002635Y006950D01*
X002714Y006871D01*
X002714Y006429D02*
X002635Y006350D01*
X002793Y006350D01*
X002714Y006429D01*
X002700Y006415D02*
X002700Y006350D01*
X002635Y006350D02*
X002793Y006350D01*
X002793Y005950D02*
X002714Y005871D01*
X002635Y005950D01*
X002793Y005950D01*
X002700Y005950D02*
X002700Y005885D01*
X001965Y006150D02*
X001435Y006150D01*
X001700Y005885D01*
X001965Y006150D01*
X001700Y006415D01*
X001700Y005885D01*
X001635Y005950D02*
X001765Y005950D01*
X001800Y005985D02*
X001800Y006315D01*
X001765Y006350D02*
X001635Y006350D01*
X001600Y006315D02*
X001600Y005985D01*
X001535Y006050D02*
X001865Y006050D01*
X001900Y006085D02*
X001900Y006215D01*
X001865Y006250D02*
X001535Y006250D01*
X001500Y006215D02*
X001500Y006085D01*
X001435Y006150D02*
X001700Y006415D01*
X001700Y006885D02*
X001765Y006950D01*
X001683Y006950D01*
X001659Y006926D01*
X001700Y006885D01*
X001700Y006950D01*
X001700Y007350D02*
X001700Y007415D01*
X001635Y007350D01*
X001765Y007350D01*
X001700Y007415D01*
X001635Y007350D02*
X001765Y007350D01*
X001700Y007885D02*
X001765Y007950D01*
X001683Y007950D01*
X001659Y007926D01*
X001700Y007885D01*
X001700Y007950D01*
X000965Y008150D02*
X000650Y008150D01*
X000650Y008050D02*
X000865Y008050D01*
X000900Y008085D02*
X000900Y008215D01*
X000865Y008250D02*
X000650Y008250D01*
X000650Y008350D02*
X000765Y008350D01*
X000800Y008315D02*
X000800Y007985D01*
X000765Y007950D02*
X000650Y007950D01*
X000700Y007885D02*
X000700Y008415D01*
X000680Y008450D02*
X000650Y008450D01*
X000650Y008550D02*
X000680Y008550D01*
X000680Y008650D02*
X000650Y008650D01*
X000650Y008750D02*
X000680Y008750D01*
X000680Y008850D02*
X000650Y008850D01*
X001635Y008350D02*
X001765Y008350D01*
X001635Y008350D01*
X001700Y008415D01*
X001700Y008350D01*
X001700Y008415D02*
X001765Y008350D01*
X002635Y008350D02*
X002665Y008380D01*
X002763Y008380D01*
X002793Y008350D01*
X002635Y008350D01*
X002793Y008350D01*
X002700Y008350D02*
X002700Y008380D01*
X002700Y007950D02*
X002700Y007920D01*
X002665Y007920D02*
X002635Y007950D01*
X002793Y007950D01*
X002763Y007920D01*
X002665Y007920D01*
X000680Y007850D02*
X000650Y007850D01*
X000650Y007750D02*
X000680Y007750D01*
X000650Y005850D02*
X000680Y005850D01*
X000680Y005750D02*
X000650Y005750D01*
X001635Y005350D02*
X001700Y005415D01*
X001700Y005350D01*
X001635Y005350D02*
X001765Y005350D01*
X001635Y005350D01*
X001700Y005415D02*
X001765Y005350D01*
X000680Y004850D02*
X000650Y004850D01*
X000650Y004750D02*
X000680Y004750D01*
X000680Y004650D02*
X000650Y004650D01*
X000650Y004550D02*
X000680Y004550D01*
X000680Y004450D02*
X000650Y004450D01*
X004100Y005750D02*
X010600Y005750D01*
X010920Y005750D02*
X012388Y005750D01*
X012800Y006350D02*
X012800Y008650D01*
X013500Y009250D01*
X013451Y008930D02*
X013436Y008930D01*
X013435Y008931D01*
X013000Y008558D01*
X013000Y008533D01*
X013000Y008558D01*
X013000Y008550D02*
X013024Y008550D01*
X013451Y008930D01*
X013400Y008901D02*
X013400Y008884D01*
X013361Y008850D02*
X013341Y008850D01*
X013300Y008815D02*
X013300Y008795D01*
X013249Y008750D02*
X013224Y008750D01*
X013200Y008729D02*
X013200Y008706D01*
X013136Y008650D02*
X013107Y008650D01*
X013100Y008644D02*
X013100Y008618D01*
X013024Y008550D02*
X013017Y008550D01*
X013000Y008533D01*
X012726Y008850D02*
X012700Y008850D01*
X012717Y008850D02*
X012726Y008850D01*
X012871Y008975D01*
X012764Y008930D01*
X012700Y008930D01*
X012700Y008833D01*
X012700Y008930D01*
X012717Y008850D02*
X012700Y008833D01*
X012800Y008913D02*
X012800Y008945D01*
X012812Y008950D02*
X012843Y008950D01*
X012953Y009050D02*
X012959Y009050D01*
X013000Y009085D02*
X013000Y009138D01*
X012700Y009250D02*
X012500Y009050D01*
X012500Y006750D01*
X013300Y007250D02*
X015288Y007250D01*
X015080Y007550D02*
X013300Y007550D01*
X010047Y005950D02*
X004353Y005950D01*
X004353Y005950D01*
X010047Y005950D01*
X010047Y005950D01*
X010000Y005950D02*
X010000Y005950D01*
X009900Y005950D02*
X009900Y005950D01*
X009800Y005950D02*
X009800Y005950D01*
X009700Y005950D02*
X009700Y005950D01*
X009600Y005950D02*
X009600Y005950D01*
X009500Y005950D02*
X009500Y005950D01*
X009400Y005950D02*
X009400Y005950D01*
X009300Y005950D02*
X009300Y005950D01*
X009200Y005950D02*
X009200Y005950D01*
X009100Y005950D02*
X009100Y005950D01*
X009000Y005950D02*
X009000Y005950D01*
X008900Y005950D02*
X008900Y005950D01*
X008800Y005950D02*
X008800Y005950D01*
X008700Y005950D02*
X008700Y005950D01*
X008600Y005950D02*
X008600Y005950D01*
X008500Y005950D02*
X008500Y005950D01*
X008400Y005950D02*
X008400Y005950D01*
X008300Y005950D02*
X008300Y005950D01*
X008200Y005950D02*
X008200Y005950D01*
X008100Y005950D02*
X008100Y005950D01*
X008000Y005950D02*
X008000Y005950D01*
X007900Y005950D02*
X007900Y005950D01*
X007800Y005950D02*
X007800Y005950D01*
X007700Y005950D02*
X007700Y005950D01*
X007600Y005950D02*
X007600Y005950D01*
X007500Y005950D02*
X007500Y005950D01*
X007400Y005950D02*
X007400Y005950D01*
X007300Y005950D02*
X007300Y005950D01*
X007200Y005950D02*
X007200Y005950D01*
X007100Y005950D02*
X007100Y005950D01*
X007000Y005950D02*
X007000Y005950D01*
X006900Y005950D02*
X006900Y005950D01*
X006800Y005950D02*
X006800Y005950D01*
X006700Y005950D02*
X006700Y005950D01*
X006600Y005950D02*
X006600Y005950D01*
X006500Y005950D02*
X006500Y005950D01*
X006400Y005950D02*
X006400Y005950D01*
X006300Y005950D02*
X006300Y005950D01*
X006200Y005950D02*
X006200Y005950D01*
X006100Y005950D02*
X006100Y005950D01*
X006000Y005950D02*
X006000Y005950D01*
X005900Y005950D02*
X005900Y005950D01*
X005800Y005950D02*
X005800Y005950D01*
X005700Y005950D02*
X005700Y005950D01*
X005600Y005950D02*
X005600Y005950D01*
X005500Y005950D02*
X005500Y005950D01*
X005400Y005950D02*
X005400Y005950D01*
X005300Y005950D02*
X005300Y005950D01*
X005200Y005950D02*
X005200Y005950D01*
X005100Y005950D02*
X005100Y005950D01*
X005000Y005950D02*
X005000Y005950D01*
X004900Y005950D02*
X004900Y005950D01*
X004800Y005950D02*
X004800Y005950D01*
X004700Y005950D02*
X004700Y005950D01*
X004600Y005950D02*
X004600Y005950D01*
X004500Y005950D02*
X004500Y005950D01*
X004400Y005950D02*
X004400Y005950D01*
X004900Y004180D02*
X006017Y004180D01*
X006019Y004179D01*
X006136Y004130D01*
X006264Y004130D01*
X006381Y004179D01*
X006383Y004180D01*
X009717Y004180D01*
X009719Y004179D01*
X009836Y004130D01*
X009964Y004130D01*
X010016Y004152D01*
X010071Y004097D01*
X010147Y004021D01*
X010246Y003980D01*
X017254Y003980D01*
X017630Y003950D02*
X004900Y003950D01*
X004900Y003850D02*
X017630Y003850D01*
X017630Y003750D02*
X004900Y003750D01*
X004900Y003650D02*
X017630Y003650D01*
X017630Y003550D02*
X004900Y003550D01*
X004900Y003450D02*
X017630Y003450D01*
X017630Y003350D02*
X004900Y003350D01*
X004900Y003250D02*
X017630Y003250D01*
X017630Y003150D02*
X004900Y003150D01*
X004900Y003050D02*
X017630Y003050D01*
X018570Y003055D02*
X018570Y003245D01*
X018605Y003209D01*
X018748Y003150D01*
X018570Y003150D01*
X018605Y003091D02*
X018570Y003055D01*
X018600Y003085D02*
X018600Y003215D01*
X018700Y003170D02*
X018700Y003130D01*
X018748Y003150D02*
X018605Y003091D01*
X019052Y003150D02*
X019590Y003150D01*
X019590Y003225D02*
X019590Y003075D01*
X019459Y002945D01*
X019400Y002802D01*
X019400Y003498D01*
X019459Y003355D01*
X019590Y003225D01*
X019565Y003250D02*
X019235Y003250D01*
X019200Y003215D02*
X019200Y003085D01*
X019195Y003091D02*
X019052Y003150D01*
X019195Y003209D01*
X019341Y003355D01*
X019400Y003498D01*
X019380Y003450D02*
X019420Y003450D01*
X019465Y003350D02*
X019335Y003350D01*
X019300Y003315D02*
X019300Y002985D01*
X019335Y002950D02*
X019465Y002950D01*
X019500Y002985D02*
X019500Y003315D01*
X019100Y003170D02*
X019100Y003130D01*
X019195Y003091D02*
X019341Y002945D01*
X019400Y002802D01*
X019380Y002850D02*
X019420Y002850D01*
X019565Y003050D02*
X019235Y003050D01*
X019400Y003802D02*
X019341Y003945D01*
X019195Y004091D01*
X019052Y004150D01*
X019590Y004150D01*
X019590Y004225D02*
X019590Y004075D01*
X019459Y003945D01*
X019400Y003802D01*
X019400Y004498D01*
X019459Y004355D01*
X019590Y004225D01*
X019565Y004250D02*
X019235Y004250D01*
X019200Y004215D02*
X019200Y004085D01*
X019235Y004050D02*
X019565Y004050D01*
X019500Y003985D02*
X019500Y004315D01*
X019465Y004350D02*
X019335Y004350D01*
X019341Y004355D02*
X019400Y004498D01*
X019380Y004450D02*
X019420Y004450D01*
X019341Y004355D02*
X019195Y004209D01*
X019052Y004150D01*
X019100Y004130D02*
X019100Y004170D01*
X019300Y004315D02*
X019300Y003985D01*
X019335Y003950D02*
X019465Y003950D01*
X019420Y003850D02*
X019380Y003850D01*
X018748Y004150D02*
X018570Y004150D01*
X018605Y004209D02*
X018570Y004245D01*
X018570Y004055D01*
X018605Y004091D01*
X018748Y004150D01*
X018605Y004209D01*
X018600Y004215D02*
X018600Y004085D01*
X018700Y004130D02*
X018700Y004170D01*
X020210Y004150D02*
X021350Y004150D01*
X021350Y004050D02*
X021183Y004050D01*
X021200Y004038D02*
X021200Y004262D01*
X021183Y004250D02*
X021350Y004250D01*
X021350Y004350D02*
X021288Y004350D01*
X021300Y004367D02*
X021300Y003933D01*
X021288Y003950D02*
X021350Y003950D01*
X021319Y003907D02*
X021274Y003969D01*
X021219Y004024D01*
X021157Y004069D01*
X021088Y004104D01*
X021015Y004128D01*
X020950Y004138D01*
X020950Y003700D01*
X020850Y003700D01*
X020850Y004138D01*
X020785Y004128D01*
X020712Y004104D01*
X020643Y004069D01*
X020581Y004024D01*
X020526Y003969D01*
X020481Y003907D01*
X020446Y003838D01*
X020422Y003765D01*
X020420Y003752D01*
X020420Y003753D01*
X020341Y003945D01*
X020210Y004075D01*
X020210Y004225D01*
X020341Y004355D01*
X020420Y004547D01*
X020420Y004548D01*
X020422Y004535D01*
X020446Y004462D01*
X020481Y004393D01*
X020526Y004331D01*
X020581Y004276D01*
X020643Y004231D01*
X020712Y004196D01*
X020785Y004172D01*
X020850Y004162D01*
X020850Y004600D01*
X020950Y004600D01*
X020950Y004162D01*
X021015Y004172D01*
X021088Y004196D01*
X021157Y004231D01*
X021219Y004276D01*
X021274Y004331D01*
X021319Y004393D01*
X021350Y004454D01*
X021350Y003846D01*
X021319Y003907D01*
X021348Y003850D02*
X021350Y003850D01*
X021100Y004098D02*
X021100Y004202D01*
X021000Y004170D02*
X021000Y004130D01*
X020950Y004050D02*
X020850Y004050D01*
X020800Y004130D02*
X020800Y004170D01*
X020850Y004250D02*
X020950Y004250D01*
X020950Y004350D02*
X020850Y004350D01*
X020850Y004450D02*
X020950Y004450D01*
X020950Y004550D02*
X020850Y004550D01*
X020900Y004600D02*
X020900Y003700D01*
X020850Y003750D02*
X020950Y003750D01*
X020950Y003850D02*
X020850Y003850D01*
X020850Y003950D02*
X020950Y003950D01*
X020700Y004098D02*
X020700Y004202D01*
X020617Y004250D02*
X020235Y004250D01*
X020300Y004315D02*
X020300Y003985D01*
X020335Y003950D02*
X020512Y003950D01*
X020500Y003933D02*
X020500Y004367D01*
X020512Y004350D02*
X020335Y004350D01*
X020380Y004450D02*
X020452Y004450D01*
X020400Y004498D02*
X020400Y003802D01*
X020380Y003850D02*
X020452Y003850D01*
X020600Y004038D02*
X020600Y004262D01*
X020617Y004050D02*
X020235Y004050D01*
X020420Y004752D02*
X020420Y004753D01*
X020341Y004945D01*
X020210Y005075D01*
X020210Y005225D01*
X020341Y005355D01*
X020420Y005547D01*
X020420Y005548D01*
X020422Y005535D01*
X020446Y005462D01*
X020481Y005393D01*
X020526Y005331D01*
X020581Y005276D01*
X020643Y005231D01*
X020712Y005196D01*
X020785Y005172D01*
X020850Y005162D01*
X020850Y005600D01*
X020950Y005600D01*
X020950Y005162D01*
X021015Y005172D01*
X021088Y005196D01*
X021157Y005231D01*
X021219Y005276D01*
X021274Y005331D01*
X021319Y005393D01*
X021350Y005454D01*
X021350Y004846D01*
X021319Y004907D01*
X021274Y004969D01*
X021219Y005024D01*
X021157Y005069D01*
X021088Y005104D01*
X021015Y005128D01*
X020950Y005138D01*
X020950Y004700D01*
X020850Y004700D01*
X020850Y005138D01*
X020785Y005128D01*
X020712Y005104D01*
X020643Y005069D01*
X020581Y005024D01*
X020526Y004969D01*
X020481Y004907D01*
X020446Y004838D01*
X020422Y004765D01*
X020420Y004752D01*
X020400Y004802D02*
X020400Y005498D01*
X020380Y005450D02*
X020452Y005450D01*
X020500Y005367D02*
X020500Y004933D01*
X020512Y004950D02*
X020335Y004950D01*
X020300Y004985D02*
X020300Y005315D01*
X020335Y005350D02*
X020512Y005350D01*
X020600Y005262D02*
X020600Y005038D01*
X020617Y005050D02*
X020235Y005050D01*
X020210Y005150D02*
X021350Y005150D01*
X021350Y005050D02*
X021183Y005050D01*
X021200Y005038D02*
X021200Y005262D01*
X021183Y005250D02*
X021350Y005250D01*
X021350Y005350D02*
X021288Y005350D01*
X021300Y005367D02*
X021300Y004933D01*
X021288Y004950D02*
X021350Y004950D01*
X021348Y004850D02*
X021350Y004850D01*
X021100Y005098D02*
X021100Y005202D01*
X021000Y005170D02*
X021000Y005130D01*
X020950Y005050D02*
X020850Y005050D01*
X020800Y005130D02*
X020800Y005170D01*
X020850Y005250D02*
X020950Y005250D01*
X020950Y005350D02*
X020850Y005350D01*
X020850Y005450D02*
X020950Y005450D01*
X020950Y005550D02*
X020850Y005550D01*
X020900Y005600D02*
X020900Y004700D01*
X020850Y004750D02*
X020950Y004750D01*
X020950Y004850D02*
X020850Y004850D01*
X020850Y004950D02*
X020950Y004950D01*
X020700Y005098D02*
X020700Y005202D01*
X020617Y005250D02*
X020235Y005250D01*
X020380Y004850D02*
X020452Y004850D01*
X021348Y004450D02*
X021350Y004450D01*
X021348Y003450D02*
X021350Y003450D01*
X021348Y005450D02*
X021350Y005450D01*
X020950Y005700D02*
X020850Y005700D01*
X020850Y006138D01*
X020785Y006128D01*
X020712Y006104D01*
X020643Y006069D01*
X020581Y006024D01*
X020526Y005969D01*
X020481Y005907D01*
X020446Y005838D01*
X020422Y005765D01*
X020420Y005752D01*
X020420Y005753D01*
X020341Y005945D01*
X020210Y006075D01*
X020210Y006225D01*
X020341Y006355D01*
X020420Y006547D01*
X020420Y006548D01*
X020422Y006535D01*
X020446Y006462D01*
X020481Y006393D01*
X020526Y006331D01*
X020581Y006276D01*
X020643Y006231D01*
X020712Y006196D01*
X020785Y006172D01*
X020850Y006162D01*
X020850Y006600D01*
X020950Y006600D01*
X020950Y006162D01*
X021015Y006172D01*
X021088Y006196D01*
X021157Y006231D01*
X021219Y006276D01*
X021274Y006331D01*
X021319Y006393D01*
X021350Y006454D01*
X021350Y005846D01*
X021319Y005907D01*
X021274Y005969D01*
X021219Y006024D01*
X021157Y006069D01*
X021088Y006104D01*
X021015Y006128D01*
X020950Y006138D01*
X020950Y005700D01*
X020900Y005700D02*
X020900Y006600D01*
X020850Y006550D02*
X020950Y006550D01*
X020950Y006450D02*
X020850Y006450D01*
X020850Y006350D02*
X020950Y006350D01*
X020950Y006250D02*
X020850Y006250D01*
X020800Y006170D02*
X020800Y006130D01*
X020850Y006050D02*
X020950Y006050D01*
X021000Y006130D02*
X021000Y006170D01*
X021100Y006202D02*
X021100Y006098D01*
X021183Y006050D02*
X021350Y006050D01*
X021350Y005950D02*
X021288Y005950D01*
X021300Y005933D02*
X021300Y006367D01*
X021288Y006350D02*
X021350Y006350D01*
X021348Y006450D02*
X021350Y006450D01*
X021350Y006250D02*
X021183Y006250D01*
X021200Y006262D02*
X021200Y006038D01*
X021350Y006150D02*
X020210Y006150D01*
X020235Y006050D02*
X020617Y006050D01*
X020600Y006038D02*
X020600Y006262D01*
X020617Y006250D02*
X020235Y006250D01*
X020300Y006315D02*
X020300Y005985D01*
X020335Y005950D02*
X020512Y005950D01*
X020500Y005933D02*
X020500Y006367D01*
X020512Y006350D02*
X020335Y006350D01*
X020380Y006450D02*
X020452Y006450D01*
X020400Y006498D02*
X020400Y005802D01*
X020380Y005850D02*
X020452Y005850D01*
X020700Y006098D02*
X020700Y006202D01*
X020850Y005950D02*
X020950Y005950D01*
X020950Y005850D02*
X020850Y005850D01*
X020850Y005750D02*
X020950Y005750D01*
X021348Y005850D02*
X021350Y005850D01*
X020950Y006700D02*
X020850Y006700D01*
X020850Y007138D01*
X020785Y007128D01*
X020712Y007104D01*
X020643Y007069D01*
X020581Y007024D01*
X020526Y006969D01*
X020481Y006907D01*
X020446Y006838D01*
X020422Y006765D01*
X020420Y006752D01*
X020420Y006753D01*
X020341Y006945D01*
X020210Y007075D01*
X020210Y007225D01*
X020341Y007355D01*
X020420Y007547D01*
X020420Y007548D01*
X020422Y007535D01*
X020446Y007462D01*
X020481Y007393D01*
X020526Y007331D01*
X020581Y007276D01*
X020643Y007231D01*
X020712Y007196D01*
X020785Y007172D01*
X020850Y007162D01*
X020850Y007600D01*
X020950Y007600D01*
X020950Y007162D01*
X021015Y007172D01*
X021088Y007196D01*
X021157Y007231D01*
X021219Y007276D01*
X021274Y007331D01*
X021319Y007393D01*
X021350Y007454D01*
X021350Y006846D01*
X021319Y006907D01*
X021274Y006969D01*
X021219Y007024D01*
X021157Y007069D01*
X021088Y007104D01*
X021015Y007128D01*
X020950Y007138D01*
X020950Y006700D01*
X020900Y006700D02*
X020900Y007600D01*
X020850Y007550D02*
X020950Y007550D01*
X020950Y007450D02*
X020850Y007450D01*
X020850Y007350D02*
X020950Y007350D01*
X020950Y007250D02*
X020850Y007250D01*
X020800Y007170D02*
X020800Y007130D01*
X020850Y007050D02*
X020950Y007050D01*
X021000Y007130D02*
X021000Y007170D01*
X021100Y007202D02*
X021100Y007098D01*
X021183Y007050D02*
X021350Y007050D01*
X021350Y006950D02*
X021288Y006950D01*
X021300Y006933D02*
X021300Y007367D01*
X021288Y007350D02*
X021350Y007350D01*
X021348Y007450D02*
X021350Y007450D01*
X021350Y007250D02*
X021183Y007250D01*
X021200Y007262D02*
X021200Y007038D01*
X021350Y007150D02*
X020210Y007150D01*
X020235Y007050D02*
X020617Y007050D01*
X020600Y007038D02*
X020600Y007262D01*
X020617Y007250D02*
X020235Y007250D01*
X020300Y007315D02*
X020300Y006985D01*
X020335Y006950D02*
X020512Y006950D01*
X020500Y006933D02*
X020500Y007367D01*
X020512Y007350D02*
X020335Y007350D01*
X020380Y007450D02*
X020452Y007450D01*
X020400Y007498D02*
X020400Y006802D01*
X020380Y006850D02*
X020452Y006850D01*
X020700Y007098D02*
X020700Y007202D01*
X020850Y006950D02*
X020950Y006950D01*
X020950Y006850D02*
X020850Y006850D01*
X020850Y006750D02*
X020950Y006750D01*
X021348Y006850D02*
X021350Y006850D01*
X021348Y008450D02*
X021350Y008450D01*
X021348Y008850D02*
X021350Y008850D01*
X020000Y010170D02*
X020000Y010730D01*
X019900Y010730D02*
X019900Y010170D01*
X020850Y010950D02*
X020950Y010950D01*
X020950Y011050D02*
X020850Y011050D01*
X021348Y011050D02*
X021350Y011050D01*
X017630Y010450D02*
X016112Y010450D01*
X016100Y010445D02*
X016100Y009703D01*
X010500Y005445D02*
X010500Y004520D01*
X010600Y004520D02*
X010600Y005430D01*
X010488Y005450D02*
X008253Y005450D01*
X008200Y005503D02*
X008200Y005550D01*
X008500Y005550D02*
X008500Y004720D01*
X008600Y004720D02*
X008600Y005550D01*
X008700Y005550D02*
X008700Y004720D01*
X008800Y004720D02*
X008800Y005550D01*
X008900Y005550D02*
X008900Y004720D01*
X009000Y004720D02*
X009000Y005550D01*
X009100Y005550D02*
X009100Y004720D01*
X009200Y004720D02*
X009200Y005550D01*
X009300Y005550D02*
X009300Y004720D01*
X009400Y004720D02*
X009400Y005550D01*
X009500Y005550D02*
X009500Y004720D01*
X009600Y004720D02*
X009600Y005550D01*
X009700Y005550D02*
X009700Y004720D01*
X010400Y004532D02*
X010400Y005497D01*
X009700Y004180D02*
X009700Y001857D01*
X009407Y002150D01*
X008993Y002150D01*
X008700Y001857D01*
X008700Y004180D01*
X008800Y004180D02*
X008800Y001957D01*
X008793Y001950D02*
X008607Y001950D01*
X008600Y001957D02*
X008600Y004180D01*
X008500Y004180D02*
X008500Y002057D01*
X008507Y002050D02*
X008893Y002050D01*
X008900Y002057D02*
X008900Y004180D01*
X009000Y004180D02*
X009000Y002150D01*
X009100Y002150D02*
X009100Y004180D01*
X009200Y004180D02*
X009200Y002150D01*
X009300Y002150D02*
X009300Y004180D01*
X009400Y004180D02*
X009400Y002150D01*
X009500Y002057D02*
X009500Y004180D01*
X009600Y004180D02*
X009600Y001957D01*
X009607Y001950D02*
X009793Y001950D01*
X009800Y001957D02*
X009800Y004145D01*
X009788Y004150D02*
X006312Y004150D01*
X006300Y004145D02*
X006300Y002150D01*
X006400Y002150D02*
X006400Y004180D01*
X006500Y004180D02*
X006500Y002057D01*
X006507Y002050D02*
X006893Y002050D01*
X006900Y002057D02*
X006900Y004180D01*
X006800Y004180D02*
X006800Y001957D01*
X006793Y001950D02*
X006607Y001950D01*
X006600Y001957D02*
X006600Y004180D01*
X006700Y004180D02*
X006700Y001857D01*
X006407Y002150D01*
X005993Y002150D01*
X006100Y002150D02*
X006100Y004145D01*
X006088Y004150D02*
X004900Y004150D01*
X004900Y004050D02*
X010118Y004050D01*
X010100Y004068D02*
X010100Y002150D01*
X010000Y002150D02*
X010000Y004145D01*
X010012Y004150D02*
X010018Y004150D01*
X009900Y004130D02*
X009900Y002057D01*
X009893Y002050D02*
X009507Y002050D01*
X009700Y001857D02*
X009700Y001443D01*
X009700Y001320D01*
X009607Y001350D02*
X009793Y001350D01*
X009800Y001343D02*
X009800Y001320D01*
X009823Y001320D02*
X009577Y001320D01*
X009700Y001443D01*
X009823Y001320D01*
X009700Y001443D02*
X009700Y001857D01*
X009993Y002150D01*
X010407Y002150D01*
X010700Y001857D01*
X010700Y003980D01*
X010800Y003980D02*
X010800Y001957D01*
X010793Y001950D02*
X010607Y001950D01*
X010600Y001957D02*
X010600Y003980D01*
X010500Y003980D02*
X010500Y002057D01*
X010507Y002050D02*
X010893Y002050D01*
X010900Y002057D02*
X010900Y003980D01*
X011000Y003980D02*
X011000Y002150D01*
X010993Y002150D02*
X010700Y001857D01*
X010700Y001443D01*
X010700Y001320D01*
X010607Y001350D02*
X010793Y001350D01*
X010800Y001343D02*
X010800Y001320D01*
X010823Y001320D02*
X010577Y001320D01*
X010700Y001443D01*
X010823Y001320D01*
X010700Y001443D02*
X010700Y001857D01*
X010700Y001850D02*
X010700Y001850D01*
X010700Y001750D02*
X010700Y001750D01*
X010700Y001650D02*
X010700Y001650D01*
X010700Y001550D02*
X010700Y001550D01*
X010700Y001450D02*
X010700Y001450D01*
X010600Y001343D02*
X010600Y001320D01*
X009700Y001450D02*
X009700Y001450D01*
X009700Y001550D02*
X009700Y001550D01*
X009700Y001650D02*
X009700Y001650D01*
X009700Y001750D02*
X009700Y001750D01*
X009700Y001850D02*
X009700Y001850D01*
X010200Y002150D02*
X010200Y003999D01*
X010300Y003980D02*
X010300Y002150D01*
X010400Y002150D02*
X010400Y003980D01*
X011100Y003980D02*
X011100Y002150D01*
X011200Y002150D02*
X011200Y003980D01*
X011300Y003980D02*
X011300Y002150D01*
X011400Y002150D02*
X011400Y003980D01*
X011500Y003980D02*
X011500Y002057D01*
X011507Y002050D02*
X011893Y002050D01*
X011900Y002057D02*
X011900Y003980D01*
X011800Y003980D02*
X011800Y001957D01*
X011793Y001950D02*
X011607Y001950D01*
X011600Y001957D02*
X011600Y003980D01*
X011700Y003980D02*
X011700Y001857D01*
X011407Y002150D01*
X010993Y002150D01*
X011700Y001857D02*
X011700Y001443D01*
X011700Y001320D01*
X011607Y001350D02*
X011793Y001350D01*
X011800Y001343D02*
X011800Y001320D01*
X011823Y001320D02*
X011577Y001320D01*
X011700Y001443D01*
X011823Y001320D01*
X011700Y001443D02*
X011700Y001857D01*
X011993Y002150D01*
X012407Y002150D01*
X012700Y001857D01*
X012700Y003980D01*
X012600Y003980D02*
X012600Y001957D01*
X012607Y001950D02*
X012793Y001950D01*
X012800Y001957D02*
X012800Y003980D01*
X012900Y003980D02*
X012900Y002057D01*
X012893Y002050D02*
X012507Y002050D01*
X012500Y002057D02*
X012500Y003980D01*
X012400Y003980D02*
X012400Y002150D01*
X012300Y002150D02*
X012300Y003980D01*
X012200Y003980D02*
X012200Y002150D01*
X012100Y002150D02*
X012100Y003980D01*
X012000Y003980D02*
X012000Y002150D01*
X011700Y001850D02*
X011700Y001850D01*
X011700Y001750D02*
X011700Y001750D01*
X011700Y001650D02*
X011700Y001650D01*
X011700Y001550D02*
X011700Y001550D01*
X011700Y001450D02*
X011700Y001450D01*
X011600Y001343D02*
X011600Y001320D01*
X012577Y001320D02*
X012700Y001443D01*
X012700Y001320D01*
X012607Y001350D02*
X012793Y001350D01*
X012800Y001343D02*
X012800Y001320D01*
X012823Y001320D02*
X012577Y001320D01*
X012600Y001320D02*
X012600Y001343D01*
X012700Y001443D02*
X012700Y001857D01*
X012700Y001443D01*
X012823Y001320D01*
X012700Y001450D02*
X012700Y001450D01*
X012700Y001550D02*
X012700Y001550D01*
X012700Y001650D02*
X012700Y001650D01*
X012700Y001750D02*
X012700Y001750D01*
X012700Y001850D02*
X012700Y001850D01*
X012700Y001857D02*
X012993Y002150D01*
X013407Y002150D01*
X013700Y001857D01*
X013700Y001443D01*
X013700Y001320D01*
X013607Y001350D02*
X013793Y001350D01*
X013800Y001343D02*
X013800Y001320D01*
X013823Y001320D02*
X013577Y001320D01*
X013700Y001443D01*
X013823Y001320D01*
X013700Y001443D02*
X013700Y001857D01*
X013700Y001850D02*
X013700Y001850D01*
X013700Y001750D02*
X013700Y001750D01*
X013700Y001650D02*
X013700Y001650D01*
X013700Y001550D02*
X013700Y001550D01*
X013700Y001450D02*
X013700Y001450D01*
X013600Y001343D02*
X013600Y001320D01*
X014600Y001320D02*
X014600Y001343D01*
X013400Y002150D02*
X013400Y003980D01*
X013300Y003980D02*
X013300Y002150D01*
X013200Y002150D02*
X013200Y003980D01*
X013100Y003980D02*
X013100Y002150D01*
X013000Y002150D02*
X013000Y003980D01*
X008700Y001857D02*
X008700Y001443D01*
X008700Y001320D01*
X008607Y001350D02*
X008793Y001350D01*
X008800Y001343D02*
X008800Y001320D01*
X008823Y001320D02*
X008577Y001320D01*
X008700Y001443D01*
X008700Y001857D01*
X008407Y002150D01*
X007993Y002150D01*
X007700Y001857D01*
X007700Y004180D01*
X007800Y004180D02*
X007800Y001957D01*
X007793Y001950D02*
X007607Y001950D01*
X007600Y001957D02*
X007600Y004180D01*
X007500Y004180D02*
X007500Y002057D01*
X007507Y002050D02*
X007893Y002050D01*
X007900Y002057D02*
X007900Y004180D01*
X008000Y004180D02*
X008000Y002150D01*
X008100Y002150D02*
X008100Y004180D01*
X008200Y004180D02*
X008200Y002150D01*
X008300Y002150D02*
X008300Y004180D01*
X008400Y004180D02*
X008400Y002150D01*
X008700Y001850D02*
X008700Y001850D01*
X008700Y001750D02*
X008700Y001750D01*
X008700Y001650D02*
X008700Y001650D01*
X008700Y001550D02*
X008700Y001550D01*
X008700Y001450D02*
X008700Y001450D01*
X008700Y001443D02*
X008823Y001320D01*
X008600Y001320D02*
X008600Y001343D01*
X007823Y001320D02*
X007577Y001320D01*
X007700Y001443D01*
X007700Y001320D01*
X007607Y001350D02*
X007793Y001350D01*
X007800Y001343D02*
X007800Y001320D01*
X007823Y001320D02*
X007700Y001443D01*
X007700Y001857D01*
X007407Y002150D01*
X006993Y002150D01*
X006700Y001857D01*
X006700Y001443D01*
X006700Y001320D01*
X006607Y001350D02*
X006793Y001350D01*
X006800Y001343D02*
X006800Y001320D01*
X006823Y001320D02*
X006577Y001320D01*
X006700Y001443D01*
X006823Y001320D01*
X006700Y001443D02*
X006700Y001857D01*
X006700Y001850D02*
X006700Y001850D01*
X006700Y001750D02*
X006700Y001750D01*
X006700Y001650D02*
X006700Y001650D01*
X006700Y001550D02*
X006700Y001550D01*
X006700Y001450D02*
X006700Y001450D01*
X006600Y001343D02*
X006600Y001320D01*
X007600Y001320D02*
X007600Y001343D01*
X007700Y001443D02*
X007700Y001857D01*
X007700Y001850D02*
X007700Y001850D01*
X007700Y001750D02*
X007700Y001750D01*
X007700Y001650D02*
X007700Y001650D01*
X007700Y001550D02*
X007700Y001550D01*
X007700Y001450D02*
X007700Y001450D01*
X007400Y002150D02*
X007400Y004180D01*
X007300Y004180D02*
X007300Y002150D01*
X007200Y002150D02*
X007200Y004180D01*
X007100Y004180D02*
X007100Y002150D01*
X007000Y002150D02*
X007000Y004180D01*
X006200Y004130D02*
X006200Y002150D01*
X005400Y002150D02*
X005400Y004180D01*
X005300Y004180D02*
X005300Y002150D01*
X005200Y002150D02*
X005200Y004180D01*
X005100Y004180D02*
X005100Y002150D01*
X005000Y002150D02*
X005000Y004180D01*
X001100Y002160D02*
X001100Y001426D01*
X001000Y001385D02*
X001000Y002160D01*
X000907Y002250D02*
X000650Y002250D01*
X000900Y002257D02*
X000900Y001319D01*
X000931Y001350D02*
X000650Y001350D01*
X009600Y001320D02*
X009600Y001343D01*
X005200Y009500D02*
X005200Y010150D01*
X005100Y010150D02*
X005100Y009930D01*
X005150Y009850D02*
X005250Y009850D01*
X005300Y009930D02*
X005300Y010150D01*
X005400Y010150D02*
X005400Y009898D01*
X005250Y009750D02*
X005150Y009750D01*
X005150Y009650D02*
X005250Y009650D01*
X005250Y009550D02*
X005150Y009550D01*
X005000Y009898D02*
X005000Y010150D01*
X004993Y010150D02*
X005407Y010150D01*
X005700Y010443D02*
X005700Y010857D01*
X005700Y011080D01*
X005800Y011080D02*
X005800Y010957D01*
X005793Y010950D02*
X005607Y010950D01*
X005600Y010957D02*
X005600Y011080D01*
X005507Y011050D02*
X005893Y011050D01*
X005900Y011057D02*
X005900Y011080D01*
X005923Y011080D02*
X005700Y010857D01*
X005700Y010443D01*
X005993Y010150D01*
X006407Y010150D01*
X005700Y010450D02*
X005700Y010450D01*
X005700Y010550D02*
X005700Y010550D01*
X005700Y010650D02*
X005700Y010650D01*
X005700Y010750D02*
X005700Y010750D01*
X005700Y010850D02*
X005700Y010850D01*
X005700Y010857D02*
X005477Y011080D01*
X005923Y011080D01*
X005500Y011057D02*
X005500Y011080D01*
X004700Y010650D02*
X004250Y010650D01*
X004400Y010600D02*
X004400Y010700D01*
X004500Y010700D02*
X004500Y010600D01*
D17*
X014800Y008785D02*
X014800Y006650D01*
X015400Y007550D02*
X017400Y007550D01*
X017500Y007450D01*
M02*
