G75*
%MOIN*%
%OFA0B0*%
%FSLAX24Y24*%
%IPPOS*%
%LPD*%
%AMOC8*
5,1,8,0,0,1.08239X$1,22.5*
%
%ADD10C,0.0040*%
%ADD11C,0.0050*%
%ADD12R,0.6500X0.1000*%
%ADD13C,0.0060*%
%ADD14C,0.0080*%
%ADD15C,0.0000*%
%ADD16R,0.0013X0.0003*%
%ADD17R,0.0018X0.0003*%
%ADD18R,0.0022X0.0003*%
%ADD19R,0.0027X0.0003*%
%ADD20R,0.0032X0.0003*%
%ADD21R,0.0037X0.0003*%
%ADD22R,0.0043X0.0003*%
%ADD23R,0.0047X0.0003*%
%ADD24R,0.0053X0.0003*%
%ADD25R,0.0057X0.0003*%
%ADD26R,0.0060X0.0003*%
%ADD27R,0.0065X0.0003*%
%ADD28R,0.0067X0.0003*%
%ADD29R,0.0070X0.0003*%
%ADD30R,0.0035X0.0003*%
%ADD31R,0.0063X0.0003*%
%ADD32R,0.0040X0.0003*%
%ADD33R,0.0045X0.0003*%
%ADD34R,0.0050X0.0003*%
%ADD35R,0.0055X0.0003*%
%ADD36R,0.0005X0.0003*%
%ADD37R,0.0073X0.0003*%
%ADD38R,0.0075X0.0003*%
%ADD39R,0.0077X0.0003*%
%ADD40R,0.0080X0.0003*%
%ADD41R,0.0083X0.0003*%
%ADD42R,0.0010X0.0003*%
%ADD43R,0.0015X0.0003*%
%ADD44R,0.0020X0.0003*%
%ADD45R,0.0025X0.0003*%
%ADD46R,0.0030X0.0003*%
%ADD47R,0.0008X0.0003*%
%ADD48R,0.0088X0.0003*%
%ADD49R,0.0095X0.0003*%
%ADD50R,0.0105X0.0003*%
%ADD51R,0.0112X0.0003*%
%ADD52R,0.0085X0.0003*%
%ADD53R,0.0120X0.0003*%
%ADD54R,0.0097X0.0003*%
%ADD55R,0.0103X0.0003*%
%ADD56R,0.0107X0.0003*%
%ADD57R,0.0115X0.0003*%
%ADD58R,0.0118X0.0003*%
%ADD59R,0.0100X0.0003*%
%ADD60R,0.0123X0.0003*%
%ADD61R,0.0127X0.0003*%
%ADD62R,0.0092X0.0003*%
%ADD63R,0.0147X0.0003*%
%ADD64R,0.0125X0.0003*%
%ADD65R,0.0145X0.0003*%
%ADD66R,0.0143X0.0003*%
%ADD67R,0.0132X0.0003*%
%ADD68R,0.0130X0.0003*%
%ADD69R,0.0090X0.0003*%
%ADD70R,0.0003X0.0003*%
%ADD71R,0.0050X0.0010*%
%ADD72R,0.0070X0.0010*%
%ADD73R,0.0090X0.0010*%
%ADD74R,0.0110X0.0010*%
%ADD75R,0.0130X0.0010*%
%ADD76R,0.0150X0.0010*%
%ADD77R,0.0170X0.0010*%
%ADD78R,0.0190X0.0010*%
%ADD79R,0.0210X0.0010*%
%ADD80R,0.0230X0.0010*%
%ADD81R,0.0240X0.0010*%
%ADD82R,0.0260X0.0010*%
%ADD83R,0.0270X0.0010*%
%ADD84R,0.0280X0.0010*%
%ADD85R,0.0140X0.0010*%
%ADD86R,0.0250X0.0010*%
%ADD87R,0.0160X0.0010*%
%ADD88R,0.0180X0.0010*%
%ADD89R,0.0200X0.0010*%
%ADD90R,0.0220X0.0010*%
%ADD91R,0.0020X0.0010*%
%ADD92R,0.0290X0.0010*%
%ADD93R,0.0300X0.0010*%
%ADD94R,0.0310X0.0010*%
%ADD95R,0.0320X0.0010*%
%ADD96R,0.0330X0.0010*%
%ADD97R,0.0040X0.0010*%
%ADD98R,0.0060X0.0010*%
%ADD99R,0.0080X0.0010*%
%ADD100R,0.0100X0.0010*%
%ADD101R,0.0120X0.0010*%
%ADD102R,0.0030X0.0010*%
%ADD103R,0.0350X0.0010*%
%ADD104R,0.0380X0.0010*%
%ADD105R,0.0420X0.0010*%
%ADD106R,0.0450X0.0010*%
%ADD107R,0.0340X0.0010*%
%ADD108R,0.0480X0.0010*%
%ADD109R,0.0390X0.0010*%
%ADD110R,0.0410X0.0010*%
%ADD111R,0.0430X0.0010*%
%ADD112R,0.0460X0.0010*%
%ADD113R,0.0470X0.0010*%
%ADD114R,0.0400X0.0010*%
%ADD115R,0.0490X0.0010*%
%ADD116R,0.0510X0.0010*%
%ADD117R,0.0370X0.0010*%
%ADD118R,0.0590X0.0010*%
%ADD119R,0.0500X0.0010*%
%ADD120R,0.0580X0.0010*%
%ADD121R,0.0570X0.0010*%
%ADD122R,0.0530X0.0010*%
%ADD123R,0.0520X0.0010*%
%ADD124R,0.0360X0.0010*%
%ADD125R,0.0010X0.0010*%
D10*
X005080Y002140D02*
X005113Y002107D01*
X005080Y002140D02*
X005080Y002207D01*
X005113Y002240D01*
X005180Y002240D01*
X005213Y002207D01*
X005213Y002174D01*
X005180Y002107D01*
X005280Y002107D01*
X005280Y002240D01*
X005280Y002328D02*
X005147Y002328D01*
X005080Y002395D01*
X005147Y002461D01*
X005280Y002461D01*
X005247Y002549D02*
X005113Y002549D01*
X005247Y002682D01*
X005113Y002682D01*
X005080Y002649D01*
X005080Y002582D01*
X005113Y002549D01*
X005247Y002549D02*
X005280Y002582D01*
X005280Y002649D01*
X005247Y002682D01*
X006080Y002682D02*
X006213Y002682D01*
X006280Y002616D01*
X006213Y002549D01*
X006080Y002549D01*
X006113Y002461D02*
X006247Y002461D01*
X006280Y002428D01*
X006280Y002328D01*
X006080Y002328D01*
X006080Y002428D01*
X006113Y002461D01*
X006180Y002549D02*
X006180Y002682D01*
X006147Y002240D02*
X006113Y002240D01*
X006080Y002207D01*
X006080Y002140D01*
X006113Y002107D01*
X006180Y002140D02*
X006180Y002207D01*
X006147Y002240D01*
X006247Y002240D02*
X006280Y002207D01*
X006280Y002140D01*
X006247Y002107D01*
X006213Y002107D01*
X006180Y002140D01*
X007080Y002140D02*
X007113Y002107D01*
X007080Y002140D02*
X007080Y002207D01*
X007113Y002240D01*
X007147Y002240D01*
X007180Y002207D01*
X007180Y002140D01*
X007213Y002107D01*
X007247Y002107D01*
X007280Y002140D01*
X007280Y002207D01*
X007247Y002240D01*
X007247Y002328D02*
X007113Y002328D01*
X007080Y002361D01*
X007080Y002428D01*
X007113Y002461D01*
X007080Y002549D02*
X007080Y002682D01*
X007080Y002549D02*
X007280Y002549D01*
X007247Y002461D02*
X007280Y002428D01*
X007280Y002361D01*
X007247Y002328D01*
X008080Y002328D02*
X008280Y002461D01*
X008280Y002549D02*
X008080Y002549D01*
X008080Y002649D01*
X008113Y002682D01*
X008247Y002682D01*
X008280Y002649D01*
X008280Y002549D01*
X008080Y002461D02*
X008280Y002328D01*
X008280Y002240D02*
X008280Y002107D01*
X008280Y002174D02*
X008080Y002174D01*
X009080Y002240D02*
X009147Y002174D01*
X009147Y002207D02*
X009147Y002107D01*
X009080Y002107D02*
X009280Y002107D01*
X009280Y002207D01*
X009247Y002240D01*
X009180Y002240D01*
X009147Y002207D01*
X009080Y002328D02*
X009280Y002461D01*
X009280Y002549D02*
X009080Y002549D01*
X009080Y002649D01*
X009113Y002682D01*
X009247Y002682D01*
X009280Y002649D01*
X009280Y002549D01*
X009080Y002461D02*
X009280Y002328D01*
X010080Y002395D02*
X010280Y002395D01*
X010280Y002461D02*
X010280Y002328D01*
X010247Y002240D02*
X010280Y002207D01*
X010280Y002140D01*
X010247Y002107D01*
X010113Y002107D01*
X010080Y002140D01*
X010080Y002207D01*
X010113Y002240D01*
X010360Y002087D02*
X010360Y002750D01*
X010280Y002649D02*
X010247Y002682D01*
X010280Y002649D02*
X010280Y002582D01*
X010247Y002549D01*
X010213Y002549D01*
X010180Y002582D01*
X010180Y002649D01*
X010147Y002682D01*
X010113Y002682D01*
X010080Y002649D01*
X010080Y002582D01*
X010113Y002549D01*
X011080Y002582D02*
X011113Y002549D01*
X011080Y002582D02*
X011080Y002649D01*
X011113Y002682D01*
X011147Y002682D01*
X011180Y002649D01*
X011180Y002582D01*
X011213Y002549D01*
X011247Y002549D01*
X011280Y002582D01*
X011280Y002649D01*
X011247Y002682D01*
X011360Y002750D02*
X011360Y002087D01*
X011280Y002107D02*
X011280Y002207D01*
X011247Y002240D01*
X011180Y002240D01*
X011147Y002207D01*
X011147Y002107D01*
X011147Y002174D02*
X011080Y002240D01*
X011080Y002107D02*
X011280Y002107D01*
X011280Y002328D02*
X011280Y002461D01*
X011280Y002395D02*
X011080Y002395D01*
X012080Y002395D02*
X012280Y002395D01*
X012280Y002461D02*
X012280Y002328D01*
X012247Y002240D02*
X012113Y002240D01*
X012080Y002207D01*
X012080Y002107D01*
X012280Y002107D01*
X012280Y002207D01*
X012247Y002240D01*
X012360Y002087D02*
X012360Y002750D01*
X012280Y002649D02*
X012247Y002682D01*
X012180Y002682D01*
X012147Y002649D01*
X012147Y002549D01*
X012147Y002616D02*
X012080Y002682D01*
X012080Y002549D02*
X012280Y002549D01*
X012280Y002649D01*
X013080Y002682D02*
X013147Y002616D01*
X013147Y002649D02*
X013147Y002549D01*
X013080Y002549D02*
X013280Y002549D01*
X013280Y002649D01*
X013247Y002682D01*
X013180Y002682D01*
X013147Y002649D01*
X013147Y002461D02*
X013113Y002461D01*
X013080Y002428D01*
X013080Y002361D01*
X013113Y002328D01*
X013180Y002361D02*
X013180Y002428D01*
X013147Y002461D01*
X013247Y002461D02*
X013280Y002428D01*
X013280Y002361D01*
X013247Y002328D01*
X013213Y002328D01*
X013180Y002361D01*
X013113Y002240D02*
X013247Y002240D01*
X013280Y002207D01*
X013280Y002107D01*
X013080Y002107D01*
X013080Y002207D01*
X013113Y002240D01*
X013360Y002087D02*
X013360Y002750D01*
X014080Y002649D02*
X014113Y002682D01*
X014247Y002682D01*
X014280Y002649D01*
X014280Y002549D01*
X014080Y002549D01*
X014080Y002649D01*
X014113Y002461D02*
X014080Y002428D01*
X014080Y002361D01*
X014113Y002328D01*
X014247Y002328D01*
X014280Y002361D01*
X014280Y002428D01*
X014247Y002461D01*
X014247Y002240D02*
X014280Y002207D01*
X014280Y002107D01*
X014080Y002107D01*
X014080Y002207D01*
X014113Y002240D01*
X014247Y002240D01*
X014360Y002087D02*
X014360Y002750D01*
X015080Y002389D02*
X015080Y002323D01*
X015080Y002356D02*
X015280Y002356D01*
X015280Y002323D02*
X015280Y002389D01*
X015360Y002450D02*
X015360Y002082D01*
X015280Y002102D02*
X015280Y002202D01*
X015247Y002235D01*
X015180Y002235D01*
X015147Y002202D01*
X015147Y002102D01*
X015147Y002168D02*
X015080Y002235D01*
X015080Y002102D02*
X015280Y002102D01*
X015187Y001166D02*
X015153Y001166D01*
X015120Y001133D01*
X015087Y001166D01*
X015053Y001166D01*
X015020Y001133D01*
X015020Y001066D01*
X015053Y001033D01*
X015120Y001100D02*
X015120Y001133D01*
X015187Y001166D02*
X015220Y001133D01*
X015220Y001066D01*
X015187Y001033D01*
X014987Y000945D02*
X014987Y000812D01*
X015053Y000724D02*
X015020Y000691D01*
X015020Y000624D01*
X015053Y000591D01*
X015187Y000724D01*
X015053Y000724D01*
X015053Y000591D02*
X015187Y000591D01*
X015220Y000624D01*
X015220Y000691D01*
X015187Y000724D01*
X015187Y000503D02*
X015120Y000503D01*
X015087Y000470D01*
X015087Y000370D01*
X015020Y000370D02*
X015220Y000370D01*
X015220Y000470D01*
X015187Y000503D01*
X014220Y000470D02*
X014220Y000370D01*
X014020Y000370D01*
X014087Y000370D02*
X014087Y000470D01*
X014120Y000503D01*
X014187Y000503D01*
X014220Y000470D01*
X014187Y000591D02*
X014053Y000591D01*
X014187Y000724D01*
X014053Y000724D01*
X014020Y000691D01*
X014020Y000624D01*
X014053Y000591D01*
X014187Y000591D02*
X014220Y000624D01*
X014220Y000691D01*
X014187Y000724D01*
X013987Y000812D02*
X013987Y000945D01*
X014020Y001033D02*
X014153Y001166D01*
X014187Y001166D01*
X014220Y001133D01*
X014220Y001066D01*
X014187Y001033D01*
X014020Y001033D02*
X014020Y001166D01*
X013220Y001100D02*
X013020Y001100D01*
X013020Y001166D02*
X013020Y001033D01*
X012987Y000945D02*
X012987Y000812D01*
X013053Y000724D02*
X013020Y000691D01*
X013020Y000624D01*
X013053Y000591D01*
X013187Y000724D01*
X013053Y000724D01*
X013053Y000591D02*
X013187Y000591D01*
X013220Y000624D01*
X013220Y000691D01*
X013187Y000724D01*
X013187Y000503D02*
X013120Y000503D01*
X013087Y000470D01*
X013087Y000370D01*
X013020Y000370D02*
X013220Y000370D01*
X013220Y000470D01*
X013187Y000503D01*
X012220Y000470D02*
X012220Y000370D01*
X012020Y000370D01*
X012087Y000370D02*
X012087Y000470D01*
X012120Y000503D01*
X012187Y000503D01*
X012220Y000470D01*
X012187Y000591D02*
X012053Y000591D01*
X012187Y000724D01*
X012053Y000724D01*
X012020Y000691D01*
X012020Y000624D01*
X012053Y000591D01*
X012187Y000591D02*
X012220Y000624D01*
X012220Y000691D01*
X012187Y000724D01*
X011987Y000812D02*
X011987Y000945D01*
X012053Y001033D02*
X012187Y001166D01*
X012053Y001166D01*
X012020Y001133D01*
X012020Y001066D01*
X012053Y001033D01*
X012187Y001033D01*
X012220Y001066D01*
X012220Y001133D01*
X012187Y001166D01*
X013153Y001033D02*
X013220Y001100D01*
X011220Y001033D02*
X011220Y001166D01*
X011187Y001166D01*
X011053Y001033D01*
X011020Y001033D01*
X010987Y000945D02*
X010987Y000812D01*
X011053Y000724D02*
X011020Y000691D01*
X011020Y000624D01*
X011053Y000591D01*
X011120Y000658D02*
X011120Y000691D01*
X011087Y000724D01*
X011053Y000724D01*
X011120Y000691D02*
X011153Y000724D01*
X011187Y000724D01*
X011220Y000691D01*
X011220Y000624D01*
X011187Y000591D01*
X011187Y000503D02*
X011120Y000503D01*
X011087Y000470D01*
X011087Y000370D01*
X011020Y000370D02*
X011220Y000370D01*
X011220Y000470D01*
X011187Y000503D01*
X010220Y000470D02*
X010220Y000370D01*
X010020Y000370D01*
X010087Y000370D02*
X010087Y000470D01*
X010120Y000503D01*
X010187Y000503D01*
X010220Y000470D01*
X010187Y000591D02*
X010220Y000624D01*
X010220Y000691D01*
X010187Y000724D01*
X010153Y000724D01*
X010120Y000691D01*
X010087Y000724D01*
X010053Y000724D01*
X010020Y000691D01*
X010020Y000624D01*
X010053Y000591D01*
X010120Y000658D02*
X010120Y000691D01*
X009987Y000812D02*
X009987Y000945D01*
X010053Y001033D02*
X010020Y001066D01*
X010020Y001133D01*
X010053Y001166D01*
X010087Y001166D01*
X010120Y001133D01*
X010120Y001033D01*
X010053Y001033D01*
X010120Y001033D02*
X010187Y001100D01*
X010220Y001166D01*
X009220Y001166D02*
X009220Y001033D01*
X009120Y001033D01*
X009153Y001100D01*
X009153Y001133D01*
X009120Y001166D01*
X009053Y001166D01*
X009020Y001133D01*
X009020Y001066D01*
X009053Y001033D01*
X008987Y000945D02*
X008987Y000812D01*
X009053Y000724D02*
X009020Y000691D01*
X009020Y000624D01*
X009053Y000591D01*
X009120Y000658D02*
X009120Y000691D01*
X009087Y000724D01*
X009053Y000724D01*
X009120Y000691D02*
X009153Y000724D01*
X009187Y000724D01*
X009220Y000691D01*
X009220Y000624D01*
X009187Y000591D01*
X009187Y000503D02*
X009120Y000503D01*
X009087Y000470D01*
X009087Y000370D01*
X009020Y000370D02*
X009220Y000370D01*
X009220Y000470D01*
X009187Y000503D01*
X008220Y000470D02*
X008220Y000370D01*
X008020Y000370D01*
X008087Y000370D02*
X008087Y000470D01*
X008120Y000503D01*
X008187Y000503D01*
X008220Y000470D01*
X008187Y000591D02*
X008220Y000624D01*
X008220Y000691D01*
X008187Y000724D01*
X008153Y000724D01*
X008120Y000691D01*
X008087Y000724D01*
X008053Y000724D01*
X008020Y000691D01*
X008020Y000624D01*
X008053Y000591D01*
X008120Y000658D02*
X008120Y000691D01*
X007987Y000812D02*
X007987Y000945D01*
X008120Y001033D02*
X008120Y001166D01*
X008020Y001133D02*
X008220Y001133D01*
X008120Y001033D01*
X007220Y001066D02*
X007220Y001133D01*
X007187Y001166D01*
X007053Y001033D01*
X007020Y001066D01*
X007020Y001133D01*
X007053Y001166D01*
X007187Y001166D01*
X007220Y001066D02*
X007187Y001033D01*
X007053Y001033D01*
X006987Y000945D02*
X006987Y000812D01*
X007053Y000724D02*
X007020Y000691D01*
X007020Y000624D01*
X007053Y000591D01*
X007120Y000658D02*
X007120Y000691D01*
X007087Y000724D01*
X007053Y000724D01*
X007120Y000691D02*
X007153Y000724D01*
X007187Y000724D01*
X007220Y000691D01*
X007220Y000624D01*
X007187Y000591D01*
X007187Y000503D02*
X007120Y000503D01*
X007087Y000470D01*
X007087Y000370D01*
X007020Y000370D02*
X007220Y000370D01*
X007220Y000470D01*
X007187Y000503D01*
X006220Y000470D02*
X006220Y000370D01*
X006020Y000370D01*
X006087Y000370D02*
X006087Y000470D01*
X006120Y000503D01*
X006187Y000503D01*
X006220Y000470D01*
X006187Y000591D02*
X006220Y000624D01*
X006220Y000691D01*
X006187Y000724D01*
X006153Y000724D01*
X006120Y000691D01*
X006087Y000724D01*
X006053Y000724D01*
X006020Y000691D01*
X006020Y000624D01*
X006053Y000591D01*
X006120Y000658D02*
X006120Y000691D01*
X005987Y000812D02*
X005987Y000945D01*
X006020Y001033D02*
X006020Y001166D01*
X006020Y001100D02*
X006220Y001100D01*
X006153Y001033D01*
X004038Y003537D02*
X003905Y003537D01*
X003817Y003570D02*
X003817Y003603D01*
X003684Y003737D01*
X003684Y003770D01*
X003817Y003770D01*
X004126Y003737D02*
X004159Y003770D01*
X004226Y003770D01*
X004259Y003737D01*
X004347Y003737D02*
X004347Y003670D01*
X004380Y003637D01*
X004480Y003637D01*
X004480Y003570D02*
X004480Y003770D01*
X004380Y003770D01*
X004347Y003737D01*
X004259Y003570D02*
X004126Y003703D01*
X004126Y003737D01*
X004126Y003570D02*
X004259Y003570D01*
X004038Y005437D02*
X003905Y005437D01*
X003817Y005503D02*
X003784Y005470D01*
X003717Y005470D01*
X003684Y005503D01*
X003684Y005537D01*
X003717Y005570D01*
X003817Y005570D01*
X003817Y005503D01*
X003817Y005570D02*
X003750Y005637D01*
X003684Y005670D01*
X004126Y005637D02*
X004159Y005670D01*
X004226Y005670D01*
X004259Y005637D01*
X004347Y005637D02*
X004347Y005570D01*
X004380Y005537D01*
X004480Y005537D01*
X004480Y005470D02*
X004480Y005670D01*
X004380Y005670D01*
X004347Y005637D01*
X004259Y005470D02*
X004126Y005603D01*
X004126Y005637D01*
X004126Y005470D02*
X004259Y005470D01*
X004038Y006437D02*
X003905Y006437D01*
X003817Y006503D02*
X003784Y006470D01*
X003717Y006470D01*
X003684Y006503D01*
X003684Y006570D01*
X003717Y006603D01*
X003750Y006603D01*
X003817Y006570D01*
X003817Y006670D01*
X003684Y006670D01*
X004126Y006637D02*
X004159Y006670D01*
X004226Y006670D01*
X004259Y006637D01*
X004347Y006637D02*
X004347Y006570D01*
X004380Y006537D01*
X004480Y006537D01*
X004480Y006470D02*
X004480Y006670D01*
X004380Y006670D01*
X004347Y006637D01*
X004259Y006470D02*
X004126Y006603D01*
X004126Y006637D01*
X004126Y006470D02*
X004259Y006470D01*
X004038Y007537D02*
X003905Y007537D01*
X003817Y007670D02*
X003684Y007670D01*
X003717Y007570D02*
X003717Y007770D01*
X003817Y007670D01*
X004126Y007703D02*
X004259Y007570D01*
X004126Y007570D01*
X004126Y007703D02*
X004126Y007737D01*
X004159Y007770D01*
X004226Y007770D01*
X004259Y007737D01*
X004347Y007737D02*
X004347Y007670D01*
X004380Y007637D01*
X004480Y007637D01*
X004480Y007570D02*
X004480Y007770D01*
X004380Y007770D01*
X004347Y007737D01*
X004259Y008570D02*
X004126Y008703D01*
X004126Y008737D01*
X004159Y008770D01*
X004226Y008770D01*
X004259Y008737D01*
X004347Y008737D02*
X004347Y008670D01*
X004380Y008637D01*
X004480Y008637D01*
X004480Y008570D02*
X004480Y008770D01*
X004380Y008770D01*
X004347Y008737D01*
X004259Y008570D02*
X004126Y008570D01*
X004038Y008537D02*
X003905Y008537D01*
X003817Y008603D02*
X003784Y008570D01*
X003717Y008570D01*
X003684Y008603D01*
X003684Y008637D01*
X003717Y008670D01*
X003750Y008670D01*
X003717Y008670D02*
X003684Y008703D01*
X003684Y008737D01*
X003717Y008770D01*
X003784Y008770D01*
X003817Y008737D01*
X003905Y009537D02*
X004038Y009537D01*
X004126Y009570D02*
X004259Y009570D01*
X004126Y009703D01*
X004126Y009737D01*
X004159Y009770D01*
X004226Y009770D01*
X004259Y009737D01*
X004347Y009737D02*
X004380Y009770D01*
X004480Y009770D01*
X004480Y009570D01*
X004480Y009637D02*
X004380Y009637D01*
X004347Y009670D01*
X004347Y009737D01*
X003817Y009737D02*
X003784Y009770D01*
X003717Y009770D01*
X003684Y009737D01*
X003684Y009703D01*
X003817Y009570D01*
X003684Y009570D01*
X003647Y010070D02*
X003580Y010070D01*
X003547Y010103D01*
X003547Y010270D01*
X003459Y010237D02*
X003459Y010203D01*
X003426Y010170D01*
X003359Y010170D01*
X003326Y010137D01*
X003326Y010103D01*
X003359Y010070D01*
X003426Y010070D01*
X003459Y010103D01*
X003459Y010237D02*
X003426Y010270D01*
X003359Y010270D01*
X003326Y010237D01*
X003238Y010270D02*
X003238Y010070D01*
X003105Y010070D01*
X003017Y010070D02*
X003017Y010270D01*
X002917Y010270D01*
X002884Y010237D01*
X002884Y010170D01*
X002917Y010137D01*
X003017Y010137D01*
X002950Y010137D02*
X002884Y010070D01*
X003171Y010170D02*
X003238Y010170D01*
X003238Y010270D02*
X003105Y010270D01*
X003680Y010270D02*
X003680Y010103D01*
X003647Y010070D01*
X002580Y010103D02*
X002547Y010070D01*
X002480Y010070D01*
X002447Y010103D01*
X002447Y010270D01*
X002359Y010203D02*
X002292Y010270D01*
X002226Y010203D01*
X002226Y010070D01*
X002138Y010070D02*
X002138Y010270D01*
X002038Y010270D01*
X002005Y010237D01*
X002005Y010170D01*
X002038Y010137D01*
X002138Y010137D01*
X002071Y010137D02*
X002005Y010070D01*
X001850Y010070D02*
X001850Y010270D01*
X001784Y010270D02*
X001917Y010270D01*
X002226Y010170D02*
X002359Y010170D01*
X002359Y010203D02*
X002359Y010070D01*
X002580Y010103D02*
X002580Y010270D01*
X001480Y010103D02*
X001447Y010070D01*
X001413Y010070D01*
X001380Y010103D01*
X001380Y010270D01*
X001413Y010270D02*
X001347Y010270D01*
X001259Y010270D02*
X001126Y010270D01*
X001192Y010270D02*
X001192Y010070D01*
X001038Y010070D02*
X001038Y010203D01*
X000971Y010270D01*
X000905Y010203D01*
X000905Y010070D01*
X000817Y010103D02*
X000817Y010237D01*
X000784Y010270D01*
X000717Y010270D01*
X000684Y010237D01*
X000684Y010170D02*
X000750Y010170D01*
X000684Y010170D02*
X000684Y010103D01*
X000717Y010070D01*
X000784Y010070D01*
X000817Y010103D01*
X000905Y010170D02*
X001038Y010170D01*
X000978Y010370D02*
X000912Y010370D01*
X000878Y010403D01*
X000791Y010370D02*
X000657Y010570D01*
X000878Y010537D02*
X000912Y010570D01*
X000978Y010570D01*
X001012Y010537D01*
X001012Y010403D01*
X000978Y010370D01*
X001099Y010370D02*
X001233Y010370D01*
X001099Y010503D01*
X001099Y010537D01*
X001133Y010570D01*
X001199Y010570D01*
X001233Y010537D01*
X001313Y010570D02*
X001380Y010570D01*
X001347Y010570D02*
X001347Y010370D01*
X001380Y010370D02*
X001313Y010370D01*
X006120Y011170D02*
X006320Y011170D01*
X006320Y011270D01*
X006287Y011303D01*
X006220Y011303D01*
X006187Y011270D01*
X006187Y011170D01*
X006253Y011391D02*
X006320Y011458D01*
X006120Y011458D01*
X006120Y011524D02*
X006120Y011391D01*
X006087Y011612D02*
X006087Y011745D01*
X006153Y011833D02*
X006120Y011866D01*
X006120Y011933D01*
X006153Y011966D01*
X006220Y011966D01*
X006253Y011933D01*
X006253Y011900D01*
X006220Y011833D01*
X006320Y011833D01*
X006320Y011966D01*
X007087Y011745D02*
X007087Y011612D01*
X007120Y011524D02*
X007120Y011391D01*
X007120Y011458D02*
X007320Y011458D01*
X007253Y011391D01*
X007220Y011303D02*
X007187Y011270D01*
X007187Y011170D01*
X007120Y011170D02*
X007320Y011170D01*
X007320Y011270D01*
X007287Y011303D01*
X007220Y011303D01*
X007220Y011833D02*
X007220Y011966D01*
X007120Y011933D02*
X007320Y011933D01*
X007220Y011833D01*
X008087Y011745D02*
X008087Y011612D01*
X008120Y011524D02*
X008120Y011391D01*
X008120Y011458D02*
X008320Y011458D01*
X008253Y011391D01*
X008220Y011303D02*
X008187Y011270D01*
X008187Y011170D01*
X008120Y011170D02*
X008320Y011170D01*
X008320Y011270D01*
X008287Y011303D01*
X008220Y011303D01*
X008153Y011833D02*
X008120Y011866D01*
X008120Y011933D01*
X008153Y011966D01*
X008187Y011966D01*
X008220Y011933D01*
X008220Y011900D01*
X008220Y011933D02*
X008253Y011966D01*
X008287Y011966D01*
X008320Y011933D01*
X008320Y011866D01*
X008287Y011833D01*
X009087Y011745D02*
X009087Y011612D01*
X009120Y011524D02*
X009120Y011391D01*
X009120Y011458D02*
X009320Y011458D01*
X009253Y011391D01*
X009220Y011303D02*
X009187Y011270D01*
X009187Y011170D01*
X009120Y011170D02*
X009320Y011170D01*
X009320Y011270D01*
X009287Y011303D01*
X009220Y011303D01*
X009287Y011833D02*
X009320Y011866D01*
X009320Y011933D01*
X009287Y011966D01*
X009253Y011966D01*
X009120Y011833D01*
X009120Y011966D01*
X010087Y011745D02*
X010087Y011612D01*
X010120Y011524D02*
X010120Y011391D01*
X010120Y011458D02*
X010320Y011458D01*
X010253Y011391D01*
X010220Y011303D02*
X010187Y011270D01*
X010187Y011170D01*
X010120Y011170D02*
X010320Y011170D01*
X010320Y011270D01*
X010287Y011303D01*
X010220Y011303D01*
X010253Y011833D02*
X010320Y011900D01*
X010120Y011900D01*
X010120Y011966D02*
X010120Y011833D01*
X011087Y011745D02*
X011087Y011612D01*
X011120Y011524D02*
X011120Y011391D01*
X011120Y011458D02*
X011320Y011458D01*
X011253Y011391D01*
X011220Y011303D02*
X011187Y011270D01*
X011187Y011170D01*
X011120Y011170D02*
X011320Y011170D01*
X011320Y011270D01*
X011287Y011303D01*
X011220Y011303D01*
X011153Y011833D02*
X011287Y011966D01*
X011153Y011966D01*
X011120Y011933D01*
X011120Y011866D01*
X011153Y011833D01*
X011287Y011833D01*
X011320Y011866D01*
X011320Y011933D01*
X011287Y011966D01*
X012087Y011745D02*
X012087Y011612D01*
X012153Y011524D02*
X012120Y011491D01*
X012120Y011424D01*
X012153Y011391D01*
X012287Y011524D01*
X012153Y011524D01*
X012153Y011391D02*
X012287Y011391D01*
X012320Y011424D01*
X012320Y011491D01*
X012287Y011524D01*
X012287Y011303D02*
X012220Y011303D01*
X012187Y011270D01*
X012187Y011170D01*
X012120Y011170D02*
X012320Y011170D01*
X012320Y011270D01*
X012287Y011303D01*
X012320Y011833D02*
X012320Y011966D01*
X012287Y011966D01*
X012153Y011833D01*
X012120Y011833D01*
X013087Y011745D02*
X013087Y011612D01*
X013153Y011524D02*
X013120Y011491D01*
X013120Y011424D01*
X013153Y011391D01*
X013287Y011524D01*
X013153Y011524D01*
X013153Y011391D02*
X013287Y011391D01*
X013320Y011424D01*
X013320Y011491D01*
X013287Y011524D01*
X013287Y011303D02*
X013220Y011303D01*
X013187Y011270D01*
X013187Y011170D01*
X013120Y011170D02*
X013320Y011170D01*
X013320Y011270D01*
X013287Y011303D01*
X014087Y011612D02*
X014087Y011745D01*
X014153Y011833D02*
X014120Y011866D01*
X014120Y011933D01*
X014153Y011966D01*
X014220Y011966D01*
X014253Y011933D01*
X014253Y011900D01*
X014220Y011833D01*
X014320Y011833D01*
X014320Y011966D01*
X014287Y011524D02*
X014153Y011391D01*
X014120Y011424D01*
X014120Y011491D01*
X014153Y011524D01*
X014287Y011524D01*
X014320Y011491D01*
X014320Y011424D01*
X014287Y011391D01*
X014153Y011391D01*
X014220Y011303D02*
X014187Y011270D01*
X014187Y011170D01*
X014120Y011170D02*
X014320Y011170D01*
X014320Y011270D01*
X014287Y011303D01*
X014220Y011303D01*
X015120Y011424D02*
X015153Y011391D01*
X015287Y011524D01*
X015153Y011524D01*
X015120Y011491D01*
X015120Y011424D01*
X015153Y011391D02*
X015287Y011391D01*
X015320Y011424D01*
X015320Y011491D01*
X015287Y011524D01*
X015087Y011612D02*
X015087Y011745D01*
X015220Y011833D02*
X015220Y011966D01*
X015120Y011933D02*
X015320Y011933D01*
X015220Y011833D01*
X015220Y011303D02*
X015187Y011270D01*
X015187Y011170D01*
X015120Y011170D02*
X015320Y011170D01*
X015320Y011270D01*
X015287Y011303D01*
X015220Y011303D01*
X015213Y010182D02*
X015247Y010182D01*
X015280Y010149D01*
X015280Y010082D01*
X015247Y010049D01*
X015247Y009961D02*
X015113Y009961D01*
X015080Y009928D01*
X015080Y009861D01*
X015113Y009828D01*
X015247Y009828D01*
X015280Y009861D01*
X015280Y009928D01*
X015247Y009961D01*
X015080Y010049D02*
X015213Y010182D01*
X015080Y010182D02*
X015080Y010049D01*
X015080Y009747D02*
X015080Y009681D01*
X015080Y009714D02*
X015280Y009714D01*
X015280Y009681D02*
X015280Y009747D01*
X014280Y009747D02*
X014280Y009681D01*
X014280Y009714D02*
X014080Y009714D01*
X014080Y009681D02*
X014080Y009747D01*
X014113Y009828D02*
X014080Y009861D01*
X014080Y009928D01*
X014113Y009961D01*
X014247Y009961D01*
X014280Y009928D01*
X014280Y009861D01*
X014247Y009828D01*
X014113Y009828D01*
X014080Y010049D02*
X014080Y010182D01*
X014080Y010116D02*
X014280Y010116D01*
X014213Y010049D01*
X013280Y010082D02*
X013247Y010049D01*
X013280Y010082D02*
X013280Y010149D01*
X013247Y010182D01*
X013213Y010182D01*
X013080Y010049D01*
X013080Y010182D01*
X013113Y009961D02*
X013080Y009928D01*
X013080Y009861D01*
X013113Y009828D01*
X013180Y009861D02*
X013180Y009928D01*
X013147Y009961D01*
X013113Y009961D01*
X013180Y009861D02*
X013213Y009828D01*
X013247Y009828D01*
X013280Y009861D01*
X013280Y009928D01*
X013247Y009961D01*
X013247Y009740D02*
X013280Y009707D01*
X013280Y009640D01*
X013247Y009607D01*
X013213Y009607D01*
X013180Y009640D01*
X013180Y009707D01*
X013147Y009740D01*
X013113Y009740D01*
X013080Y009707D01*
X013080Y009640D01*
X013113Y009607D01*
X012280Y009640D02*
X012247Y009607D01*
X012213Y009607D01*
X012180Y009640D01*
X012180Y009707D01*
X012147Y009740D01*
X012113Y009740D01*
X012080Y009707D01*
X012080Y009640D01*
X012113Y009607D01*
X012280Y009640D02*
X012280Y009707D01*
X012247Y009740D01*
X012247Y009828D02*
X012213Y009828D01*
X012180Y009861D01*
X012180Y009928D01*
X012147Y009961D01*
X012113Y009961D01*
X012080Y009928D01*
X012080Y009861D01*
X012113Y009828D01*
X012247Y009828D02*
X012280Y009861D01*
X012280Y009928D01*
X012247Y009961D01*
X012213Y010049D02*
X012280Y010116D01*
X012080Y010116D01*
X012080Y010182D02*
X012080Y010049D01*
X011360Y010250D02*
X011360Y009661D01*
X011280Y009681D02*
X011280Y009747D01*
X011280Y009714D02*
X011080Y009714D01*
X011080Y009681D02*
X011080Y009747D01*
X011080Y009828D02*
X011280Y009828D01*
X011280Y009928D01*
X011247Y009961D01*
X011180Y009961D01*
X011147Y009928D01*
X011147Y009828D01*
X011147Y009895D02*
X011080Y009961D01*
X011113Y010049D02*
X011080Y010082D01*
X011080Y010149D01*
X011113Y010182D01*
X011247Y010182D01*
X011280Y010149D01*
X011280Y010082D01*
X011247Y010049D01*
X011113Y010049D01*
X011147Y010116D02*
X011080Y010182D01*
X010360Y010250D02*
X010360Y009587D01*
X010280Y009674D02*
X010213Y009607D01*
X010080Y009607D01*
X010180Y009607D02*
X010180Y009740D01*
X010213Y009740D02*
X010080Y009740D01*
X010213Y009740D02*
X010280Y009674D01*
X010280Y009828D02*
X010280Y009961D01*
X010280Y009895D02*
X010080Y009895D01*
X010080Y010049D02*
X010280Y010049D01*
X010080Y010182D01*
X010280Y010182D01*
X009360Y010250D02*
X009360Y009366D01*
X009280Y009419D02*
X009247Y009386D01*
X009213Y009386D01*
X009180Y009419D01*
X009180Y009486D01*
X009147Y009519D01*
X009113Y009519D01*
X009080Y009486D01*
X009080Y009419D01*
X009113Y009386D01*
X009280Y009419D02*
X009280Y009486D01*
X009247Y009519D01*
X009247Y009607D02*
X009213Y009607D01*
X009180Y009640D01*
X009180Y009707D01*
X009147Y009740D01*
X009113Y009740D01*
X009080Y009707D01*
X009080Y009640D01*
X009113Y009607D01*
X009247Y009607D02*
X009280Y009640D01*
X009280Y009707D01*
X009247Y009740D01*
X009280Y009828D02*
X009080Y009828D01*
X009080Y009961D01*
X009080Y010049D02*
X009080Y010182D01*
X009080Y010049D02*
X009280Y010049D01*
X009280Y009961D02*
X009280Y009828D01*
X009180Y009828D02*
X009180Y009895D01*
X008280Y009928D02*
X008280Y009861D01*
X008247Y009828D01*
X008113Y009828D01*
X008080Y009861D01*
X008080Y009928D01*
X008113Y009961D01*
X008080Y010049D02*
X008280Y010049D01*
X008247Y009961D02*
X008280Y009928D01*
X008147Y010049D02*
X008280Y010182D01*
X008180Y010082D02*
X008080Y010182D01*
X007680Y010128D02*
X007680Y010061D01*
X007647Y010028D01*
X007613Y010028D01*
X007580Y010061D01*
X007580Y010128D01*
X007547Y010161D01*
X007513Y010161D01*
X007480Y010128D01*
X007480Y010061D01*
X007513Y010028D01*
X007480Y009947D02*
X007480Y009881D01*
X007480Y009914D02*
X007680Y009914D01*
X007680Y009881D02*
X007680Y009947D01*
X007680Y009793D02*
X007480Y009793D01*
X007480Y009660D02*
X007680Y009660D01*
X007613Y009726D01*
X007680Y009793D01*
X008080Y009707D02*
X008080Y009640D01*
X008113Y009607D01*
X008180Y009640D02*
X008213Y009607D01*
X008247Y009607D01*
X008280Y009640D01*
X008280Y009707D01*
X008247Y009740D01*
X008180Y009707D02*
X008147Y009740D01*
X008113Y009740D01*
X008080Y009707D01*
X008180Y009707D02*
X008180Y009640D01*
X007680Y010128D02*
X007647Y010161D01*
X007647Y010249D02*
X007513Y010249D01*
X007480Y010282D01*
X007480Y010349D01*
X007513Y010382D01*
X007647Y010382D01*
X007680Y010349D01*
X007680Y010282D01*
X007647Y010249D01*
X006780Y010202D02*
X006780Y010135D01*
X006747Y010102D01*
X006713Y010102D01*
X006680Y010135D01*
X006680Y010202D01*
X006647Y010235D01*
X006613Y010235D01*
X006580Y010202D01*
X006580Y010135D01*
X006613Y010102D01*
X006613Y010014D02*
X006747Y010014D01*
X006780Y009981D01*
X006780Y009914D01*
X006747Y009881D01*
X006613Y009881D01*
X006580Y009914D01*
X006580Y009981D01*
X006613Y010014D01*
X006780Y010202D02*
X006747Y010235D01*
X006780Y010323D02*
X006780Y010389D01*
X006780Y010356D02*
X006580Y010356D01*
X006580Y010323D02*
X006580Y010389D01*
X006580Y009793D02*
X006780Y009793D01*
X006713Y009726D01*
X006780Y009660D01*
X006580Y009660D01*
X013120Y011866D02*
X013120Y011933D01*
X013153Y011966D01*
X013187Y011966D01*
X013220Y011933D01*
X013220Y011833D01*
X013153Y011833D01*
X013120Y011866D01*
X013220Y011833D02*
X013287Y011900D01*
X013320Y011966D01*
X017550Y009770D02*
X017550Y009570D01*
X017484Y009570D02*
X017617Y009570D01*
X017705Y009603D02*
X017705Y009737D01*
X017738Y009770D01*
X017838Y009770D01*
X017838Y009570D01*
X017738Y009570D01*
X017705Y009603D01*
X017617Y009703D02*
X017550Y009770D01*
X017926Y009770D02*
X018059Y009770D01*
X018059Y009570D01*
X017926Y009570D01*
X017992Y009670D02*
X018059Y009670D01*
X018147Y009570D02*
X018280Y009570D01*
X018280Y009770D01*
X018612Y010170D02*
X018578Y010203D01*
X018578Y010270D01*
X018645Y010270D01*
X018712Y010203D02*
X018678Y010170D01*
X018612Y010170D01*
X018712Y010203D02*
X018712Y010337D01*
X018678Y010370D01*
X018612Y010370D01*
X018578Y010337D01*
X018792Y010370D02*
X018859Y010370D01*
X018826Y010370D02*
X018826Y010170D01*
X018859Y010170D02*
X018792Y010170D01*
X018947Y010203D02*
X018980Y010170D01*
X019047Y010170D01*
X019080Y010203D01*
X019047Y010270D02*
X018980Y010270D01*
X018947Y010237D01*
X018947Y010203D01*
X019047Y010270D02*
X019080Y010303D01*
X019080Y010337D01*
X019047Y010370D01*
X018980Y010370D01*
X018947Y010337D01*
X019605Y010337D02*
X019605Y010270D01*
X019638Y010237D01*
X019738Y010237D01*
X019671Y010237D02*
X019605Y010170D01*
X019738Y010170D02*
X019738Y010370D01*
X019638Y010370D01*
X019605Y010337D01*
X019826Y010370D02*
X019826Y010170D01*
X019892Y010237D01*
X019959Y010170D01*
X019959Y010370D01*
X020047Y010337D02*
X020047Y010270D01*
X020080Y010237D01*
X020180Y010237D01*
X020180Y010170D02*
X020180Y010370D01*
X020080Y010370D01*
X020047Y010337D01*
X020605Y010337D02*
X020605Y010203D01*
X020638Y010170D01*
X020738Y010170D01*
X020738Y010370D01*
X020638Y010370D01*
X020605Y010337D01*
X020826Y010370D02*
X020826Y010170D01*
X020959Y010370D01*
X020959Y010170D01*
X021047Y010203D02*
X021047Y010270D01*
X021113Y010270D01*
X021047Y010203D02*
X021080Y010170D01*
X021147Y010170D01*
X021180Y010203D01*
X021180Y010337D01*
X021147Y010370D01*
X021080Y010370D01*
X021047Y010337D01*
X021080Y011770D02*
X021047Y011803D01*
X021047Y011870D01*
X021113Y011870D01*
X021047Y011937D02*
X021080Y011970D01*
X021147Y011970D01*
X021180Y011937D01*
X021180Y011803D01*
X021147Y011770D01*
X021080Y011770D01*
X020959Y011770D02*
X020959Y011970D01*
X020826Y011770D01*
X020826Y011970D01*
X020738Y011970D02*
X020738Y011770D01*
X020638Y011770D01*
X020605Y011803D01*
X020605Y011937D01*
X020638Y011970D01*
X020738Y011970D01*
X020180Y011870D02*
X020047Y011870D01*
X019959Y011870D02*
X019892Y011903D01*
X019859Y011903D01*
X019826Y011870D01*
X019826Y011803D01*
X019859Y011770D01*
X019926Y011770D01*
X019959Y011803D01*
X019959Y011870D02*
X019959Y011970D01*
X019826Y011970D01*
X019738Y011970D02*
X019738Y011837D01*
X019671Y011770D01*
X019605Y011837D01*
X019605Y011970D01*
X020113Y011937D02*
X020113Y011803D01*
X018280Y008770D02*
X018280Y008570D01*
X018147Y008570D01*
X018059Y008570D02*
X017926Y008570D01*
X017838Y008570D02*
X017738Y008570D01*
X017705Y008603D01*
X017705Y008737D01*
X017738Y008770D01*
X017838Y008770D01*
X017838Y008570D01*
X017992Y008670D02*
X018059Y008670D01*
X018059Y008770D02*
X018059Y008570D01*
X018059Y008770D02*
X017926Y008770D01*
X017617Y008737D02*
X017584Y008770D01*
X017517Y008770D01*
X017484Y008737D01*
X017484Y008703D01*
X017617Y008570D01*
X017484Y008570D01*
X017517Y007770D02*
X017484Y007737D01*
X017484Y007703D01*
X017517Y007670D01*
X017484Y007637D01*
X017484Y007603D01*
X017517Y007570D01*
X017584Y007570D01*
X017617Y007603D01*
X017705Y007603D02*
X017705Y007737D01*
X017738Y007770D01*
X017838Y007770D01*
X017838Y007570D01*
X017738Y007570D01*
X017705Y007603D01*
X017617Y007737D02*
X017584Y007770D01*
X017517Y007770D01*
X017517Y007670D02*
X017550Y007670D01*
X017926Y007570D02*
X018059Y007570D01*
X018059Y007770D01*
X017926Y007770D01*
X017992Y007670D02*
X018059Y007670D01*
X018147Y007570D02*
X018280Y007570D01*
X018280Y007770D01*
X018280Y006770D02*
X018280Y006570D01*
X018147Y006570D01*
X018059Y006570D02*
X017926Y006570D01*
X017838Y006570D02*
X017738Y006570D01*
X017705Y006603D01*
X017705Y006737D01*
X017738Y006770D01*
X017838Y006770D01*
X017838Y006570D01*
X017992Y006670D02*
X018059Y006670D01*
X018059Y006770D02*
X018059Y006570D01*
X018059Y006770D02*
X017926Y006770D01*
X017617Y006670D02*
X017484Y006670D01*
X017517Y006570D02*
X017517Y006770D01*
X017617Y006670D01*
X017617Y005770D02*
X017484Y005770D01*
X017517Y005703D02*
X017484Y005670D01*
X017484Y005603D01*
X017517Y005570D01*
X017584Y005570D01*
X017617Y005603D01*
X017617Y005670D02*
X017550Y005703D01*
X017517Y005703D01*
X017617Y005670D02*
X017617Y005770D01*
X017705Y005737D02*
X017738Y005770D01*
X017838Y005770D01*
X017838Y005570D01*
X017738Y005570D01*
X017705Y005603D01*
X017705Y005737D01*
X017926Y005770D02*
X018059Y005770D01*
X018059Y005570D01*
X017926Y005570D01*
X017992Y005670D02*
X018059Y005670D01*
X018147Y005570D02*
X018280Y005570D01*
X018280Y005770D01*
X018280Y004770D02*
X018280Y004570D01*
X018147Y004570D01*
X018059Y004570D02*
X017926Y004570D01*
X017838Y004570D02*
X017738Y004570D01*
X017705Y004603D01*
X017705Y004737D01*
X017738Y004770D01*
X017838Y004770D01*
X017838Y004570D01*
X017992Y004670D02*
X018059Y004670D01*
X018059Y004770D02*
X018059Y004570D01*
X018059Y004770D02*
X017926Y004770D01*
X017617Y004670D02*
X017517Y004670D01*
X017484Y004637D01*
X017484Y004603D01*
X017517Y004570D01*
X017584Y004570D01*
X017617Y004603D01*
X017617Y004670D01*
X017550Y004737D01*
X017484Y004770D01*
X017484Y003770D02*
X017484Y003737D01*
X017617Y003603D01*
X017617Y003570D01*
X017705Y003603D02*
X017705Y003737D01*
X017738Y003770D01*
X017838Y003770D01*
X017838Y003570D01*
X017738Y003570D01*
X017705Y003603D01*
X017617Y003770D02*
X017484Y003770D01*
X017926Y003770D02*
X018059Y003770D01*
X018059Y003570D01*
X017926Y003570D01*
X017992Y003670D02*
X018059Y003670D01*
X018147Y003570D02*
X018280Y003570D01*
X018280Y003770D01*
X018280Y002770D02*
X018280Y002570D01*
X018147Y002570D01*
X018059Y002570D02*
X017926Y002570D01*
X017838Y002570D02*
X017738Y002570D01*
X017705Y002603D01*
X017705Y002737D01*
X017738Y002770D01*
X017838Y002770D01*
X017838Y002570D01*
X017992Y002670D02*
X018059Y002670D01*
X018059Y002770D02*
X018059Y002570D01*
X018059Y002770D02*
X017926Y002770D01*
X017617Y002737D02*
X017617Y002703D01*
X017584Y002670D01*
X017517Y002670D01*
X017484Y002637D01*
X017484Y002603D01*
X017517Y002570D01*
X017584Y002570D01*
X017617Y002603D01*
X017617Y002637D01*
X017584Y002670D01*
X017517Y002670D02*
X017484Y002703D01*
X017484Y002737D01*
X017517Y002770D01*
X017584Y002770D01*
X017617Y002737D01*
D11*
X013175Y004520D02*
X013130Y004475D01*
X013040Y004475D01*
X012995Y004520D01*
X012995Y004565D01*
X013040Y004610D01*
X013130Y004610D01*
X013175Y004655D01*
X013175Y004700D01*
X013130Y004745D01*
X013040Y004745D01*
X012995Y004700D01*
X012880Y004610D02*
X012835Y004655D01*
X012745Y004655D01*
X012700Y004610D01*
X012700Y004565D01*
X012880Y004565D01*
X012880Y004520D02*
X012880Y004610D01*
X012880Y004520D02*
X012835Y004475D01*
X012745Y004475D01*
X012586Y004475D02*
X012586Y004655D01*
X012586Y004565D02*
X012496Y004655D01*
X012451Y004655D01*
X012340Y004655D02*
X012295Y004655D01*
X012295Y004475D01*
X012340Y004475D02*
X012250Y004475D01*
X012144Y004520D02*
X012099Y004565D01*
X011964Y004565D01*
X011964Y004610D02*
X011964Y004475D01*
X012099Y004475D01*
X012144Y004520D01*
X012099Y004655D02*
X012009Y004655D01*
X011964Y004610D01*
X011849Y004475D02*
X011759Y004475D01*
X011804Y004475D02*
X011804Y004745D01*
X011849Y004745D01*
X011849Y004875D02*
X011669Y004875D01*
X011759Y004875D02*
X011759Y005145D01*
X011849Y005055D01*
X011554Y004920D02*
X011509Y004920D01*
X011509Y004875D01*
X011554Y004875D01*
X011554Y004920D01*
X011407Y004920D02*
X011227Y005100D01*
X011227Y004920D01*
X011272Y004875D01*
X011362Y004875D01*
X011407Y004920D01*
X011407Y005100D01*
X011362Y005145D01*
X011272Y005145D01*
X011227Y005100D01*
X011178Y004745D02*
X011178Y004475D01*
X011358Y004745D01*
X011358Y004475D01*
X011063Y004520D02*
X011063Y004655D01*
X011063Y004520D02*
X011018Y004475D01*
X010883Y004475D01*
X010883Y004655D01*
X010769Y004655D02*
X010769Y004475D01*
X010679Y004475D02*
X010679Y004610D01*
X010634Y004655D01*
X010589Y004610D01*
X010589Y004475D01*
X010474Y004475D02*
X010339Y004475D01*
X010294Y004520D01*
X010294Y004610D01*
X010339Y004655D01*
X010474Y004655D01*
X010474Y004745D02*
X010474Y004475D01*
X010679Y004610D02*
X010724Y004655D01*
X010769Y004655D01*
X010179Y004610D02*
X010179Y004520D01*
X010134Y004475D01*
X010044Y004475D01*
X009999Y004565D02*
X010179Y004565D01*
X010179Y004610D02*
X010134Y004655D01*
X010044Y004655D01*
X009999Y004610D01*
X009999Y004565D01*
X009885Y004565D02*
X009795Y004655D01*
X009750Y004655D01*
X009639Y004655D02*
X009639Y004610D01*
X009594Y004610D01*
X009594Y004655D01*
X009639Y004655D01*
X009639Y004520D02*
X009639Y004475D01*
X009594Y004475D01*
X009594Y004520D01*
X009639Y004520D01*
X009885Y004475D02*
X009885Y004655D01*
X012246Y004875D02*
X012291Y004875D01*
X012291Y004920D01*
X012246Y004920D01*
X012246Y004875D01*
X012295Y004790D02*
X012295Y004745D01*
X012496Y004875D02*
X012406Y005055D01*
X012586Y005055D02*
X012496Y004875D01*
X012700Y004965D02*
X012880Y004965D01*
X012880Y004920D02*
X012880Y005010D01*
X012835Y005055D01*
X012745Y005055D01*
X012700Y005010D01*
X012700Y004965D01*
X012745Y004875D02*
X012835Y004875D01*
X012880Y004920D01*
X012995Y004875D02*
X013085Y004965D01*
X013040Y004965D02*
X013175Y004965D01*
X013175Y004875D02*
X013175Y005145D01*
X013040Y005145D01*
X012995Y005100D01*
X012995Y005010D01*
X013040Y004965D01*
X006775Y007675D02*
X006775Y007945D01*
X006640Y007945D01*
X006595Y007900D01*
X006595Y007810D01*
X006640Y007765D01*
X006775Y007765D01*
X006480Y007675D02*
X006300Y007675D01*
X006390Y007675D02*
X006390Y007945D01*
X006480Y007855D01*
X006186Y007630D02*
X006006Y007630D01*
X005891Y007675D02*
X005891Y007720D01*
X005711Y007900D01*
X005711Y007945D01*
X005891Y007945D01*
X005659Y007880D02*
X005659Y007700D01*
X005614Y007655D01*
X005524Y007655D01*
X005479Y007700D01*
X005479Y007790D01*
X005569Y007790D01*
X005659Y007880D02*
X005614Y007925D01*
X005524Y007925D01*
X005479Y007880D01*
X005364Y007925D02*
X005184Y007655D01*
X005184Y007925D01*
X005070Y007925D02*
X004935Y007925D01*
X004889Y007880D01*
X004889Y007700D01*
X004935Y007655D01*
X005070Y007655D01*
X005070Y007925D01*
X005364Y007925D02*
X005364Y007655D01*
X006906Y008830D02*
X007086Y008830D01*
X007200Y008875D02*
X007380Y008875D01*
X007290Y008875D02*
X007290Y009145D01*
X007380Y009055D01*
X007495Y009010D02*
X007540Y008965D01*
X007675Y008965D01*
X007675Y008875D02*
X007675Y009145D01*
X007540Y009145D01*
X007495Y009100D01*
X007495Y009010D01*
X006791Y009010D02*
X006791Y008920D01*
X006746Y008875D01*
X006656Y008875D01*
X006611Y008920D01*
X006611Y008965D01*
X006656Y009010D01*
X006791Y009010D01*
X006701Y009100D01*
X006611Y009145D01*
X005350Y011175D02*
X005395Y011220D01*
X005395Y011310D01*
X005350Y011355D01*
X005305Y011355D01*
X005260Y011310D01*
X005215Y011355D01*
X005170Y011355D01*
X005125Y011310D01*
X005125Y011220D01*
X005170Y011175D01*
X005260Y011265D02*
X005260Y011310D01*
X005215Y011470D02*
X005125Y011560D01*
X005215Y011650D01*
X005395Y011650D01*
X005350Y011764D02*
X005395Y011809D01*
X005395Y011899D01*
X005350Y011944D01*
X005305Y011944D01*
X005260Y011899D01*
X005215Y011944D01*
X005170Y011944D01*
X005125Y011899D01*
X005125Y011809D01*
X005170Y011764D01*
X005260Y011854D02*
X005260Y011899D01*
X005215Y011470D02*
X005395Y011470D01*
X004295Y011470D02*
X004025Y011650D01*
X004295Y011650D01*
X004295Y011764D02*
X004295Y011899D01*
X004250Y011944D01*
X004070Y011944D01*
X004025Y011899D01*
X004025Y011764D01*
X004295Y011764D01*
X004295Y011470D02*
X004025Y011470D01*
X004070Y011355D02*
X004160Y011355D01*
X004160Y011265D01*
X004070Y011175D02*
X004025Y011220D01*
X004025Y011310D01*
X004070Y011355D01*
X004070Y011175D02*
X004250Y011175D01*
X004295Y011220D01*
X004295Y011310D01*
X004250Y011355D01*
X004295Y004745D02*
X004295Y004565D01*
X004385Y004475D01*
X004475Y004565D01*
X004475Y004745D01*
X004180Y004700D02*
X004180Y004520D01*
X004135Y004475D01*
X004045Y004475D01*
X004000Y004520D01*
X003886Y004520D02*
X003841Y004475D01*
X003751Y004475D01*
X003706Y004520D01*
X003886Y004520D02*
X003886Y004700D01*
X003841Y004745D01*
X003751Y004745D01*
X003706Y004700D01*
X004000Y004700D02*
X004045Y004745D01*
X004135Y004745D01*
X004180Y004700D01*
X004150Y002861D02*
X004105Y002815D01*
X004105Y002680D01*
X004375Y002680D01*
X004375Y002815D01*
X004330Y002861D01*
X004150Y002861D01*
X004105Y002566D02*
X004375Y002566D01*
X004375Y002386D02*
X004105Y002386D01*
X004150Y002271D02*
X004105Y002226D01*
X004105Y002136D01*
X004150Y002091D01*
X004330Y002091D01*
X004375Y002136D01*
X004375Y002226D01*
X004330Y002271D01*
X004240Y002271D02*
X004240Y002181D01*
X004240Y002271D02*
X004150Y002271D01*
X004375Y002386D02*
X004105Y002566D01*
X003575Y002100D02*
X003575Y001920D01*
X003530Y001875D01*
X003440Y001875D01*
X003395Y001920D01*
X003395Y002010D01*
X003485Y002010D01*
X003575Y002100D02*
X003530Y002145D01*
X003440Y002145D01*
X003395Y002100D01*
X003280Y002145D02*
X003100Y001875D01*
X003100Y002145D01*
X002986Y002145D02*
X002851Y002145D01*
X002806Y002100D01*
X002806Y001920D01*
X002851Y001875D01*
X002986Y001875D01*
X002986Y002145D01*
X003280Y002145D02*
X003280Y001875D01*
X002575Y001920D02*
X002530Y001875D01*
X002440Y001875D01*
X002395Y001920D01*
X002395Y002010D01*
X002485Y002010D01*
X002575Y002100D02*
X002575Y001920D01*
X002575Y002100D02*
X002530Y002145D01*
X002440Y002145D01*
X002395Y002100D01*
X002280Y002145D02*
X002100Y001875D01*
X002100Y002145D01*
X001986Y002145D02*
X001851Y002145D01*
X001806Y002100D01*
X001806Y001920D01*
X001851Y001875D01*
X001986Y001875D01*
X001986Y002145D01*
X002280Y002145D02*
X002280Y001875D01*
X001575Y001920D02*
X001530Y001875D01*
X001440Y001875D01*
X001395Y001920D01*
X001395Y002010D01*
X001485Y002010D01*
X001575Y002100D02*
X001575Y001920D01*
X001575Y002100D02*
X001530Y002145D01*
X001440Y002145D01*
X001395Y002100D01*
X001280Y002145D02*
X001100Y001875D01*
X001100Y002145D01*
X000986Y002145D02*
X000851Y002145D01*
X000806Y002100D01*
X000806Y001920D01*
X000851Y001875D01*
X000986Y001875D01*
X000986Y002145D01*
X001280Y002145D02*
X001280Y001875D01*
X004025Y001099D02*
X004025Y000964D01*
X004295Y000964D01*
X004295Y001099D01*
X004250Y001144D01*
X004070Y001144D01*
X004025Y001099D01*
X004025Y000850D02*
X004295Y000850D01*
X004295Y000670D02*
X004025Y000670D01*
X004070Y000555D02*
X004160Y000555D01*
X004160Y000465D01*
X004070Y000375D02*
X004025Y000420D01*
X004025Y000510D01*
X004070Y000555D01*
X004250Y000555D02*
X004295Y000510D01*
X004295Y000420D01*
X004250Y000375D01*
X004070Y000375D01*
X004295Y000670D02*
X004025Y000850D01*
X005025Y000760D02*
X005115Y000670D01*
X005295Y000670D01*
X005295Y000555D02*
X005295Y000375D01*
X005160Y000375D01*
X005205Y000465D01*
X005205Y000510D01*
X005160Y000555D01*
X005070Y000555D01*
X005025Y000510D01*
X005025Y000420D01*
X005070Y000375D01*
X005025Y000760D02*
X005115Y000850D01*
X005295Y000850D01*
X005250Y000964D02*
X005070Y000964D01*
X005250Y001144D01*
X005070Y001144D01*
X005025Y001099D01*
X005025Y001009D01*
X005070Y000964D01*
X005250Y000964D02*
X005295Y001009D01*
X005295Y001099D01*
X005250Y001144D01*
D12*
X010150Y003750D03*
D13*
X011670Y005423D02*
X011897Y005423D01*
X012038Y005537D02*
X012095Y005480D01*
X012208Y005480D01*
X012265Y005537D01*
X012265Y005764D01*
X012208Y005820D01*
X012095Y005820D01*
X012038Y005764D01*
X012407Y005764D02*
X012407Y005537D01*
X012463Y005480D01*
X012577Y005480D01*
X012633Y005537D01*
X012633Y005764D01*
X012577Y005820D01*
X012463Y005820D01*
X012407Y005764D01*
X012775Y005764D02*
X012832Y005820D01*
X012945Y005820D01*
X013002Y005764D01*
X013002Y005707D01*
X012945Y005650D01*
X012832Y005650D01*
X012775Y005593D01*
X012775Y005537D01*
X012832Y005480D01*
X012945Y005480D01*
X013002Y005537D01*
X013257Y005480D02*
X013257Y005820D01*
X013370Y005820D02*
X013143Y005820D01*
X011528Y005820D02*
X011528Y005480D01*
X011302Y005480D02*
X011302Y005820D01*
X011160Y005820D02*
X011160Y005480D01*
X010933Y005480D01*
X010792Y005537D02*
X010735Y005480D01*
X010622Y005480D01*
X010565Y005537D01*
X010565Y005764D01*
X010622Y005820D01*
X010735Y005820D01*
X010792Y005764D01*
X010792Y005537D01*
X011047Y005650D02*
X011160Y005650D01*
X011302Y005480D02*
X011528Y005820D01*
X011160Y005820D02*
X010933Y005820D01*
X010423Y005820D02*
X010423Y005480D01*
X010197Y005480D01*
X010055Y005480D02*
X009828Y005480D01*
X009687Y005480D02*
X009517Y005480D01*
X009460Y005537D01*
X009460Y005764D01*
X009517Y005820D01*
X009687Y005820D01*
X009687Y005480D01*
X009942Y005650D02*
X010055Y005650D01*
X010055Y005820D02*
X010055Y005480D01*
X010055Y005820D02*
X009828Y005820D01*
D14*
X009404Y007730D02*
X009324Y007730D01*
X009244Y007810D01*
X009244Y008210D01*
X009485Y008210D01*
X009565Y008130D01*
X009565Y007970D01*
X009485Y007890D01*
X009244Y007890D01*
X009049Y007970D02*
X009049Y008130D01*
X008969Y008210D01*
X008809Y008210D01*
X008729Y008130D01*
X008729Y008050D01*
X009049Y008050D01*
X009049Y007970D02*
X008969Y007890D01*
X008809Y007890D01*
X008533Y007890D02*
X008533Y008210D01*
X008293Y008210D01*
X008213Y008130D01*
X008213Y007890D01*
X007938Y007970D02*
X007858Y007890D01*
X007938Y007970D02*
X007938Y008290D01*
X008018Y008210D02*
X007858Y008210D01*
X007674Y008130D02*
X007594Y008050D01*
X007434Y008050D01*
X007354Y007970D01*
X007434Y007890D01*
X007674Y007890D01*
X007674Y008130D02*
X007594Y008210D01*
X007354Y008210D01*
X009760Y008210D02*
X009760Y007890D01*
X009760Y008130D02*
X010080Y008130D01*
X010080Y008210D02*
X009920Y008370D01*
X009760Y008210D01*
X010080Y008210D02*
X010080Y007890D01*
X010276Y007890D02*
X010276Y008130D01*
X010356Y008210D01*
X010596Y008210D01*
X010596Y007890D01*
X010785Y008210D02*
X010865Y008210D01*
X011026Y008050D01*
X011026Y007890D02*
X011026Y008210D01*
X011221Y008130D02*
X011221Y008050D01*
X011541Y008050D01*
X011541Y007970D02*
X011541Y008130D01*
X011461Y008210D01*
X011301Y008210D01*
X011221Y008130D01*
X011301Y007890D02*
X011461Y007890D01*
X011541Y007970D01*
X011725Y007890D02*
X011805Y007970D01*
X011805Y008290D01*
X011885Y008210D02*
X011725Y008210D01*
X012069Y008210D02*
X012229Y008210D01*
X012149Y008290D02*
X012149Y007970D01*
X012069Y007890D01*
X012424Y007890D02*
X012424Y008130D01*
X012504Y008210D01*
X012664Y008210D01*
X012664Y008050D02*
X012424Y008050D01*
X012424Y007890D02*
X012664Y007890D01*
X012744Y007970D01*
X012664Y008050D01*
X012940Y008130D02*
X013020Y008050D01*
X013260Y008050D01*
X013260Y007890D02*
X013260Y008370D01*
X013020Y008370D01*
X012940Y008290D01*
X012940Y008130D01*
D15*
X020800Y000150D02*
X001200Y000150D01*
X001150Y000152D01*
X001100Y000157D01*
X001051Y000166D01*
X001003Y000178D01*
X000955Y000194D01*
X000909Y000213D01*
X000865Y000236D01*
X000822Y000261D01*
X000781Y000290D01*
X000742Y000321D01*
X000705Y000355D01*
X000671Y000392D01*
X000640Y000431D01*
X000611Y000472D01*
X000586Y000515D01*
X000563Y000559D01*
X000544Y000605D01*
X000528Y000653D01*
X000516Y000701D01*
X000507Y000750D01*
X000502Y000800D01*
X000500Y000850D01*
X000500Y011450D01*
X000502Y011502D01*
X000508Y011554D01*
X000518Y011606D01*
X000531Y011656D01*
X000548Y011706D01*
X000569Y011754D01*
X000594Y011800D01*
X000622Y011844D01*
X000653Y011886D01*
X000687Y011926D01*
X000724Y011963D01*
X000764Y011997D01*
X000806Y012028D01*
X000850Y012056D01*
X000896Y012081D01*
X000944Y012102D01*
X000994Y012119D01*
X001044Y012132D01*
X001096Y012142D01*
X001148Y012148D01*
X001200Y012150D01*
X020800Y012150D01*
X020850Y012148D01*
X020900Y012143D01*
X020949Y012134D01*
X020997Y012122D01*
X021045Y012106D01*
X021091Y012087D01*
X021135Y012064D01*
X021178Y012039D01*
X021219Y012010D01*
X021258Y011979D01*
X021295Y011945D01*
X021329Y011908D01*
X021360Y011869D01*
X021389Y011828D01*
X021414Y011785D01*
X021437Y011741D01*
X021456Y011695D01*
X021472Y011647D01*
X021484Y011599D01*
X021493Y011550D01*
X021498Y011500D01*
X021500Y011450D01*
X021500Y000850D01*
X021498Y000800D01*
X021493Y000750D01*
X021484Y000701D01*
X021472Y000653D01*
X021456Y000605D01*
X021437Y000559D01*
X021414Y000515D01*
X021389Y000472D01*
X021360Y000431D01*
X021329Y000392D01*
X021295Y000355D01*
X021258Y000321D01*
X021219Y000290D01*
X021178Y000261D01*
X021135Y000236D01*
X021091Y000213D01*
X021045Y000194D01*
X020997Y000178D01*
X020949Y000166D01*
X020900Y000157D01*
X020850Y000152D01*
X020800Y000150D01*
X016906Y000900D02*
X016908Y000939D01*
X016914Y000978D01*
X016924Y001016D01*
X016937Y001053D01*
X016954Y001088D01*
X016974Y001122D01*
X016998Y001153D01*
X017025Y001182D01*
X017054Y001208D01*
X017086Y001231D01*
X017120Y001251D01*
X017156Y001267D01*
X017193Y001279D01*
X017232Y001288D01*
X017271Y001293D01*
X017310Y001294D01*
X017349Y001291D01*
X017388Y001284D01*
X017425Y001273D01*
X017462Y001259D01*
X017497Y001241D01*
X017530Y001220D01*
X017561Y001195D01*
X017589Y001168D01*
X017614Y001138D01*
X017636Y001105D01*
X017655Y001071D01*
X017670Y001035D01*
X017682Y000997D01*
X017690Y000959D01*
X017694Y000920D01*
X017694Y000880D01*
X017690Y000841D01*
X017682Y000803D01*
X017670Y000765D01*
X017655Y000729D01*
X017636Y000695D01*
X017614Y000662D01*
X017589Y000632D01*
X017561Y000605D01*
X017530Y000580D01*
X017497Y000559D01*
X017462Y000541D01*
X017425Y000527D01*
X017388Y000516D01*
X017349Y000509D01*
X017310Y000506D01*
X017271Y000507D01*
X017232Y000512D01*
X017193Y000521D01*
X017156Y000533D01*
X017120Y000549D01*
X017086Y000569D01*
X017054Y000592D01*
X017025Y000618D01*
X016998Y000647D01*
X016974Y000678D01*
X016954Y000712D01*
X016937Y000747D01*
X016924Y000784D01*
X016914Y000822D01*
X016908Y000861D01*
X016906Y000900D01*
X000856Y000900D02*
X000858Y000939D01*
X000864Y000978D01*
X000874Y001016D01*
X000887Y001053D01*
X000904Y001088D01*
X000924Y001122D01*
X000948Y001153D01*
X000975Y001182D01*
X001004Y001208D01*
X001036Y001231D01*
X001070Y001251D01*
X001106Y001267D01*
X001143Y001279D01*
X001182Y001288D01*
X001221Y001293D01*
X001260Y001294D01*
X001299Y001291D01*
X001338Y001284D01*
X001375Y001273D01*
X001412Y001259D01*
X001447Y001241D01*
X001480Y001220D01*
X001511Y001195D01*
X001539Y001168D01*
X001564Y001138D01*
X001586Y001105D01*
X001605Y001071D01*
X001620Y001035D01*
X001632Y000997D01*
X001640Y000959D01*
X001644Y000920D01*
X001644Y000880D01*
X001640Y000841D01*
X001632Y000803D01*
X001620Y000765D01*
X001605Y000729D01*
X001586Y000695D01*
X001564Y000662D01*
X001539Y000632D01*
X001511Y000605D01*
X001480Y000580D01*
X001447Y000559D01*
X001412Y000541D01*
X001375Y000527D01*
X001338Y000516D01*
X001299Y000509D01*
X001260Y000506D01*
X001221Y000507D01*
X001182Y000512D01*
X001143Y000521D01*
X001106Y000533D01*
X001070Y000549D01*
X001036Y000569D01*
X001004Y000592D01*
X000975Y000618D01*
X000948Y000647D01*
X000924Y000678D01*
X000904Y000712D01*
X000887Y000747D01*
X000874Y000784D01*
X000864Y000822D01*
X000858Y000861D01*
X000856Y000900D01*
X000856Y011400D02*
X000858Y011439D01*
X000864Y011478D01*
X000874Y011516D01*
X000887Y011553D01*
X000904Y011588D01*
X000924Y011622D01*
X000948Y011653D01*
X000975Y011682D01*
X001004Y011708D01*
X001036Y011731D01*
X001070Y011751D01*
X001106Y011767D01*
X001143Y011779D01*
X001182Y011788D01*
X001221Y011793D01*
X001260Y011794D01*
X001299Y011791D01*
X001338Y011784D01*
X001375Y011773D01*
X001412Y011759D01*
X001447Y011741D01*
X001480Y011720D01*
X001511Y011695D01*
X001539Y011668D01*
X001564Y011638D01*
X001586Y011605D01*
X001605Y011571D01*
X001620Y011535D01*
X001632Y011497D01*
X001640Y011459D01*
X001644Y011420D01*
X001644Y011380D01*
X001640Y011341D01*
X001632Y011303D01*
X001620Y011265D01*
X001605Y011229D01*
X001586Y011195D01*
X001564Y011162D01*
X001539Y011132D01*
X001511Y011105D01*
X001480Y011080D01*
X001447Y011059D01*
X001412Y011041D01*
X001375Y011027D01*
X001338Y011016D01*
X001299Y011009D01*
X001260Y011006D01*
X001221Y011007D01*
X001182Y011012D01*
X001143Y011021D01*
X001106Y011033D01*
X001070Y011049D01*
X001036Y011069D01*
X001004Y011092D01*
X000975Y011118D01*
X000948Y011147D01*
X000924Y011178D01*
X000904Y011212D01*
X000887Y011247D01*
X000874Y011284D01*
X000864Y011322D01*
X000858Y011361D01*
X000856Y011400D01*
X016906Y011400D02*
X016908Y011439D01*
X016914Y011478D01*
X016924Y011516D01*
X016937Y011553D01*
X016954Y011588D01*
X016974Y011622D01*
X016998Y011653D01*
X017025Y011682D01*
X017054Y011708D01*
X017086Y011731D01*
X017120Y011751D01*
X017156Y011767D01*
X017193Y011779D01*
X017232Y011788D01*
X017271Y011793D01*
X017310Y011794D01*
X017349Y011791D01*
X017388Y011784D01*
X017425Y011773D01*
X017462Y011759D01*
X017497Y011741D01*
X017530Y011720D01*
X017561Y011695D01*
X017589Y011668D01*
X017614Y011638D01*
X017636Y011605D01*
X017655Y011571D01*
X017670Y011535D01*
X017682Y011497D01*
X017690Y011459D01*
X017694Y011420D01*
X017694Y011380D01*
X017690Y011341D01*
X017682Y011303D01*
X017670Y011265D01*
X017655Y011229D01*
X017636Y011195D01*
X017614Y011162D01*
X017589Y011132D01*
X017561Y011105D01*
X017530Y011080D01*
X017497Y011059D01*
X017462Y011041D01*
X017425Y011027D01*
X017388Y011016D01*
X017349Y011009D01*
X017310Y011006D01*
X017271Y011007D01*
X017232Y011012D01*
X017193Y011021D01*
X017156Y011033D01*
X017120Y011049D01*
X017086Y011069D01*
X017054Y011092D01*
X017025Y011118D01*
X016998Y011147D01*
X016974Y011178D01*
X016954Y011212D01*
X016937Y011247D01*
X016924Y011284D01*
X016914Y011322D01*
X016908Y011361D01*
X016906Y011400D01*
D16*
X020783Y001423D03*
X020920Y001273D03*
X020783Y001233D03*
X020798Y001150D03*
X020713Y000935D03*
X020860Y000898D03*
X020775Y000683D03*
X020713Y000620D03*
X020650Y000558D03*
D17*
X020650Y000560D03*
X020713Y000623D03*
X020775Y000685D03*
X020860Y000900D03*
X020713Y000933D03*
X020798Y001148D03*
X020783Y001235D03*
X020920Y001270D03*
X020783Y001420D03*
X020405Y001205D03*
X020123Y001130D03*
X019933Y001028D03*
D18*
X019935Y001023D03*
X019938Y001018D03*
X020063Y001130D03*
X020345Y001130D03*
X020520Y001153D03*
X020520Y001155D03*
X020700Y001015D03*
X020713Y000930D03*
X020860Y000903D03*
X020870Y000815D03*
X020870Y000740D03*
X020775Y000688D03*
X020713Y000625D03*
X020650Y000563D03*
X020798Y001145D03*
X020783Y001238D03*
X020920Y001268D03*
X020880Y001365D03*
X020783Y001418D03*
X019298Y001135D03*
X019298Y001133D03*
X019298Y001130D03*
X019298Y001128D03*
X019298Y001038D03*
X019298Y001035D03*
X019298Y001033D03*
X019298Y001030D03*
X019298Y001028D03*
D19*
X019300Y001013D03*
X019300Y001010D03*
X019300Y001008D03*
X019300Y001005D03*
X019300Y001003D03*
X019300Y001153D03*
X019300Y001155D03*
X019300Y001158D03*
X019300Y001160D03*
X019685Y001158D03*
X019685Y001155D03*
X019685Y001153D03*
X019685Y001150D03*
X019685Y001148D03*
X019685Y001145D03*
X019793Y001023D03*
X019793Y001020D03*
X019793Y001018D03*
X019793Y001015D03*
X019793Y001013D03*
X019793Y001010D03*
X019793Y001008D03*
X019793Y001005D03*
X019938Y001013D03*
X020223Y001125D03*
X020523Y001143D03*
X020523Y001145D03*
X020798Y001143D03*
X020783Y001240D03*
X020920Y001265D03*
X020783Y001415D03*
X020798Y000968D03*
X020860Y000905D03*
X020775Y000865D03*
X020713Y000928D03*
X020510Y000975D03*
X020775Y000690D03*
X020713Y000628D03*
X020650Y000565D03*
D20*
X020650Y000568D03*
X020713Y000630D03*
X020775Y000693D03*
X020870Y000743D03*
X020870Y000813D03*
X020860Y000908D03*
X020798Y000970D03*
X020713Y000925D03*
X020775Y000863D03*
X020525Y001133D03*
X020525Y001135D03*
X020413Y001200D03*
X020130Y001125D03*
X019953Y000978D03*
X019950Y000980D03*
X019865Y000935D03*
X019560Y000975D03*
X019558Y001130D03*
X019688Y001163D03*
X019303Y000998D03*
X020920Y001263D03*
D21*
X020920Y001260D03*
X020798Y000973D03*
X020528Y001013D03*
X020528Y001015D03*
X020528Y001018D03*
X020528Y001020D03*
X020528Y001023D03*
X020528Y001025D03*
X020528Y001028D03*
X020528Y001030D03*
X020528Y001033D03*
X020528Y001035D03*
X020528Y001038D03*
X020528Y001040D03*
X020528Y001043D03*
X020528Y001045D03*
X020528Y001048D03*
X020528Y001050D03*
X020528Y001053D03*
X020528Y001055D03*
X020528Y001058D03*
X020528Y001060D03*
X020528Y001063D03*
X020528Y001065D03*
X020528Y001068D03*
X020528Y001070D03*
X020528Y001073D03*
X020528Y001075D03*
X020528Y001078D03*
X020528Y001080D03*
X020528Y001083D03*
X020528Y001085D03*
X020528Y001088D03*
X020528Y001090D03*
X020528Y001093D03*
X020528Y001095D03*
X020528Y001098D03*
X020528Y001100D03*
X020528Y001103D03*
X020415Y001098D03*
X020415Y001095D03*
X020415Y001093D03*
X020415Y001090D03*
X020415Y001088D03*
X020415Y001085D03*
X020415Y001083D03*
X020415Y001080D03*
X020415Y001078D03*
X020415Y001075D03*
X020415Y001073D03*
X020415Y001070D03*
X020415Y001068D03*
X020415Y001065D03*
X020415Y001063D03*
X020415Y001060D03*
X020415Y001058D03*
X020415Y001055D03*
X020415Y001053D03*
X020415Y001050D03*
X020415Y001048D03*
X020415Y001045D03*
X020415Y001043D03*
X020415Y001040D03*
X020415Y001038D03*
X020415Y001035D03*
X020415Y001033D03*
X020415Y001030D03*
X020415Y001028D03*
X020415Y001025D03*
X020415Y001023D03*
X020415Y001020D03*
X020415Y001018D03*
X020415Y001015D03*
X020415Y001013D03*
X020415Y001010D03*
X020415Y001008D03*
X020415Y001005D03*
X020415Y001003D03*
X020415Y001000D03*
X020415Y000998D03*
X020415Y000995D03*
X020323Y000995D03*
X020323Y000998D03*
X020323Y001000D03*
X020323Y001003D03*
X020323Y001005D03*
X020323Y001008D03*
X020323Y001010D03*
X020323Y001013D03*
X020323Y001015D03*
X020323Y001018D03*
X020323Y001020D03*
X020323Y001023D03*
X020323Y001025D03*
X020323Y001028D03*
X020323Y001030D03*
X020323Y001033D03*
X020323Y001035D03*
X020323Y001038D03*
X020323Y001040D03*
X020323Y001043D03*
X020323Y001045D03*
X020323Y001048D03*
X020323Y001050D03*
X020323Y001053D03*
X020323Y001055D03*
X020323Y001058D03*
X020323Y001060D03*
X020323Y001063D03*
X020323Y001065D03*
X020323Y001068D03*
X020323Y001070D03*
X020323Y001073D03*
X020323Y001075D03*
X020323Y001078D03*
X020323Y001080D03*
X020323Y001083D03*
X020345Y001128D03*
X020415Y001128D03*
X020415Y001130D03*
X020415Y001133D03*
X020415Y001135D03*
X020415Y001138D03*
X020415Y001140D03*
X020415Y001143D03*
X020415Y001145D03*
X020415Y001148D03*
X020415Y001150D03*
X020415Y001153D03*
X020415Y001155D03*
X020415Y001158D03*
X020415Y001160D03*
X020415Y001163D03*
X020415Y001165D03*
X020415Y001168D03*
X020415Y001170D03*
X020415Y001173D03*
X020415Y001175D03*
X020415Y001178D03*
X020415Y001125D03*
X020415Y001123D03*
X020415Y001120D03*
X020415Y001118D03*
X020415Y001115D03*
X020228Y001103D03*
X020228Y001100D03*
X020228Y001098D03*
X020228Y001095D03*
X020228Y001093D03*
X020228Y001090D03*
X020228Y001088D03*
X020228Y001085D03*
X020228Y001083D03*
X020228Y001080D03*
X020228Y001078D03*
X020228Y001075D03*
X020228Y001073D03*
X020228Y001070D03*
X020228Y001068D03*
X020228Y001065D03*
X020228Y001063D03*
X020228Y001060D03*
X020228Y001058D03*
X020228Y001055D03*
X020228Y001053D03*
X020228Y001050D03*
X020228Y001048D03*
X020228Y001045D03*
X020228Y001043D03*
X020228Y001040D03*
X020228Y001038D03*
X020228Y001035D03*
X020228Y001033D03*
X020228Y001030D03*
X020228Y001028D03*
X020228Y001025D03*
X020228Y001023D03*
X020228Y001020D03*
X020228Y001018D03*
X020228Y001015D03*
X020228Y001013D03*
X020228Y001010D03*
X020228Y001008D03*
X020228Y001005D03*
X020228Y001003D03*
X020228Y001000D03*
X020228Y000998D03*
X020228Y000995D03*
X020133Y000995D03*
X020133Y000998D03*
X020133Y001000D03*
X020133Y001003D03*
X020133Y001005D03*
X020133Y001008D03*
X020133Y001010D03*
X020133Y001013D03*
X020133Y001015D03*
X020133Y001018D03*
X020133Y001020D03*
X020133Y001023D03*
X020133Y001025D03*
X020133Y001028D03*
X020133Y001030D03*
X020133Y001033D03*
X020133Y001035D03*
X020133Y001038D03*
X020133Y001040D03*
X020133Y001043D03*
X020133Y001045D03*
X020133Y001048D03*
X020133Y001050D03*
X020133Y001053D03*
X020133Y001055D03*
X020133Y001058D03*
X020133Y001060D03*
X020133Y001063D03*
X020133Y001065D03*
X020133Y001068D03*
X020133Y001070D03*
X020133Y001073D03*
X020133Y001075D03*
X020133Y001078D03*
X020133Y001080D03*
X020133Y001083D03*
X020133Y001085D03*
X020133Y001088D03*
X020133Y001090D03*
X020133Y001093D03*
X020133Y001095D03*
X020133Y001098D03*
X020063Y001128D03*
X020040Y001083D03*
X020040Y001080D03*
X020040Y001078D03*
X020040Y001075D03*
X020040Y001073D03*
X020040Y001070D03*
X020040Y001068D03*
X020040Y001065D03*
X020040Y001063D03*
X020040Y001060D03*
X020040Y001058D03*
X020040Y001055D03*
X020040Y001053D03*
X020040Y001050D03*
X020040Y001048D03*
X020040Y001045D03*
X020040Y001043D03*
X020040Y001040D03*
X020040Y001038D03*
X020040Y001035D03*
X020040Y001033D03*
X020040Y001030D03*
X020040Y001028D03*
X020040Y001025D03*
X020040Y001023D03*
X020040Y001020D03*
X020040Y001018D03*
X020040Y001015D03*
X020040Y001013D03*
X020040Y001010D03*
X020040Y001008D03*
X020040Y001005D03*
X020040Y001003D03*
X020040Y001000D03*
X020040Y000998D03*
X020040Y000995D03*
X019960Y000968D03*
X019960Y000965D03*
X019963Y000960D03*
X019963Y000958D03*
X019963Y000955D03*
X019963Y000953D03*
X019963Y000950D03*
X019935Y001008D03*
X019883Y001048D03*
X019880Y001050D03*
X019878Y001053D03*
X019875Y001058D03*
X019873Y001063D03*
X019873Y001065D03*
X019873Y001068D03*
X019870Y001070D03*
X019870Y001073D03*
X019870Y001075D03*
X019870Y001078D03*
X019870Y001080D03*
X019870Y001083D03*
X019870Y001085D03*
X019870Y001088D03*
X019870Y001090D03*
X019873Y001095D03*
X019873Y001098D03*
X019875Y001103D03*
X019948Y001108D03*
X019950Y001105D03*
X019953Y001100D03*
X019953Y001098D03*
X019955Y001093D03*
X019955Y001090D03*
X019855Y000960D03*
X019855Y000958D03*
X019855Y000955D03*
X019748Y000975D03*
X019693Y001010D03*
X019603Y001100D03*
X019775Y001155D03*
X019778Y001153D03*
X019778Y001150D03*
X019780Y001145D03*
X019780Y001143D03*
X019780Y001140D03*
X019348Y001188D03*
X019348Y000975D03*
X020650Y000570D03*
D22*
X020650Y000573D03*
X020870Y000745D03*
X020870Y000810D03*
X020798Y000975D03*
X020700Y001020D03*
X020723Y001188D03*
X020858Y001195D03*
X020920Y001258D03*
X020880Y001360D03*
X020413Y001100D03*
X020328Y001098D03*
X020325Y001093D03*
X020230Y001120D03*
X020130Y001100D03*
X020045Y001098D03*
X020043Y001095D03*
X020043Y001093D03*
X019955Y001068D03*
X019945Y001048D03*
X019940Y001115D03*
X020040Y000993D03*
X020133Y000993D03*
X020228Y000993D03*
X020323Y000993D03*
X020415Y000993D03*
X020525Y001003D03*
X020525Y001005D03*
X019958Y000938D03*
X019858Y000968D03*
X019700Y001000D03*
X019698Y001003D03*
X019688Y001025D03*
X019688Y001028D03*
X019688Y001030D03*
X019615Y001038D03*
X019615Y001040D03*
X019615Y001043D03*
X019615Y001045D03*
X019615Y001048D03*
X019615Y001050D03*
X019615Y001053D03*
X019615Y001055D03*
X019615Y001058D03*
X019615Y001060D03*
X019615Y001063D03*
X019615Y001065D03*
X019615Y001068D03*
X019613Y001073D03*
X019613Y001075D03*
X019613Y001078D03*
X019610Y001085D03*
X019613Y001033D03*
X019613Y001030D03*
X019613Y001028D03*
X019610Y001020D03*
X019608Y001013D03*
X019595Y000995D03*
X019508Y001020D03*
X019505Y001028D03*
X019505Y001030D03*
X019505Y001033D03*
X019503Y001038D03*
X019503Y001040D03*
X019503Y001043D03*
X019503Y001045D03*
X019503Y001048D03*
X019503Y001050D03*
X019503Y001053D03*
X019503Y001055D03*
X019503Y001058D03*
X019503Y001060D03*
X019503Y001063D03*
X019503Y001065D03*
X019503Y001068D03*
X019505Y001073D03*
X019505Y001075D03*
X019505Y001078D03*
X019508Y001085D03*
X019433Y001100D03*
X019430Y001113D03*
X019428Y001120D03*
X019425Y001128D03*
X019423Y001133D03*
X019420Y001138D03*
X019433Y001063D03*
X019430Y001050D03*
X019428Y001043D03*
X019425Y001035D03*
X019423Y001030D03*
X019693Y001168D03*
X019765Y001165D03*
X019780Y001128D03*
X019780Y001125D03*
D23*
X019778Y001120D03*
X019778Y001118D03*
X019775Y001115D03*
X019690Y001040D03*
X019860Y000970D03*
X020048Y001100D03*
X020138Y001120D03*
X020330Y001100D03*
X020420Y001195D03*
X020723Y001190D03*
X020795Y001130D03*
X020858Y001193D03*
X020920Y001255D03*
X020723Y001465D03*
X020508Y000978D03*
X020650Y000575D03*
X019413Y001015D03*
X019408Y001010D03*
X019405Y001008D03*
X019403Y001005D03*
X019403Y001158D03*
X019400Y001160D03*
D24*
X019393Y001165D03*
X019558Y001128D03*
X019560Y000978D03*
X019693Y001045D03*
X019695Y001048D03*
X019710Y000995D03*
X019773Y001113D03*
X019913Y001128D03*
X019915Y001033D03*
X019863Y000973D03*
X020050Y001103D03*
X020125Y001103D03*
X020140Y001118D03*
X020333Y001103D03*
X020520Y000998D03*
X020700Y001023D03*
X020795Y000983D03*
X020813Y001028D03*
X020813Y001030D03*
X020813Y001033D03*
X020815Y001038D03*
X020815Y001040D03*
X020815Y001043D03*
X020815Y001045D03*
X020818Y001050D03*
X020818Y001058D03*
X020818Y001060D03*
X020815Y001063D03*
X020815Y001065D03*
X020815Y001068D03*
X020815Y001070D03*
X020813Y001075D03*
X020813Y001078D03*
X020813Y001080D03*
X020813Y001083D03*
X020795Y001128D03*
X020858Y001190D03*
X020920Y001253D03*
X020880Y001298D03*
X020880Y001358D03*
X020785Y001400D03*
X020768Y001355D03*
X020768Y001353D03*
X020768Y001350D03*
X020768Y001348D03*
X020768Y001345D03*
X020765Y001340D03*
X020765Y001338D03*
X020765Y001335D03*
X020765Y001333D03*
X020765Y001330D03*
X020765Y001328D03*
X020765Y001325D03*
X020765Y001323D03*
X020765Y001320D03*
X020765Y001318D03*
X020765Y001315D03*
X020768Y001310D03*
X020768Y001308D03*
X020768Y001305D03*
X020768Y001303D03*
X020768Y001300D03*
X020785Y001255D03*
X020723Y001193D03*
X020685Y001275D03*
X020683Y001280D03*
X020683Y001283D03*
X020683Y001285D03*
X020683Y001288D03*
X020680Y001293D03*
X020680Y001295D03*
X020680Y001298D03*
X020680Y001300D03*
X020680Y001303D03*
X020678Y001308D03*
X020678Y001310D03*
X020678Y001313D03*
X020678Y001315D03*
X020678Y001318D03*
X020678Y001320D03*
X020678Y001323D03*
X020678Y001325D03*
X020678Y001328D03*
X020678Y001330D03*
X020678Y001333D03*
X020678Y001335D03*
X020678Y001338D03*
X020678Y001340D03*
X020678Y001343D03*
X020678Y001345D03*
X020678Y001348D03*
X020680Y001353D03*
X020680Y001355D03*
X020680Y001358D03*
X020680Y001360D03*
X020680Y001363D03*
X020683Y001370D03*
X020683Y001373D03*
X020683Y001375D03*
X020685Y001380D03*
X020595Y001375D03*
X020595Y001373D03*
X020595Y001370D03*
X020595Y001368D03*
X020595Y001365D03*
X020595Y001363D03*
X020595Y001360D03*
X020593Y001353D03*
X020593Y001350D03*
X020593Y001348D03*
X020593Y001345D03*
X020593Y001343D03*
X020593Y001340D03*
X020593Y001338D03*
X020593Y001335D03*
X020593Y001333D03*
X020593Y001330D03*
X020593Y001328D03*
X020593Y001325D03*
X020593Y001323D03*
X020593Y001320D03*
X020593Y001318D03*
X020593Y001315D03*
X020593Y001313D03*
X020593Y001310D03*
X020593Y001308D03*
X020593Y001305D03*
X020593Y001303D03*
X020593Y001300D03*
X020595Y001285D03*
X020595Y001283D03*
X020595Y001280D03*
X020595Y001278D03*
X020723Y001463D03*
X020898Y001103D03*
X020898Y001100D03*
X020900Y001090D03*
X020900Y001088D03*
X020903Y001075D03*
X020903Y001073D03*
X020903Y001070D03*
X020903Y001068D03*
X020903Y001065D03*
X020903Y001063D03*
X020903Y001060D03*
X020903Y001058D03*
X020903Y001055D03*
X020903Y001053D03*
X020903Y001050D03*
X020903Y001048D03*
X020903Y001045D03*
X020903Y001043D03*
X020903Y001040D03*
X020903Y001038D03*
X020903Y001035D03*
X020903Y001033D03*
X020900Y001020D03*
X020900Y001018D03*
X020898Y001008D03*
X020898Y001005D03*
X020983Y000988D03*
X020985Y001000D03*
X020985Y001003D03*
X020988Y001008D03*
X020988Y001010D03*
X020988Y001013D03*
X020990Y001028D03*
X020990Y001030D03*
X020990Y001033D03*
X020990Y001035D03*
X020990Y001038D03*
X020990Y001040D03*
X020990Y001043D03*
X020990Y001045D03*
X020990Y001048D03*
X020990Y001050D03*
X020990Y001053D03*
X020990Y001055D03*
X020990Y001058D03*
X020990Y001060D03*
X020990Y001063D03*
X020990Y001065D03*
X020990Y001068D03*
X020990Y001070D03*
X020990Y001073D03*
X020990Y001075D03*
X020990Y001078D03*
X020990Y001080D03*
X020988Y001088D03*
X020988Y001090D03*
X020988Y001093D03*
X020988Y001095D03*
X020988Y001098D03*
X020988Y001100D03*
X020985Y001105D03*
X020985Y001108D03*
X020983Y001120D03*
X020870Y000808D03*
X020870Y000748D03*
X020760Y000748D03*
X020760Y000750D03*
X020758Y000758D03*
X020758Y000760D03*
X020758Y000763D03*
X020755Y000768D03*
X020755Y000770D03*
X020755Y000773D03*
X020755Y000775D03*
X020755Y000778D03*
X020755Y000780D03*
X020755Y000783D03*
X020755Y000785D03*
X020755Y000788D03*
X020758Y000795D03*
X020758Y000798D03*
X020760Y000805D03*
X020760Y000808D03*
X020675Y000828D03*
X020673Y000818D03*
X020673Y000815D03*
X020673Y000813D03*
X020670Y000803D03*
X020670Y000800D03*
X020670Y000798D03*
X020670Y000758D03*
X020670Y000755D03*
X020673Y000748D03*
X020673Y000745D03*
X020673Y000743D03*
X020673Y000740D03*
X020673Y000738D03*
X020675Y000730D03*
X020675Y000728D03*
X020585Y000728D03*
X020585Y000825D03*
X020585Y000828D03*
X020650Y000578D03*
X019395Y001000D03*
D25*
X019698Y001053D03*
X019868Y000975D03*
X020065Y001123D03*
X020143Y001115D03*
X020238Y001115D03*
X020238Y001113D03*
X020238Y001110D03*
X020238Y001108D03*
X020238Y001105D03*
X020348Y001123D03*
X020605Y001238D03*
X020605Y001240D03*
X020605Y001243D03*
X020603Y001250D03*
X020608Y001235D03*
X020608Y001233D03*
X020608Y001230D03*
X020610Y001228D03*
X020610Y001225D03*
X020613Y001223D03*
X020613Y001220D03*
X020613Y001218D03*
X020615Y001215D03*
X020615Y001213D03*
X020618Y001208D03*
X020598Y001268D03*
X020598Y001270D03*
X020690Y001258D03*
X020693Y001253D03*
X020695Y001248D03*
X020695Y001245D03*
X020698Y001243D03*
X020698Y001240D03*
X020700Y001238D03*
X020703Y001233D03*
X020723Y001195D03*
X020778Y001278D03*
X020775Y001283D03*
X020773Y001288D03*
X020773Y001368D03*
X020775Y001373D03*
X020778Y001378D03*
X020780Y001383D03*
X020703Y001423D03*
X020700Y001418D03*
X020698Y001415D03*
X020698Y001413D03*
X020695Y001410D03*
X020695Y001408D03*
X020693Y001403D03*
X020693Y001400D03*
X020723Y001460D03*
X020615Y001440D03*
X020613Y001435D03*
X020610Y001428D03*
X020610Y001425D03*
X020608Y001420D03*
X020608Y001418D03*
X020605Y001415D03*
X020605Y001413D03*
X020605Y001410D03*
X020603Y001408D03*
X020603Y001405D03*
X020603Y001403D03*
X020600Y001395D03*
X020598Y001388D03*
X020598Y001385D03*
X020598Y001383D03*
X020880Y001355D03*
X020880Y001300D03*
X020920Y001250D03*
X020955Y001190D03*
X020963Y001175D03*
X020965Y001173D03*
X020965Y001170D03*
X020968Y001168D03*
X020968Y001165D03*
X020970Y001160D03*
X020970Y001158D03*
X020973Y001155D03*
X020973Y001153D03*
X020975Y001145D03*
X020980Y001130D03*
X020895Y001110D03*
X020893Y001118D03*
X020890Y001123D03*
X020890Y001125D03*
X020888Y001128D03*
X020888Y001130D03*
X020888Y001133D03*
X020885Y001135D03*
X020883Y001140D03*
X020878Y001150D03*
X020858Y001188D03*
X020795Y001123D03*
X020803Y001105D03*
X020805Y001103D03*
X020805Y001100D03*
X020808Y001095D03*
X020808Y001013D03*
X020805Y001008D03*
X020795Y000985D03*
X020858Y000923D03*
X020880Y000960D03*
X020883Y000968D03*
X020885Y000973D03*
X020888Y000978D03*
X020888Y000980D03*
X020890Y000983D03*
X020890Y000985D03*
X020893Y000990D03*
X020975Y000963D03*
X020975Y000960D03*
X020973Y000955D03*
X020973Y000953D03*
X020970Y000950D03*
X020970Y000948D03*
X020968Y000943D03*
X020968Y000940D03*
X020965Y000938D03*
X020965Y000935D03*
X020963Y000933D03*
X020955Y000918D03*
X020920Y000860D03*
X020870Y000805D03*
X020870Y000750D03*
X020778Y000708D03*
X020773Y000720D03*
X020768Y000730D03*
X020765Y000735D03*
X020765Y000820D03*
X020768Y000825D03*
X020770Y000830D03*
X020773Y000835D03*
X020778Y000848D03*
X020695Y000875D03*
X020693Y000873D03*
X020693Y000870D03*
X020690Y000868D03*
X020690Y000865D03*
X020688Y000863D03*
X020688Y000860D03*
X020685Y000858D03*
X020685Y000855D03*
X020683Y000850D03*
X020680Y000843D03*
X020715Y000910D03*
X020608Y000898D03*
X020605Y000893D03*
X020603Y000890D03*
X020603Y000888D03*
X020603Y000885D03*
X020600Y000880D03*
X020598Y000875D03*
X020595Y000868D03*
X020595Y000865D03*
X020593Y000858D03*
X020590Y000853D03*
X020590Y000850D03*
X020583Y000745D03*
X020583Y000743D03*
X020583Y000740D03*
X020583Y000738D03*
X020588Y000715D03*
X020588Y000713D03*
X020590Y000705D03*
X020590Y000703D03*
X020593Y000700D03*
X020593Y000698D03*
X020593Y000695D03*
X020595Y000690D03*
X020595Y000688D03*
X020595Y000685D03*
X020598Y000680D03*
X020603Y000668D03*
X020685Y000698D03*
X020685Y000700D03*
X020683Y000705D03*
X020683Y000708D03*
X020688Y000695D03*
X020688Y000693D03*
X020690Y000690D03*
X020693Y000685D03*
X020695Y000680D03*
X020715Y000645D03*
X020650Y000580D03*
X020700Y001025D03*
D26*
X020701Y001080D03*
X020661Y001133D03*
X020629Y001188D03*
X020626Y001190D03*
X020626Y001193D03*
X020624Y001195D03*
X020624Y001198D03*
X020621Y001200D03*
X020621Y001203D03*
X020619Y001205D03*
X020616Y001210D03*
X020701Y001235D03*
X020704Y001230D03*
X020706Y001228D03*
X020706Y001225D03*
X020709Y001223D03*
X020709Y001220D03*
X020711Y001218D03*
X020724Y001198D03*
X020786Y001260D03*
X020786Y001263D03*
X020781Y001270D03*
X020779Y001273D03*
X020779Y001275D03*
X020779Y001380D03*
X020781Y001385D03*
X020786Y001393D03*
X020786Y001395D03*
X020709Y001433D03*
X020709Y001435D03*
X020706Y001430D03*
X020706Y001428D03*
X020704Y001425D03*
X020701Y001420D03*
X020724Y001458D03*
X020661Y001523D03*
X020626Y001463D03*
X020624Y001458D03*
X020621Y001453D03*
X020619Y001448D03*
X020616Y001445D03*
X020616Y001443D03*
X020614Y001438D03*
X020611Y001433D03*
X020611Y001430D03*
X020426Y001190D03*
X020426Y001188D03*
X020426Y001185D03*
X020426Y001183D03*
X020426Y001180D03*
X020799Y001113D03*
X020801Y001108D03*
X020879Y001148D03*
X020881Y001145D03*
X020881Y001143D03*
X020884Y001138D03*
X020876Y001153D03*
X020874Y001158D03*
X020951Y001198D03*
X020954Y001193D03*
X020956Y001188D03*
X020959Y001185D03*
X020959Y001183D03*
X020961Y001180D03*
X020961Y001178D03*
X020919Y001248D03*
X020804Y001005D03*
X020801Y001003D03*
X020801Y001000D03*
X020799Y000995D03*
X020794Y000988D03*
X020874Y000950D03*
X020876Y000955D03*
X020879Y000958D03*
X020881Y000963D03*
X020881Y000965D03*
X020884Y000970D03*
X020886Y000975D03*
X020961Y000930D03*
X020961Y000928D03*
X020959Y000925D03*
X020959Y000923D03*
X020956Y000920D03*
X020954Y000915D03*
X020951Y000913D03*
X020774Y000838D03*
X020771Y000833D03*
X020769Y000828D03*
X020696Y000878D03*
X020699Y000883D03*
X020616Y000913D03*
X020616Y000915D03*
X020614Y000910D03*
X020611Y000908D03*
X020611Y000905D03*
X020609Y000903D03*
X020609Y000900D03*
X020606Y000895D03*
X020601Y000883D03*
X020599Y000878D03*
X020651Y000973D03*
X020504Y000980D03*
X020596Y000683D03*
X020599Y000678D03*
X020599Y000675D03*
X020601Y000673D03*
X020601Y000670D03*
X020604Y000665D03*
X020604Y000663D03*
X020606Y000660D03*
X020606Y000658D03*
X020609Y000655D03*
X020609Y000653D03*
X020616Y000640D03*
X020651Y000583D03*
X020701Y000670D03*
X020699Y000673D03*
X020699Y000675D03*
X020696Y000678D03*
X020694Y000683D03*
X020691Y000688D03*
X020769Y000728D03*
X020771Y000725D03*
X020771Y000723D03*
X020774Y000718D03*
X020776Y000715D03*
X020776Y000713D03*
X020776Y000710D03*
X019919Y000913D03*
X019766Y001105D03*
X019699Y001055D03*
X019726Y001185D03*
X019386Y001168D03*
D27*
X019346Y001185D03*
X019764Y001103D03*
X019749Y000978D03*
X019911Y001125D03*
X020066Y001120D03*
X020349Y001120D03*
X020636Y001175D03*
X020639Y001170D03*
X020644Y001163D03*
X020646Y001160D03*
X020651Y001153D03*
X020654Y001150D03*
X020661Y001138D03*
X020701Y001078D03*
X020701Y001030D03*
X020651Y000968D03*
X020641Y000953D03*
X020636Y000945D03*
X020634Y000943D03*
X020631Y000940D03*
X020631Y000938D03*
X020629Y000935D03*
X020626Y000933D03*
X020624Y000928D03*
X020704Y000890D03*
X020706Y000893D03*
X020709Y000895D03*
X020711Y000900D03*
X020714Y000903D03*
X020714Y000905D03*
X020859Y000928D03*
X020859Y000930D03*
X020864Y000938D03*
X020866Y000940D03*
X020869Y000943D03*
X020934Y000885D03*
X020936Y000888D03*
X020939Y000890D03*
X020931Y000880D03*
X020929Y000878D03*
X020921Y000865D03*
X020946Y000903D03*
X020869Y000800D03*
X020871Y000755D03*
X020714Y000653D03*
X020714Y000650D03*
X020711Y000655D03*
X020709Y000660D03*
X020706Y000663D03*
X020629Y000620D03*
X020626Y000623D03*
X020624Y000625D03*
X020624Y000628D03*
X020621Y000630D03*
X020631Y000615D03*
X020651Y000585D03*
X020869Y001165D03*
X020866Y001168D03*
X020864Y001170D03*
X020859Y001180D03*
X020929Y001230D03*
X020931Y001228D03*
X020934Y001223D03*
X020936Y001220D03*
X020939Y001218D03*
X020944Y001210D03*
X020921Y001243D03*
X020879Y001350D03*
X020721Y001450D03*
X020721Y001453D03*
X020719Y001448D03*
X020716Y001445D03*
X020639Y001483D03*
X020639Y001485D03*
X020641Y001488D03*
X020636Y001480D03*
X020634Y001475D03*
X020661Y001518D03*
X020716Y001210D03*
X020719Y001208D03*
X020721Y001205D03*
X020721Y001203D03*
D28*
X020650Y001155D03*
X020648Y001158D03*
X020655Y001148D03*
X020658Y001145D03*
X020660Y001140D03*
X020700Y001033D03*
X020650Y000965D03*
X020648Y000960D03*
X020645Y000958D03*
X020643Y000955D03*
X020640Y000950D03*
X020638Y000948D03*
X020710Y000898D03*
X020860Y000933D03*
X020863Y000935D03*
X020933Y000883D03*
X020928Y000875D03*
X020925Y000873D03*
X020923Y000870D03*
X020923Y000868D03*
X020870Y000798D03*
X020870Y000758D03*
X020710Y000658D03*
X020638Y000608D03*
X020635Y000610D03*
X020633Y000613D03*
X020630Y000618D03*
X020640Y000603D03*
X020643Y000600D03*
X020650Y000588D03*
X019915Y001035D03*
X019760Y001100D03*
X019705Y001060D03*
X019558Y001125D03*
X019560Y000980D03*
X019348Y000978D03*
X020643Y001490D03*
X020645Y001493D03*
X020648Y001495D03*
X020650Y001500D03*
X020653Y001503D03*
X020660Y001515D03*
X020880Y001348D03*
X020880Y001308D03*
X020880Y001305D03*
X020923Y001240D03*
X020923Y001238D03*
X020925Y001235D03*
X020928Y001233D03*
X020933Y001225D03*
X020860Y001178D03*
X020860Y001175D03*
X020863Y001173D03*
D29*
X020701Y001075D03*
X020701Y001073D03*
X020659Y001143D03*
X020649Y000963D03*
X020639Y000605D03*
X020644Y000598D03*
X020646Y000595D03*
X020649Y000593D03*
X020649Y000590D03*
X019919Y001003D03*
X019874Y000978D03*
X019859Y001105D03*
X019756Y001098D03*
X019709Y001063D03*
X020649Y001498D03*
X020654Y001505D03*
X020656Y001508D03*
X020659Y001510D03*
X020659Y001513D03*
D30*
X020661Y001535D03*
X020721Y001473D03*
X020784Y001410D03*
X020879Y001363D03*
X020879Y001293D03*
X020859Y001200D03*
X020784Y001245D03*
X020721Y001183D03*
X020661Y001120D03*
X020699Y001018D03*
X020651Y000985D03*
X020714Y000923D03*
X020776Y000860D03*
X020859Y000910D03*
X020921Y000848D03*
X020776Y000695D03*
X020714Y000633D03*
X020796Y001138D03*
X020526Y001130D03*
X020526Y001128D03*
X020226Y001123D03*
X020226Y001163D03*
X020226Y001190D03*
X019959Y000970D03*
X019956Y000973D03*
X019954Y000975D03*
X019961Y000963D03*
X019919Y000910D03*
X019871Y000930D03*
X019869Y000933D03*
X019864Y000938D03*
X019861Y000940D03*
X019859Y000943D03*
X019859Y000945D03*
X019856Y000948D03*
X019856Y000950D03*
X019856Y000953D03*
X019789Y000998D03*
X019876Y001055D03*
X019874Y001060D03*
X019871Y001093D03*
X019874Y001100D03*
X019729Y001188D03*
X019689Y001165D03*
X019304Y001165D03*
D31*
X019385Y000995D03*
X019703Y001058D03*
X020618Y000918D03*
X020620Y000920D03*
X020620Y000923D03*
X020623Y000925D03*
X020625Y000930D03*
X020653Y000970D03*
X020700Y001028D03*
X020795Y000990D03*
X020798Y000993D03*
X020800Y000998D03*
X020875Y000953D03*
X020873Y000948D03*
X020870Y000945D03*
X020858Y000925D03*
X020920Y000863D03*
X020940Y000893D03*
X020943Y000895D03*
X020943Y000898D03*
X020945Y000900D03*
X020948Y000905D03*
X020950Y000908D03*
X020950Y000910D03*
X020870Y000803D03*
X020870Y000753D03*
X020778Y000843D03*
X020778Y000845D03*
X020775Y000840D03*
X020703Y000888D03*
X020700Y000885D03*
X020698Y000880D03*
X020715Y000908D03*
X020800Y001110D03*
X020798Y001115D03*
X020795Y001118D03*
X020795Y001120D03*
X020870Y001163D03*
X020873Y001160D03*
X020875Y001155D03*
X020858Y001183D03*
X020858Y001185D03*
X020920Y001245D03*
X020940Y001215D03*
X020943Y001213D03*
X020945Y001208D03*
X020948Y001205D03*
X020948Y001203D03*
X020950Y001200D03*
X020953Y001195D03*
X020880Y001303D03*
X020880Y001353D03*
X020785Y001390D03*
X020783Y001388D03*
X020713Y001438D03*
X020713Y001440D03*
X020715Y001443D03*
X020723Y001455D03*
X020663Y001520D03*
X020635Y001478D03*
X020633Y001473D03*
X020630Y001470D03*
X020630Y001468D03*
X020628Y001465D03*
X020625Y001460D03*
X020623Y001455D03*
X020620Y001450D03*
X020783Y001268D03*
X020785Y001265D03*
X020715Y001213D03*
X020713Y001215D03*
X020723Y001200D03*
X020643Y001165D03*
X020640Y001168D03*
X020638Y001173D03*
X020635Y001178D03*
X020633Y001180D03*
X020633Y001183D03*
X020630Y001185D03*
X020663Y001135D03*
X020703Y000668D03*
X020705Y000665D03*
X020715Y000648D03*
X020620Y000635D03*
X020620Y000633D03*
X020618Y000638D03*
X020615Y000643D03*
X020613Y000645D03*
X020613Y000648D03*
X020610Y000650D03*
D32*
X020714Y000635D03*
X020776Y000698D03*
X020776Y000858D03*
X020714Y000920D03*
X020651Y000983D03*
X020701Y001088D03*
X020661Y001123D03*
X020721Y001185D03*
X020784Y001248D03*
X020859Y001198D03*
X020796Y001135D03*
X020859Y000913D03*
X020921Y000850D03*
X020526Y001008D03*
X020526Y001010D03*
X020529Y001125D03*
X020416Y001198D03*
X020326Y001095D03*
X020324Y001090D03*
X020324Y001088D03*
X020324Y001085D03*
X020226Y001165D03*
X020226Y001168D03*
X020226Y001185D03*
X020226Y001188D03*
X020134Y001123D03*
X020041Y001090D03*
X020041Y001088D03*
X020041Y001085D03*
X019956Y001085D03*
X019956Y001088D03*
X019956Y001083D03*
X019956Y001080D03*
X019956Y001078D03*
X019956Y001075D03*
X019956Y001073D03*
X019956Y001070D03*
X019954Y001065D03*
X019954Y001063D03*
X019954Y001060D03*
X019951Y001058D03*
X019951Y001055D03*
X019949Y001053D03*
X019946Y001050D03*
X019919Y001030D03*
X019886Y001045D03*
X019954Y001095D03*
X019951Y001103D03*
X019946Y001110D03*
X019944Y001113D03*
X019781Y001130D03*
X019781Y001133D03*
X019781Y001135D03*
X019781Y001138D03*
X019779Y001148D03*
X019774Y001158D03*
X019771Y001160D03*
X019769Y001163D03*
X019689Y001023D03*
X019689Y001020D03*
X019689Y001018D03*
X019691Y001015D03*
X019691Y001013D03*
X019694Y001008D03*
X019696Y001005D03*
X019611Y001023D03*
X019611Y001025D03*
X019609Y001018D03*
X019609Y001015D03*
X019606Y001010D03*
X019604Y001008D03*
X019604Y001005D03*
X019601Y001003D03*
X019599Y001000D03*
X019596Y000998D03*
X019614Y001035D03*
X019614Y001070D03*
X019611Y001080D03*
X019611Y001083D03*
X019609Y001088D03*
X019609Y001090D03*
X019606Y001093D03*
X019606Y001095D03*
X019604Y001098D03*
X019601Y001103D03*
X019599Y001105D03*
X019596Y001108D03*
X019594Y001110D03*
X019521Y001108D03*
X019519Y001105D03*
X019516Y001103D03*
X019514Y001100D03*
X019514Y001098D03*
X019511Y001095D03*
X019511Y001093D03*
X019509Y001090D03*
X019509Y001088D03*
X019506Y001083D03*
X019506Y001080D03*
X019504Y001070D03*
X019504Y001035D03*
X019506Y001025D03*
X019506Y001023D03*
X019509Y001018D03*
X019509Y001015D03*
X019511Y001013D03*
X019511Y001010D03*
X019514Y001008D03*
X019514Y001005D03*
X019516Y001003D03*
X019519Y001000D03*
X019521Y000998D03*
X019524Y000995D03*
X019306Y000995D03*
X019856Y000965D03*
X019856Y000963D03*
X019876Y000928D03*
X019959Y000940D03*
X019961Y000943D03*
X019961Y000945D03*
X019961Y000948D03*
X020721Y001470D03*
X020661Y001533D03*
X020784Y001408D03*
D33*
X020784Y001405D03*
X020721Y001468D03*
X020661Y001530D03*
X020879Y001295D03*
X020784Y001250D03*
X020796Y001133D03*
X020661Y001125D03*
X020531Y001123D03*
X020524Y001000D03*
X020651Y000980D03*
X020714Y000918D03*
X020776Y000855D03*
X020859Y000915D03*
X020921Y000853D03*
X020796Y000978D03*
X020776Y000700D03*
X020714Y000638D03*
X019956Y000935D03*
X019954Y000933D03*
X019951Y000930D03*
X019941Y001045D03*
X019784Y000995D03*
X019704Y000998D03*
X019689Y001033D03*
X019689Y001035D03*
X019689Y001038D03*
X019589Y000993D03*
X019529Y000993D03*
X019426Y001038D03*
X019426Y001040D03*
X019429Y001045D03*
X019429Y001048D03*
X019431Y001053D03*
X019431Y001055D03*
X019431Y001058D03*
X019431Y001060D03*
X019434Y001065D03*
X019434Y001068D03*
X019434Y001070D03*
X019434Y001073D03*
X019434Y001075D03*
X019434Y001078D03*
X019434Y001080D03*
X019434Y001083D03*
X019434Y001085D03*
X019434Y001088D03*
X019434Y001090D03*
X019434Y001093D03*
X019434Y001095D03*
X019434Y001098D03*
X019431Y001103D03*
X019431Y001105D03*
X019431Y001108D03*
X019431Y001110D03*
X019429Y001115D03*
X019429Y001118D03*
X019426Y001123D03*
X019426Y001125D03*
X019424Y001130D03*
X019421Y001135D03*
X019419Y001140D03*
X019416Y001143D03*
X019416Y001145D03*
X019414Y001148D03*
X019411Y001150D03*
X019409Y001153D03*
X019406Y001155D03*
X019309Y001168D03*
X019424Y001033D03*
X019421Y001028D03*
X019419Y001025D03*
X019419Y001023D03*
X019416Y001020D03*
X019414Y001018D03*
X019411Y001013D03*
X019524Y001110D03*
X019529Y001113D03*
X019589Y001113D03*
X019779Y001123D03*
X020226Y001170D03*
X020226Y001173D03*
X020226Y001175D03*
X020226Y001178D03*
X020226Y001180D03*
X020226Y001183D03*
D34*
X020234Y001118D03*
X020346Y001125D03*
X020064Y001125D03*
X019949Y000928D03*
X019691Y001043D03*
X019761Y001168D03*
X019396Y001163D03*
X019399Y001003D03*
X020651Y000978D03*
X020714Y000915D03*
X020776Y000853D03*
X020759Y000803D03*
X020759Y000800D03*
X020759Y000755D03*
X020759Y000753D03*
X020776Y000703D03*
X020714Y000640D03*
X020669Y000760D03*
X020669Y000763D03*
X020669Y000765D03*
X020669Y000768D03*
X020669Y000770D03*
X020669Y000773D03*
X020669Y000775D03*
X020669Y000778D03*
X020669Y000780D03*
X020669Y000783D03*
X020669Y000785D03*
X020669Y000788D03*
X020669Y000790D03*
X020669Y000793D03*
X020669Y000795D03*
X020796Y000980D03*
X020814Y001035D03*
X020816Y001048D03*
X020816Y001053D03*
X020816Y001055D03*
X020814Y001073D03*
X020701Y001085D03*
X020661Y001128D03*
X020784Y001253D03*
X020986Y001103D03*
X020986Y001005D03*
X020859Y000918D03*
X020921Y000855D03*
X020784Y001403D03*
X020661Y001528D03*
D35*
X020661Y001525D03*
X020609Y001423D03*
X020601Y001400D03*
X020601Y001398D03*
X020599Y001393D03*
X020599Y001390D03*
X020596Y001380D03*
X020596Y001378D03*
X020594Y001358D03*
X020594Y001355D03*
X020594Y001298D03*
X020594Y001295D03*
X020594Y001293D03*
X020594Y001290D03*
X020594Y001288D03*
X020596Y001275D03*
X020596Y001273D03*
X020599Y001265D03*
X020599Y001263D03*
X020599Y001260D03*
X020601Y001258D03*
X020601Y001255D03*
X020601Y001253D03*
X020604Y001248D03*
X020604Y001245D03*
X020686Y001268D03*
X020686Y001270D03*
X020686Y001273D03*
X020684Y001278D03*
X020681Y001290D03*
X020679Y001305D03*
X020689Y001265D03*
X020689Y001263D03*
X020689Y001260D03*
X020691Y001255D03*
X020694Y001250D03*
X020771Y001290D03*
X020771Y001293D03*
X020769Y001295D03*
X020769Y001298D03*
X020774Y001285D03*
X020776Y001280D03*
X020786Y001258D03*
X020766Y001313D03*
X020766Y001343D03*
X020769Y001358D03*
X020769Y001360D03*
X020771Y001363D03*
X020771Y001365D03*
X020774Y001370D03*
X020776Y001375D03*
X020786Y001398D03*
X020694Y001405D03*
X020691Y001398D03*
X020689Y001395D03*
X020689Y001393D03*
X020689Y001390D03*
X020686Y001388D03*
X020686Y001385D03*
X020686Y001383D03*
X020684Y001378D03*
X020681Y001368D03*
X020681Y001365D03*
X020679Y001350D03*
X020424Y001193D03*
X020406Y001103D03*
X020661Y001130D03*
X020701Y001083D03*
X020794Y001125D03*
X020806Y001098D03*
X020809Y001093D03*
X020809Y001090D03*
X020811Y001088D03*
X020811Y001085D03*
X020811Y001025D03*
X020811Y001023D03*
X020811Y001020D03*
X020809Y001018D03*
X020809Y001015D03*
X020806Y001010D03*
X020891Y000988D03*
X020894Y000993D03*
X020894Y000995D03*
X020894Y000998D03*
X020896Y001000D03*
X020896Y001003D03*
X020899Y001010D03*
X020899Y001013D03*
X020899Y001015D03*
X020901Y001023D03*
X020901Y001025D03*
X020901Y001028D03*
X020901Y001030D03*
X020901Y001078D03*
X020901Y001080D03*
X020901Y001083D03*
X020901Y001085D03*
X020899Y001093D03*
X020899Y001095D03*
X020899Y001098D03*
X020896Y001105D03*
X020896Y001108D03*
X020894Y001113D03*
X020894Y001115D03*
X020891Y001120D03*
X020976Y001138D03*
X020976Y001140D03*
X020976Y001143D03*
X020974Y001148D03*
X020974Y001150D03*
X020969Y001163D03*
X020979Y001135D03*
X020979Y001133D03*
X020981Y001128D03*
X020981Y001125D03*
X020981Y001123D03*
X020984Y001118D03*
X020984Y001115D03*
X020984Y001113D03*
X020984Y001110D03*
X020989Y001085D03*
X020989Y001083D03*
X020989Y001025D03*
X020989Y001023D03*
X020989Y001020D03*
X020989Y001018D03*
X020989Y001015D03*
X020984Y000998D03*
X020984Y000995D03*
X020984Y000993D03*
X020984Y000990D03*
X020981Y000985D03*
X020981Y000983D03*
X020981Y000980D03*
X020979Y000978D03*
X020979Y000975D03*
X020979Y000973D03*
X020976Y000970D03*
X020976Y000968D03*
X020976Y000965D03*
X020974Y000958D03*
X020969Y000945D03*
X020921Y000858D03*
X020859Y000920D03*
X020776Y000850D03*
X020766Y000823D03*
X020764Y000818D03*
X020764Y000815D03*
X020761Y000813D03*
X020761Y000810D03*
X020756Y000793D03*
X020756Y000790D03*
X020756Y000765D03*
X020761Y000745D03*
X020761Y000743D03*
X020764Y000740D03*
X020764Y000738D03*
X020766Y000733D03*
X020776Y000705D03*
X020714Y000643D03*
X020684Y000703D03*
X020681Y000710D03*
X020681Y000713D03*
X020679Y000715D03*
X020679Y000718D03*
X020676Y000720D03*
X020676Y000723D03*
X020676Y000725D03*
X020674Y000733D03*
X020674Y000735D03*
X020671Y000750D03*
X020671Y000753D03*
X020671Y000805D03*
X020671Y000808D03*
X020671Y000810D03*
X020674Y000820D03*
X020674Y000823D03*
X020674Y000825D03*
X020676Y000830D03*
X020676Y000833D03*
X020676Y000835D03*
X020679Y000838D03*
X020679Y000840D03*
X020681Y000845D03*
X020681Y000848D03*
X020684Y000853D03*
X020714Y000913D03*
X020651Y000975D03*
X020596Y000873D03*
X020596Y000870D03*
X020594Y000863D03*
X020594Y000860D03*
X020591Y000855D03*
X020589Y000848D03*
X020589Y000845D03*
X020589Y000843D03*
X020586Y000840D03*
X020586Y000838D03*
X020586Y000835D03*
X020586Y000833D03*
X020586Y000830D03*
X020584Y000823D03*
X020584Y000820D03*
X020584Y000818D03*
X020584Y000815D03*
X020584Y000813D03*
X020584Y000810D03*
X020581Y000808D03*
X020581Y000805D03*
X020581Y000803D03*
X020581Y000800D03*
X020581Y000798D03*
X020581Y000795D03*
X020581Y000793D03*
X020581Y000790D03*
X020581Y000788D03*
X020581Y000785D03*
X020581Y000783D03*
X020581Y000780D03*
X020581Y000778D03*
X020581Y000775D03*
X020581Y000773D03*
X020581Y000770D03*
X020581Y000768D03*
X020581Y000765D03*
X020581Y000763D03*
X020581Y000760D03*
X020581Y000758D03*
X020581Y000755D03*
X020581Y000753D03*
X020581Y000750D03*
X020581Y000748D03*
X020584Y000735D03*
X020584Y000733D03*
X020584Y000730D03*
X020586Y000725D03*
X020586Y000723D03*
X020586Y000720D03*
X020586Y000718D03*
X020589Y000710D03*
X020589Y000708D03*
X020594Y000693D03*
X019926Y001005D03*
X019771Y001110D03*
X019769Y001108D03*
X019696Y001050D03*
X019391Y000998D03*
D36*
X020466Y000998D03*
X020714Y000938D03*
X020774Y000680D03*
D37*
X020870Y000760D03*
X020870Y000763D03*
X020870Y000765D03*
X020870Y000790D03*
X020870Y000793D03*
X020870Y000795D03*
X020700Y001035D03*
X020503Y000983D03*
X020320Y000990D03*
X020350Y001118D03*
X020068Y001118D03*
X020038Y000990D03*
X019860Y001108D03*
X019713Y001065D03*
X020880Y001310D03*
X020880Y001313D03*
X020880Y001345D03*
D38*
X020879Y001343D03*
X020879Y001340D03*
X020879Y001315D03*
X020701Y001070D03*
X020701Y001068D03*
X020701Y001065D03*
X020701Y001063D03*
X020701Y001045D03*
X020701Y001043D03*
X020701Y001040D03*
X020701Y001038D03*
X020416Y000990D03*
X020416Y000988D03*
X020416Y000985D03*
X020416Y000983D03*
X020416Y000980D03*
X020416Y000978D03*
X020321Y000978D03*
X020321Y000980D03*
X020321Y000983D03*
X020321Y000985D03*
X020321Y000988D03*
X020134Y000988D03*
X020134Y000990D03*
X020134Y000985D03*
X020134Y000983D03*
X020134Y000980D03*
X020134Y000978D03*
X020039Y000978D03*
X020039Y000980D03*
X020039Y000983D03*
X020039Y000985D03*
X020039Y000988D03*
X019919Y000915D03*
X019861Y001110D03*
X019754Y001095D03*
X020871Y000788D03*
X020871Y000770D03*
X020871Y000768D03*
D39*
X020870Y000773D03*
X020870Y000783D03*
X020870Y000785D03*
X020503Y000985D03*
X020503Y000988D03*
X020228Y000990D03*
X019915Y001038D03*
X019910Y001123D03*
X019863Y001113D03*
X019750Y001093D03*
X019715Y001068D03*
X019725Y001183D03*
X019558Y001123D03*
X019560Y000983D03*
X020880Y001318D03*
X020880Y001320D03*
X020880Y001323D03*
X020880Y001335D03*
X020880Y001338D03*
D40*
X020879Y001333D03*
X020879Y001330D03*
X020701Y001060D03*
X020701Y001058D03*
X020701Y001050D03*
X020701Y001048D03*
X020504Y000993D03*
X020504Y000990D03*
X020351Y001115D03*
X020226Y000988D03*
X020226Y000985D03*
X020226Y000983D03*
X020226Y000980D03*
X020226Y000978D03*
X020069Y001115D03*
X019914Y001000D03*
X019746Y001090D03*
X019719Y001070D03*
X020869Y000780D03*
X020871Y000775D03*
D41*
X020870Y000778D03*
X020700Y001053D03*
X020700Y001055D03*
X020505Y000995D03*
X020880Y001325D03*
X020880Y001328D03*
X019915Y001040D03*
X019883Y000980D03*
X019865Y001115D03*
X019743Y001088D03*
X019725Y001075D03*
X019723Y001073D03*
D42*
X020651Y000998D03*
X020661Y001108D03*
X020721Y001170D03*
X020859Y001213D03*
X020799Y000958D03*
X020921Y000835D03*
X020721Y001485D03*
X020661Y001548D03*
D43*
X020661Y001545D03*
X020721Y001483D03*
X020859Y001210D03*
X020721Y001173D03*
X020661Y001110D03*
X020651Y000995D03*
X020799Y000960D03*
X020774Y000873D03*
X020921Y000838D03*
X020226Y001155D03*
X020226Y001198D03*
D44*
X020219Y001128D03*
X020519Y001158D03*
X020519Y001160D03*
X020661Y001113D03*
X020701Y001093D03*
X020721Y001175D03*
X020859Y001208D03*
X020799Y000963D03*
X020774Y000870D03*
X020921Y000840D03*
X020651Y000993D03*
X020721Y001480D03*
X020661Y001543D03*
X019934Y001025D03*
X019936Y001020D03*
X019684Y001128D03*
D45*
X019684Y001130D03*
X019684Y001133D03*
X019684Y001135D03*
X019684Y001138D03*
X019684Y001140D03*
X019684Y001143D03*
X019794Y001038D03*
X019794Y001035D03*
X019794Y001033D03*
X019794Y001030D03*
X019794Y001028D03*
X019794Y001025D03*
X019939Y001015D03*
X020126Y001128D03*
X020226Y001158D03*
X020226Y001195D03*
X020409Y001203D03*
X020521Y001150D03*
X020521Y001148D03*
X020661Y001115D03*
X020721Y001178D03*
X020859Y001205D03*
X020879Y001290D03*
X020721Y001478D03*
X020661Y001540D03*
X020651Y000990D03*
X020799Y000965D03*
X020774Y000868D03*
X020921Y000843D03*
X019299Y001015D03*
X019299Y001018D03*
X019299Y001020D03*
X019299Y001023D03*
X019299Y001025D03*
X019299Y001138D03*
X019299Y001140D03*
X019299Y001143D03*
X019299Y001145D03*
X019299Y001148D03*
X019299Y001150D03*
D46*
X019301Y001163D03*
X019301Y001000D03*
X019686Y001160D03*
X019911Y001130D03*
X019939Y001010D03*
X019791Y001003D03*
X019791Y001000D03*
X020226Y001160D03*
X020226Y001193D03*
X020524Y001140D03*
X020524Y001138D03*
X020661Y001118D03*
X020701Y001090D03*
X020721Y001180D03*
X020796Y001140D03*
X020859Y001203D03*
X020784Y001243D03*
X020784Y001413D03*
X020721Y001475D03*
X020661Y001538D03*
X020651Y000988D03*
X020921Y000845D03*
D47*
X020860Y000895D03*
X020775Y000875D03*
X020783Y001230D03*
X020920Y001275D03*
X020783Y001425D03*
D48*
X019910Y000998D03*
X019918Y000918D03*
X019558Y001120D03*
X019345Y001183D03*
X019345Y000980D03*
D49*
X019559Y000988D03*
X019559Y001118D03*
X019906Y000995D03*
X019916Y000920D03*
D50*
X019916Y000923D03*
X019899Y000988D03*
X019724Y001175D03*
D51*
X019728Y001170D03*
X019750Y000988D03*
X019915Y000925D03*
D52*
X019751Y000980D03*
X019729Y001078D03*
X019731Y001080D03*
X019736Y001083D03*
X019739Y001085D03*
X019559Y000985D03*
D53*
X019746Y000993D03*
X019901Y000983D03*
X019346Y000988D03*
D54*
X019753Y000983D03*
X020513Y001118D03*
D55*
X020515Y001115D03*
X020515Y001113D03*
X020515Y001110D03*
X020515Y001108D03*
X020515Y001105D03*
X019903Y000990D03*
X019345Y000983D03*
D56*
X019753Y000985D03*
X019898Y000985D03*
X019725Y001173D03*
D57*
X019344Y001178D03*
X019344Y000985D03*
D58*
X019345Y001175D03*
X019748Y000990D03*
D59*
X019904Y000993D03*
X019559Y000990D03*
X019559Y001115D03*
X019724Y001178D03*
X019344Y001180D03*
D60*
X019348Y001173D03*
X019348Y000990D03*
X020373Y001113D03*
D61*
X020370Y001105D03*
X019350Y001170D03*
X019350Y000993D03*
D62*
X019915Y001043D03*
X020510Y001120D03*
D63*
X020098Y001105D03*
D64*
X020371Y001108D03*
X020371Y001110D03*
D65*
X020099Y001110D03*
X020099Y001108D03*
D66*
X020100Y001113D03*
D67*
X019890Y001118D03*
D68*
X019889Y001120D03*
D69*
X019724Y001180D03*
D70*
X020723Y001488D03*
D71*
X014600Y005070D03*
X014350Y004820D03*
X014100Y004570D03*
X014940Y005930D03*
X014350Y006080D03*
X014690Y006940D03*
X014630Y007270D03*
X015180Y007430D03*
X014630Y008030D03*
D72*
X014630Y008020D03*
X015180Y007420D03*
X014630Y007280D03*
X014690Y006930D03*
X014350Y006070D03*
X014940Y005940D03*
X014600Y005080D03*
X014350Y004830D03*
X014100Y004580D03*
X011230Y006450D03*
X011990Y006860D03*
X013120Y007160D03*
D73*
X012880Y006860D03*
X013580Y006950D03*
X013580Y006960D03*
X014300Y006400D03*
X014350Y006060D03*
X014940Y005950D03*
X014980Y005600D03*
X014980Y005300D03*
X014600Y005090D03*
X014350Y004840D03*
X014100Y004590D03*
X011250Y006410D03*
X011240Y006430D03*
X011750Y006860D03*
X014630Y007290D03*
X015180Y007410D03*
X015020Y007800D03*
X014630Y008010D03*
X014690Y006920D03*
X008690Y006880D03*
X008690Y006870D03*
X008690Y006860D03*
X008690Y006850D03*
X008690Y006490D03*
X008690Y006480D03*
X008690Y006470D03*
X008690Y006460D03*
X008690Y006450D03*
D74*
X008700Y006390D03*
X008700Y006380D03*
X008700Y006370D03*
X008700Y006360D03*
X008700Y006350D03*
X008700Y006950D03*
X008700Y006960D03*
X008700Y006970D03*
X008700Y006980D03*
X010240Y006970D03*
X010240Y006960D03*
X010240Y006950D03*
X010240Y006940D03*
X010240Y006930D03*
X010240Y006920D03*
X010670Y006430D03*
X010670Y006420D03*
X010670Y006410D03*
X010670Y006400D03*
X010670Y006390D03*
X010670Y006380D03*
X010670Y006370D03*
X010670Y006360D03*
X011250Y006390D03*
X012390Y006840D03*
X013590Y006910D03*
X013590Y006920D03*
X013540Y006240D03*
X014350Y006050D03*
X014600Y005800D03*
X014940Y005960D03*
X014690Y006210D03*
X014690Y006910D03*
X014630Y007300D03*
X015180Y007400D03*
X014630Y008000D03*
X014600Y005100D03*
X014350Y004850D03*
X014100Y004600D03*
D75*
X014100Y004610D03*
X014350Y004860D03*
X014600Y005110D03*
X014980Y005310D03*
X014980Y005590D03*
X014600Y005790D03*
X014350Y006040D03*
X014690Y006220D03*
X014940Y005970D03*
X013600Y006870D03*
X013600Y006880D03*
X013150Y007140D03*
X012020Y006840D03*
X011310Y006250D03*
X011300Y006260D03*
X010960Y006080D03*
X009740Y006240D03*
X008710Y006330D03*
X009730Y006860D03*
X010250Y006990D03*
X015180Y007390D03*
D76*
X015180Y007380D03*
X013610Y006750D03*
X013610Y006740D03*
X013610Y006730D03*
X013610Y006720D03*
X013610Y006710D03*
X013610Y006700D03*
X013610Y006690D03*
X013610Y006680D03*
X013610Y006670D03*
X013610Y006660D03*
X013610Y006650D03*
X013610Y006640D03*
X013610Y006630D03*
X013610Y006620D03*
X013610Y006610D03*
X013610Y006600D03*
X013610Y006590D03*
X013610Y006580D03*
X013610Y006570D03*
X013610Y006560D03*
X013610Y006550D03*
X013610Y006540D03*
X013610Y006530D03*
X013610Y006520D03*
X013610Y006510D03*
X013610Y006500D03*
X013610Y006490D03*
X013610Y006480D03*
X013610Y006470D03*
X013610Y006460D03*
X013610Y006450D03*
X013610Y006440D03*
X013610Y006430D03*
X013610Y006420D03*
X013610Y006410D03*
X013610Y006400D03*
X013610Y006390D03*
X013160Y006390D03*
X013160Y006400D03*
X013160Y006410D03*
X013160Y006420D03*
X013160Y006430D03*
X013160Y006440D03*
X013160Y006450D03*
X013160Y006460D03*
X013160Y006470D03*
X013160Y006480D03*
X013160Y006490D03*
X013160Y006500D03*
X013160Y006510D03*
X013160Y006520D03*
X013160Y006530D03*
X013160Y006540D03*
X013160Y006550D03*
X013160Y006560D03*
X013160Y006570D03*
X013160Y006580D03*
X013160Y006590D03*
X013160Y006600D03*
X013160Y006610D03*
X013160Y006620D03*
X013160Y006630D03*
X013160Y006640D03*
X013160Y006650D03*
X013160Y006660D03*
X013160Y006670D03*
X013160Y006680D03*
X013160Y006690D03*
X013160Y006700D03*
X013160Y006710D03*
X013160Y006720D03*
X013160Y006730D03*
X013160Y006800D03*
X013160Y006810D03*
X013160Y006820D03*
X013160Y006830D03*
X013160Y006840D03*
X013160Y006850D03*
X013160Y006860D03*
X013160Y006870D03*
X013160Y006880D03*
X013160Y006890D03*
X013160Y006900D03*
X013160Y006910D03*
X013160Y006920D03*
X013160Y006930D03*
X013160Y006940D03*
X013160Y006950D03*
X013160Y006960D03*
X013160Y006970D03*
X013160Y006980D03*
X013160Y006990D03*
X013160Y007000D03*
X013160Y007010D03*
X013160Y007020D03*
X013160Y007030D03*
X013160Y007040D03*
X013160Y007050D03*
X012880Y006850D03*
X012790Y006670D03*
X012790Y006660D03*
X012790Y006650D03*
X012790Y006640D03*
X012790Y006630D03*
X012790Y006620D03*
X012790Y006610D03*
X012790Y006600D03*
X012790Y006590D03*
X012790Y006580D03*
X012790Y006570D03*
X012790Y006560D03*
X012790Y006550D03*
X012790Y006540D03*
X012790Y006530D03*
X012790Y006520D03*
X012790Y006510D03*
X012790Y006500D03*
X012790Y006490D03*
X012790Y006480D03*
X012790Y006470D03*
X012790Y006460D03*
X012790Y006450D03*
X012790Y006440D03*
X012790Y006430D03*
X012790Y006420D03*
X012790Y006410D03*
X012790Y006400D03*
X012790Y006390D03*
X012790Y006380D03*
X012790Y006370D03*
X012790Y006360D03*
X012790Y006350D03*
X012790Y006340D03*
X012790Y006330D03*
X012790Y006320D03*
X012410Y006320D03*
X012410Y006330D03*
X012410Y006340D03*
X012410Y006350D03*
X012410Y006360D03*
X012410Y006370D03*
X012410Y006380D03*
X012410Y006390D03*
X012410Y006400D03*
X012410Y006410D03*
X012410Y006420D03*
X012410Y006430D03*
X012410Y006440D03*
X012410Y006450D03*
X012410Y006460D03*
X012410Y006470D03*
X012410Y006480D03*
X012410Y006490D03*
X012410Y006500D03*
X012410Y006510D03*
X012410Y006520D03*
X012410Y006530D03*
X012410Y006540D03*
X012410Y006550D03*
X012410Y006560D03*
X012410Y006570D03*
X012410Y006580D03*
X012410Y006590D03*
X012410Y006600D03*
X012410Y006610D03*
X012410Y006620D03*
X012410Y006630D03*
X012410Y006640D03*
X012410Y006650D03*
X012410Y006660D03*
X012410Y006670D03*
X012410Y006680D03*
X012410Y006690D03*
X012410Y006700D03*
X012410Y006710D03*
X012410Y006720D03*
X012410Y006730D03*
X012410Y006740D03*
X012410Y006750D03*
X012030Y006730D03*
X012030Y006720D03*
X012030Y006710D03*
X012030Y006700D03*
X012030Y006690D03*
X012030Y006680D03*
X012030Y006670D03*
X012030Y006660D03*
X012030Y006650D03*
X012030Y006640D03*
X012030Y006630D03*
X012030Y006620D03*
X012030Y006610D03*
X012030Y006600D03*
X012030Y006590D03*
X012030Y006580D03*
X012030Y006570D03*
X012030Y006560D03*
X012030Y006550D03*
X012030Y006540D03*
X012030Y006530D03*
X012030Y006520D03*
X012030Y006510D03*
X012030Y006500D03*
X012030Y006490D03*
X012030Y006480D03*
X012030Y006470D03*
X012030Y006460D03*
X012030Y006450D03*
X012030Y006440D03*
X012030Y006430D03*
X012030Y006420D03*
X012030Y006410D03*
X012030Y006400D03*
X012030Y006390D03*
X012030Y006380D03*
X012030Y006370D03*
X012030Y006360D03*
X012030Y006350D03*
X012030Y006340D03*
X012030Y006330D03*
X012030Y006320D03*
X011660Y006320D03*
X011660Y006330D03*
X011660Y006340D03*
X011660Y006350D03*
X011660Y006360D03*
X011660Y006370D03*
X011660Y006380D03*
X011660Y006390D03*
X011660Y006400D03*
X011660Y006410D03*
X011660Y006420D03*
X011660Y006430D03*
X011660Y006440D03*
X011660Y006450D03*
X011660Y006460D03*
X011660Y006470D03*
X011660Y006480D03*
X011660Y006490D03*
X011660Y006500D03*
X011660Y006510D03*
X011660Y006520D03*
X011660Y006530D03*
X011660Y006540D03*
X011660Y006550D03*
X011660Y006560D03*
X011660Y006570D03*
X011660Y006580D03*
X011660Y006590D03*
X011660Y006600D03*
X011660Y006610D03*
X011660Y006620D03*
X011660Y006630D03*
X011660Y006640D03*
X011660Y006650D03*
X011660Y006660D03*
X011660Y006670D03*
X011320Y006700D03*
X011320Y006710D03*
X011310Y006730D03*
X011310Y006740D03*
X011300Y006760D03*
X011290Y006770D03*
X011000Y006750D03*
X010990Y006730D03*
X010990Y006720D03*
X010980Y006700D03*
X010980Y006690D03*
X010980Y006680D03*
X010980Y006670D03*
X010980Y006660D03*
X010980Y006650D03*
X010980Y006640D03*
X010980Y006630D03*
X010980Y006620D03*
X010990Y006610D03*
X010990Y006600D03*
X010990Y006590D03*
X011000Y006570D03*
X011010Y006550D03*
X011020Y006540D03*
X011030Y006530D03*
X011240Y006370D03*
X011340Y006210D03*
X011340Y006200D03*
X011350Y006180D03*
X011350Y006170D03*
X011350Y006160D03*
X011350Y006150D03*
X011350Y006140D03*
X010920Y006160D03*
X010920Y006170D03*
X010920Y006180D03*
X010490Y006240D03*
X010270Y006380D03*
X009910Y006740D03*
X010600Y006960D03*
X010610Y006950D03*
X010610Y006940D03*
X010620Y006920D03*
X010620Y006910D03*
X010620Y006900D03*
X011750Y006850D03*
X013160Y006380D03*
X013160Y006370D03*
X013160Y006360D03*
X013160Y006350D03*
X013160Y006340D03*
X013160Y006330D03*
X013160Y006320D03*
X014690Y006230D03*
X014100Y004620D03*
X008890Y006240D03*
X008890Y007090D03*
D77*
X009180Y006890D03*
X009190Y006870D03*
X009200Y006850D03*
X009210Y006820D03*
X009220Y006790D03*
X009230Y006740D03*
X009230Y006590D03*
X009220Y006540D03*
X009210Y006510D03*
X009200Y006480D03*
X009190Y006460D03*
X009510Y006490D03*
X009510Y006500D03*
X009510Y006510D03*
X009510Y006520D03*
X009510Y006530D03*
X009510Y006540D03*
X009510Y006550D03*
X009510Y006560D03*
X009510Y006570D03*
X009510Y006580D03*
X009510Y006590D03*
X009510Y006600D03*
X009510Y006610D03*
X009520Y006630D03*
X009520Y006640D03*
X009520Y006650D03*
X009530Y006680D03*
X009520Y006470D03*
X009520Y006460D03*
X009520Y006450D03*
X009530Y006420D03*
X009880Y006320D03*
X009930Y006390D03*
X009940Y006420D03*
X009950Y006450D03*
X009950Y006460D03*
X009950Y006470D03*
X009960Y006490D03*
X009960Y006500D03*
X009960Y006510D03*
X009960Y006520D03*
X009960Y006530D03*
X009960Y006540D03*
X009960Y006550D03*
X009960Y006560D03*
X009960Y006570D03*
X009960Y006580D03*
X009960Y006590D03*
X009960Y006600D03*
X009960Y006610D03*
X009950Y006630D03*
X009950Y006640D03*
X009950Y006650D03*
X009940Y006680D03*
X010250Y006460D03*
X010250Y006450D03*
X010250Y006440D03*
X010290Y006350D03*
X010300Y006340D03*
X010930Y006210D03*
X011330Y006090D03*
X011660Y006310D03*
X012030Y006310D03*
X012410Y006310D03*
X012790Y006310D03*
X013160Y006310D03*
X013600Y006350D03*
X013600Y006360D03*
X013150Y006740D03*
X012810Y006730D03*
X012800Y006710D03*
X012420Y006820D03*
X012020Y006740D03*
X011680Y006730D03*
X011670Y006720D03*
X011670Y006710D03*
X011320Y006610D03*
X011280Y006530D03*
X011260Y006800D03*
X010620Y006840D03*
X010620Y006850D03*
X010560Y007000D03*
X010270Y007010D03*
X014300Y006420D03*
X014690Y006240D03*
X014980Y005580D03*
X014980Y005320D03*
X014100Y004630D03*
X014390Y007090D03*
X014930Y007120D03*
X015180Y007370D03*
X015020Y007780D03*
D78*
X015180Y007360D03*
X014930Y007110D03*
X014680Y006860D03*
X014390Y007100D03*
X013180Y007120D03*
X012820Y006740D03*
X012050Y006820D03*
X011690Y006740D03*
X010940Y006220D03*
X010260Y006500D03*
X010600Y006800D03*
X010610Y006810D03*
X010610Y006820D03*
X009150Y006400D03*
X009130Y006380D03*
X009120Y006370D03*
X009110Y006360D03*
X009110Y006970D03*
X009100Y006980D03*
X013530Y006250D03*
X014100Y004640D03*
X014390Y008200D03*
D79*
X014390Y008190D03*
X014640Y007940D03*
X014570Y007760D03*
X014570Y007750D03*
X014570Y007740D03*
X014570Y007730D03*
X014570Y007720D03*
X014560Y007700D03*
X014560Y007690D03*
X014560Y007680D03*
X014560Y007670D03*
X014560Y007660D03*
X014560Y007650D03*
X014560Y007640D03*
X014560Y007630D03*
X014560Y007620D03*
X014560Y007610D03*
X014560Y007600D03*
X014570Y007580D03*
X014570Y007570D03*
X014570Y007560D03*
X014570Y007550D03*
X014570Y007540D03*
X014640Y007360D03*
X014390Y007110D03*
X014240Y007440D03*
X014230Y007460D03*
X014230Y007470D03*
X014230Y007480D03*
X014230Y007490D03*
X014220Y007510D03*
X014220Y007520D03*
X014220Y007530D03*
X014220Y007540D03*
X014220Y007550D03*
X014210Y007570D03*
X014210Y007580D03*
X014210Y007590D03*
X014210Y007600D03*
X014210Y007610D03*
X014210Y007620D03*
X014210Y007630D03*
X014210Y007640D03*
X014210Y007650D03*
X014210Y007660D03*
X014210Y007670D03*
X014210Y007680D03*
X014210Y007690D03*
X014210Y007700D03*
X014210Y007710D03*
X014210Y007720D03*
X014210Y007730D03*
X014220Y007750D03*
X014220Y007760D03*
X014220Y007770D03*
X014220Y007780D03*
X014220Y007790D03*
X014230Y007820D03*
X014230Y007830D03*
X014230Y007840D03*
X014240Y007860D03*
X013880Y007840D03*
X013880Y007830D03*
X013880Y007820D03*
X013880Y007810D03*
X013880Y007800D03*
X013880Y007790D03*
X013880Y007780D03*
X013870Y007750D03*
X013870Y007740D03*
X013870Y007730D03*
X013870Y007720D03*
X013870Y007710D03*
X013870Y007700D03*
X013870Y007690D03*
X013870Y007680D03*
X013870Y007670D03*
X013870Y007660D03*
X013870Y007650D03*
X013870Y007640D03*
X013870Y007630D03*
X013870Y007620D03*
X013870Y007610D03*
X013870Y007600D03*
X013870Y007590D03*
X013870Y007580D03*
X013870Y007570D03*
X013870Y007560D03*
X013870Y007550D03*
X013870Y007540D03*
X013880Y007480D03*
X013880Y007470D03*
X013880Y007460D03*
X013880Y007450D03*
X014680Y006850D03*
X014750Y006670D03*
X014750Y006660D03*
X014750Y006650D03*
X014750Y006640D03*
X014760Y006620D03*
X014760Y006610D03*
X014760Y006600D03*
X014760Y006590D03*
X014770Y006580D03*
X014770Y006570D03*
X014770Y006540D03*
X014760Y006520D03*
X014760Y006510D03*
X014760Y006500D03*
X014760Y006490D03*
X014750Y006470D03*
X014750Y006460D03*
X014750Y006450D03*
X014680Y006270D03*
X014300Y006430D03*
X013580Y006330D03*
X012830Y006750D03*
X012060Y006810D03*
X012000Y006750D03*
X011700Y006750D03*
X011150Y006850D03*
X011160Y006470D03*
X010950Y006230D03*
X010340Y006320D03*
X010270Y006520D03*
X010280Y006530D03*
X010590Y006790D03*
X009730Y006850D03*
X009070Y007000D03*
X009080Y006340D03*
X009740Y006250D03*
X013840Y005650D03*
X013840Y005640D03*
X014190Y005610D03*
X014190Y005600D03*
X014190Y005590D03*
X014180Y005550D03*
X014180Y005540D03*
X014180Y005530D03*
X014200Y005650D03*
X014530Y005530D03*
X014530Y005520D03*
X014520Y005490D03*
X014520Y005480D03*
X014520Y005470D03*
X014520Y005460D03*
X014520Y005450D03*
X014520Y005440D03*
X014520Y005430D03*
X014520Y005420D03*
X014520Y005410D03*
X014530Y005390D03*
X014530Y005380D03*
X014530Y005370D03*
X014540Y005340D03*
X014540Y005330D03*
X014540Y005560D03*
X014540Y005570D03*
X014180Y005370D03*
X014180Y005360D03*
X014190Y005330D03*
X014190Y005320D03*
X014190Y005310D03*
X014190Y005300D03*
X014190Y005290D03*
X014200Y005260D03*
X014200Y005250D03*
X013840Y005250D03*
X014100Y004650D03*
X014980Y005330D03*
X014980Y005570D03*
X015430Y006290D03*
X015440Y006340D03*
X015440Y006350D03*
X015450Y006370D03*
X015450Y006380D03*
X015450Y006390D03*
X015460Y006450D03*
X015460Y006460D03*
X015460Y006470D03*
X015460Y006480D03*
X015460Y006490D03*
X015460Y006500D03*
X015460Y006510D03*
X015460Y006520D03*
X015460Y006530D03*
X015460Y006540D03*
X015460Y006550D03*
X015460Y006560D03*
X015460Y006570D03*
X015460Y006580D03*
X015460Y006590D03*
X015460Y006600D03*
X015460Y006610D03*
X015460Y006620D03*
X015460Y006630D03*
X015460Y006640D03*
X015460Y006650D03*
X015460Y006660D03*
X015450Y006690D03*
X015450Y006700D03*
X015450Y006710D03*
X015450Y006720D03*
X015450Y006730D03*
X015450Y006740D03*
X015440Y006760D03*
X015440Y006770D03*
X015430Y006820D03*
X015090Y006750D03*
X015090Y006740D03*
X015100Y006700D03*
X015100Y006690D03*
X015110Y006640D03*
X015110Y006630D03*
X015110Y006620D03*
X015110Y006610D03*
X015110Y006600D03*
X015110Y006590D03*
X015110Y006580D03*
X015110Y006570D03*
X015110Y006560D03*
X015110Y006550D03*
X015110Y006540D03*
X015110Y006530D03*
X015110Y006520D03*
X015110Y006510D03*
X015110Y006500D03*
X015110Y006490D03*
X015110Y006480D03*
X015110Y006470D03*
X015100Y006420D03*
X015100Y006410D03*
X015090Y006370D03*
X015090Y006360D03*
X014930Y007100D03*
X015180Y007350D03*
X015020Y007530D03*
X015020Y007770D03*
D80*
X015020Y007760D03*
X015020Y007540D03*
X015180Y007340D03*
X015320Y007100D03*
X015350Y007040D03*
X015360Y007030D03*
X015360Y007020D03*
X015370Y007010D03*
X015370Y007000D03*
X015380Y006980D03*
X015380Y006970D03*
X015390Y006960D03*
X015390Y006950D03*
X015400Y006920D03*
X015420Y006860D03*
X015080Y006780D03*
X015070Y006810D03*
X015060Y006830D03*
X015060Y006840D03*
X015050Y006850D03*
X015050Y006860D03*
X015050Y006870D03*
X015040Y006880D03*
X015030Y006900D03*
X015010Y006940D03*
X014930Y007090D03*
X014610Y007450D03*
X014600Y007470D03*
X014590Y007490D03*
X014590Y007810D03*
X014600Y007830D03*
X014610Y007850D03*
X014620Y007870D03*
X014310Y008030D03*
X014300Y008010D03*
X014290Y008000D03*
X014290Y007990D03*
X014280Y007980D03*
X014280Y007970D03*
X014270Y007950D03*
X014270Y007940D03*
X013940Y008040D03*
X013940Y008050D03*
X013950Y008080D03*
X013960Y008100D03*
X013930Y008020D03*
X013930Y008010D03*
X013920Y008000D03*
X013920Y007990D03*
X013920Y007980D03*
X013910Y007970D03*
X013910Y007960D03*
X013910Y007950D03*
X013900Y007920D03*
X013890Y007890D03*
X013890Y007880D03*
X013890Y007870D03*
X014390Y008180D03*
X014260Y007370D03*
X014270Y007350D03*
X014280Y007330D03*
X014280Y007320D03*
X014290Y007310D03*
X014290Y007300D03*
X014300Y007290D03*
X014310Y007270D03*
X014390Y007120D03*
X013970Y007170D03*
X013960Y007190D03*
X013960Y007200D03*
X013950Y007210D03*
X013950Y007220D03*
X013950Y007230D03*
X013940Y007240D03*
X013940Y007250D03*
X013930Y007260D03*
X013930Y007270D03*
X013930Y007280D03*
X013920Y007290D03*
X013920Y007300D03*
X013920Y007310D03*
X013910Y007340D03*
X013890Y007410D03*
X013890Y007420D03*
X014680Y006830D03*
X014710Y006760D03*
X014720Y006750D03*
X014720Y006740D03*
X014730Y006720D03*
X014730Y006390D03*
X014720Y006370D03*
X014680Y006280D03*
X014930Y006030D03*
X015020Y006180D03*
X015030Y006210D03*
X015040Y006230D03*
X015050Y006250D03*
X015050Y006260D03*
X015060Y006270D03*
X015060Y006280D03*
X015070Y006300D03*
X015400Y006190D03*
X015400Y006180D03*
X015390Y006160D03*
X015390Y006150D03*
X015380Y006140D03*
X015380Y006130D03*
X015370Y006110D03*
X015370Y006100D03*
X015360Y006090D03*
X015360Y006080D03*
X015350Y006070D03*
X015320Y006010D03*
X015180Y005780D03*
X014980Y005560D03*
X014980Y005340D03*
X014610Y005170D03*
X014590Y005220D03*
X014570Y005260D03*
X014560Y005280D03*
X014230Y005170D03*
X014230Y005160D03*
X014240Y005140D03*
X014240Y005130D03*
X014250Y005120D03*
X014250Y005110D03*
X014260Y005100D03*
X014270Y005080D03*
X014280Y005060D03*
X013910Y005010D03*
X013890Y005060D03*
X013880Y005080D03*
X013880Y005090D03*
X013880Y005100D03*
X013870Y005120D03*
X013870Y005130D03*
X013870Y005140D03*
X013860Y005150D03*
X013860Y005160D03*
X013850Y005190D03*
X013850Y005200D03*
X013830Y005290D03*
X013830Y005300D03*
X013830Y005310D03*
X013830Y005320D03*
X013860Y005740D03*
X013860Y005750D03*
X013870Y005770D03*
X013880Y005800D03*
X013880Y005810D03*
X013890Y005840D03*
X013900Y005860D03*
X013910Y005880D03*
X013910Y005890D03*
X013910Y005900D03*
X013920Y005910D03*
X013930Y005930D03*
X014240Y005770D03*
X014240Y005760D03*
X014250Y005780D03*
X014250Y005790D03*
X014260Y005800D03*
X014260Y005810D03*
X014270Y005820D03*
X014270Y005830D03*
X014280Y005840D03*
X014230Y005740D03*
X014220Y005710D03*
X014360Y005980D03*
X014610Y005730D03*
X014590Y005680D03*
X014580Y005660D03*
X014570Y005640D03*
X014560Y005620D03*
X014360Y004920D03*
X014100Y004660D03*
X014300Y006440D03*
X012890Y006830D03*
X012450Y006800D03*
X012450Y006790D03*
X012450Y006780D03*
X012450Y006770D03*
X012450Y006760D03*
X012070Y006800D03*
X011760Y006830D03*
X010970Y006240D03*
X010290Y006550D03*
D81*
X010295Y006560D03*
X010565Y006760D03*
X010405Y007080D03*
X009045Y007010D03*
X011175Y005990D03*
X013205Y007060D03*
X013205Y007070D03*
X013205Y007080D03*
X013205Y007090D03*
X013205Y007100D03*
X013965Y007180D03*
X013975Y007160D03*
X013985Y007150D03*
X013985Y007140D03*
X013995Y007130D03*
X013995Y007120D03*
X014005Y007110D03*
X014005Y007100D03*
X014015Y007090D03*
X014315Y007260D03*
X014325Y007250D03*
X014325Y007240D03*
X014335Y007230D03*
X014335Y007220D03*
X014345Y007210D03*
X014305Y007280D03*
X014395Y007130D03*
X014645Y007380D03*
X014645Y007390D03*
X014625Y007420D03*
X014615Y007430D03*
X014615Y007440D03*
X015175Y007330D03*
X015305Y007130D03*
X015315Y007110D03*
X015325Y007090D03*
X015335Y007080D03*
X015335Y007070D03*
X015345Y007060D03*
X015345Y007050D03*
X015025Y006920D03*
X015025Y006910D03*
X015015Y006930D03*
X015005Y006950D03*
X014995Y006970D03*
X015035Y006890D03*
X014705Y006770D03*
X014695Y006790D03*
X014305Y006660D03*
X014145Y006870D03*
X014705Y006350D03*
X014705Y006340D03*
X014715Y006360D03*
X014695Y006320D03*
X014675Y006290D03*
X014995Y006140D03*
X015005Y006160D03*
X015015Y006170D03*
X015025Y006190D03*
X015025Y006200D03*
X015035Y006220D03*
X015045Y006240D03*
X015345Y006060D03*
X015345Y006050D03*
X015335Y006040D03*
X015335Y006030D03*
X015325Y006020D03*
X015315Y006000D03*
X015305Y005990D03*
X014595Y005690D03*
X014585Y005670D03*
X014575Y005650D03*
X014285Y005850D03*
X014295Y005870D03*
X013965Y005990D03*
X013965Y006000D03*
X013955Y005980D03*
X013945Y005970D03*
X013945Y005960D03*
X013935Y005950D03*
X013935Y005940D03*
X013925Y005920D03*
X013905Y005870D03*
X013895Y005850D03*
X014105Y006230D03*
X013515Y006260D03*
X014575Y005250D03*
X014585Y005240D03*
X014585Y005230D03*
X014595Y005210D03*
X014605Y005200D03*
X014605Y005190D03*
X014605Y005180D03*
X014305Y005020D03*
X014295Y005030D03*
X014295Y005040D03*
X014285Y005050D03*
X014275Y005070D03*
X014265Y005090D03*
X013935Y004960D03*
X013935Y004950D03*
X013925Y004970D03*
X013925Y004980D03*
X013915Y004990D03*
X013915Y005000D03*
X013905Y005020D03*
X013905Y005030D03*
X013895Y005040D03*
X013895Y005050D03*
X013885Y005070D03*
X013965Y004900D03*
X014105Y004670D03*
X014615Y007860D03*
X014625Y007880D03*
X014645Y007910D03*
X014645Y007920D03*
X014335Y008070D03*
X014335Y008080D03*
X014325Y008060D03*
X014325Y008050D03*
X014315Y008040D03*
X014305Y008020D03*
X014395Y008170D03*
X014145Y008430D03*
X014005Y008190D03*
X013995Y008170D03*
X013985Y008150D03*
X013975Y008130D03*
X013965Y008120D03*
X013965Y008110D03*
X013955Y008090D03*
X013945Y008070D03*
X013945Y008060D03*
D82*
X014035Y008240D03*
X014045Y008260D03*
X014055Y008270D03*
X014055Y008280D03*
X014065Y008290D03*
X014145Y008410D03*
X014385Y008150D03*
X014385Y008140D03*
X014375Y008130D03*
X014365Y008120D03*
X015015Y007740D03*
X015185Y007310D03*
X015215Y007260D03*
X015225Y007250D03*
X015235Y007230D03*
X015245Y007220D03*
X015255Y007210D03*
X015275Y007180D03*
X014975Y007000D03*
X014965Y007010D03*
X014955Y007020D03*
X014935Y007060D03*
X014385Y007150D03*
X014385Y007160D03*
X014375Y007170D03*
X014365Y007180D03*
X014085Y006980D03*
X014075Y006990D03*
X014055Y007020D03*
X014045Y007040D03*
X014105Y006950D03*
X014115Y006940D03*
X014145Y006890D03*
X014305Y006650D03*
X014305Y006460D03*
X014105Y006210D03*
X014065Y006150D03*
X014045Y006120D03*
X014035Y006110D03*
X014025Y006100D03*
X014025Y006090D03*
X014015Y006080D03*
X014005Y006070D03*
X013995Y006050D03*
X014315Y005900D03*
X014325Y005910D03*
X014335Y005920D03*
X014345Y005940D03*
X014355Y005950D03*
X014355Y005960D03*
X014935Y006050D03*
X014935Y006060D03*
X014955Y006090D03*
X014965Y006100D03*
X014975Y006110D03*
X015285Y005950D03*
X015255Y005900D03*
X015245Y005890D03*
X015235Y005880D03*
X015225Y005860D03*
X015215Y005850D03*
X015185Y005800D03*
X014975Y005540D03*
X014985Y005360D03*
X014355Y004950D03*
X014355Y004940D03*
X014345Y004960D03*
X014335Y004980D03*
X014325Y004990D03*
X014015Y004820D03*
X014005Y004830D03*
X013995Y004840D03*
X013995Y004850D03*
X013985Y004860D03*
X014025Y004800D03*
X014105Y004680D03*
X012895Y006820D03*
X011765Y006820D03*
X011145Y006840D03*
X010555Y006750D03*
X010495Y006250D03*
X008885Y007080D03*
D83*
X009730Y006840D03*
X010320Y006580D03*
X010540Y006740D03*
X011160Y006480D03*
X009740Y006260D03*
X008890Y006250D03*
X014050Y006130D03*
X014060Y006140D03*
X014070Y006160D03*
X014080Y006170D03*
X014090Y006180D03*
X014100Y006200D03*
X014300Y006470D03*
X014140Y006900D03*
X014130Y006920D03*
X014120Y006930D03*
X014100Y006960D03*
X014090Y006970D03*
X014940Y007040D03*
X014940Y007050D03*
X014950Y007030D03*
X015230Y007240D03*
X015210Y007270D03*
X015200Y007280D03*
X015190Y007290D03*
X015190Y007300D03*
X015020Y007560D03*
X015020Y007570D03*
X015020Y007730D03*
X014100Y008340D03*
X014110Y008350D03*
X014090Y008320D03*
X014080Y008310D03*
X014070Y008300D03*
X014140Y008400D03*
X014950Y006080D03*
X014940Y006070D03*
X015230Y005870D03*
X015210Y005840D03*
X015200Y005830D03*
X015190Y005820D03*
X015190Y005810D03*
X014980Y005530D03*
X014980Y005370D03*
X014340Y004970D03*
X014050Y004770D03*
X014040Y004780D03*
X014030Y004790D03*
X014020Y004810D03*
X014060Y004750D03*
X014070Y004740D03*
X014100Y004690D03*
X014340Y005930D03*
D84*
X014095Y006190D03*
X014305Y006630D03*
X014305Y006640D03*
X014135Y006910D03*
X014095Y008330D03*
X014115Y008360D03*
X014125Y008370D03*
X014135Y008380D03*
X014135Y008390D03*
X010935Y006760D03*
X010525Y006730D03*
X010335Y006590D03*
X010995Y006250D03*
X011175Y006350D03*
X014055Y004760D03*
X014075Y004730D03*
X014085Y004720D03*
X014095Y004710D03*
X014095Y004700D03*
D85*
X014355Y004870D03*
X014605Y005120D03*
X014605Y005780D03*
X014355Y006030D03*
X014105Y006280D03*
X014295Y006410D03*
X014145Y006820D03*
X014385Y007070D03*
X014685Y006890D03*
X014935Y007140D03*
X014635Y007320D03*
X015015Y007510D03*
X015015Y007790D03*
X014635Y007980D03*
X014385Y008230D03*
X014145Y008480D03*
X012405Y007100D03*
X012405Y006990D03*
X012405Y006830D03*
X013605Y006850D03*
X013605Y006860D03*
X014935Y005980D03*
X015185Y005730D03*
X011345Y006190D03*
X011335Y006220D03*
X011325Y006230D03*
X011315Y006240D03*
X011175Y005980D03*
X010985Y006060D03*
X010975Y006070D03*
X010955Y006090D03*
X010945Y006100D03*
X010935Y006110D03*
X010935Y006120D03*
X010925Y006130D03*
X010925Y006140D03*
X010925Y006150D03*
X010655Y006330D03*
X011005Y006560D03*
X010995Y006580D03*
X010985Y006710D03*
X010995Y006740D03*
X010415Y007090D03*
X010255Y007000D03*
X008715Y007000D03*
D86*
X009040Y006320D03*
X010310Y006570D03*
X013970Y006010D03*
X013980Y006020D03*
X013980Y006030D03*
X013990Y006040D03*
X014000Y006060D03*
X014300Y005880D03*
X014310Y005890D03*
X014290Y005860D03*
X014360Y005970D03*
X014110Y006220D03*
X014300Y006450D03*
X014680Y006300D03*
X014690Y006310D03*
X014700Y006330D03*
X015000Y006150D03*
X014990Y006130D03*
X014980Y006120D03*
X014930Y006040D03*
X015180Y005790D03*
X015260Y005910D03*
X015270Y005920D03*
X015270Y005930D03*
X015280Y005940D03*
X015290Y005960D03*
X015300Y005970D03*
X015300Y005980D03*
X014610Y005720D03*
X014610Y005710D03*
X014600Y005700D03*
X014980Y005550D03*
X014980Y005350D03*
X014320Y005000D03*
X014310Y005010D03*
X014360Y004930D03*
X013980Y004880D03*
X013980Y004870D03*
X013970Y004890D03*
X013960Y004910D03*
X013950Y004920D03*
X013950Y004930D03*
X013940Y004940D03*
X014700Y006780D03*
X014690Y006800D03*
X014680Y006810D03*
X014680Y006820D03*
X014980Y006990D03*
X014990Y006980D03*
X015000Y006960D03*
X014930Y007070D03*
X014930Y007080D03*
X015180Y007320D03*
X015260Y007200D03*
X015270Y007190D03*
X015280Y007170D03*
X015290Y007160D03*
X015290Y007150D03*
X015300Y007140D03*
X015310Y007120D03*
X015020Y007550D03*
X015020Y007750D03*
X014640Y007900D03*
X014630Y007890D03*
X014350Y008090D03*
X014350Y008100D03*
X014360Y008110D03*
X014390Y008160D03*
X014150Y008420D03*
X014040Y008250D03*
X014030Y008230D03*
X014020Y008220D03*
X014020Y008210D03*
X014010Y008200D03*
X014000Y008180D03*
X013990Y008160D03*
X013980Y008140D03*
X014630Y007410D03*
X014640Y007400D03*
X014360Y007190D03*
X014350Y007200D03*
X014390Y007140D03*
X014070Y007000D03*
X014060Y007010D03*
X014050Y007030D03*
X014040Y007050D03*
X014030Y007060D03*
X014030Y007070D03*
X014020Y007080D03*
X014150Y006880D03*
D87*
X014145Y006830D03*
X014305Y006690D03*
X014685Y006880D03*
X014385Y007080D03*
X014635Y007330D03*
X014935Y007130D03*
X013615Y006840D03*
X013165Y007130D03*
X012805Y006720D03*
X012795Y006700D03*
X012795Y006690D03*
X012795Y006680D03*
X012405Y007000D03*
X012405Y007010D03*
X012405Y007080D03*
X012405Y007090D03*
X012035Y006830D03*
X011665Y006700D03*
X011665Y006690D03*
X011665Y006680D03*
X011325Y006680D03*
X011325Y006690D03*
X011325Y006670D03*
X011325Y006660D03*
X011325Y006650D03*
X011325Y006640D03*
X011325Y006630D03*
X011325Y006620D03*
X011315Y006600D03*
X011315Y006590D03*
X011315Y006580D03*
X011305Y006570D03*
X011305Y006560D03*
X011295Y006550D03*
X011285Y006540D03*
X011175Y006460D03*
X011045Y006520D03*
X011315Y006720D03*
X011305Y006750D03*
X011285Y006780D03*
X011275Y006790D03*
X010625Y006860D03*
X010625Y006870D03*
X010625Y006880D03*
X010625Y006890D03*
X010615Y006930D03*
X010595Y006970D03*
X010585Y006980D03*
X010575Y006990D03*
X009935Y006700D03*
X009935Y006690D03*
X009945Y006670D03*
X009945Y006660D03*
X009955Y006620D03*
X009925Y006710D03*
X009925Y006720D03*
X009915Y006730D03*
X009905Y006750D03*
X009895Y006760D03*
X009885Y006770D03*
X009875Y006780D03*
X009585Y006770D03*
X009575Y006760D03*
X009565Y006750D03*
X009555Y006740D03*
X009555Y006730D03*
X009545Y006720D03*
X009545Y006710D03*
X009535Y006700D03*
X009535Y006690D03*
X009525Y006670D03*
X009525Y006660D03*
X009515Y006620D03*
X009515Y006480D03*
X009525Y006440D03*
X009525Y006430D03*
X009535Y006410D03*
X009535Y006400D03*
X009545Y006390D03*
X009545Y006380D03*
X009555Y006370D03*
X009555Y006360D03*
X009565Y006350D03*
X009575Y006340D03*
X009585Y006330D03*
X009595Y006320D03*
X009885Y006330D03*
X009895Y006340D03*
X009905Y006350D03*
X009915Y006360D03*
X009915Y006370D03*
X009925Y006380D03*
X009935Y006400D03*
X009935Y006410D03*
X009945Y006430D03*
X009945Y006440D03*
X009955Y006480D03*
X010255Y006430D03*
X010255Y006420D03*
X010255Y006410D03*
X010265Y006400D03*
X010265Y006390D03*
X010275Y006370D03*
X010285Y006360D03*
X010925Y006200D03*
X010925Y006190D03*
X011005Y006050D03*
X011335Y006100D03*
X011345Y006110D03*
X011345Y006120D03*
X011345Y006130D03*
X013605Y006370D03*
X013605Y006380D03*
X014105Y006270D03*
X014355Y006020D03*
X014605Y005770D03*
X014935Y005990D03*
X015185Y005740D03*
X014605Y005130D03*
X014355Y004880D03*
X014635Y007970D03*
X014385Y008220D03*
X014145Y008470D03*
X008725Y006320D03*
D88*
X009145Y006390D03*
X009155Y006410D03*
X009165Y006420D03*
X009175Y006430D03*
X009175Y006440D03*
X009185Y006450D03*
X009195Y006470D03*
X009205Y006490D03*
X009205Y006500D03*
X009215Y006520D03*
X009215Y006530D03*
X009225Y006550D03*
X009225Y006560D03*
X009225Y006570D03*
X009225Y006580D03*
X009235Y006600D03*
X009235Y006610D03*
X009235Y006620D03*
X009235Y006630D03*
X009235Y006640D03*
X009235Y006650D03*
X009235Y006660D03*
X009235Y006670D03*
X009235Y006680D03*
X009235Y006690D03*
X009235Y006700D03*
X009235Y006710D03*
X009235Y006720D03*
X009235Y006730D03*
X009225Y006750D03*
X009225Y006760D03*
X009225Y006770D03*
X009225Y006780D03*
X009215Y006800D03*
X009215Y006810D03*
X009205Y006830D03*
X009205Y006840D03*
X009195Y006860D03*
X009185Y006880D03*
X009175Y006900D03*
X009165Y006910D03*
X009165Y006920D03*
X009155Y006930D03*
X009145Y006940D03*
X009135Y006950D03*
X009125Y006960D03*
X008735Y007010D03*
X009595Y006780D03*
X009615Y006790D03*
X009855Y006790D03*
X010255Y006490D03*
X010255Y006480D03*
X010255Y006470D03*
X010315Y006330D03*
X010635Y006320D03*
X011265Y006520D03*
X011325Y006080D03*
X011315Y006070D03*
X011305Y006060D03*
X010615Y006830D03*
X009855Y006310D03*
X009615Y006310D03*
X012405Y007020D03*
X012405Y007030D03*
X012405Y007040D03*
X012405Y007050D03*
X012405Y007060D03*
X012405Y007070D03*
X013625Y006830D03*
X013595Y006340D03*
X014105Y006260D03*
X014355Y006010D03*
X014605Y005760D03*
X014935Y006000D03*
X014685Y006250D03*
X015185Y005750D03*
X014605Y005140D03*
X014355Y004890D03*
X014145Y006840D03*
X014685Y006870D03*
X014635Y007340D03*
X015015Y007520D03*
X014635Y007960D03*
X014385Y008210D03*
X014145Y008460D03*
D89*
X014145Y008450D03*
X014635Y007950D03*
X014635Y007350D03*
X014145Y006850D03*
X014305Y006680D03*
X014755Y006630D03*
X014765Y006560D03*
X014765Y006550D03*
X014765Y006530D03*
X014755Y006480D03*
X014685Y006260D03*
X014935Y006010D03*
X015185Y005760D03*
X014605Y005750D03*
X014535Y005550D03*
X014535Y005540D03*
X014535Y005360D03*
X014535Y005350D03*
X014605Y005150D03*
X014355Y004900D03*
X014175Y005380D03*
X014175Y005390D03*
X014175Y005400D03*
X014175Y005410D03*
X014175Y005420D03*
X014175Y005430D03*
X014175Y005440D03*
X014175Y005450D03*
X014175Y005460D03*
X014175Y005470D03*
X014175Y005480D03*
X014175Y005490D03*
X014175Y005500D03*
X014175Y005510D03*
X014175Y005520D03*
X014355Y006000D03*
X014105Y006250D03*
X015445Y006360D03*
X015445Y006750D03*
X012885Y006840D03*
X012435Y006810D03*
X011755Y006840D03*
X010545Y007010D03*
X010265Y006510D03*
X011295Y006050D03*
X009095Y006350D03*
X009085Y006990D03*
D90*
X009065Y006330D03*
X010285Y006540D03*
X010575Y006770D03*
X010585Y006780D03*
X011205Y006360D03*
X013125Y006750D03*
X013195Y007110D03*
X013875Y007490D03*
X013875Y007500D03*
X013875Y007510D03*
X013875Y007520D03*
X013875Y007530D03*
X013885Y007440D03*
X013885Y007430D03*
X013895Y007400D03*
X013895Y007390D03*
X013895Y007380D03*
X013905Y007370D03*
X013905Y007360D03*
X013905Y007350D03*
X013915Y007330D03*
X013915Y007320D03*
X014245Y007410D03*
X014245Y007420D03*
X014245Y007430D03*
X014235Y007450D03*
X014225Y007500D03*
X014215Y007560D03*
X014255Y007400D03*
X014255Y007390D03*
X014255Y007380D03*
X014265Y007360D03*
X014275Y007340D03*
X014585Y007500D03*
X014585Y007510D03*
X014575Y007520D03*
X014575Y007530D03*
X014595Y007480D03*
X014605Y007460D03*
X014645Y007370D03*
X014565Y007590D03*
X014565Y007710D03*
X014575Y007770D03*
X014575Y007780D03*
X014585Y007790D03*
X014585Y007800D03*
X014595Y007820D03*
X014605Y007840D03*
X014645Y007930D03*
X014275Y007960D03*
X014265Y007930D03*
X014255Y007920D03*
X014255Y007910D03*
X014255Y007900D03*
X014245Y007890D03*
X014245Y007880D03*
X014245Y007870D03*
X014235Y007850D03*
X014225Y007810D03*
X014225Y007800D03*
X014215Y007740D03*
X013885Y007850D03*
X013885Y007860D03*
X013895Y007900D03*
X013895Y007910D03*
X013905Y007930D03*
X013905Y007940D03*
X013935Y008030D03*
X013875Y007770D03*
X013875Y007760D03*
X014145Y008440D03*
X015375Y006990D03*
X015395Y006940D03*
X015395Y006930D03*
X015405Y006910D03*
X015405Y006900D03*
X015405Y006890D03*
X015415Y006880D03*
X015415Y006870D03*
X015425Y006850D03*
X015425Y006840D03*
X015425Y006830D03*
X015435Y006810D03*
X015435Y006800D03*
X015435Y006790D03*
X015435Y006780D03*
X015455Y006680D03*
X015455Y006670D03*
X015455Y006440D03*
X015455Y006430D03*
X015455Y006420D03*
X015455Y006410D03*
X015455Y006400D03*
X015435Y006330D03*
X015435Y006320D03*
X015435Y006310D03*
X015435Y006300D03*
X015425Y006280D03*
X015425Y006270D03*
X015425Y006260D03*
X015415Y006250D03*
X015415Y006240D03*
X015415Y006230D03*
X015405Y006220D03*
X015405Y006210D03*
X015405Y006200D03*
X015395Y006170D03*
X015375Y006120D03*
X015065Y006290D03*
X015075Y006310D03*
X015075Y006320D03*
X015075Y006330D03*
X015085Y006340D03*
X015085Y006350D03*
X015095Y006380D03*
X015095Y006390D03*
X015095Y006400D03*
X015105Y006430D03*
X015105Y006440D03*
X015105Y006450D03*
X015105Y006460D03*
X015105Y006650D03*
X015105Y006660D03*
X015105Y006670D03*
X015105Y006680D03*
X015095Y006710D03*
X015095Y006720D03*
X015095Y006730D03*
X015085Y006760D03*
X015085Y006770D03*
X015075Y006790D03*
X015075Y006800D03*
X015065Y006820D03*
X014745Y006690D03*
X014745Y006680D03*
X014735Y006700D03*
X014735Y006710D03*
X014725Y006730D03*
X014675Y006840D03*
X014305Y006670D03*
X014145Y006860D03*
X014745Y006440D03*
X014745Y006430D03*
X014745Y006420D03*
X014735Y006410D03*
X014735Y006400D03*
X014725Y006380D03*
X014105Y006240D03*
X014355Y005990D03*
X014235Y005750D03*
X014225Y005730D03*
X014225Y005720D03*
X014215Y005700D03*
X014215Y005690D03*
X014205Y005680D03*
X014205Y005670D03*
X014205Y005660D03*
X014195Y005640D03*
X014195Y005630D03*
X014195Y005620D03*
X014185Y005580D03*
X014185Y005570D03*
X014185Y005560D03*
X014185Y005350D03*
X014185Y005340D03*
X014195Y005280D03*
X014195Y005270D03*
X014205Y005240D03*
X014205Y005230D03*
X014205Y005220D03*
X014215Y005210D03*
X014215Y005200D03*
X014225Y005190D03*
X014225Y005180D03*
X014235Y005150D03*
X014355Y004910D03*
X014605Y005160D03*
X014565Y005270D03*
X014555Y005290D03*
X014555Y005300D03*
X014545Y005310D03*
X014545Y005320D03*
X014525Y005400D03*
X014525Y005500D03*
X014525Y005510D03*
X014545Y005580D03*
X014545Y005590D03*
X014555Y005600D03*
X014555Y005610D03*
X014565Y005630D03*
X014605Y005740D03*
X014935Y006020D03*
X015185Y005770D03*
X013885Y005820D03*
X013885Y005830D03*
X013875Y005790D03*
X013875Y005780D03*
X013865Y005760D03*
X013855Y005730D03*
X013855Y005720D03*
X013855Y005710D03*
X013845Y005700D03*
X013845Y005690D03*
X013845Y005680D03*
X013845Y005670D03*
X013845Y005660D03*
X013835Y005630D03*
X013835Y005620D03*
X013835Y005610D03*
X013835Y005600D03*
X013835Y005590D03*
X013835Y005580D03*
X013825Y005570D03*
X013825Y005560D03*
X013825Y005550D03*
X013825Y005540D03*
X013825Y005530D03*
X013825Y005520D03*
X013825Y005510D03*
X013825Y005500D03*
X013825Y005490D03*
X013825Y005480D03*
X013825Y005470D03*
X013825Y005460D03*
X013825Y005450D03*
X013825Y005440D03*
X013825Y005430D03*
X013825Y005420D03*
X013825Y005410D03*
X013825Y005400D03*
X013825Y005390D03*
X013825Y005380D03*
X013825Y005370D03*
X013825Y005360D03*
X013825Y005350D03*
X013825Y005340D03*
X013825Y005330D03*
X013835Y005280D03*
X013835Y005270D03*
X013835Y005260D03*
X013845Y005240D03*
X013845Y005230D03*
X013845Y005220D03*
X013845Y005210D03*
X013855Y005180D03*
X013855Y005170D03*
X013875Y005110D03*
D91*
X014595Y005060D03*
X014355Y006090D03*
X013365Y006330D03*
D92*
X013510Y006270D03*
X014300Y006480D03*
X012900Y006810D03*
X012780Y006300D03*
X011770Y006810D03*
X011650Y006300D03*
X010940Y006770D03*
X010350Y006600D03*
X014980Y005520D03*
X014980Y005510D03*
X014980Y005500D03*
X014980Y005400D03*
X014980Y005390D03*
X014980Y005380D03*
X015020Y007580D03*
X015020Y007590D03*
X015020Y007720D03*
D93*
X015015Y007710D03*
X015015Y007700D03*
X015015Y007600D03*
X014305Y006620D03*
X014305Y006610D03*
X014305Y006600D03*
X014305Y006590D03*
X014305Y006520D03*
X014305Y006510D03*
X014305Y006500D03*
X014305Y006490D03*
X013165Y006300D03*
X013165Y006290D03*
X013165Y006280D03*
X013165Y006270D03*
X013165Y006260D03*
X013165Y006250D03*
X012785Y006250D03*
X012785Y006260D03*
X012785Y006270D03*
X012785Y006280D03*
X012785Y006290D03*
X012035Y006290D03*
X012035Y006300D03*
X012035Y006280D03*
X012035Y006270D03*
X012035Y006260D03*
X012035Y006250D03*
X011655Y006250D03*
X011655Y006260D03*
X011655Y006270D03*
X011655Y006280D03*
X011655Y006290D03*
X011175Y006000D03*
X010945Y006780D03*
X010515Y006720D03*
X014985Y005490D03*
X014985Y005420D03*
X014985Y005410D03*
D94*
X014980Y005430D03*
X014980Y005470D03*
X014980Y005480D03*
X013510Y006280D03*
X013510Y006290D03*
X012410Y006300D03*
X011160Y006490D03*
X011140Y006830D03*
X010950Y006790D03*
X010500Y006710D03*
X010360Y006610D03*
X010400Y007070D03*
X009730Y006830D03*
X009740Y006270D03*
X015020Y007610D03*
X015020Y007620D03*
X015020Y007630D03*
X015020Y007680D03*
X015020Y007690D03*
D95*
X015015Y007670D03*
X015015Y007660D03*
X014305Y006580D03*
X014305Y006570D03*
X014305Y006540D03*
X014305Y006530D03*
X013515Y006310D03*
X013515Y006300D03*
X012905Y006800D03*
X012405Y006290D03*
X012405Y006280D03*
X012405Y006270D03*
X012405Y006260D03*
X012405Y006250D03*
X011775Y006800D03*
X011155Y006340D03*
X010485Y006700D03*
X010375Y006620D03*
X014975Y005460D03*
X014985Y005440D03*
D96*
X014980Y005450D03*
X013520Y006320D03*
X014300Y006550D03*
X014300Y006560D03*
X015020Y007640D03*
X015020Y007650D03*
X011160Y006500D03*
X011030Y006260D03*
X010470Y006690D03*
X010400Y006640D03*
X010390Y006630D03*
X010960Y006800D03*
D97*
X014105Y006330D03*
X014695Y006170D03*
X015185Y005680D03*
X014145Y006770D03*
X014385Y007020D03*
X014935Y007190D03*
X014385Y008280D03*
X014145Y008530D03*
D98*
X014145Y008520D03*
X014385Y008270D03*
X014935Y007180D03*
X014385Y007030D03*
X014145Y006780D03*
X014105Y006320D03*
X014695Y006180D03*
X014595Y005830D03*
X015185Y005690D03*
X012405Y006960D03*
X012405Y007130D03*
D99*
X012375Y006850D03*
X013575Y006970D03*
X013575Y006980D03*
X014145Y006790D03*
X014305Y006710D03*
X014385Y007040D03*
X014935Y007170D03*
X014105Y006310D03*
X014695Y006190D03*
X014595Y005820D03*
X015185Y005700D03*
X011245Y006420D03*
X011235Y006440D03*
X010235Y006850D03*
X014145Y008510D03*
X014385Y008260D03*
D100*
X014385Y008250D03*
X014145Y008500D03*
X015015Y007500D03*
X014935Y007160D03*
X014385Y007050D03*
X014145Y006800D03*
X013585Y006930D03*
X013585Y006940D03*
X013135Y007150D03*
X012405Y007120D03*
X012405Y006970D03*
X012005Y006850D03*
X011255Y006400D03*
X010675Y006440D03*
X010675Y006450D03*
X010675Y006460D03*
X010675Y006470D03*
X010675Y006480D03*
X010675Y006490D03*
X010235Y006860D03*
X010235Y006870D03*
X010235Y006880D03*
X010235Y006890D03*
X010235Y006900D03*
X010235Y006910D03*
X008695Y006910D03*
X008695Y006920D03*
X008695Y006930D03*
X008695Y006940D03*
X008695Y006900D03*
X008695Y006890D03*
X008695Y006440D03*
X008695Y006430D03*
X008695Y006420D03*
X008695Y006410D03*
X008695Y006400D03*
X014105Y006300D03*
X014695Y006200D03*
X014595Y005810D03*
X015185Y005710D03*
D101*
X015185Y005720D03*
X014105Y006290D03*
X014305Y006700D03*
X014145Y006810D03*
X014385Y007060D03*
X014685Y006900D03*
X014935Y007150D03*
X014635Y007310D03*
X013595Y006900D03*
X013595Y006890D03*
X012405Y006980D03*
X012405Y007110D03*
X011145Y006860D03*
X011255Y006380D03*
X010665Y006350D03*
X010665Y006340D03*
X010245Y006980D03*
X008705Y006990D03*
X008705Y006340D03*
X014145Y008490D03*
X014385Y008240D03*
X014635Y007990D03*
D102*
X014630Y008040D03*
X015180Y007440D03*
X014630Y007260D03*
X014940Y005920D03*
X014600Y005840D03*
D103*
X011170Y006010D03*
X011140Y006330D03*
X009730Y006820D03*
X008880Y007070D03*
X008880Y006260D03*
D104*
X009735Y006290D03*
X009735Y006810D03*
X011125Y006320D03*
X011165Y006020D03*
D105*
X011165Y006030D03*
X011095Y006290D03*
X010395Y007040D03*
D106*
X010410Y007020D03*
X010500Y006290D03*
X011160Y006040D03*
D107*
X010505Y006260D03*
X010415Y006650D03*
X010425Y006660D03*
X010445Y006670D03*
X010455Y006680D03*
X009735Y006280D03*
D108*
X010485Y006310D03*
X011105Y006270D03*
X008885Y006290D03*
D109*
X010510Y006270D03*
X013550Y006810D03*
D110*
X013560Y006800D03*
X013560Y006790D03*
X013560Y006780D03*
X013560Y006770D03*
X013560Y006760D03*
X011110Y006300D03*
X008880Y006270D03*
D111*
X010400Y007030D03*
X010510Y006280D03*
X011090Y006280D03*
D112*
X008875Y006280D03*
X008875Y007050D03*
D113*
X008880Y007040D03*
X010490Y006300D03*
D114*
X011115Y006310D03*
X010395Y007050D03*
X009735Y006800D03*
X009735Y006300D03*
X008875Y007060D03*
D115*
X008890Y007030D03*
X008890Y006300D03*
X012990Y006790D03*
D116*
X012980Y006760D03*
X008900Y007020D03*
X008900Y006310D03*
D117*
X011160Y006510D03*
X013540Y006820D03*
D118*
X011890Y006760D03*
D119*
X012985Y006770D03*
X012985Y006780D03*
D120*
X011895Y006780D03*
X011895Y006770D03*
D121*
X011900Y006790D03*
D122*
X011060Y006810D03*
D123*
X011055Y006820D03*
D124*
X010395Y007060D03*
D125*
X014390Y008290D03*
M02*
