%
M48
M72
T01C0.0140
T02C0.0400
T03C0.0787
%
T01
X4200Y2650
X4700Y1050
X6200Y4450
X5600Y4850
X4100Y5750
X7700Y4850
X8000Y5250
X9900Y4450
X10900Y4850
X10600Y5750
X10300Y6150
X10900Y7250
X10200Y7650
X8300Y6950
X7800Y7650
X11500Y9250
X12200Y9250
X12700Y9250
X13500Y9250
X14700Y9250
X14800Y8785
X16300Y9450
X17400Y10350
X18700Y10750
X17900Y11750
X16000Y10750
X20900Y10350
X15400Y7550
X14800Y6650
X12800Y6350
X12500Y6050
X12500Y6750
X12200Y7050
X14200Y4650
X18900Y1550
T02
X18900Y2650
X19900Y2650
X20900Y2650
X20900Y3650
X19900Y3650
X18900Y3650
X18900Y4650
X19900Y4650
X20900Y4650
X20900Y5650
X19900Y5650
X18900Y5650
X18900Y6650
X19900Y6650
X20900Y6650
X20900Y7650
X19900Y7650
X18900Y7650
X18900Y8650
X19900Y8650
X20900Y8650
X20900Y9650
X19900Y9650
X18900Y9650
X19900Y11250
X20900Y11250
X15200Y10650
X14200Y10650
X13200Y10650
X12200Y10650
X11200Y10650
X10200Y10650
X9200Y10650
X8200Y10650
X7200Y10650
X6200Y10650
X5200Y10650
X4200Y10650
X3200Y9650
X2200Y9650
X1200Y9650
X1200Y8650
X2200Y8650
X3200Y8650
X3200Y7650
X2200Y7650
X1200Y7650
X1200Y6650
X2200Y6650
X3200Y6650
X3200Y5650
X2200Y5650
X1200Y5650
X1200Y4650
X2200Y4650
X3200Y4650
X3200Y3650
X2200Y3650
X1200Y3650
X1200Y2650
X2200Y2650
X3200Y2650
X4200Y1650
X5200Y1650
X6200Y1650
X7200Y1650
X8200Y1650
X9200Y1650
X10200Y1650
X11200Y1650
X12200Y1650
X13200Y1650
X14200Y1650
X15200Y1650
X6200Y8450
X5200Y8450
X5200Y9450
X6200Y9450
T03
X1250Y900
X17300Y900
X17300Y11400
X1250Y11400
M30
