G75*
%MOIN*%
%OFA0B0*%
%FSLAX24Y24*%
%IPPOS*%
%LPD*%
%AMOC8*
5,1,8,0,0,1.08239X$1,22.5*
%
%ADD10OC8,0.0700*%
%ADD11R,0.0580X0.0140*%
%ADD12R,0.0433X0.0394*%
%ADD13R,0.0591X0.0197*%
%ADD14R,0.0197X0.0591*%
%ADD15R,0.0394X0.0433*%
%ADD16C,0.0740*%
%ADD17R,0.0200X0.0500*%
%ADD18OC8,0.0740*%
%ADD19R,0.0500X0.0250*%
%ADD20C,0.0118*%
%ADD21C,0.0160*%
%ADD22C,0.0120*%
%ADD23C,0.0340*%
%ADD24C,0.0240*%
%ADD25C,0.0100*%
%ADD26C,0.0070*%
D10*
X004200Y001650D03*
X005200Y001650D03*
X006200Y001650D03*
X007200Y001650D03*
X008200Y001650D03*
X009200Y001650D03*
X010200Y001650D03*
X011200Y001650D03*
X012200Y001650D03*
X013200Y001650D03*
X014200Y001650D03*
X015200Y001650D03*
X003200Y002650D03*
X003200Y003650D03*
X003200Y004650D03*
X003200Y005650D03*
X003200Y006650D03*
X003200Y007650D03*
X003200Y008650D03*
X003200Y009650D03*
X004200Y010650D03*
X005200Y010650D03*
X006200Y010650D03*
X007200Y010650D03*
X008200Y010650D03*
X009200Y010650D03*
X010200Y010650D03*
X011200Y010650D03*
X012200Y010650D03*
X013200Y010650D03*
X014200Y010650D03*
X015200Y010650D03*
D11*
X015850Y007000D03*
X015850Y006750D03*
X015850Y006490D03*
X015850Y006230D03*
X015850Y005980D03*
X015850Y005720D03*
X015850Y005470D03*
X015850Y005210D03*
X015850Y004950D03*
X015850Y004700D03*
X013550Y004700D03*
X013550Y004950D03*
X013550Y005210D03*
X013550Y005470D03*
X013550Y005720D03*
X013550Y005980D03*
X013550Y006230D03*
X013550Y006490D03*
X013550Y006750D03*
X013550Y007000D03*
D12*
X017265Y006650D03*
X017935Y006650D03*
X017935Y005650D03*
X017265Y005650D03*
X017265Y004650D03*
X017935Y004650D03*
X017935Y003650D03*
X017265Y003650D03*
X017265Y002650D03*
X017935Y002650D03*
X017935Y007650D03*
X017265Y007650D03*
X017265Y008650D03*
X017935Y008650D03*
X017935Y009650D03*
X017265Y009650D03*
X003035Y010750D03*
X002365Y010750D03*
X002265Y001650D03*
X002935Y001650D03*
X002935Y000850D03*
X002265Y000850D03*
D13*
X007017Y004475D03*
X007017Y004790D03*
X007017Y005105D03*
X007017Y005420D03*
X007017Y005735D03*
X007017Y006050D03*
X007017Y006365D03*
X007017Y006680D03*
X007017Y006995D03*
X007017Y007310D03*
X007017Y007625D03*
X011583Y007625D03*
X011583Y007310D03*
X011583Y006995D03*
X011583Y006680D03*
X011583Y006365D03*
X011583Y006050D03*
X011583Y005735D03*
X011583Y005420D03*
X011583Y005105D03*
X011583Y004790D03*
X011583Y004475D03*
D14*
X010875Y003767D03*
X010560Y003767D03*
X010245Y003767D03*
X009930Y003767D03*
X009615Y003767D03*
X009300Y003767D03*
X008985Y003767D03*
X008670Y003767D03*
X008355Y003767D03*
X008040Y003767D03*
X007725Y003767D03*
X007725Y008333D03*
X008040Y008333D03*
X008355Y008333D03*
X008670Y008333D03*
X008985Y008333D03*
X009300Y008333D03*
X009615Y008333D03*
X009930Y008333D03*
X010245Y008333D03*
X010560Y008333D03*
X010875Y008333D03*
D15*
X011600Y008115D03*
X012400Y008115D03*
X013200Y008115D03*
X014000Y008115D03*
X014900Y008185D03*
X015800Y008115D03*
X015800Y008785D03*
X014000Y008785D03*
X013200Y008785D03*
X012400Y008785D03*
X011600Y008785D03*
X014900Y007515D03*
X012400Y003985D03*
X011600Y003985D03*
X011600Y003315D03*
X012400Y003315D03*
X007000Y003315D03*
X006200Y003315D03*
X006200Y003985D03*
X007000Y003985D03*
D16*
X006200Y008450D03*
X005200Y008450D03*
X005200Y009450D03*
X006200Y009450D03*
X018900Y009650D03*
X019900Y009650D03*
X020900Y009650D03*
X020900Y008650D03*
X019900Y008650D03*
X018900Y008650D03*
X018900Y007650D03*
X019900Y007650D03*
X020900Y007650D03*
X020900Y006650D03*
X019900Y006650D03*
X018900Y006650D03*
X018900Y005650D03*
X019900Y005650D03*
X020900Y005650D03*
X020900Y004650D03*
X019900Y004650D03*
X018900Y004650D03*
X018900Y003650D03*
X019900Y003650D03*
X020900Y003650D03*
X020900Y002650D03*
X019900Y002650D03*
X018900Y002650D03*
X019900Y011250D03*
X020900Y011250D03*
D17*
X019020Y011250D03*
X018700Y011250D03*
X018380Y011250D03*
X016620Y010150D03*
X016300Y010150D03*
X015980Y010150D03*
X019580Y001550D03*
X019900Y001550D03*
X020220Y001550D03*
D18*
X002200Y002650D03*
X001200Y002650D03*
X001200Y003650D03*
X002200Y003650D03*
X002200Y004650D03*
X001200Y004650D03*
X001200Y005650D03*
X002200Y005650D03*
X002200Y006650D03*
X001200Y006650D03*
X001200Y007650D03*
X002200Y007650D03*
X002200Y008650D03*
X001200Y008650D03*
X001200Y009650D03*
X002200Y009650D03*
D19*
X012200Y009673D03*
X012200Y010027D03*
X013200Y010027D03*
X013200Y009673D03*
X014200Y009673D03*
X014200Y010027D03*
X015200Y010027D03*
X015200Y009673D03*
X015200Y002627D03*
X015200Y002273D03*
X014200Y002273D03*
X014200Y002627D03*
X013200Y002627D03*
X013200Y002273D03*
X012200Y002273D03*
X012200Y002627D03*
D20*
X002907Y011512D02*
X002907Y011788D01*
X003183Y011788D01*
X003183Y011512D01*
X002907Y011512D01*
X002907Y011629D02*
X003183Y011629D01*
X003183Y011746D02*
X002907Y011746D01*
X002217Y011788D02*
X002217Y011512D01*
X002217Y011788D02*
X002493Y011788D01*
X002493Y011512D01*
X002217Y011512D01*
X002217Y011629D02*
X002493Y011629D01*
X002493Y011746D02*
X002217Y011746D01*
D21*
X010900Y004850D02*
X010900Y004450D01*
X011365Y003985D01*
X011600Y003985D01*
X017935Y003650D02*
X018900Y003650D01*
X018900Y002650D02*
X017935Y002650D01*
X018900Y001550D02*
X019580Y001550D01*
X019900Y001550D02*
X019900Y002650D01*
X020300Y001950D02*
X020800Y001950D01*
X020900Y002050D01*
X020900Y002650D01*
X020300Y001950D02*
X020220Y001870D01*
X020220Y001550D01*
X018900Y004650D02*
X017935Y004650D01*
X017935Y005650D02*
X018900Y005650D01*
X018900Y006650D02*
X017935Y006650D01*
X017935Y007650D02*
X018900Y007650D01*
X018900Y008650D02*
X017935Y008650D01*
X017935Y009650D02*
X018900Y009650D01*
X019020Y011250D02*
X019020Y011570D01*
D22*
X016620Y010150D02*
X016620Y008970D01*
X016300Y008650D01*
X016300Y008250D01*
X016200Y008150D01*
X015835Y008150D01*
X015800Y008115D01*
X015800Y007050D01*
X015850Y007000D01*
X013550Y007000D01*
X012975Y007625D02*
X013200Y007850D01*
X013200Y008115D01*
X012975Y007625D02*
X011583Y007625D01*
X011600Y008115D02*
X011382Y008333D01*
X010875Y008333D01*
X010560Y008333D01*
X010560Y007410D01*
X010400Y007250D01*
X009900Y007250D01*
X009900Y004450D01*
X009930Y004420D01*
X009930Y003767D01*
X007700Y004850D02*
X007660Y004790D01*
X007017Y004790D01*
X006360Y004790D01*
X006300Y004850D01*
X005600Y004850D01*
X007017Y007625D02*
X007775Y007625D01*
X007800Y007650D01*
X010200Y007650D02*
X010245Y007695D01*
X010245Y008333D01*
X011565Y008750D02*
X011600Y008785D01*
X011535Y008850D01*
X015165Y008185D02*
X015300Y008050D01*
X015300Y007650D01*
X015400Y007550D01*
X015850Y006750D02*
X014900Y006750D01*
X014800Y006650D01*
X014250Y004700D02*
X013550Y004700D01*
X014200Y004650D02*
X014250Y004700D01*
X014200Y002273D02*
X014200Y001650D01*
X013200Y001650D02*
X013200Y002273D01*
X012200Y002273D02*
X012200Y001650D01*
X015200Y001650D02*
X015200Y002273D01*
D23*
X018900Y001550D03*
X014200Y004650D03*
X012500Y006050D03*
X012800Y006350D03*
X012500Y006750D03*
X012200Y007050D03*
X010900Y007250D03*
X010200Y007650D03*
X008300Y006950D03*
X007800Y007650D03*
X010300Y006150D03*
X010600Y005750D03*
X010900Y004850D03*
X009900Y004450D03*
X008000Y005250D03*
X007700Y004850D03*
X006200Y004450D03*
X005600Y004850D03*
X004100Y005750D03*
X004200Y002650D03*
X004700Y001050D03*
X014800Y006650D03*
X015400Y007550D03*
X014800Y008785D03*
X014700Y009250D03*
X013500Y009250D03*
X012700Y009250D03*
X012200Y009250D03*
X011500Y009250D03*
X016000Y010750D03*
X017400Y010350D03*
X018700Y010750D03*
X017900Y011750D03*
X020900Y010350D03*
X016300Y009450D03*
D24*
X016300Y010150D01*
X016620Y010150D02*
X016620Y010570D01*
X016800Y010750D01*
X018700Y010750D01*
X018700Y011250D01*
X019020Y011570D02*
X019100Y011650D01*
X019800Y011650D01*
X019900Y011550D01*
X019900Y011250D01*
X020900Y010350D02*
X020900Y009650D01*
X020900Y010350D02*
X017400Y010350D01*
X015980Y010150D02*
X015980Y010730D01*
X016000Y010750D01*
X017900Y011750D02*
X018300Y011750D01*
X018380Y011670D01*
X015800Y008785D02*
X014800Y008785D01*
X014000Y008785D01*
X013200Y008785D01*
X012400Y008785D01*
X011600Y008785D01*
X011535Y008850D02*
X011535Y009215D01*
X011500Y009250D01*
X011600Y008115D02*
X012400Y008115D01*
X006200Y004450D02*
X006200Y003985D01*
X007000Y003985D01*
X007000Y003315D02*
X006200Y003315D01*
X006200Y002650D01*
X005700Y002650D01*
X005600Y002750D01*
X005600Y004850D01*
X005700Y002650D02*
X004200Y002650D01*
X003200Y002650D01*
X011600Y003985D02*
X012400Y003985D01*
D25*
X000500Y000348D02*
X000500Y000150D01*
X000698Y000150D01*
X000500Y000150D01*
X000500Y000348D01*
X000698Y000150D01*
X000600Y000150D02*
X000600Y000248D01*
X000598Y000250D02*
X000500Y000250D01*
X000700Y000650D02*
X001000Y000350D01*
X002200Y000350D01*
X002265Y000415D01*
X002265Y000850D01*
X001899Y000850D02*
X001794Y000850D01*
X001794Y000792D02*
X001711Y000592D01*
X001669Y000550D01*
X001940Y000550D01*
X001669Y000550D01*
X001700Y000550D02*
X001700Y000581D01*
X001735Y000650D02*
X001899Y000650D01*
X001899Y000591D02*
X001940Y000550D01*
X001900Y000550D02*
X001900Y000590D01*
X001899Y000591D02*
X001899Y001109D01*
X001987Y001197D01*
X002544Y001197D01*
X002600Y001141D01*
X002600Y001359D01*
X002656Y001303D01*
X002735Y001303D01*
X002735Y001197D01*
X002656Y001197D01*
X002600Y001141D01*
X002591Y001150D02*
X002609Y001150D01*
X002700Y001197D02*
X002700Y001303D01*
X002735Y001250D02*
X001669Y001250D01*
X001700Y001219D02*
X001700Y001967D01*
X001717Y001950D02*
X000900Y001950D01*
X000900Y001850D02*
X001899Y001850D01*
X001899Y001909D02*
X001899Y001391D01*
X001987Y001303D01*
X002544Y001303D01*
X002600Y001359D01*
X002591Y001350D02*
X002609Y001350D01*
X002500Y001303D02*
X002500Y001197D01*
X002400Y001197D02*
X002400Y001303D01*
X002300Y001303D02*
X002300Y001197D01*
X002200Y001197D02*
X002200Y001303D01*
X002100Y001303D02*
X002100Y001197D01*
X002000Y001197D02*
X002000Y001303D01*
X001940Y001350D02*
X001569Y001350D01*
X001558Y001361D02*
X001358Y001444D01*
X001142Y001444D01*
X000942Y001361D01*
X000900Y001319D01*
X000900Y002257D01*
X000997Y002160D01*
X001150Y002160D01*
X001150Y002600D01*
X001250Y002600D01*
X001250Y002160D01*
X001403Y002160D01*
X001500Y002257D01*
X001500Y002167D01*
X001500Y001385D01*
X001558Y001361D02*
X001711Y001208D01*
X001794Y001008D01*
X001794Y000792D01*
X001776Y000750D02*
X001899Y000750D01*
X001800Y000550D02*
X001800Y001950D01*
X001717Y001950D02*
X001940Y001950D01*
X001899Y001909D01*
X001900Y001910D02*
X001900Y001950D01*
X001717Y001950D02*
X001617Y002050D01*
X000900Y002050D01*
X000900Y002150D02*
X001517Y002150D01*
X001500Y002167D02*
X001617Y002050D01*
X001600Y002067D02*
X001600Y001319D01*
X001735Y001150D02*
X001940Y001150D01*
X001900Y001110D02*
X001900Y001390D01*
X001899Y001450D02*
X000900Y001450D01*
X000900Y001350D02*
X000931Y001350D01*
X000900Y001319D02*
X000900Y002257D01*
X000900Y002250D02*
X000907Y002250D01*
X001000Y002160D02*
X001000Y001385D01*
X001100Y001426D02*
X001100Y002160D01*
X001150Y002250D02*
X001250Y002250D01*
X001250Y002350D02*
X001150Y002350D01*
X001150Y002450D02*
X001250Y002450D01*
X001250Y002550D02*
X001150Y002550D01*
X001200Y002600D02*
X001200Y001444D01*
X001300Y001444D02*
X001300Y002160D01*
X001400Y002160D02*
X001400Y001426D01*
X001899Y001550D02*
X000900Y001550D01*
X000900Y001650D02*
X001899Y001650D01*
X001899Y001750D02*
X000900Y001750D01*
X001493Y002250D02*
X001500Y002250D01*
X001700Y002250D02*
X001700Y007950D01*
X001200Y008450D01*
X001200Y008650D01*
X001609Y008324D02*
X001700Y008415D01*
X001700Y008233D01*
X001683Y008250D02*
X001865Y008250D01*
X001900Y008215D02*
X001900Y008085D01*
X001874Y008059D02*
X001783Y008150D01*
X001609Y008324D01*
X001635Y008350D02*
X001765Y008350D01*
X001800Y008315D02*
X001800Y008133D01*
X001783Y008150D02*
X001965Y008150D01*
X001874Y008059D01*
X001965Y008150D02*
X001700Y008415D01*
X000965Y008150D02*
X000900Y008085D01*
X000900Y008215D01*
X000965Y008150D01*
X000900Y008150D01*
X000900Y008085D02*
X000900Y008215D01*
X001635Y008950D02*
X001765Y008950D01*
X001800Y008985D02*
X001800Y009315D01*
X001765Y009350D02*
X001635Y009350D01*
X001600Y009315D02*
X001600Y008985D01*
X001535Y009050D02*
X001865Y009050D01*
X001900Y009085D02*
X001900Y009215D01*
X001865Y009250D02*
X001535Y009250D01*
X001500Y009215D02*
X001500Y009085D01*
X001435Y009150D02*
X001965Y009150D01*
X001700Y008885D01*
X001435Y009150D01*
X001700Y009415D01*
X001700Y008885D01*
X001965Y009150D02*
X001700Y009415D01*
X001200Y009650D02*
X001200Y009950D01*
X001400Y010150D01*
X003000Y010150D01*
X003200Y009950D01*
X003200Y009650D01*
X003400Y009650D01*
X004200Y008850D01*
X004200Y007850D01*
X005055Y006995D01*
X007017Y006995D01*
X007017Y007310D02*
X005140Y007310D01*
X004400Y008050D01*
X004400Y009050D01*
X003700Y009750D01*
X003700Y009950D01*
X003400Y010250D01*
X003400Y011550D01*
X003300Y011650D01*
X003045Y011650D01*
X003392Y011841D02*
X003392Y011874D01*
X003270Y011997D01*
X002821Y011997D01*
X002700Y011876D01*
X002700Y012000D01*
X002626Y011950D02*
X002774Y011950D01*
X002800Y011976D02*
X002800Y012000D01*
X002900Y011997D02*
X002900Y012000D01*
X003000Y011997D02*
X003000Y012000D01*
X003100Y011997D02*
X003100Y012000D01*
X003200Y011997D02*
X003200Y012000D01*
X003300Y012000D02*
X003300Y011967D01*
X003317Y011950D02*
X017647Y011950D01*
X017629Y011931D02*
X017601Y011864D01*
X017408Y011944D01*
X017192Y011944D01*
X016992Y011861D01*
X016839Y011708D01*
X016756Y011508D01*
X016756Y011292D01*
X016839Y011092D01*
X016911Y011020D01*
X016746Y011020D01*
X016647Y010979D01*
X016571Y010903D01*
X016391Y010723D01*
X016350Y010624D01*
X016350Y010550D01*
X016253Y010550D01*
X016271Y010569D01*
X016320Y010686D01*
X016320Y010814D01*
X016271Y010931D01*
X016181Y011021D01*
X016064Y011070D01*
X015936Y011070D01*
X015819Y011021D01*
X015729Y010931D01*
X015699Y010859D01*
X015407Y011150D01*
X014993Y011150D01*
X014700Y010857D01*
X014700Y012000D01*
X014600Y012000D02*
X014600Y010957D01*
X014607Y010950D02*
X014793Y010950D01*
X014800Y010957D02*
X014800Y012000D01*
X014900Y012000D02*
X014900Y011057D01*
X014893Y011050D02*
X014507Y011050D01*
X014500Y011057D02*
X014500Y012000D01*
X014400Y012000D02*
X014400Y011150D01*
X014407Y011150D02*
X013993Y011150D01*
X013700Y010857D01*
X013700Y012000D01*
X013800Y012000D02*
X013800Y010957D01*
X013793Y010950D02*
X013607Y010950D01*
X013600Y010957D02*
X013600Y012000D01*
X013500Y012000D02*
X013500Y011057D01*
X013507Y011050D02*
X013893Y011050D01*
X013900Y011057D02*
X013900Y012000D01*
X014000Y012000D02*
X014000Y011150D01*
X014100Y011150D02*
X014100Y012000D01*
X014200Y012000D02*
X014200Y011150D01*
X014300Y011150D02*
X014300Y012000D01*
X015000Y012000D02*
X015000Y011150D01*
X015100Y011150D02*
X015100Y012000D01*
X015200Y012000D02*
X015200Y011150D01*
X015300Y011150D02*
X015300Y012000D01*
X015400Y012000D02*
X015400Y011150D01*
X015500Y011057D02*
X015500Y012000D01*
X015600Y012000D02*
X015600Y010957D01*
X015607Y010950D02*
X015747Y010950D01*
X015800Y011003D02*
X015800Y012000D01*
X015700Y012000D02*
X015700Y010862D01*
X015700Y010638D02*
X015710Y010614D01*
X015710Y010096D01*
X015730Y010048D01*
X015730Y009838D01*
X015818Y009750D01*
X015600Y009750D01*
X015600Y009850D02*
X015730Y009850D01*
X015730Y009950D02*
X015600Y009950D01*
X015600Y010050D02*
X015729Y010050D01*
X015710Y010150D02*
X015600Y010150D01*
X015600Y010214D02*
X015536Y010279D01*
X015700Y010443D01*
X015700Y010638D01*
X015700Y009121D01*
X015752Y009121D02*
X015587Y009121D01*
X015557Y009113D01*
X015529Y009097D01*
X015507Y009075D01*
X015491Y009047D01*
X015483Y009017D01*
X015483Y008833D01*
X015752Y008833D01*
X015752Y009121D01*
X015752Y009050D02*
X015848Y009050D01*
X015848Y009121D02*
X015848Y008833D01*
X015752Y008833D01*
X015752Y008736D01*
X015483Y008736D01*
X015483Y008552D01*
X015491Y008522D01*
X015507Y008494D01*
X015529Y008472D01*
X015531Y008471D01*
X015453Y008394D01*
X015453Y008194D01*
X015387Y008260D01*
X015252Y008395D01*
X015247Y008395D01*
X015247Y008463D01*
X015159Y008551D01*
X014641Y008551D01*
X014553Y008463D01*
X014553Y007906D01*
X014609Y007850D01*
X014347Y007850D01*
X014347Y007837D02*
X014259Y007749D01*
X013741Y007749D01*
X013653Y007837D01*
X013653Y007915D01*
X013547Y007915D01*
X013547Y007837D01*
X013459Y007749D01*
X013396Y007749D01*
X013287Y007640D01*
X013197Y007550D01*
X013317Y007550D01*
X013197Y007550D01*
X013200Y007550D02*
X013200Y007553D01*
X013300Y007550D02*
X013300Y007653D01*
X013297Y007650D02*
X013417Y007650D01*
X013400Y007633D02*
X013400Y007749D01*
X013460Y007750D02*
X013740Y007750D01*
X013700Y007715D02*
X013700Y007790D01*
X013653Y007850D02*
X013547Y007850D01*
X013500Y007790D02*
X013500Y007715D01*
X013483Y007715D02*
X013317Y007550D01*
X013400Y007350D02*
X011624Y007350D01*
X011583Y007310D01*
X010960Y007310D01*
X010900Y007250D01*
X010900Y007570D02*
X010900Y007888D01*
X011000Y007888D02*
X011000Y007555D01*
X011012Y007550D02*
X011138Y007550D01*
X011138Y007510D02*
X011093Y007510D01*
X011081Y007521D01*
X010964Y007570D01*
X010836Y007570D01*
X010770Y007542D01*
X010770Y007888D01*
X011035Y007888D01*
X011123Y007976D01*
X011123Y008123D01*
X011253Y008123D01*
X011253Y007873D01*
X011226Y007873D01*
X011138Y007785D01*
X011138Y007510D01*
X011100Y007510D02*
X011100Y007953D01*
X011097Y007950D02*
X011253Y007950D01*
X011253Y008050D02*
X011123Y008050D01*
X011200Y008123D02*
X011200Y007847D01*
X011203Y007850D02*
X010770Y007850D01*
X010800Y007888D02*
X010800Y007555D01*
X010788Y007550D02*
X010770Y007550D01*
X010770Y007650D02*
X011138Y007650D01*
X011138Y007750D02*
X010770Y007750D01*
X010350Y007750D02*
X007429Y007750D01*
X007432Y007739D02*
X007424Y007770D01*
X007408Y007797D01*
X007385Y007819D01*
X007358Y007835D01*
X007328Y007843D01*
X007017Y007843D01*
X007017Y007625D01*
X007432Y007625D01*
X007432Y007739D01*
X007400Y007805D02*
X007400Y008133D01*
X007477Y008133D02*
X007477Y007976D01*
X007565Y007888D01*
X010090Y007888D01*
X010123Y007920D01*
X010131Y007918D01*
X010245Y007918D01*
X010350Y007918D01*
X010350Y007497D01*
X010313Y007460D01*
X009813Y007460D01*
X009690Y007337D01*
X009690Y004693D01*
X009629Y004631D01*
X009580Y004514D01*
X009580Y004386D01*
X009629Y004269D01*
X009686Y004212D01*
X008555Y004212D01*
X008555Y004478D01*
X008500Y004533D01*
X008500Y006697D01*
X008571Y006769D01*
X008620Y006886D01*
X008620Y007014D01*
X008571Y007131D01*
X008481Y007221D01*
X008364Y007270D01*
X008236Y007270D01*
X008119Y007221D01*
X008029Y007131D01*
X007980Y007014D01*
X007980Y006886D01*
X008029Y006769D01*
X008100Y006697D01*
X008100Y005555D01*
X008064Y005570D01*
X007936Y005570D01*
X007819Y005521D01*
X007729Y005431D01*
X007680Y005314D01*
X007680Y005186D01*
X007729Y005069D01*
X007819Y004979D01*
X007840Y004970D01*
X007840Y004212D01*
X007700Y004212D01*
X007700Y005138D01*
X007695Y005150D02*
X007462Y005150D01*
X007462Y005050D02*
X007747Y005050D01*
X007800Y004997D02*
X007800Y004212D01*
X007840Y004250D02*
X007700Y004250D01*
X007700Y004212D02*
X007700Y004433D01*
X007583Y004550D01*
X007458Y004675D01*
X007432Y004675D01*
X007432Y004676D01*
X007432Y004790D01*
X007017Y004790D01*
X007017Y004790D01*
X007432Y004790D01*
X007432Y004904D01*
X007430Y004912D01*
X007462Y004945D01*
X007462Y007470D01*
X007430Y007503D01*
X007432Y007511D01*
X007432Y007625D01*
X007017Y007625D01*
X007017Y007625D01*
X007017Y007625D01*
X007017Y007843D01*
X006705Y007843D01*
X006675Y007835D01*
X006648Y007819D01*
X006625Y007797D01*
X006609Y007770D01*
X006601Y007739D01*
X006601Y007625D01*
X007017Y007625D01*
X007017Y007625D01*
X006601Y007625D01*
X006601Y007511D01*
X006601Y007510D01*
X005223Y007510D01*
X004600Y008133D01*
X004600Y009133D01*
X004483Y009250D01*
X003900Y009833D01*
X003900Y010033D01*
X003783Y010150D01*
X003600Y010333D01*
X003600Y011633D01*
X003483Y011750D01*
X003392Y011841D01*
X003392Y011850D02*
X016981Y011850D01*
X017000Y011864D02*
X017000Y012000D01*
X017100Y012000D02*
X017100Y011906D01*
X017200Y011944D02*
X017200Y012000D01*
X017300Y012000D02*
X017300Y011944D01*
X017400Y011944D02*
X017400Y012000D01*
X017500Y012000D02*
X017500Y011906D01*
X017600Y011864D02*
X017600Y012000D01*
X017629Y011931D02*
X017697Y012000D01*
X001200Y012000D01*
X001200Y011944D01*
X001200Y012000D02*
X001093Y011989D01*
X000894Y011907D01*
X000743Y011756D01*
X000661Y011557D01*
X000650Y011450D01*
X000706Y011450D01*
X000650Y011450D02*
X000650Y010950D01*
X000931Y010950D01*
X000650Y010950D01*
X000700Y010950D02*
X000700Y011652D01*
X000699Y011650D02*
X000765Y011650D01*
X000789Y011708D02*
X000706Y011508D01*
X000706Y011292D01*
X000789Y011092D01*
X000931Y010950D01*
X000900Y010950D02*
X000900Y010981D01*
X000831Y011050D02*
X000650Y011050D01*
X000650Y011150D02*
X000765Y011150D01*
X000800Y011081D02*
X000800Y010950D01*
X000700Y010750D02*
X002365Y010750D01*
X001999Y010550D02*
X001999Y010491D01*
X002087Y010403D01*
X002644Y010403D01*
X002700Y010459D01*
X002700Y010350D01*
X002756Y010403D02*
X003200Y010403D01*
X003200Y010233D01*
X003083Y010350D01*
X001483Y010350D01*
X001317Y010350D01*
X001137Y010170D01*
X000985Y010170D01*
X000900Y010085D01*
X000900Y010550D01*
X000900Y010085D01*
X000900Y010150D02*
X000965Y010150D01*
X001000Y010170D02*
X001000Y010550D01*
X001100Y010550D02*
X001100Y010170D01*
X001200Y010233D02*
X001200Y010550D01*
X001300Y010550D02*
X001300Y010333D01*
X001400Y010350D02*
X001400Y010550D01*
X001500Y010550D02*
X001500Y010350D01*
X001600Y010350D02*
X001600Y010550D01*
X001700Y010550D02*
X001700Y010350D01*
X001800Y010350D02*
X001800Y010550D01*
X001900Y010550D02*
X001900Y010350D01*
X002000Y010350D02*
X002000Y010490D01*
X002040Y010450D02*
X000900Y010450D01*
X000900Y010350D02*
X003200Y010350D01*
X003200Y010250D02*
X003183Y010250D01*
X003100Y010333D02*
X003100Y010403D01*
X003000Y010403D02*
X003000Y010350D01*
X002900Y010350D02*
X002900Y010403D01*
X002800Y010403D02*
X002800Y010350D01*
X002756Y010403D02*
X002700Y010459D01*
X002691Y010450D02*
X002709Y010450D01*
X002600Y010403D02*
X002600Y010350D01*
X002500Y010350D02*
X002500Y010403D01*
X002400Y010403D02*
X002400Y010350D01*
X002300Y010350D02*
X002300Y010403D01*
X002200Y010403D02*
X002200Y010350D01*
X002100Y010350D02*
X002100Y010403D01*
X001999Y010550D02*
X000900Y010550D01*
X000700Y010750D02*
X000700Y004750D01*
X000800Y004650D01*
X001200Y004650D01*
X000800Y004315D02*
X000800Y003985D01*
X000765Y003950D02*
X000650Y003950D01*
X000700Y003885D02*
X000700Y004415D01*
X000680Y004435D02*
X000965Y004150D01*
X000650Y004150D01*
X000650Y004050D02*
X000865Y004050D01*
X000900Y004085D02*
X000900Y004215D01*
X000865Y004250D02*
X000650Y004250D01*
X000650Y004350D02*
X000765Y004350D01*
X000680Y004435D02*
X000680Y004487D01*
X000650Y004517D01*
X000650Y003383D01*
X000691Y003424D01*
X000680Y003435D01*
X000680Y003865D01*
X000965Y004150D01*
X000680Y003850D02*
X000650Y003850D01*
X000650Y003750D02*
X000680Y003750D01*
X000680Y003650D02*
X000650Y003650D01*
X000650Y003550D02*
X000680Y003550D01*
X000680Y003450D02*
X000650Y003450D01*
X000700Y003150D02*
X000700Y000650D01*
X001794Y000950D02*
X001899Y000950D01*
X001899Y001050D02*
X001776Y001050D01*
X002591Y000550D02*
X002600Y000559D01*
X002600Y000550D01*
X002591Y000550D02*
X002609Y000550D01*
X002591Y000550D01*
X002600Y000559D02*
X002609Y000550D01*
X002935Y000850D02*
X002935Y001650D01*
X003301Y001650D02*
X004150Y001650D01*
X004150Y001700D02*
X004150Y001600D01*
X004250Y001600D01*
X004250Y001700D01*
X004670Y001700D01*
X004670Y001845D01*
X004565Y001950D01*
X004793Y001950D01*
X004700Y001857D01*
X004700Y001950D01*
X004700Y001857D02*
X004700Y001443D01*
X004700Y001370D01*
X004764Y001370D02*
X004636Y001370D01*
X004548Y001333D01*
X004670Y001455D01*
X004670Y001600D01*
X004250Y001600D01*
X004250Y001180D01*
X004395Y001180D01*
X004417Y001202D01*
X004380Y001114D01*
X004380Y001050D01*
X003301Y001050D01*
X003301Y001109D01*
X003213Y001197D01*
X003135Y001197D01*
X003135Y001303D01*
X003213Y001303D01*
X003301Y001391D01*
X003301Y001909D01*
X003260Y001950D01*
X003835Y001950D01*
X003730Y001845D01*
X003730Y001700D01*
X004150Y001700D01*
X004100Y001700D02*
X004100Y001600D01*
X004150Y001600D02*
X003730Y001600D01*
X003730Y001455D01*
X004005Y001180D01*
X004150Y001180D01*
X004150Y001600D01*
X004200Y001600D02*
X004200Y001050D01*
X004300Y001050D02*
X004300Y001180D01*
X004250Y001250D02*
X004150Y001250D01*
X004100Y001180D02*
X004100Y001050D01*
X004000Y001050D02*
X004000Y001185D01*
X003935Y001250D02*
X003135Y001250D01*
X003200Y001197D02*
X003200Y001303D01*
X003260Y001350D02*
X003835Y001350D01*
X003800Y001385D02*
X003800Y001050D01*
X003900Y001050D02*
X003900Y001285D01*
X003735Y001450D02*
X003301Y001450D01*
X003300Y001390D02*
X003300Y001110D01*
X003260Y001150D02*
X004395Y001150D01*
X004400Y001162D02*
X004400Y001185D01*
X004380Y001050D02*
X003301Y001050D01*
X003400Y001050D02*
X003400Y001950D01*
X003300Y001950D02*
X003300Y001910D01*
X003301Y001850D02*
X003735Y001850D01*
X003800Y001915D02*
X003800Y001950D01*
X003700Y001950D02*
X003700Y001050D01*
X003600Y001050D02*
X003600Y001950D01*
X003500Y001950D02*
X003500Y001050D01*
X003500Y000650D02*
X003500Y000550D01*
X003600Y000550D02*
X003600Y000650D01*
X003700Y000650D02*
X003700Y000550D01*
X003800Y000550D02*
X003800Y000650D01*
X003900Y000650D02*
X003900Y000550D01*
X004000Y000550D02*
X004000Y000650D01*
X004100Y000650D02*
X004100Y000550D01*
X004200Y000550D02*
X004200Y000650D01*
X004300Y000650D02*
X004300Y000550D01*
X004400Y000550D02*
X004400Y000650D01*
X004500Y000650D02*
X004500Y000550D01*
X004600Y000550D02*
X004600Y000667D01*
X004583Y000650D02*
X006000Y000650D01*
X006000Y000633D02*
X005917Y000550D01*
X003260Y000550D01*
X003301Y000591D01*
X003301Y000650D01*
X004583Y000650D01*
X004663Y000730D01*
X004764Y000730D01*
X004881Y000779D01*
X004971Y000869D01*
X005020Y000986D01*
X005020Y001114D01*
X005005Y001150D01*
X005407Y001150D01*
X005993Y001150D01*
X006000Y001150D01*
X006000Y000633D01*
X006000Y000750D02*
X004812Y000750D01*
X004800Y000745D02*
X004800Y000550D01*
X004900Y000550D02*
X004900Y000797D01*
X004953Y000850D02*
X006000Y000850D01*
X006000Y000950D02*
X005005Y000950D01*
X005000Y000938D02*
X005000Y000550D01*
X005100Y000550D02*
X005100Y001150D01*
X005200Y001150D02*
X005200Y000550D01*
X005300Y000550D02*
X005300Y001150D01*
X005400Y001150D02*
X005400Y000550D01*
X005500Y000550D02*
X005500Y001243D01*
X005507Y001250D02*
X005893Y001250D01*
X005900Y001243D02*
X005900Y000550D01*
X005917Y000550D02*
X003260Y000550D01*
X003300Y000550D02*
X003300Y000590D01*
X003400Y000550D02*
X003400Y000650D01*
X002935Y000850D02*
X004500Y000850D01*
X004700Y001050D01*
X005020Y001050D02*
X006000Y001050D01*
X005993Y001150D02*
X005700Y001443D01*
X005700Y000550D01*
X005800Y000550D02*
X005800Y001343D01*
X005793Y001350D02*
X005607Y001350D01*
X005600Y001343D02*
X005600Y000550D01*
X006000Y000350D02*
X006200Y000550D01*
X006200Y001050D01*
X006200Y001650D01*
X006200Y001150D01*
X006200Y001050D02*
X007500Y001050D01*
X007725Y001275D01*
X007725Y003767D01*
X008040Y003767D02*
X008040Y005210D01*
X008000Y005250D01*
X007680Y005250D02*
X007462Y005250D01*
X007462Y005350D02*
X007695Y005350D01*
X007700Y005362D02*
X007700Y007888D01*
X007800Y007888D02*
X007800Y005503D01*
X007747Y005450D02*
X007462Y005450D01*
X007462Y005550D02*
X007888Y005550D01*
X007900Y005555D02*
X007900Y007888D01*
X008000Y007888D02*
X008000Y007062D01*
X007995Y007050D02*
X007462Y007050D01*
X007462Y006950D02*
X007980Y006950D01*
X007995Y006850D02*
X007462Y006850D01*
X007462Y006750D02*
X008047Y006750D01*
X008000Y006838D02*
X008000Y005570D01*
X008100Y005650D02*
X007462Y005650D01*
X007462Y005750D02*
X008100Y005750D01*
X008100Y005850D02*
X007462Y005850D01*
X007462Y005950D02*
X008100Y005950D01*
X008100Y006050D02*
X007462Y006050D01*
X007462Y006150D02*
X008100Y006150D01*
X008100Y006250D02*
X007462Y006250D01*
X007462Y006350D02*
X008100Y006350D01*
X008100Y006450D02*
X007462Y006450D01*
X007462Y006550D02*
X008100Y006550D01*
X008100Y006650D02*
X007462Y006650D01*
X007017Y006680D02*
X005070Y006680D01*
X004000Y007750D01*
X004000Y008750D01*
X003600Y009150D01*
X002700Y009150D01*
X002200Y009650D01*
X001765Y009950D02*
X001700Y009885D01*
X001635Y009950D01*
X001765Y009950D01*
X001700Y009950D02*
X001700Y009885D01*
X001217Y010250D02*
X000900Y010250D01*
X001569Y010950D02*
X001711Y011092D01*
X001794Y011292D01*
X001794Y011508D01*
X001711Y011708D01*
X001558Y011861D01*
X001358Y011944D01*
X001142Y011944D01*
X000942Y011861D01*
X000789Y011708D01*
X000800Y011719D02*
X000800Y011813D01*
X000837Y011850D02*
X000931Y011850D01*
X000900Y011819D02*
X000900Y011910D01*
X001000Y011885D02*
X001000Y011951D01*
X000998Y011950D02*
X002083Y011950D01*
X002100Y011967D02*
X002100Y012000D01*
X002130Y011997D02*
X002008Y011874D01*
X002008Y011426D01*
X002130Y011303D01*
X002164Y011303D01*
X002300Y011167D01*
X002300Y011097D01*
X002317Y011150D02*
X001735Y011150D01*
X001700Y011081D02*
X001700Y010950D01*
X001600Y010950D02*
X001600Y010981D01*
X001569Y010950D02*
X001999Y010950D01*
X001569Y010950D01*
X001669Y011050D02*
X002040Y011050D01*
X002000Y011010D02*
X002000Y012000D01*
X001900Y012000D02*
X001900Y010950D01*
X001999Y010950D02*
X001999Y011009D01*
X002087Y011097D01*
X002370Y011097D01*
X002300Y011167D01*
X002217Y011250D02*
X001776Y011250D01*
X001794Y011350D02*
X002083Y011350D01*
X002100Y011333D02*
X002100Y011097D01*
X002200Y011097D02*
X002200Y011267D01*
X002355Y011395D02*
X002500Y011250D01*
X002900Y011250D01*
X003000Y011150D01*
X003000Y010785D01*
X003035Y010750D01*
X003200Y011097D02*
X003200Y011233D01*
X003130Y011303D01*
X003200Y011303D01*
X003200Y011097D01*
X003200Y011097D01*
X003200Y011150D02*
X003200Y011150D01*
X003200Y011250D02*
X003183Y011250D01*
X003600Y011250D02*
X016774Y011250D01*
X016800Y011186D02*
X016800Y011020D01*
X016881Y011050D02*
X016112Y011050D01*
X016100Y011055D02*
X016100Y012000D01*
X016200Y012000D02*
X016200Y011003D01*
X016253Y010950D02*
X016618Y010950D01*
X016600Y010932D02*
X016600Y012000D01*
X016700Y012000D02*
X016700Y011001D01*
X016900Y011020D02*
X016900Y011031D01*
X016815Y011150D02*
X003600Y011150D01*
X003600Y011050D02*
X003935Y011050D01*
X003900Y011015D02*
X003900Y012000D01*
X003800Y012000D02*
X003800Y010915D01*
X003835Y010950D02*
X003600Y010950D01*
X003600Y010850D02*
X003735Y010850D01*
X003730Y010845D02*
X003730Y010700D01*
X004150Y010700D01*
X004150Y011120D01*
X004005Y011120D01*
X003730Y010845D01*
X003730Y010750D02*
X003600Y010750D01*
X003600Y010650D02*
X004150Y010650D01*
X004150Y010700D02*
X004150Y010600D01*
X003730Y010600D01*
X003730Y010455D01*
X004005Y010180D01*
X004150Y010180D01*
X004150Y010600D01*
X004250Y010600D01*
X004250Y010700D01*
X004150Y010700D01*
X004200Y010700D02*
X004200Y012000D01*
X004300Y012000D02*
X004300Y011120D01*
X004250Y011120D02*
X004250Y010700D01*
X004670Y010700D01*
X004670Y010845D01*
X004395Y011120D01*
X004250Y011120D01*
X004250Y011050D02*
X004150Y011050D01*
X004100Y011120D02*
X004100Y012000D01*
X004000Y012000D02*
X004000Y011115D01*
X004150Y010950D02*
X004250Y010950D01*
X004250Y010850D02*
X004150Y010850D01*
X004150Y010750D02*
X004250Y010750D01*
X004300Y010700D02*
X004300Y010600D01*
X004250Y010600D02*
X004670Y010600D01*
X004670Y010455D01*
X004395Y010180D01*
X004250Y010180D01*
X004250Y010600D01*
X004200Y010600D02*
X004200Y009533D01*
X004183Y009550D02*
X004720Y009550D01*
X004722Y009565D02*
X004712Y009500D01*
X005150Y009500D01*
X005150Y009938D01*
X005085Y009928D01*
X005012Y009904D01*
X004943Y009869D01*
X004881Y009824D01*
X004826Y009769D01*
X004781Y009707D01*
X004746Y009638D01*
X004722Y009565D01*
X004752Y009650D02*
X004083Y009650D01*
X004100Y009633D02*
X004100Y010180D01*
X004150Y010250D02*
X004250Y010250D01*
X004300Y010180D02*
X004300Y009433D01*
X004283Y009450D02*
X005150Y009450D01*
X005150Y009500D02*
X005150Y009400D01*
X005250Y009400D01*
X005250Y008962D01*
X005315Y008972D01*
X005388Y008996D01*
X005457Y009031D01*
X005519Y009076D01*
X005574Y009131D01*
X005619Y009193D01*
X005654Y009262D01*
X005678Y009335D01*
X005680Y009348D01*
X005680Y009347D01*
X005759Y009155D01*
X005905Y009009D01*
X006048Y008950D01*
X004600Y008950D01*
X004600Y008850D02*
X004917Y008850D01*
X004900Y008838D02*
X004900Y009062D01*
X004917Y009050D02*
X004600Y009050D01*
X004583Y009150D02*
X004812Y009150D01*
X004800Y009167D02*
X004800Y008733D01*
X004812Y008750D02*
X004600Y008750D01*
X004600Y008650D02*
X004752Y008650D01*
X004746Y008638D02*
X004722Y008565D01*
X004712Y008500D01*
X005150Y008500D01*
X005150Y008938D01*
X005085Y008928D01*
X005012Y008904D01*
X004943Y008869D01*
X004881Y008824D01*
X004826Y008769D01*
X004781Y008707D01*
X004746Y008638D01*
X004720Y008550D02*
X004600Y008550D01*
X004600Y008450D02*
X005150Y008450D01*
X005150Y008500D02*
X005150Y008400D01*
X005250Y008400D01*
X005250Y007962D01*
X005315Y007972D01*
X005388Y007996D01*
X005457Y008031D01*
X005519Y008076D01*
X005574Y008131D01*
X005619Y008193D01*
X005654Y008262D01*
X005678Y008335D01*
X005680Y008348D01*
X005680Y008347D01*
X005759Y008155D01*
X005905Y008009D01*
X006097Y007930D01*
X006303Y007930D01*
X006495Y008009D01*
X006619Y008133D01*
X007477Y008133D01*
X007477Y008050D02*
X006535Y008050D01*
X006500Y008015D02*
X006500Y007510D01*
X006400Y007510D02*
X006400Y007970D01*
X006352Y007950D02*
X007503Y007950D01*
X007500Y007953D02*
X007500Y004633D01*
X007483Y004650D02*
X007840Y004650D01*
X007840Y004550D02*
X007583Y004550D01*
X007600Y004533D02*
X007600Y007888D01*
X007432Y007650D02*
X010350Y007650D01*
X010350Y007550D02*
X007432Y007550D01*
X007400Y007625D02*
X007400Y007625D01*
X007300Y007625D02*
X007300Y007625D01*
X007200Y007625D02*
X007200Y007625D01*
X007100Y007625D02*
X007100Y007625D01*
X007017Y007650D02*
X007017Y007650D01*
X007000Y007625D02*
X007000Y007625D01*
X006900Y007625D02*
X006900Y007625D01*
X006800Y007625D02*
X006800Y007625D01*
X006700Y007625D02*
X006700Y007625D01*
X006601Y007650D02*
X005083Y007650D01*
X005100Y007633D02*
X005100Y007970D01*
X005085Y007972D02*
X005150Y007962D01*
X005150Y008400D01*
X004712Y008400D01*
X004722Y008335D01*
X004746Y008262D01*
X004781Y008193D01*
X004826Y008131D01*
X004881Y008076D01*
X004943Y008031D01*
X005012Y007996D01*
X005085Y007972D01*
X005000Y008002D02*
X005000Y007733D01*
X004983Y007750D02*
X006604Y007750D01*
X006700Y007842D02*
X006700Y008133D01*
X006800Y008133D02*
X006800Y007843D01*
X006900Y007843D02*
X006900Y008133D01*
X007000Y008133D02*
X007000Y007843D01*
X007017Y007750D02*
X007017Y007750D01*
X007100Y007843D02*
X007100Y008133D01*
X007200Y008133D02*
X007200Y007843D01*
X007300Y007843D02*
X007300Y008133D01*
X007725Y008333D02*
X006317Y008333D01*
X006200Y008450D01*
X005720Y008650D02*
X005648Y008650D01*
X005654Y008638D02*
X005619Y008707D01*
X005574Y008769D01*
X005519Y008824D01*
X005457Y008869D01*
X005388Y008904D01*
X005315Y008928D01*
X005250Y008938D01*
X005250Y008500D01*
X005150Y008500D01*
X005200Y008500D02*
X005200Y009400D01*
X005150Y009400D02*
X005150Y008962D01*
X005085Y008972D01*
X005012Y008996D01*
X004943Y009031D01*
X004881Y009076D01*
X004826Y009131D01*
X004781Y009193D01*
X004746Y009262D01*
X004722Y009335D01*
X004712Y009400D01*
X005150Y009400D01*
X005100Y009400D02*
X005100Y009500D01*
X005150Y009500D02*
X005250Y009500D01*
X005250Y009938D01*
X005315Y009928D01*
X005388Y009904D01*
X005457Y009869D01*
X005519Y009824D01*
X005574Y009769D01*
X005619Y009707D01*
X005654Y009638D01*
X005678Y009565D01*
X005680Y009552D01*
X005680Y009553D01*
X005759Y009745D01*
X005905Y009891D01*
X006097Y009970D01*
X006303Y009970D01*
X006495Y009891D01*
X006641Y009745D01*
X006680Y009650D01*
X007217Y009650D01*
X007200Y009667D02*
X007200Y009333D01*
X007183Y009350D02*
X007517Y009350D01*
X007500Y009367D02*
X007500Y009050D01*
X007483Y009050D02*
X007000Y009533D01*
X006883Y009650D01*
X006680Y009650D01*
X006700Y009650D02*
X006700Y009867D01*
X006717Y009850D02*
X006535Y009850D01*
X006500Y009885D02*
X006500Y010067D01*
X006517Y010050D02*
X003883Y010050D01*
X003900Y009950D02*
X006048Y009950D01*
X006000Y009930D02*
X006000Y010150D01*
X005993Y010150D02*
X005407Y010150D01*
X005700Y010443D01*
X005700Y009602D01*
X005720Y009650D02*
X005648Y009650D01*
X005600Y009733D02*
X005600Y010343D01*
X005607Y010350D02*
X005793Y010350D01*
X005800Y010343D02*
X005800Y009785D01*
X005765Y009750D02*
X005588Y009750D01*
X005500Y009838D02*
X005500Y010243D01*
X005507Y010250D02*
X005893Y010250D01*
X005900Y010243D02*
X005900Y009885D01*
X005865Y009850D02*
X005483Y009850D01*
X005400Y009898D02*
X005400Y010150D01*
X005407Y010150D02*
X004993Y010150D01*
X003783Y010150D01*
X003800Y010133D02*
X003800Y010385D01*
X003835Y010350D02*
X003600Y010350D01*
X003600Y010333D02*
X003600Y012000D01*
X003500Y012000D02*
X003500Y011733D01*
X003483Y011750D02*
X016881Y011750D01*
X016900Y011769D02*
X016900Y012000D01*
X016800Y012000D02*
X016800Y011614D01*
X016815Y011650D02*
X003583Y011650D01*
X003600Y011550D02*
X016774Y011550D01*
X016756Y011450D02*
X003600Y011450D01*
X003600Y011350D02*
X016756Y011350D01*
X016518Y010850D02*
X016305Y010850D01*
X016300Y010862D02*
X016300Y012000D01*
X016400Y012000D02*
X016400Y010732D01*
X016418Y010750D02*
X016320Y010750D01*
X016305Y010650D02*
X016361Y010650D01*
X016300Y010638D02*
X016300Y010550D01*
X016253Y010550D02*
X016350Y010550D01*
X016500Y010832D02*
X016500Y012000D01*
X016000Y012000D02*
X016000Y011070D01*
X015900Y011055D02*
X015900Y012000D01*
X015888Y011050D02*
X015507Y011050D01*
X015200Y010650D02*
X015200Y010027D01*
X015600Y010214D02*
X015600Y009486D01*
X015512Y009398D01*
X015208Y009398D01*
X015020Y009210D01*
X015020Y009186D01*
X014971Y009069D01*
X014881Y008979D01*
X014764Y008930D01*
X014636Y008930D01*
X014519Y008979D01*
X014429Y009069D01*
X014380Y009186D01*
X014380Y009314D01*
X014415Y009398D01*
X014400Y009398D01*
X014400Y009362D01*
X014400Y009367D02*
X014400Y009398D01*
X014400Y009367D02*
X014283Y009250D01*
X014380Y009250D01*
X014300Y009267D02*
X014300Y009063D01*
X014293Y009075D02*
X014271Y009097D01*
X014243Y009113D01*
X014213Y009121D01*
X014154Y009121D01*
X014283Y009250D01*
X014200Y009167D02*
X014200Y009121D01*
X014183Y009150D02*
X014395Y009150D01*
X014400Y009138D02*
X014400Y007715D01*
X014500Y007715D02*
X014500Y008997D01*
X014447Y009050D02*
X014307Y009050D01*
X014309Y009047D02*
X014293Y009075D01*
X014309Y009047D02*
X014317Y009017D01*
X014317Y008833D01*
X014048Y008833D01*
X014048Y008736D01*
X014317Y008736D01*
X014317Y008552D01*
X014309Y008522D01*
X014293Y008494D01*
X014271Y008472D01*
X014269Y008471D01*
X014347Y008394D01*
X014347Y007837D01*
X014300Y007790D02*
X014300Y007715D01*
X014260Y007750D02*
X014553Y007750D01*
X014553Y007715D02*
X014553Y007794D01*
X014609Y007850D01*
X014600Y007841D02*
X014600Y007859D01*
X014553Y007950D02*
X014347Y007950D01*
X014347Y008050D02*
X014553Y008050D01*
X014553Y008150D02*
X014347Y008150D01*
X014347Y008250D02*
X014553Y008250D01*
X014553Y008350D02*
X014347Y008350D01*
X014300Y008441D02*
X014300Y008507D01*
X014316Y008550D02*
X014640Y008550D01*
X014600Y008510D02*
X014600Y008945D01*
X014588Y008950D02*
X014317Y008950D01*
X014317Y008850D02*
X015483Y008850D01*
X015500Y008833D02*
X015500Y008736D01*
X015483Y008650D02*
X014317Y008650D01*
X014300Y008736D02*
X014300Y008833D01*
X014200Y008833D02*
X014200Y008736D01*
X014100Y008736D02*
X014100Y008833D01*
X014048Y008750D02*
X015752Y008750D01*
X015700Y008736D02*
X015700Y008833D01*
X015752Y008850D02*
X015848Y008850D01*
X015848Y008833D02*
X016117Y008833D01*
X016117Y009017D01*
X016109Y009047D01*
X016093Y009075D01*
X016071Y009097D01*
X016043Y009113D01*
X016013Y009121D01*
X015848Y009121D01*
X015900Y009121D02*
X015900Y009750D01*
X015818Y009750D02*
X016030Y009750D01*
X016030Y009633D01*
X016029Y009631D01*
X015980Y009514D01*
X015980Y009386D01*
X016029Y009269D01*
X016119Y009179D01*
X016236Y009130D01*
X016364Y009130D01*
X016410Y009149D01*
X016410Y009057D01*
X016213Y008860D01*
X016090Y008737D01*
X016090Y008736D01*
X015848Y008736D01*
X015848Y008833D01*
X015800Y008833D02*
X015800Y009768D01*
X016000Y009750D02*
X016000Y009562D01*
X015995Y009550D02*
X015600Y009550D01*
X015600Y009650D02*
X016030Y009650D01*
X015980Y009450D02*
X015564Y009450D01*
X015500Y009398D02*
X015500Y009063D01*
X015493Y009050D02*
X014953Y009050D01*
X014900Y008997D02*
X014900Y008551D01*
X014800Y008551D02*
X014800Y008945D01*
X014812Y008950D02*
X015483Y008950D01*
X015600Y008833D02*
X015600Y008736D01*
X015752Y008950D02*
X015848Y008950D01*
X015900Y008833D02*
X015900Y008736D01*
X015848Y008750D02*
X016103Y008750D01*
X016100Y008747D02*
X016100Y008833D01*
X016117Y008850D02*
X016203Y008850D01*
X016200Y008847D02*
X016200Y009145D01*
X016188Y009150D02*
X015005Y009150D01*
X015000Y009138D02*
X015000Y008551D01*
X015100Y008551D02*
X015100Y009290D01*
X015060Y009250D02*
X016047Y009250D01*
X016100Y009197D02*
X016100Y009063D01*
X016107Y009050D02*
X016403Y009050D01*
X016400Y009047D02*
X016400Y009145D01*
X016300Y009130D02*
X016300Y008947D01*
X016303Y008950D02*
X016117Y008950D01*
X016000Y008833D02*
X016000Y008736D01*
X015484Y008550D02*
X015160Y008550D01*
X015200Y008510D02*
X015200Y009390D01*
X015160Y009350D02*
X015995Y009350D01*
X016000Y009338D02*
X016000Y009121D01*
X015600Y009121D02*
X015600Y010343D01*
X015607Y010350D02*
X015710Y010350D01*
X015710Y010250D02*
X015564Y010250D01*
X015700Y010450D02*
X015710Y010450D01*
X015700Y010550D02*
X015710Y010550D01*
X014864Y010279D02*
X014800Y010214D01*
X014800Y010343D01*
X014793Y010350D02*
X014607Y010350D01*
X014600Y010343D02*
X014600Y009555D01*
X014600Y010214D01*
X014536Y010279D01*
X014700Y010443D01*
X014700Y009570D01*
X014764Y009570D02*
X014636Y009570D01*
X014600Y009555D01*
X014600Y009650D02*
X014800Y009650D01*
X014764Y009570D02*
X014799Y009555D01*
X014800Y009556D01*
X014800Y010214D01*
X014836Y010250D02*
X014564Y010250D01*
X014600Y010150D02*
X014800Y010150D01*
X014800Y010050D02*
X014600Y010050D01*
X014600Y009950D02*
X014800Y009950D01*
X014800Y009850D02*
X014600Y009850D01*
X014600Y009750D02*
X014800Y009750D01*
X015200Y009673D02*
X014777Y009250D01*
X014700Y009250D01*
X014395Y009350D02*
X014383Y009350D01*
X014200Y009450D02*
X014200Y009673D01*
X014200Y009450D02*
X014000Y009250D01*
X013500Y009250D01*
X013753Y009450D02*
X013836Y009450D01*
X013753Y009450D01*
X013681Y009521D01*
X013600Y009555D01*
X013600Y010214D01*
X013536Y010279D01*
X013700Y010443D01*
X013700Y009503D01*
X013612Y009550D02*
X013800Y009550D01*
X013800Y009486D02*
X013800Y009450D01*
X013800Y009486D02*
X013836Y009450D01*
X013800Y009486D02*
X013800Y010214D01*
X013800Y010343D01*
X013793Y010350D02*
X013607Y010350D01*
X013600Y010343D02*
X013600Y009555D01*
X013600Y009650D02*
X013800Y009650D01*
X013800Y009750D02*
X013600Y009750D01*
X013600Y009850D02*
X013800Y009850D01*
X013800Y009950D02*
X013600Y009950D01*
X013600Y010050D02*
X013800Y010050D01*
X013800Y010150D02*
X013600Y010150D01*
X013564Y010250D02*
X013836Y010250D01*
X013864Y010279D02*
X013800Y010214D01*
X013864Y010279D02*
X013700Y010443D01*
X013700Y010857D01*
X013407Y011150D01*
X012993Y011150D01*
X012700Y010857D01*
X012700Y012000D01*
X012600Y012000D02*
X012600Y010957D01*
X012607Y010950D02*
X012793Y010950D01*
X012800Y010957D02*
X012800Y012000D01*
X012900Y012000D02*
X012900Y011057D01*
X012893Y011050D02*
X012507Y011050D01*
X012500Y011057D02*
X012500Y012000D01*
X012400Y012000D02*
X012400Y011150D01*
X012407Y011150D02*
X011993Y011150D01*
X011700Y010857D01*
X011700Y012000D01*
X011600Y012000D02*
X011600Y010957D01*
X011607Y010950D02*
X011793Y010950D01*
X011800Y010957D02*
X011800Y012000D01*
X011900Y012000D02*
X011900Y011057D01*
X011893Y011050D02*
X011507Y011050D01*
X011500Y011057D02*
X011500Y012000D01*
X011400Y012000D02*
X011400Y011150D01*
X011407Y011150D02*
X010993Y011150D01*
X010700Y010857D01*
X010700Y012000D01*
X010800Y012000D02*
X010800Y010957D01*
X010793Y010950D02*
X010607Y010950D01*
X010600Y010957D02*
X010600Y012000D01*
X010500Y012000D02*
X010500Y011057D01*
X010507Y011050D02*
X010893Y011050D01*
X010900Y011057D02*
X010900Y012000D01*
X011000Y012000D02*
X011000Y011150D01*
X011100Y011150D02*
X011100Y012000D01*
X011200Y012000D02*
X011200Y011150D01*
X011300Y011150D02*
X011300Y012000D01*
X012000Y012000D02*
X012000Y011150D01*
X012100Y011150D02*
X012100Y012000D01*
X012200Y012000D02*
X012200Y011150D01*
X012300Y011150D02*
X012300Y012000D01*
X013000Y012000D02*
X013000Y011150D01*
X013100Y011150D02*
X013100Y012000D01*
X013200Y012000D02*
X013200Y011150D01*
X013300Y011150D02*
X013300Y012000D01*
X013400Y012000D02*
X013400Y011150D01*
X013700Y010857D02*
X013700Y010443D01*
X013700Y010450D02*
X013700Y010450D01*
X013700Y010550D02*
X013700Y010550D01*
X013700Y010650D02*
X013700Y010650D01*
X013700Y010750D02*
X013700Y010750D01*
X013700Y010850D02*
X013700Y010850D01*
X014200Y010650D02*
X014200Y010027D01*
X014700Y010443D02*
X014700Y010857D01*
X014407Y011150D01*
X014700Y010857D02*
X014700Y010443D01*
X014864Y010279D01*
X014700Y010450D02*
X014700Y010450D01*
X014700Y010550D02*
X014700Y010550D01*
X014700Y010650D02*
X014700Y010650D01*
X014700Y010750D02*
X014700Y010750D01*
X014700Y010850D02*
X014700Y010850D01*
X013200Y010650D02*
X013200Y010027D01*
X012800Y010050D02*
X012600Y010050D01*
X012600Y009950D02*
X012800Y009950D01*
X012800Y009850D02*
X012600Y009850D01*
X012600Y009750D02*
X012800Y009750D01*
X012800Y009650D02*
X012600Y009650D01*
X012636Y009570D02*
X012600Y009555D01*
X012600Y010343D01*
X012607Y010350D02*
X012793Y010350D01*
X012800Y010343D02*
X012800Y010214D01*
X012800Y009555D01*
X012764Y009570D01*
X012636Y009570D01*
X012600Y009555D02*
X012600Y010214D01*
X012536Y010279D01*
X012700Y010443D01*
X012700Y009570D01*
X012700Y009250D02*
X013000Y009250D01*
X013200Y009450D01*
X013200Y009673D01*
X013191Y009159D02*
X013229Y009069D01*
X013248Y009049D01*
X013248Y008833D01*
X013152Y008833D01*
X013152Y009119D01*
X013191Y009159D01*
X013195Y009150D02*
X013183Y009150D01*
X013200Y009138D02*
X013200Y008833D01*
X013248Y008833D02*
X013517Y008833D01*
X013517Y008930D01*
X013564Y008930D01*
X013681Y008979D01*
X013683Y008981D01*
X013683Y008833D01*
X013952Y008833D01*
X013952Y008736D01*
X013683Y008736D01*
X013683Y008552D01*
X013691Y008522D01*
X013707Y008494D01*
X013729Y008472D01*
X013731Y008471D01*
X013653Y008394D01*
X013653Y008315D01*
X013547Y008315D01*
X013547Y008394D01*
X013469Y008471D01*
X013471Y008472D01*
X013493Y008494D01*
X013509Y008522D01*
X013517Y008552D01*
X013517Y008736D01*
X013248Y008736D01*
X013248Y008833D01*
X013248Y008850D02*
X013152Y008850D01*
X013152Y008833D02*
X013152Y008736D01*
X012883Y008736D01*
X012883Y008552D01*
X012891Y008522D01*
X012907Y008494D01*
X012929Y008472D01*
X012931Y008471D01*
X012853Y008394D01*
X012853Y007837D01*
X012855Y007835D01*
X012745Y007835D01*
X012747Y007837D01*
X012747Y008394D01*
X012669Y008471D01*
X012671Y008472D01*
X012693Y008494D01*
X012709Y008522D01*
X012717Y008552D01*
X012717Y008736D01*
X012448Y008736D01*
X012448Y008833D01*
X012717Y008833D01*
X012717Y008930D01*
X012764Y008930D01*
X012881Y008979D01*
X012883Y008981D01*
X012883Y008833D01*
X013152Y008833D01*
X013100Y008833D02*
X013100Y008736D01*
X013152Y008750D02*
X012448Y008750D01*
X012500Y008736D02*
X012500Y008833D01*
X012600Y008833D02*
X012600Y008736D01*
X012700Y008736D02*
X012700Y008833D01*
X012717Y008850D02*
X012883Y008850D01*
X012900Y008833D02*
X012900Y008736D01*
X012883Y008650D02*
X012717Y008650D01*
X012716Y008550D02*
X012884Y008550D01*
X012900Y008507D02*
X012900Y008441D01*
X012909Y008450D02*
X012691Y008450D01*
X012700Y008441D02*
X012700Y008507D01*
X012747Y008350D02*
X012853Y008350D01*
X012853Y008250D02*
X012747Y008250D01*
X012747Y008150D02*
X012853Y008150D01*
X012853Y008050D02*
X012747Y008050D01*
X012747Y007950D02*
X012853Y007950D01*
X012853Y007850D02*
X012747Y007850D01*
X012800Y007835D02*
X012800Y008945D01*
X012812Y008950D02*
X012883Y008950D01*
X013000Y008833D02*
X013000Y008736D01*
X013152Y008950D02*
X013248Y008950D01*
X013247Y009050D02*
X013152Y009050D01*
X013300Y008833D02*
X013300Y008736D01*
X013248Y008750D02*
X013952Y008750D01*
X013900Y008736D02*
X013900Y008833D01*
X013800Y008833D02*
X013800Y008736D01*
X013700Y008736D02*
X013700Y008833D01*
X013683Y008850D02*
X013517Y008850D01*
X013500Y008833D02*
X013500Y008736D01*
X013517Y008650D02*
X013683Y008650D01*
X013684Y008550D02*
X013516Y008550D01*
X013500Y008507D02*
X013500Y008441D01*
X013491Y008450D02*
X013709Y008450D01*
X013700Y008441D02*
X013700Y008507D01*
X013653Y008350D02*
X013547Y008350D01*
X013600Y008315D02*
X013600Y008945D01*
X013612Y008950D02*
X013683Y008950D01*
X013400Y008833D02*
X013400Y008736D01*
X014291Y008450D02*
X014553Y008450D01*
X014700Y008551D02*
X014700Y008930D01*
X015247Y008450D02*
X015509Y008450D01*
X015500Y008441D02*
X015500Y008507D01*
X015453Y008350D02*
X015297Y008350D01*
X015300Y008347D02*
X015300Y009398D01*
X015400Y009398D02*
X015400Y008247D01*
X015397Y008250D02*
X015453Y008250D01*
X015165Y008185D02*
X014900Y008185D01*
X014200Y007749D02*
X014200Y007715D01*
X014100Y007715D02*
X014100Y007749D01*
X014000Y007749D02*
X014000Y007715D01*
X013900Y007715D02*
X013900Y007749D01*
X013800Y007749D02*
X013800Y007715D01*
X013600Y007715D02*
X013600Y007915D01*
X013483Y007715D02*
X014553Y007715D01*
X014900Y007515D02*
X013565Y007515D01*
X013400Y007350D01*
X013553Y007220D02*
X013600Y007267D01*
X013648Y007315D01*
X014553Y007315D01*
X014553Y007237D01*
X014580Y007210D01*
X013912Y007210D01*
X013902Y007220D01*
X013553Y007220D01*
X013583Y007250D02*
X014553Y007250D01*
X014500Y007210D02*
X014500Y007315D01*
X014400Y007315D02*
X014400Y007210D01*
X014300Y007210D02*
X014300Y007315D01*
X014200Y007315D02*
X014200Y007210D01*
X014100Y007210D02*
X014100Y007315D01*
X014000Y007315D02*
X014000Y007210D01*
X013900Y007220D02*
X013900Y007315D01*
X013800Y007315D02*
X013800Y007220D01*
X013700Y007220D02*
X013700Y007315D01*
X013600Y007267D02*
X013600Y007220D01*
X013128Y007150D02*
X013110Y007132D01*
X013110Y007123D01*
X013100Y007133D01*
X013083Y007150D01*
X013128Y007150D01*
X013100Y007150D02*
X013100Y007133D01*
X012900Y007050D02*
X012200Y007050D01*
X012155Y006995D01*
X011583Y006995D01*
X011138Y007036D02*
X011138Y004315D01*
X011226Y004227D01*
X011286Y004227D01*
X011283Y004217D01*
X011283Y004033D01*
X011552Y004033D01*
X011552Y003936D01*
X011283Y003936D01*
X011283Y003752D01*
X011291Y003722D01*
X011307Y003694D01*
X011329Y003672D01*
X011331Y003671D01*
X011253Y003594D01*
X011253Y003550D01*
X011123Y003550D01*
X011123Y004124D01*
X011035Y004212D01*
X010760Y004212D01*
X010760Y005470D01*
X010781Y005479D01*
X010871Y005569D01*
X010920Y005686D01*
X010920Y005814D01*
X010871Y005931D01*
X010781Y006021D01*
X010664Y006070D01*
X010613Y006070D01*
X010620Y006086D01*
X010620Y006214D01*
X010571Y006331D01*
X010481Y006421D01*
X010364Y006470D01*
X010236Y006470D01*
X010119Y006421D01*
X010110Y006413D01*
X010110Y007040D01*
X010487Y007040D01*
X010596Y007149D01*
X010629Y007069D01*
X010719Y006979D01*
X010836Y006930D01*
X010964Y006930D01*
X011081Y006979D01*
X011138Y007036D01*
X011100Y006997D02*
X011100Y004147D01*
X011097Y004150D02*
X011283Y004150D01*
X011283Y004050D02*
X011123Y004050D01*
X011123Y003950D02*
X011552Y003950D01*
X011500Y003936D02*
X011500Y004033D01*
X011400Y004033D02*
X011400Y003936D01*
X011300Y003936D02*
X011300Y004033D01*
X011283Y003850D02*
X011123Y003850D01*
X011123Y003750D02*
X011284Y003750D01*
X011300Y003707D02*
X011300Y003641D01*
X011309Y003650D02*
X011123Y003650D01*
X011123Y003550D02*
X011253Y003550D01*
X011200Y003550D02*
X011200Y004253D01*
X011203Y004250D02*
X010760Y004250D01*
X010800Y004212D02*
X010800Y005497D01*
X010760Y005450D02*
X011138Y005450D01*
X011138Y005550D02*
X010853Y005550D01*
X010900Y005638D02*
X010900Y004212D01*
X011000Y004212D02*
X011000Y006945D01*
X011012Y006950D02*
X011138Y006950D01*
X011138Y006850D02*
X010110Y006850D01*
X010110Y006950D02*
X010788Y006950D01*
X010800Y006945D02*
X010800Y006003D01*
X010853Y005950D02*
X011138Y005950D01*
X011138Y006050D02*
X010712Y006050D01*
X010700Y006055D02*
X010700Y006997D01*
X010647Y007050D02*
X010497Y007050D01*
X010500Y007053D02*
X010500Y006403D01*
X010553Y006350D02*
X011138Y006350D01*
X011138Y006450D02*
X010412Y006450D01*
X010400Y006455D02*
X010400Y007040D01*
X010300Y007040D02*
X010300Y006470D01*
X010200Y006455D02*
X010200Y007040D01*
X010600Y007138D02*
X010600Y006262D01*
X010605Y006250D02*
X011138Y006250D01*
X011138Y006150D02*
X010620Y006150D01*
X010300Y006150D02*
X010245Y006095D01*
X010245Y003767D01*
X010560Y003767D02*
X010560Y005690D01*
X010600Y005750D01*
X010920Y005750D02*
X011138Y005750D01*
X011138Y005650D02*
X010905Y005650D01*
X010905Y005850D02*
X011138Y005850D01*
X010900Y005862D02*
X010900Y006930D01*
X011138Y006750D02*
X010110Y006750D01*
X010110Y006650D02*
X011138Y006650D01*
X011138Y006550D02*
X010110Y006550D01*
X010110Y006450D02*
X010188Y006450D01*
X009690Y006450D02*
X008500Y006450D01*
X008500Y006350D02*
X009690Y006350D01*
X009690Y006250D02*
X008500Y006250D01*
X008500Y006150D02*
X009690Y006150D01*
X009690Y006050D02*
X008500Y006050D01*
X008500Y005950D02*
X009690Y005950D01*
X009690Y005850D02*
X008500Y005850D01*
X008500Y005750D02*
X009690Y005750D01*
X009690Y005650D02*
X008500Y005650D01*
X008500Y005550D02*
X009690Y005550D01*
X009690Y005450D02*
X008500Y005450D01*
X008500Y005350D02*
X009690Y005350D01*
X009690Y005250D02*
X008500Y005250D01*
X008500Y005150D02*
X009690Y005150D01*
X009690Y005050D02*
X008500Y005050D01*
X008500Y004950D02*
X009690Y004950D01*
X009690Y004850D02*
X008500Y004850D01*
X008500Y004750D02*
X009690Y004750D01*
X009647Y004650D02*
X008500Y004650D01*
X008500Y004550D02*
X009595Y004550D01*
X009600Y004562D02*
X009600Y007888D01*
X009700Y007888D02*
X009700Y007347D01*
X009703Y007350D02*
X007462Y007350D01*
X007462Y007450D02*
X009803Y007450D01*
X009800Y007447D02*
X009800Y007888D01*
X009900Y007888D02*
X009900Y007460D01*
X010000Y007460D02*
X010000Y007888D01*
X010100Y007898D02*
X010100Y007460D01*
X010200Y007460D02*
X010200Y007918D01*
X010245Y007918D02*
X010245Y008333D01*
X010245Y007918D01*
X010245Y007950D02*
X010245Y007950D01*
X010300Y007918D02*
X010300Y007460D01*
X009690Y007250D02*
X008412Y007250D01*
X008400Y007255D02*
X008400Y007888D01*
X008300Y007888D02*
X008300Y007270D01*
X008200Y007255D02*
X008200Y007888D01*
X008100Y007888D02*
X008100Y007203D01*
X008047Y007150D02*
X007462Y007150D01*
X007462Y007250D02*
X008188Y007250D01*
X008500Y007203D02*
X008500Y007888D01*
X008600Y007888D02*
X008600Y007062D01*
X008605Y007050D02*
X009690Y007050D01*
X009690Y006950D02*
X008620Y006950D01*
X008605Y006850D02*
X009690Y006850D01*
X009690Y006750D02*
X008553Y006750D01*
X008500Y006697D02*
X008500Y004533D01*
X008555Y004450D02*
X009580Y004450D01*
X009595Y004350D02*
X008555Y004350D01*
X008555Y004250D02*
X009647Y004250D01*
X009600Y004212D02*
X009600Y004338D01*
X009500Y004212D02*
X009500Y007888D01*
X009400Y007888D02*
X009400Y004212D01*
X009300Y004212D02*
X009300Y007888D01*
X009200Y007888D02*
X009200Y004212D01*
X009100Y004212D02*
X009100Y007888D01*
X009000Y007888D02*
X009000Y004212D01*
X008900Y004212D02*
X008900Y007888D01*
X008800Y007888D02*
X008800Y004212D01*
X008700Y004212D02*
X008700Y007888D01*
X008670Y008333D02*
X008670Y009180D01*
X007200Y010650D01*
X007700Y010650D02*
X007700Y010650D01*
X007700Y010750D02*
X007700Y010750D01*
X007700Y010850D02*
X007700Y010850D01*
X007700Y010857D02*
X007700Y012000D01*
X007800Y012000D02*
X007800Y010957D01*
X007793Y010950D02*
X007607Y010950D01*
X007600Y010957D02*
X007600Y012000D01*
X007500Y012000D02*
X007500Y011057D01*
X007507Y011050D02*
X007893Y011050D01*
X007900Y011057D02*
X007900Y012000D01*
X008000Y012000D02*
X008000Y011150D01*
X007993Y011150D02*
X007700Y010857D01*
X007407Y011150D01*
X006993Y011150D01*
X006700Y010857D01*
X006700Y012000D01*
X006600Y012000D02*
X006600Y010957D01*
X006607Y010950D02*
X006793Y010950D01*
X006800Y010957D02*
X006800Y012000D01*
X006900Y012000D02*
X006900Y011057D01*
X006893Y011050D02*
X006507Y011050D01*
X006500Y011057D02*
X006500Y012000D01*
X006400Y012000D02*
X006400Y011150D01*
X006407Y011150D02*
X005993Y011150D01*
X005700Y010857D01*
X005700Y012000D01*
X005800Y012000D02*
X005800Y010957D01*
X005793Y010950D02*
X005607Y010950D01*
X005600Y010957D02*
X005600Y012000D01*
X005500Y012000D02*
X005500Y011057D01*
X005507Y011050D02*
X005893Y011050D01*
X005900Y011057D02*
X005900Y012000D01*
X006000Y012000D02*
X006000Y011150D01*
X006100Y011150D02*
X006100Y012000D01*
X006200Y012000D02*
X006200Y011150D01*
X006300Y011150D02*
X006300Y012000D01*
X007000Y012000D02*
X007000Y011150D01*
X007100Y011150D02*
X007100Y012000D01*
X007200Y012000D02*
X007200Y011150D01*
X007300Y011150D02*
X007300Y012000D01*
X007400Y012000D02*
X007400Y011150D01*
X007993Y011150D02*
X008407Y011150D01*
X008700Y010857D01*
X008700Y012000D01*
X008800Y012000D02*
X008800Y010957D01*
X008793Y010950D02*
X008607Y010950D01*
X008600Y010957D02*
X008600Y012000D01*
X008500Y012000D02*
X008500Y011057D01*
X008507Y011050D02*
X008893Y011050D01*
X008900Y011057D02*
X008900Y012000D01*
X009000Y012000D02*
X009000Y011150D01*
X008993Y011150D02*
X008700Y010857D01*
X008700Y010443D01*
X008700Y010433D01*
X008695Y010438D02*
X008700Y010443D01*
X008993Y010150D01*
X008983Y010150D01*
X008993Y010150D02*
X009100Y010150D01*
X009100Y010033D01*
X008695Y010438D01*
X008700Y010443D02*
X008700Y010857D01*
X008700Y010850D02*
X008700Y010850D01*
X008700Y010750D02*
X008700Y010750D01*
X008700Y010650D02*
X008700Y010650D01*
X008700Y010550D02*
X008700Y010550D01*
X008700Y010450D02*
X008700Y010450D01*
X008783Y010350D02*
X008793Y010350D01*
X008800Y010343D02*
X008800Y010333D01*
X008883Y010250D02*
X008893Y010250D01*
X008900Y010243D02*
X008900Y010233D01*
X009000Y010150D02*
X009000Y010133D01*
X009083Y010050D02*
X009100Y010050D01*
X008700Y009867D02*
X008700Y009433D01*
X008683Y009450D02*
X008785Y009450D01*
X008785Y009550D02*
X008583Y009550D01*
X008600Y009533D02*
X008600Y009967D01*
X008617Y009950D02*
X008183Y009950D01*
X008200Y009933D02*
X008200Y010150D01*
X008100Y010150D02*
X008100Y010033D01*
X008083Y010050D02*
X008517Y010050D01*
X008500Y010067D02*
X008500Y009633D01*
X008483Y009650D02*
X008785Y009650D01*
X008785Y009750D02*
X008383Y009750D01*
X008400Y009733D02*
X008400Y010150D01*
X008407Y010150D02*
X008417Y010150D01*
X008412Y010155D02*
X008785Y009782D01*
X008785Y009348D01*
X007695Y010438D01*
X007700Y010443D01*
X007700Y010433D01*
X007700Y010443D02*
X007700Y010857D01*
X007700Y010443D01*
X007993Y010150D01*
X007983Y010150D01*
X007993Y010150D02*
X008407Y010150D01*
X008412Y010155D01*
X008300Y010150D02*
X008300Y009833D01*
X008283Y009850D02*
X008717Y009850D01*
X008985Y009865D02*
X008200Y010650D01*
X007700Y010550D02*
X007700Y010550D01*
X007700Y010450D02*
X007700Y010450D01*
X007783Y010350D02*
X007793Y010350D01*
X007800Y010343D02*
X007800Y010333D01*
X007883Y010250D02*
X007893Y010250D01*
X007900Y010243D02*
X007900Y010233D01*
X008000Y010150D02*
X008000Y010133D01*
X007700Y009867D02*
X007700Y009733D01*
X007683Y009750D02*
X007817Y009750D01*
X007800Y009767D02*
X007800Y009633D01*
X007783Y009650D02*
X007917Y009650D01*
X007900Y009667D02*
X007900Y009533D01*
X007883Y009550D02*
X008017Y009550D01*
X008000Y009567D02*
X008000Y009433D01*
X007983Y009450D02*
X008117Y009450D01*
X008100Y009467D02*
X008100Y009333D01*
X008083Y009350D02*
X008217Y009350D01*
X008200Y009367D02*
X008200Y009233D01*
X008183Y009250D02*
X008317Y009250D01*
X008300Y009267D02*
X008300Y009133D01*
X008283Y009150D02*
X008417Y009150D01*
X008400Y009167D02*
X008400Y009033D01*
X008383Y009050D02*
X008470Y009050D01*
X008470Y009097D02*
X008470Y008963D01*
X007300Y010133D01*
X007283Y010150D01*
X007407Y010150D01*
X007417Y010150D01*
X007412Y010155D02*
X008470Y009097D01*
X008355Y008795D02*
X007100Y010050D01*
X006800Y010050D01*
X006200Y010650D01*
X006700Y010650D02*
X006700Y010650D01*
X006700Y010750D02*
X006700Y010750D01*
X006700Y010850D02*
X006700Y010850D01*
X006700Y010857D02*
X006407Y011150D01*
X006700Y010857D02*
X006700Y010443D01*
X006700Y010433D01*
X006695Y010438D02*
X006700Y010443D01*
X006893Y010250D01*
X006883Y010250D01*
X006695Y010438D01*
X006700Y010443D02*
X006700Y010857D01*
X006700Y010550D02*
X006700Y010550D01*
X006700Y010450D02*
X006700Y010450D01*
X006783Y010350D02*
X006793Y010350D01*
X006800Y010343D02*
X006800Y010333D01*
X006883Y010250D02*
X006893Y010250D01*
X007300Y010150D02*
X007300Y010133D01*
X007400Y010150D02*
X007400Y010033D01*
X007383Y010050D02*
X007517Y010050D01*
X007500Y010067D02*
X007500Y009933D01*
X007483Y009950D02*
X007617Y009950D01*
X007600Y009967D02*
X007600Y009833D01*
X007583Y009850D02*
X007717Y009850D01*
X007317Y009550D02*
X006983Y009550D01*
X007000Y009533D02*
X007000Y009850D01*
X007017Y009850D02*
X007817Y009050D01*
X007483Y009050D01*
X007817Y009050D01*
X007800Y009050D02*
X007800Y009067D01*
X007700Y009050D02*
X007700Y009167D01*
X007717Y009150D02*
X007383Y009150D01*
X007400Y009133D02*
X007400Y009467D01*
X007417Y009450D02*
X007083Y009450D01*
X007100Y009433D02*
X007100Y009767D01*
X007117Y009750D02*
X006635Y009750D01*
X006600Y009785D02*
X006600Y009967D01*
X006617Y009950D02*
X006352Y009950D01*
X006400Y009930D02*
X006400Y010150D01*
X006407Y010150D02*
X006417Y010150D01*
X006412Y010155D02*
X006717Y009850D01*
X007017Y009850D01*
X006900Y009850D02*
X006900Y009633D01*
X006800Y009650D02*
X006800Y009850D01*
X006300Y009970D02*
X006300Y010150D01*
X006200Y010150D02*
X006200Y009970D01*
X006100Y009970D02*
X006100Y010150D01*
X005993Y010150D02*
X006407Y010150D01*
X006412Y010155D01*
X005993Y010150D02*
X005700Y010443D01*
X005700Y010857D01*
X005407Y011150D01*
X004993Y011150D01*
X004700Y010857D01*
X004700Y012000D01*
X004600Y012000D02*
X004600Y010915D01*
X004565Y010950D02*
X004793Y010950D01*
X004800Y010957D02*
X004800Y012000D01*
X004900Y012000D02*
X004900Y011057D01*
X004893Y011050D02*
X004465Y011050D01*
X004500Y011015D02*
X004500Y012000D01*
X004400Y012000D02*
X004400Y011115D01*
X004665Y010850D02*
X004700Y010850D01*
X004700Y010857D02*
X004700Y010443D01*
X004700Y008033D01*
X004683Y008050D02*
X004917Y008050D01*
X004900Y008062D02*
X004900Y007833D01*
X004883Y007850D02*
X010350Y007850D01*
X010245Y008050D02*
X010245Y008050D01*
X010245Y008150D02*
X010245Y008150D01*
X010245Y008250D02*
X010245Y008250D01*
X010245Y008333D02*
X010245Y008333D01*
X010245Y008333D01*
X010245Y008749D01*
X010359Y008749D01*
X010367Y008747D01*
X010399Y008779D01*
X011035Y008779D01*
X011123Y008691D01*
X011123Y008543D01*
X011286Y008543D01*
X011283Y008552D01*
X011283Y008736D01*
X011552Y008736D01*
X011552Y008833D01*
X011552Y009121D01*
X011387Y009121D01*
X011357Y009113D01*
X011329Y009097D01*
X011307Y009075D01*
X011291Y009047D01*
X011283Y009017D01*
X011283Y008833D01*
X011552Y008833D01*
X011648Y008833D01*
X011648Y009121D01*
X011813Y009121D01*
X011843Y009113D01*
X011871Y009097D01*
X011893Y009075D01*
X011909Y009047D01*
X011917Y009017D01*
X011917Y008833D01*
X011648Y008833D01*
X011648Y008736D01*
X011917Y008736D01*
X011917Y008552D01*
X011909Y008522D01*
X011893Y008494D01*
X011871Y008472D01*
X011869Y008471D01*
X011947Y008394D01*
X011947Y008385D01*
X012053Y008385D01*
X012053Y008394D01*
X012131Y008471D01*
X012129Y008472D01*
X012107Y008494D01*
X012091Y008522D01*
X012083Y008552D01*
X012083Y008736D01*
X012352Y008736D01*
X012352Y008833D01*
X012083Y008833D01*
X012083Y008952D01*
X012019Y008979D01*
X011929Y009069D01*
X011880Y009186D01*
X011880Y009314D01*
X011915Y009398D01*
X011888Y009398D01*
X011800Y009486D01*
X011800Y009121D01*
X011895Y009150D02*
X010130Y009150D01*
X010130Y009050D02*
X011293Y009050D01*
X011300Y009063D02*
X011300Y010150D01*
X011400Y010150D02*
X011400Y009121D01*
X011500Y009121D02*
X011500Y010243D01*
X011507Y010250D02*
X011836Y010250D01*
X011864Y010279D02*
X011800Y010214D01*
X011800Y010343D01*
X011793Y010350D02*
X011607Y010350D01*
X011600Y010343D02*
X011600Y008833D01*
X011552Y008850D02*
X011648Y008850D01*
X011700Y008833D02*
X011700Y008736D01*
X011648Y008750D02*
X012352Y008750D01*
X012300Y008736D02*
X012300Y008833D01*
X012200Y008833D02*
X012200Y008736D01*
X012100Y008736D02*
X012100Y008833D01*
X012083Y008850D02*
X011917Y008850D01*
X011900Y008833D02*
X011900Y008736D01*
X011917Y008650D02*
X012083Y008650D01*
X012084Y008550D02*
X011916Y008550D01*
X011900Y008507D02*
X011900Y008441D01*
X011891Y008450D02*
X012109Y008450D01*
X012100Y008441D02*
X012100Y008507D01*
X012000Y008385D02*
X012000Y008997D01*
X011947Y009050D02*
X011907Y009050D01*
X011900Y009063D02*
X011900Y009138D01*
X011880Y009250D02*
X010130Y009250D01*
X010130Y009297D02*
X010988Y010155D01*
X010993Y010150D01*
X010983Y010150D01*
X010993Y010150D02*
X011407Y010150D01*
X011800Y010150D01*
X011800Y010214D02*
X011800Y009486D01*
X011836Y009450D02*
X010283Y009450D01*
X010300Y009467D02*
X010300Y008749D01*
X010245Y008749D02*
X010131Y008749D01*
X010130Y008749D01*
X010130Y009297D01*
X010183Y009350D02*
X011895Y009350D01*
X011900Y009362D02*
X011900Y009398D01*
X011800Y009550D02*
X010383Y009550D01*
X010400Y009567D02*
X010400Y008779D01*
X010371Y008750D02*
X010130Y008750D01*
X010200Y008749D02*
X010200Y009367D01*
X009930Y009380D02*
X011200Y010650D01*
X011700Y010650D02*
X011700Y010650D01*
X011700Y010750D02*
X011700Y010750D01*
X011700Y010850D02*
X011700Y010850D01*
X011700Y010857D02*
X011407Y011150D01*
X011700Y010857D02*
X011700Y010443D01*
X011700Y009121D01*
X011648Y009050D02*
X011552Y009050D01*
X011552Y008950D02*
X011648Y008950D01*
X011500Y008833D02*
X011500Y008736D01*
X011552Y008750D02*
X011064Y008750D01*
X011100Y008714D02*
X011100Y010150D01*
X011200Y010150D02*
X011200Y008543D01*
X011123Y008550D02*
X011284Y008550D01*
X011283Y008650D02*
X011123Y008650D01*
X011000Y008779D02*
X011000Y010150D01*
X010900Y010067D02*
X010900Y008779D01*
X010800Y008779D02*
X010800Y009967D01*
X010783Y009950D02*
X011800Y009950D01*
X011800Y009850D02*
X010683Y009850D01*
X010700Y009867D02*
X010700Y008779D01*
X010600Y008779D02*
X010600Y009767D01*
X010583Y009750D02*
X011800Y009750D01*
X011800Y009650D02*
X010483Y009650D01*
X010500Y009667D02*
X010500Y008779D01*
X010245Y008749D02*
X010245Y008333D01*
X010245Y008350D02*
X010245Y008350D01*
X010245Y008450D02*
X010245Y008450D01*
X010245Y008550D02*
X010245Y008550D01*
X010245Y008650D02*
X010245Y008650D01*
X010130Y008850D02*
X011283Y008850D01*
X011300Y008833D02*
X011300Y008736D01*
X011400Y008736D02*
X011400Y008833D01*
X011283Y008950D02*
X010130Y008950D01*
X009930Y009380D02*
X009930Y008333D01*
X009615Y008333D02*
X009615Y010065D01*
X010200Y010650D01*
X010700Y010650D02*
X010700Y010650D01*
X010700Y010750D02*
X010700Y010750D01*
X010700Y010850D02*
X010700Y010850D01*
X010700Y010857D02*
X010407Y011150D01*
X009993Y011150D01*
X009700Y010857D01*
X009700Y012000D01*
X009600Y012000D02*
X009600Y010957D01*
X009607Y010950D02*
X009793Y010950D01*
X009800Y010957D02*
X009800Y012000D01*
X009900Y012000D02*
X009900Y011057D01*
X009893Y011050D02*
X009507Y011050D01*
X009500Y011057D02*
X009500Y012000D01*
X009400Y012000D02*
X009400Y011150D01*
X009407Y011150D02*
X008993Y011150D01*
X009100Y011150D02*
X009100Y012000D01*
X009200Y012000D02*
X009200Y011150D01*
X009300Y011150D02*
X009300Y012000D01*
X010000Y012000D02*
X010000Y011150D01*
X010100Y011150D02*
X010100Y012000D01*
X010200Y012000D02*
X010200Y011150D01*
X010300Y011150D02*
X010300Y012000D01*
X010400Y012000D02*
X010400Y011150D01*
X010700Y010857D02*
X010700Y010443D01*
X010700Y010433D01*
X010705Y010438D02*
X009815Y009548D01*
X009815Y009982D01*
X009988Y010155D01*
X009993Y010150D01*
X009983Y010150D01*
X009993Y010150D02*
X010407Y010150D01*
X010417Y010150D01*
X010407Y010150D02*
X010700Y010443D01*
X010705Y010438D01*
X010700Y010443D02*
X010700Y010857D01*
X010700Y010550D02*
X010700Y010550D01*
X010700Y010450D02*
X010700Y010450D01*
X010617Y010350D02*
X010607Y010350D01*
X010600Y010343D02*
X010600Y010333D01*
X010517Y010250D02*
X010507Y010250D01*
X010500Y010243D02*
X010500Y010233D01*
X010400Y010150D02*
X010400Y010133D01*
X010300Y010150D02*
X010300Y010033D01*
X010317Y010050D02*
X009883Y010050D01*
X009900Y010067D02*
X009900Y009633D01*
X009917Y009650D02*
X009815Y009650D01*
X009815Y009550D02*
X009817Y009550D01*
X010000Y009733D02*
X010000Y010150D01*
X010100Y010150D02*
X010100Y009833D01*
X010117Y009850D02*
X009815Y009850D01*
X009815Y009750D02*
X010017Y009750D01*
X010200Y009933D02*
X010200Y010150D01*
X010217Y009950D02*
X009815Y009950D01*
X009500Y010233D02*
X009500Y010243D01*
X009700Y010443D01*
X009700Y010433D01*
X009705Y010438D02*
X009500Y010233D01*
X009500Y010243D01*
X009507Y010250D02*
X009517Y010250D01*
X009600Y010333D02*
X009600Y010343D01*
X009607Y010350D02*
X009617Y010350D01*
X009700Y010443D02*
X009705Y010438D01*
X009700Y010443D02*
X009700Y010857D01*
X009407Y011150D01*
X009700Y010857D02*
X009700Y010443D01*
X009700Y010450D02*
X009700Y010450D01*
X009700Y010550D02*
X009700Y010550D01*
X009700Y010650D02*
X009700Y010650D01*
X009700Y010750D02*
X009700Y010750D01*
X009700Y010850D02*
X009700Y010850D01*
X009300Y010550D02*
X009200Y010650D01*
X009300Y010550D02*
X009300Y008333D01*
X008985Y008333D02*
X008985Y009865D01*
X008785Y009350D02*
X008783Y009350D01*
X008355Y008795D02*
X008355Y008333D01*
X008040Y008333D02*
X008040Y008710D01*
X007900Y008850D01*
X007400Y008850D01*
X006800Y009450D01*
X006200Y009450D01*
X006680Y009250D02*
X006641Y009155D01*
X006495Y009009D01*
X006352Y008950D01*
X007017Y008950D01*
X007000Y008967D02*
X007000Y008533D01*
X007100Y008533D02*
X007100Y008867D01*
X007117Y008850D02*
X006535Y008850D01*
X006500Y008885D02*
X006500Y009015D01*
X006535Y009050D02*
X006917Y009050D01*
X006900Y009067D02*
X006900Y008533D01*
X006800Y008533D02*
X006800Y009167D01*
X006817Y009150D02*
X006635Y009150D01*
X006600Y009115D02*
X006600Y008785D01*
X006635Y008750D02*
X007217Y008750D01*
X007200Y008767D02*
X007200Y008533D01*
X007300Y008533D02*
X007300Y008667D01*
X007317Y008650D02*
X006680Y008650D01*
X006700Y008602D02*
X006700Y009250D01*
X006717Y009250D02*
X007317Y008650D01*
X007477Y008650D01*
X007477Y008533D01*
X006720Y008533D01*
X006720Y008553D01*
X006641Y008745D01*
X006495Y008891D01*
X006352Y008950D01*
X006400Y008930D02*
X006400Y008970D01*
X006048Y008950D02*
X005905Y008891D01*
X005759Y008745D01*
X005680Y008553D01*
X005680Y008552D01*
X005678Y008565D01*
X005654Y008638D01*
X005700Y008602D02*
X005700Y009298D01*
X005720Y009250D02*
X005648Y009250D01*
X005600Y009167D02*
X005600Y008733D01*
X005588Y008750D02*
X005765Y008750D01*
X005800Y008785D02*
X005800Y009115D01*
X005765Y009150D02*
X005588Y009150D01*
X005500Y009062D02*
X005500Y008838D01*
X005483Y008850D02*
X005865Y008850D01*
X005900Y008885D02*
X005900Y009015D01*
X005865Y009050D02*
X005483Y009050D01*
X005400Y009002D02*
X005400Y008898D01*
X005300Y008930D02*
X005300Y008970D01*
X005250Y009050D02*
X005150Y009050D01*
X005100Y008970D02*
X005100Y008930D01*
X005150Y008850D02*
X005250Y008850D01*
X005250Y008750D02*
X005150Y008750D01*
X005150Y008650D02*
X005250Y008650D01*
X005250Y008550D02*
X005150Y008550D01*
X005100Y008500D02*
X005100Y008400D01*
X005150Y008350D02*
X005250Y008350D01*
X005200Y008400D02*
X005200Y007533D01*
X005183Y007550D02*
X006601Y007550D01*
X006600Y007510D02*
X006600Y008115D01*
X006300Y007930D02*
X006300Y007510D01*
X006200Y007510D02*
X006200Y007930D01*
X006100Y007930D02*
X006100Y007510D01*
X006000Y007510D02*
X006000Y007970D01*
X006048Y007950D02*
X004783Y007950D01*
X004800Y007933D02*
X004800Y008167D01*
X004812Y008150D02*
X004600Y008150D01*
X004600Y008133D02*
X004600Y010385D01*
X004565Y010350D02*
X004793Y010350D01*
X004800Y010343D02*
X004800Y009733D01*
X004812Y009750D02*
X003983Y009750D01*
X004000Y009733D02*
X004000Y010185D01*
X003935Y010250D02*
X003683Y010250D01*
X003700Y010233D02*
X003700Y012000D01*
X003400Y012000D02*
X003400Y011833D01*
X002700Y011876D02*
X002579Y011997D01*
X002130Y011997D01*
X002200Y011997D02*
X002200Y012000D01*
X002300Y011997D02*
X002300Y012000D01*
X002400Y011997D02*
X002400Y012000D01*
X002500Y011997D02*
X002500Y012000D01*
X002600Y012000D02*
X002600Y011976D01*
X002355Y011650D02*
X002355Y011395D01*
X002008Y011450D02*
X001794Y011450D01*
X001776Y011550D02*
X002008Y011550D01*
X002008Y011650D02*
X001735Y011650D01*
X001700Y011719D02*
X001700Y012000D01*
X001600Y012000D02*
X001600Y011819D01*
X001569Y011850D02*
X002008Y011850D01*
X002008Y011750D02*
X001669Y011750D01*
X001500Y011885D02*
X001500Y012000D01*
X001400Y012000D02*
X001400Y011926D01*
X001300Y011944D02*
X001300Y012000D01*
X001100Y011990D02*
X001100Y011926D01*
X000831Y011750D02*
X000740Y011750D01*
X000724Y011550D02*
X000660Y011550D01*
X000650Y011350D02*
X000706Y011350D01*
X000724Y011250D02*
X000650Y011250D01*
X000500Y011952D02*
X000500Y012150D01*
X000500Y011952D01*
X000698Y012150D01*
X000500Y012150D01*
X000600Y012150D02*
X000600Y012052D01*
X000598Y012050D02*
X000500Y012050D01*
X001800Y012000D02*
X001800Y010950D01*
X002691Y011050D02*
X002709Y011050D01*
X002700Y011041D01*
X002700Y011050D01*
X002700Y011041D02*
X002691Y011050D01*
X003600Y010550D02*
X003730Y010550D01*
X003800Y010600D02*
X003800Y010700D01*
X003900Y010700D02*
X003900Y010600D01*
X004000Y010600D02*
X004000Y010700D01*
X004100Y010700D02*
X004100Y010600D01*
X004150Y010550D02*
X004250Y010550D01*
X004250Y010450D02*
X004150Y010450D01*
X004150Y010350D02*
X004250Y010350D01*
X004400Y010185D02*
X004400Y009333D01*
X004383Y009350D02*
X004720Y009350D01*
X004800Y009400D02*
X004800Y009500D01*
X004900Y009500D02*
X004900Y009400D01*
X005000Y009400D02*
X005000Y009500D01*
X005150Y009550D02*
X005250Y009550D01*
X005200Y009500D02*
X005200Y010150D01*
X005100Y010150D02*
X005100Y009930D01*
X005150Y009850D02*
X005250Y009850D01*
X005300Y009930D02*
X005300Y010150D01*
X005000Y010150D02*
X005000Y009898D01*
X004917Y009850D02*
X003900Y009850D01*
X003900Y009833D02*
X003900Y010285D01*
X003735Y010450D02*
X003600Y010450D01*
X004250Y010650D02*
X004700Y010650D01*
X004700Y010750D02*
X004670Y010750D01*
X004600Y010700D02*
X004600Y010600D01*
X004670Y010550D02*
X004700Y010550D01*
X004700Y010450D02*
X004665Y010450D01*
X004700Y010443D02*
X004993Y010150D01*
X004900Y010243D02*
X004900Y009838D01*
X005150Y009750D02*
X005250Y009750D01*
X005250Y009650D02*
X005150Y009650D01*
X005150Y009350D02*
X005250Y009350D01*
X005250Y009250D02*
X005150Y009250D01*
X005150Y009150D02*
X005250Y009150D01*
X005000Y009002D02*
X005000Y008898D01*
X005000Y008500D02*
X005000Y008400D01*
X004900Y008400D02*
X004900Y008500D01*
X004800Y008500D02*
X004800Y008400D01*
X004720Y008350D02*
X004600Y008350D01*
X004600Y008250D02*
X004752Y008250D01*
X005150Y008250D02*
X005250Y008250D01*
X005250Y008150D02*
X005150Y008150D01*
X005150Y008050D02*
X005250Y008050D01*
X005300Y007970D02*
X005300Y007510D01*
X005400Y007510D02*
X005400Y008002D01*
X005483Y008050D02*
X005865Y008050D01*
X005900Y008015D02*
X005900Y007510D01*
X005800Y007510D02*
X005800Y008115D01*
X005765Y008150D02*
X005588Y008150D01*
X005600Y008167D02*
X005600Y007510D01*
X005500Y007510D02*
X005500Y008062D01*
X005648Y008250D02*
X005720Y008250D01*
X005700Y008298D02*
X005700Y007510D01*
X006720Y008550D02*
X007477Y008550D01*
X007400Y008533D02*
X007400Y008650D01*
X007600Y009050D02*
X007600Y009267D01*
X007617Y009250D02*
X007283Y009250D01*
X007300Y009233D02*
X007300Y009567D01*
X006717Y009250D02*
X006680Y009250D01*
X006000Y008970D02*
X006000Y008930D01*
X004752Y009250D02*
X004483Y009250D01*
X004500Y009233D02*
X004500Y010285D01*
X004465Y010250D02*
X004893Y010250D01*
X004500Y010600D02*
X004500Y010700D01*
X004400Y010700D02*
X004400Y010600D01*
X005000Y011150D02*
X005000Y012000D01*
X005100Y012000D02*
X005100Y011150D01*
X005200Y011150D02*
X005200Y012000D01*
X005300Y012000D02*
X005300Y011150D01*
X005400Y011150D02*
X005400Y012000D01*
X005700Y010857D02*
X005700Y010443D01*
X005700Y010450D02*
X005700Y010450D01*
X005700Y010550D02*
X005700Y010550D01*
X005700Y010650D02*
X005700Y010650D01*
X005700Y010750D02*
X005700Y010750D01*
X005700Y010850D02*
X005700Y010850D01*
X007407Y010150D02*
X007412Y010155D01*
X008100Y011150D02*
X008100Y012000D01*
X008200Y012000D02*
X008200Y011150D01*
X008300Y011150D02*
X008300Y012000D01*
X008400Y012000D02*
X008400Y011150D01*
X010883Y010050D02*
X011800Y010050D01*
X011864Y010279D02*
X011700Y010443D01*
X011407Y010150D01*
X011700Y010443D02*
X011700Y010857D01*
X011700Y010550D02*
X011700Y010550D01*
X011700Y010450D02*
X011700Y010450D01*
X012200Y010650D02*
X012200Y010027D01*
X012600Y010150D02*
X012800Y010150D01*
X012800Y010214D02*
X012864Y010279D01*
X012700Y010443D01*
X012700Y010857D01*
X012407Y011150D01*
X012700Y010857D02*
X012700Y010443D01*
X012700Y010450D02*
X012700Y010450D01*
X012700Y010550D02*
X012700Y010550D01*
X012700Y010650D02*
X012700Y010650D01*
X012700Y010750D02*
X012700Y010750D01*
X012700Y010850D02*
X012700Y010850D01*
X012564Y010250D02*
X012836Y010250D01*
X012200Y009673D02*
X012200Y009250D01*
X012083Y008950D02*
X011917Y008950D01*
X011800Y008833D02*
X011800Y008736D01*
X011482Y008233D02*
X011600Y008115D01*
X011969Y007845D02*
X011979Y007835D01*
X012055Y007835D01*
X012053Y007837D01*
X012053Y007845D01*
X011969Y007845D01*
X012000Y007845D02*
X012000Y007835D01*
X013200Y008115D02*
X014000Y008115D01*
X015247Y007267D02*
X015336Y007230D01*
X015464Y007230D01*
X015581Y007279D01*
X015590Y007287D01*
X015590Y007220D01*
X015498Y007220D01*
X015488Y007210D01*
X015220Y007210D01*
X015247Y007237D01*
X015247Y007267D01*
X015247Y007250D02*
X015288Y007250D01*
X015300Y007245D02*
X015300Y007210D01*
X015400Y007210D02*
X015400Y007230D01*
X015500Y007220D02*
X015500Y007245D01*
X015512Y007250D02*
X015590Y007250D01*
X016010Y007250D02*
X016300Y007250D01*
X016300Y007150D02*
X016272Y007150D01*
X016290Y007132D02*
X016202Y007220D01*
X016010Y007220D01*
X016010Y007749D01*
X016059Y007749D01*
X016147Y007837D01*
X016147Y007940D01*
X016287Y007940D01*
X016300Y007953D01*
X016300Y007133D01*
X016290Y007123D01*
X016290Y007132D01*
X016200Y007220D02*
X016200Y007940D01*
X016297Y007950D02*
X016300Y007950D01*
X016300Y007850D02*
X016147Y007850D01*
X016100Y007790D02*
X016100Y007220D01*
X016010Y007350D02*
X016300Y007350D01*
X016300Y007450D02*
X016010Y007450D01*
X016010Y007550D02*
X016300Y007550D01*
X016300Y007650D02*
X016010Y007650D01*
X016060Y007750D02*
X016300Y007750D01*
X016900Y007910D02*
X016900Y008367D01*
X016911Y008378D01*
X016987Y008303D01*
X017544Y008303D01*
X017600Y008359D01*
X017600Y007941D01*
X017544Y007997D01*
X016987Y007997D01*
X016900Y007910D01*
X016900Y008367D01*
X016900Y008350D02*
X016940Y008350D01*
X017000Y008303D02*
X017000Y007997D01*
X016940Y007950D02*
X016900Y007950D01*
X016900Y008050D02*
X018565Y008050D01*
X018600Y008085D02*
X018600Y008215D01*
X018605Y008209D02*
X018748Y008150D01*
X016900Y008150D01*
X016900Y008250D02*
X018565Y008250D01*
X018605Y008209D02*
X018459Y008355D01*
X018432Y008420D01*
X018301Y008420D01*
X018301Y008391D01*
X018213Y008303D01*
X017656Y008303D01*
X017600Y008359D01*
X017591Y008350D02*
X017609Y008350D01*
X017700Y008303D02*
X017700Y007997D01*
X017656Y007997D02*
X017600Y007941D01*
X017591Y007950D02*
X017609Y007950D01*
X017656Y007997D02*
X018213Y007997D01*
X018301Y007909D01*
X018301Y007880D01*
X018432Y007880D01*
X018459Y007945D01*
X018605Y008091D01*
X018748Y008150D01*
X018700Y008130D02*
X018700Y008170D01*
X018500Y008315D02*
X018500Y007985D01*
X018465Y007950D02*
X018260Y007950D01*
X018300Y007910D02*
X018300Y008390D01*
X018260Y008350D02*
X018465Y008350D01*
X018400Y008420D02*
X018400Y007880D01*
X018200Y007997D02*
X018200Y008303D01*
X018100Y008303D02*
X018100Y007997D01*
X018000Y007997D02*
X018000Y008303D01*
X017900Y008303D02*
X017900Y007997D01*
X017800Y007997D02*
X017800Y008303D01*
X017500Y008303D02*
X017500Y007997D01*
X017400Y007997D02*
X017400Y008303D01*
X017300Y008303D02*
X017300Y007997D01*
X017200Y007997D02*
X017200Y008303D01*
X017100Y008303D02*
X017100Y007997D01*
X017000Y007650D02*
X017265Y007650D01*
X017000Y007650D02*
X016900Y007550D01*
X016900Y006850D01*
X016700Y006650D01*
X016700Y006150D01*
X016530Y005980D01*
X015850Y005980D01*
X015850Y006230D02*
X016380Y006230D01*
X016500Y006350D01*
X016500Y006750D01*
X016700Y006950D01*
X016700Y008450D01*
X016900Y008650D01*
X017265Y008650D01*
X017591Y008950D02*
X017609Y008950D01*
X017600Y008941D02*
X017600Y009359D01*
X017656Y009303D01*
X018213Y009303D01*
X018301Y009391D01*
X018301Y009420D01*
X018432Y009420D01*
X018459Y009355D01*
X018605Y009209D01*
X018748Y009150D01*
X017000Y009150D01*
X017000Y009050D02*
X018565Y009050D01*
X018600Y009085D02*
X018600Y009215D01*
X018565Y009250D02*
X017000Y009250D01*
X017000Y009303D02*
X017000Y008997D01*
X017000Y009303D01*
X017544Y009303D01*
X017600Y009359D01*
X017591Y009350D02*
X017609Y009350D01*
X017700Y009303D02*
X017700Y008997D01*
X017656Y008997D02*
X017600Y008941D01*
X017544Y008997D01*
X017000Y008997D01*
X017100Y008997D02*
X017100Y009303D01*
X017200Y009303D02*
X017200Y008997D01*
X017300Y008997D02*
X017300Y009303D01*
X017400Y009303D02*
X017400Y008997D01*
X017500Y008997D02*
X017500Y009303D01*
X017800Y009303D02*
X017800Y008997D01*
X017900Y008997D02*
X017900Y009303D01*
X018000Y009303D02*
X018000Y008997D01*
X018100Y008997D02*
X018100Y009303D01*
X018200Y009303D02*
X018200Y008997D01*
X018213Y008997D02*
X017656Y008997D01*
X018213Y008997D02*
X018301Y008909D01*
X018301Y008880D01*
X018432Y008880D01*
X018459Y008945D01*
X018605Y009091D01*
X018748Y009150D01*
X018700Y009130D02*
X018700Y009170D01*
X018500Y009315D02*
X018500Y008985D01*
X018465Y008950D02*
X018260Y008950D01*
X018300Y008910D02*
X018300Y009390D01*
X018260Y009350D02*
X018465Y009350D01*
X018400Y009420D02*
X018400Y008880D01*
X019052Y009150D02*
X019748Y009150D01*
X019605Y009091D01*
X019459Y008945D01*
X019400Y008802D01*
X019400Y009498D01*
X019459Y009355D01*
X019605Y009209D01*
X019748Y009150D01*
X019700Y009130D02*
X019700Y009170D01*
X019600Y009215D02*
X019600Y009085D01*
X019565Y009050D02*
X019235Y009050D01*
X019200Y009085D02*
X019200Y009215D01*
X019195Y009209D02*
X019341Y009355D01*
X019400Y009498D01*
X019380Y009450D02*
X019420Y009450D01*
X019465Y009350D02*
X019335Y009350D01*
X019300Y009315D02*
X019300Y008985D01*
X019335Y008950D02*
X019465Y008950D01*
X019500Y008985D02*
X019500Y009315D01*
X019565Y009250D02*
X019235Y009250D01*
X019195Y009209D02*
X019052Y009150D01*
X019195Y009091D01*
X019341Y008945D01*
X019400Y008802D01*
X019380Y008850D02*
X019420Y008850D01*
X019400Y008498D02*
X019459Y008355D01*
X019605Y008209D01*
X019748Y008150D01*
X019052Y008150D01*
X019195Y008209D01*
X019341Y008355D01*
X019400Y008498D01*
X019400Y007802D01*
X019341Y007945D01*
X019195Y008091D01*
X019052Y008150D01*
X019100Y008130D02*
X019100Y008170D01*
X019200Y008215D02*
X019200Y008085D01*
X019235Y008050D02*
X019565Y008050D01*
X019600Y008085D02*
X019600Y008215D01*
X019565Y008250D02*
X019235Y008250D01*
X019300Y008315D02*
X019300Y007985D01*
X019335Y007950D02*
X019465Y007950D01*
X019459Y007945D02*
X019400Y007802D01*
X019380Y007850D02*
X019420Y007850D01*
X019459Y007945D02*
X019605Y008091D01*
X019748Y008150D01*
X019700Y008130D02*
X019700Y008170D01*
X019500Y008315D02*
X019500Y007985D01*
X019465Y008350D02*
X019335Y008350D01*
X019380Y008450D02*
X019420Y008450D01*
X020052Y008150D02*
X021350Y008150D01*
X021350Y008050D02*
X021183Y008050D01*
X021200Y008038D02*
X021200Y008262D01*
X021183Y008250D02*
X021350Y008250D01*
X021350Y008350D02*
X021288Y008350D01*
X021300Y008367D02*
X021300Y007933D01*
X021288Y007950D02*
X021350Y007950D01*
X021319Y007907D02*
X021274Y007969D01*
X021219Y008024D01*
X021157Y008069D01*
X021088Y008104D01*
X021015Y008128D01*
X020950Y008138D01*
X020950Y007700D01*
X020850Y007700D01*
X020850Y008138D01*
X020785Y008128D01*
X020712Y008104D01*
X020643Y008069D01*
X020581Y008024D01*
X020526Y007969D01*
X020481Y007907D01*
X020446Y007838D01*
X020422Y007765D01*
X020420Y007752D01*
X020420Y007753D01*
X020341Y007945D01*
X020195Y008091D01*
X020052Y008150D01*
X020195Y008209D01*
X020341Y008355D01*
X020420Y008547D01*
X020420Y008548D01*
X020422Y008535D01*
X020446Y008462D01*
X020481Y008393D01*
X020526Y008331D01*
X020581Y008276D01*
X020643Y008231D01*
X020712Y008196D01*
X020785Y008172D01*
X020850Y008162D01*
X020850Y008600D01*
X020950Y008600D01*
X020950Y008162D01*
X021015Y008172D01*
X021088Y008196D01*
X021157Y008231D01*
X021219Y008276D01*
X021274Y008331D01*
X021319Y008393D01*
X021350Y008454D01*
X021350Y007846D01*
X021319Y007907D01*
X021348Y007850D02*
X021350Y007850D01*
X021100Y008098D02*
X021100Y008202D01*
X021000Y008170D02*
X021000Y008130D01*
X020950Y008050D02*
X020850Y008050D01*
X020800Y008130D02*
X020800Y008170D01*
X020850Y008250D02*
X020950Y008250D01*
X020950Y008350D02*
X020850Y008350D01*
X020850Y008450D02*
X020950Y008450D01*
X020950Y008550D02*
X020850Y008550D01*
X020900Y008600D02*
X020900Y007700D01*
X020850Y007750D02*
X020950Y007750D01*
X020950Y007850D02*
X020850Y007850D01*
X020850Y007950D02*
X020950Y007950D01*
X020617Y008050D02*
X020235Y008050D01*
X020200Y008085D02*
X020200Y008215D01*
X020235Y008250D02*
X020617Y008250D01*
X020600Y008262D02*
X020600Y008038D01*
X020700Y008098D02*
X020700Y008202D01*
X020512Y008350D02*
X020335Y008350D01*
X020300Y008315D02*
X020300Y007985D01*
X020335Y007950D02*
X020512Y007950D01*
X020500Y007933D02*
X020500Y008367D01*
X020452Y008450D02*
X020380Y008450D01*
X020400Y008498D02*
X020400Y007802D01*
X020380Y007850D02*
X020452Y007850D01*
X020100Y008130D02*
X020100Y008170D01*
X020850Y008700D02*
X020850Y009138D01*
X020785Y009128D01*
X020712Y009104D01*
X020643Y009069D01*
X020581Y009024D01*
X020526Y008969D01*
X020481Y008907D01*
X020446Y008838D01*
X020422Y008765D01*
X020420Y008752D01*
X020420Y008753D01*
X020341Y008945D01*
X020195Y009091D01*
X020052Y009150D01*
X021350Y009150D01*
X021350Y009050D02*
X021183Y009050D01*
X021200Y009038D02*
X021200Y009262D01*
X021183Y009250D02*
X021350Y009250D01*
X021350Y009350D02*
X021288Y009350D01*
X021300Y009367D02*
X021300Y008933D01*
X021288Y008950D02*
X021350Y008950D01*
X021319Y008907D02*
X021274Y008969D01*
X021219Y009024D01*
X021157Y009069D01*
X021088Y009104D01*
X021015Y009128D01*
X020950Y009138D01*
X020950Y008700D01*
X020850Y008700D01*
X020900Y008700D02*
X020900Y009600D01*
X020950Y009600D02*
X020950Y009162D01*
X021015Y009172D01*
X021088Y009196D01*
X021157Y009231D01*
X021219Y009276D01*
X021274Y009331D01*
X021319Y009393D01*
X021350Y009454D01*
X021350Y008846D01*
X021319Y008907D01*
X021348Y008850D02*
X021350Y008850D01*
X021100Y009098D02*
X021100Y009202D01*
X021000Y009170D02*
X021000Y009130D01*
X020950Y009050D02*
X020850Y009050D01*
X020800Y009130D02*
X020800Y009170D01*
X020785Y009172D02*
X020850Y009162D01*
X020850Y009600D01*
X020950Y009600D01*
X020950Y009550D02*
X020850Y009550D01*
X020850Y009450D02*
X020950Y009450D01*
X020950Y009350D02*
X020850Y009350D01*
X020850Y009250D02*
X020950Y009250D01*
X020785Y009172D02*
X020712Y009196D01*
X020643Y009231D01*
X020581Y009276D01*
X020526Y009331D01*
X020481Y009393D01*
X020446Y009462D01*
X020422Y009535D01*
X020420Y009548D01*
X020420Y009547D01*
X020341Y009355D01*
X020195Y009209D01*
X020052Y009150D01*
X020100Y009130D02*
X020100Y009170D01*
X020200Y009215D02*
X020200Y009085D01*
X020235Y009050D02*
X020617Y009050D01*
X020600Y009038D02*
X020600Y009262D01*
X020617Y009250D02*
X020235Y009250D01*
X020300Y009315D02*
X020300Y008985D01*
X020335Y008950D02*
X020512Y008950D01*
X020500Y008933D02*
X020500Y009367D01*
X020512Y009350D02*
X020335Y009350D01*
X020380Y009450D02*
X020452Y009450D01*
X020400Y009498D02*
X020400Y008802D01*
X020380Y008850D02*
X020452Y008850D01*
X020700Y009098D02*
X020700Y009202D01*
X020850Y008950D02*
X020950Y008950D01*
X020950Y008850D02*
X020850Y008850D01*
X020850Y008750D02*
X020950Y008750D01*
X021348Y008450D02*
X021350Y008450D01*
X020950Y007600D02*
X020950Y007162D01*
X021015Y007172D01*
X021088Y007196D01*
X021157Y007231D01*
X021219Y007276D01*
X021274Y007331D01*
X021319Y007393D01*
X021350Y007454D01*
X021350Y006846D01*
X021319Y006907D01*
X021274Y006969D01*
X021219Y007024D01*
X021157Y007069D01*
X021088Y007104D01*
X021015Y007128D01*
X020950Y007138D01*
X020950Y006700D01*
X020850Y006700D01*
X020850Y007138D01*
X020785Y007128D01*
X020712Y007104D01*
X020643Y007069D01*
X020581Y007024D01*
X020526Y006969D01*
X020481Y006907D01*
X020446Y006838D01*
X020422Y006765D01*
X020420Y006752D01*
X020420Y006753D01*
X020341Y006945D01*
X020195Y007091D01*
X020052Y007150D01*
X021350Y007150D01*
X021350Y007050D02*
X021183Y007050D01*
X021200Y007038D02*
X021200Y007262D01*
X021183Y007250D02*
X021350Y007250D01*
X021350Y007350D02*
X021288Y007350D01*
X021300Y007367D02*
X021300Y006933D01*
X021288Y006950D02*
X021350Y006950D01*
X021348Y006850D02*
X021350Y006850D01*
X021100Y007098D02*
X021100Y007202D01*
X021000Y007170D02*
X021000Y007130D01*
X020950Y007050D02*
X020850Y007050D01*
X020800Y007130D02*
X020800Y007170D01*
X020785Y007172D02*
X020850Y007162D01*
X020850Y007600D01*
X020950Y007600D01*
X020900Y007600D02*
X020900Y006700D01*
X020850Y006750D02*
X020950Y006750D01*
X020950Y006850D02*
X020850Y006850D01*
X020850Y006950D02*
X020950Y006950D01*
X020617Y007050D02*
X020235Y007050D01*
X020200Y007085D02*
X020200Y007215D01*
X020195Y007209D02*
X020052Y007150D01*
X020100Y007130D02*
X020100Y007170D01*
X020195Y007209D02*
X020341Y007355D01*
X020420Y007547D01*
X020420Y007548D01*
X020422Y007535D01*
X020446Y007462D01*
X020481Y007393D01*
X020526Y007331D01*
X020581Y007276D01*
X020643Y007231D01*
X020712Y007196D01*
X020785Y007172D01*
X020700Y007202D02*
X020700Y007098D01*
X020600Y007038D02*
X020600Y007262D01*
X020617Y007250D02*
X020235Y007250D01*
X020300Y007315D02*
X020300Y006985D01*
X020335Y006950D02*
X020512Y006950D01*
X020500Y006933D02*
X020500Y007367D01*
X020512Y007350D02*
X020335Y007350D01*
X020380Y007450D02*
X020452Y007450D01*
X020400Y007498D02*
X020400Y006802D01*
X020380Y006850D02*
X020452Y006850D01*
X020850Y006600D02*
X020950Y006600D01*
X020950Y006162D01*
X021015Y006172D01*
X021088Y006196D01*
X021157Y006231D01*
X021219Y006276D01*
X021274Y006331D01*
X021319Y006393D01*
X021350Y006454D01*
X021350Y005846D01*
X021319Y005907D01*
X021274Y005969D01*
X021219Y006024D01*
X021157Y006069D01*
X021088Y006104D01*
X021015Y006128D01*
X020950Y006138D01*
X020950Y005700D01*
X020850Y005700D01*
X020850Y006138D01*
X020785Y006128D01*
X020712Y006104D01*
X020643Y006069D01*
X020581Y006024D01*
X020526Y005969D01*
X020481Y005907D01*
X020446Y005838D01*
X020422Y005765D01*
X020420Y005752D01*
X020420Y005753D01*
X020341Y005945D01*
X020195Y006091D01*
X020052Y006150D01*
X021350Y006150D01*
X021350Y006050D02*
X021183Y006050D01*
X021200Y006038D02*
X021200Y006262D01*
X021183Y006250D02*
X021350Y006250D01*
X021350Y006350D02*
X021288Y006350D01*
X021300Y006367D02*
X021300Y005933D01*
X021288Y005950D02*
X021350Y005950D01*
X021348Y005850D02*
X021350Y005850D01*
X021100Y006098D02*
X021100Y006202D01*
X021000Y006170D02*
X021000Y006130D01*
X020950Y006050D02*
X020850Y006050D01*
X020800Y006130D02*
X020800Y006170D01*
X020785Y006172D02*
X020850Y006162D01*
X020850Y006600D01*
X020900Y006600D02*
X020900Y005700D01*
X020850Y005750D02*
X020950Y005750D01*
X020950Y005850D02*
X020850Y005850D01*
X020850Y005950D02*
X020950Y005950D01*
X020785Y006172D02*
X020712Y006196D01*
X020643Y006231D01*
X020581Y006276D01*
X020526Y006331D01*
X020481Y006393D01*
X020446Y006462D01*
X020422Y006535D01*
X020420Y006548D01*
X020420Y006547D01*
X020341Y006355D01*
X020195Y006209D01*
X020052Y006150D01*
X020100Y006130D02*
X020100Y006170D01*
X020200Y006215D02*
X020200Y006085D01*
X020235Y006050D02*
X020617Y006050D01*
X020600Y006038D02*
X020600Y006262D01*
X020617Y006250D02*
X020235Y006250D01*
X020300Y006315D02*
X020300Y005985D01*
X020335Y005950D02*
X020512Y005950D01*
X020500Y005933D02*
X020500Y006367D01*
X020512Y006350D02*
X020335Y006350D01*
X020380Y006450D02*
X020452Y006450D01*
X020400Y006498D02*
X020400Y005802D01*
X020380Y005850D02*
X020452Y005850D01*
X020700Y006098D02*
X020700Y006202D01*
X020850Y006250D02*
X020950Y006250D01*
X020950Y006350D02*
X020850Y006350D01*
X020850Y006450D02*
X020950Y006450D01*
X020950Y006550D02*
X020850Y006550D01*
X021348Y006450D02*
X021350Y006450D01*
X020950Y005600D02*
X020950Y005162D01*
X021015Y005172D01*
X021088Y005196D01*
X021157Y005231D01*
X021219Y005276D01*
X021274Y005331D01*
X021319Y005393D01*
X021350Y005454D01*
X021350Y004846D01*
X021319Y004907D01*
X021274Y004969D01*
X021219Y005024D01*
X021157Y005069D01*
X021088Y005104D01*
X021015Y005128D01*
X020950Y005138D01*
X020950Y004700D01*
X020850Y004700D01*
X020850Y005138D01*
X020785Y005128D01*
X020712Y005104D01*
X020643Y005069D01*
X020581Y005024D01*
X020526Y004969D01*
X020481Y004907D01*
X020446Y004838D01*
X020422Y004765D01*
X020420Y004752D01*
X020420Y004753D01*
X020341Y004945D01*
X020195Y005091D01*
X020052Y005150D01*
X021350Y005150D01*
X021350Y005050D02*
X021183Y005050D01*
X021200Y005038D02*
X021200Y005262D01*
X021183Y005250D02*
X021350Y005250D01*
X021350Y005350D02*
X021288Y005350D01*
X021300Y005367D02*
X021300Y004933D01*
X021288Y004950D02*
X021350Y004950D01*
X021348Y004850D02*
X021350Y004850D01*
X021100Y005098D02*
X021100Y005202D01*
X021000Y005170D02*
X021000Y005130D01*
X020950Y005050D02*
X020850Y005050D01*
X020800Y005130D02*
X020800Y005170D01*
X020785Y005172D02*
X020850Y005162D01*
X020850Y005600D01*
X020950Y005600D01*
X020900Y005600D02*
X020900Y004700D01*
X020850Y004750D02*
X020950Y004750D01*
X020950Y004850D02*
X020850Y004850D01*
X020850Y004950D02*
X020950Y004950D01*
X020785Y005172D02*
X020712Y005196D01*
X020643Y005231D01*
X020581Y005276D01*
X020526Y005331D01*
X020481Y005393D01*
X020446Y005462D01*
X020422Y005535D01*
X020420Y005548D01*
X020420Y005547D01*
X020341Y005355D01*
X020195Y005209D01*
X020052Y005150D01*
X020100Y005130D02*
X020100Y005170D01*
X020200Y005215D02*
X020200Y005085D01*
X020235Y005050D02*
X020617Y005050D01*
X020600Y005038D02*
X020600Y005262D01*
X020617Y005250D02*
X020235Y005250D01*
X020300Y005315D02*
X020300Y004985D01*
X020335Y004950D02*
X020512Y004950D01*
X020500Y004933D02*
X020500Y005367D01*
X020512Y005350D02*
X020335Y005350D01*
X020380Y005450D02*
X020452Y005450D01*
X020400Y005498D02*
X020400Y004802D01*
X020380Y004850D02*
X020452Y004850D01*
X020700Y005098D02*
X020700Y005202D01*
X020850Y005250D02*
X020950Y005250D01*
X020950Y005350D02*
X020850Y005350D01*
X020850Y005450D02*
X020950Y005450D01*
X020950Y005550D02*
X020850Y005550D01*
X021348Y005450D02*
X021350Y005450D01*
X020950Y004600D02*
X020950Y004162D01*
X021015Y004172D01*
X021088Y004196D01*
X021157Y004231D01*
X021219Y004276D01*
X021274Y004331D01*
X021319Y004393D01*
X021350Y004454D01*
X021350Y003846D01*
X021319Y003907D01*
X021274Y003969D01*
X021219Y004024D01*
X021157Y004069D01*
X021088Y004104D01*
X021015Y004128D01*
X020950Y004138D01*
X020950Y003700D01*
X020850Y003700D01*
X020850Y004138D01*
X020785Y004128D01*
X020712Y004104D01*
X020643Y004069D01*
X020581Y004024D01*
X020526Y003969D01*
X020481Y003907D01*
X020446Y003838D01*
X020422Y003765D01*
X020420Y003752D01*
X020420Y003753D01*
X020341Y003945D01*
X020195Y004091D01*
X020052Y004150D01*
X021350Y004150D01*
X021350Y004050D02*
X021183Y004050D01*
X021200Y004038D02*
X021200Y004262D01*
X021183Y004250D02*
X021350Y004250D01*
X021350Y004350D02*
X021288Y004350D01*
X021300Y004367D02*
X021300Y003933D01*
X021288Y003950D02*
X021350Y003950D01*
X021348Y003850D02*
X021350Y003850D01*
X021100Y004098D02*
X021100Y004202D01*
X021000Y004170D02*
X021000Y004130D01*
X020950Y004050D02*
X020850Y004050D01*
X020800Y004130D02*
X020800Y004170D01*
X020785Y004172D02*
X020850Y004162D01*
X020850Y004600D01*
X020950Y004600D01*
X020900Y004600D02*
X020900Y003700D01*
X020850Y003750D02*
X020950Y003750D01*
X020950Y003850D02*
X020850Y003850D01*
X020850Y003950D02*
X020950Y003950D01*
X020785Y004172D02*
X020712Y004196D01*
X020643Y004231D01*
X020581Y004276D01*
X020526Y004331D01*
X020481Y004393D01*
X020446Y004462D01*
X020422Y004535D01*
X020420Y004548D01*
X020420Y004547D01*
X020341Y004355D01*
X020195Y004209D01*
X020052Y004150D01*
X020100Y004130D02*
X020100Y004170D01*
X020200Y004215D02*
X020200Y004085D01*
X020235Y004050D02*
X020617Y004050D01*
X020600Y004038D02*
X020600Y004262D01*
X020617Y004250D02*
X020235Y004250D01*
X020300Y004315D02*
X020300Y003985D01*
X020335Y003950D02*
X020512Y003950D01*
X020500Y003933D02*
X020500Y004367D01*
X020512Y004350D02*
X020335Y004350D01*
X020380Y004450D02*
X020452Y004450D01*
X020400Y004498D02*
X020400Y003802D01*
X020380Y003850D02*
X020452Y003850D01*
X020420Y003548D02*
X020422Y003535D01*
X020446Y003462D01*
X020481Y003393D01*
X020526Y003331D01*
X020581Y003276D01*
X020643Y003231D01*
X020712Y003196D01*
X020785Y003172D01*
X020850Y003162D01*
X020850Y003600D01*
X020950Y003600D01*
X020950Y003162D01*
X021015Y003172D01*
X021088Y003196D01*
X021157Y003231D01*
X021219Y003276D01*
X021274Y003331D01*
X021319Y003393D01*
X021350Y003454D01*
X021350Y002846D01*
X021319Y002907D01*
X021274Y002969D01*
X021219Y003024D01*
X021157Y003069D01*
X021088Y003104D01*
X021015Y003128D01*
X020950Y003138D01*
X020950Y002700D01*
X020850Y002700D01*
X020850Y003138D01*
X020785Y003128D01*
X020712Y003104D01*
X020643Y003069D01*
X020581Y003024D01*
X020526Y002969D01*
X020481Y002907D01*
X020446Y002838D01*
X020422Y002765D01*
X020420Y002752D01*
X020420Y002753D01*
X020341Y002945D01*
X020195Y003091D01*
X020052Y003150D01*
X021350Y003150D01*
X021350Y003050D02*
X021183Y003050D01*
X021200Y003038D02*
X021200Y003262D01*
X021183Y003250D02*
X021350Y003250D01*
X021350Y003350D02*
X021288Y003350D01*
X021300Y003367D02*
X021300Y002933D01*
X021288Y002950D02*
X021350Y002950D01*
X021348Y002850D02*
X021350Y002850D01*
X021100Y003098D02*
X021100Y003202D01*
X021000Y003170D02*
X021000Y003130D01*
X020950Y003050D02*
X020850Y003050D01*
X020800Y003130D02*
X020800Y003170D01*
X020850Y003250D02*
X020950Y003250D01*
X020950Y003350D02*
X020850Y003350D01*
X020850Y003450D02*
X020950Y003450D01*
X020950Y003550D02*
X020850Y003550D01*
X020900Y003600D02*
X020900Y002700D01*
X020850Y002750D02*
X020950Y002750D01*
X020950Y002850D02*
X020850Y002850D01*
X020850Y002950D02*
X020950Y002950D01*
X020700Y003098D02*
X020700Y003202D01*
X020617Y003250D02*
X020235Y003250D01*
X020200Y003215D02*
X020200Y003085D01*
X020235Y003050D02*
X020617Y003050D01*
X020600Y003038D02*
X020600Y003262D01*
X020512Y003350D02*
X020335Y003350D01*
X020341Y003355D02*
X020420Y003547D01*
X020420Y003548D01*
X020400Y003498D02*
X020400Y002802D01*
X020380Y002850D02*
X020452Y002850D01*
X020500Y002933D02*
X020500Y003367D01*
X020452Y003450D02*
X020380Y003450D01*
X020341Y003355D02*
X020195Y003209D01*
X020052Y003150D01*
X020100Y003130D02*
X020100Y003170D01*
X020300Y003315D02*
X020300Y002985D01*
X020335Y002950D02*
X020512Y002950D01*
X020420Y002548D02*
X020422Y002535D01*
X020446Y002462D01*
X020481Y002393D01*
X020526Y002331D01*
X020581Y002276D01*
X020643Y002231D01*
X020712Y002196D01*
X020785Y002172D01*
X020850Y002162D01*
X020850Y002600D01*
X020950Y002600D01*
X020950Y002162D01*
X021015Y002172D01*
X021088Y002196D01*
X021157Y002231D01*
X021219Y002276D01*
X021274Y002331D01*
X021319Y002393D01*
X021350Y002454D01*
X021350Y000850D01*
X017844Y000850D01*
X017844Y000792D02*
X017761Y000592D01*
X017608Y000439D01*
X017408Y000356D01*
X017192Y000356D01*
X016992Y000439D01*
X016839Y000592D01*
X016756Y000792D01*
X016756Y001008D01*
X016839Y001208D01*
X016992Y001361D01*
X017192Y001444D01*
X017408Y001444D01*
X017608Y001361D01*
X017761Y001208D01*
X017844Y001008D01*
X017844Y000792D01*
X017826Y000750D02*
X021340Y000750D01*
X021339Y000743D02*
X021257Y000544D01*
X021106Y000393D01*
X020907Y000311D01*
X020800Y000300D01*
X020800Y002170D01*
X020850Y002250D02*
X020950Y002250D01*
X021000Y002170D02*
X021000Y000349D01*
X021002Y000350D02*
X006283Y000350D01*
X006400Y000467D01*
X006400Y000850D01*
X006400Y000300D01*
X006500Y000300D02*
X006500Y000850D01*
X006600Y000850D02*
X006600Y000300D01*
X006700Y000300D02*
X006700Y000850D01*
X006800Y000850D02*
X006800Y000300D01*
X006900Y000300D02*
X006900Y000850D01*
X007000Y000850D02*
X007000Y000300D01*
X007100Y000300D02*
X007100Y000850D01*
X007200Y000850D02*
X007200Y000300D01*
X007300Y000300D02*
X007300Y000850D01*
X007400Y000850D02*
X007400Y000300D01*
X007500Y000300D02*
X007500Y000850D01*
X007583Y000850D02*
X016756Y000850D01*
X016756Y000950D02*
X007683Y000950D01*
X007700Y000967D02*
X007700Y000967D01*
X007583Y000850D01*
X006400Y000850D01*
X006400Y000750D02*
X016774Y000750D01*
X016800Y000686D02*
X016800Y000300D01*
X016900Y000300D02*
X016900Y000531D01*
X016881Y000550D02*
X006400Y000550D01*
X006400Y000650D02*
X016815Y000650D01*
X016981Y000450D02*
X006383Y000450D01*
X006300Y000367D02*
X006300Y000300D01*
X006283Y000350D02*
X006233Y000300D01*
X020800Y000300D01*
X020700Y000300D02*
X020700Y002202D01*
X020617Y002250D02*
X020235Y002250D01*
X020200Y002215D02*
X020200Y001920D01*
X020220Y001920D02*
X020130Y001920D01*
X020130Y002182D01*
X020195Y002209D01*
X020341Y002355D01*
X020420Y002547D01*
X020420Y002548D01*
X020400Y002498D02*
X020400Y001890D01*
X020394Y001896D02*
X020366Y001912D01*
X020336Y001920D01*
X020220Y001920D01*
X020220Y001550D01*
X021350Y001550D01*
X021350Y001450D02*
X020440Y001450D01*
X020440Y001550D02*
X020220Y001550D01*
X020220Y001550D01*
X020440Y001550D01*
X020440Y001816D01*
X020432Y001846D01*
X020416Y001874D01*
X020394Y001896D01*
X020430Y001850D02*
X021350Y001850D01*
X021350Y001750D02*
X020440Y001750D01*
X020440Y001650D02*
X021350Y001650D01*
X021350Y001950D02*
X020130Y001950D01*
X020220Y001920D02*
X020220Y001550D01*
X020220Y001550D01*
X020220Y001180D01*
X020336Y001180D01*
X020366Y001188D01*
X020394Y001204D01*
X020416Y001226D01*
X020432Y001254D01*
X020440Y001284D01*
X020440Y001550D01*
X020400Y001550D02*
X020400Y001550D01*
X020300Y001550D02*
X020300Y001550D01*
X020220Y001550D02*
X020220Y001550D01*
X020220Y001180D01*
X020104Y001180D01*
X020095Y001183D01*
X020062Y001150D01*
X021350Y001150D01*
X021350Y001250D02*
X020430Y001250D01*
X020400Y001210D02*
X020400Y000300D01*
X020500Y000300D02*
X020500Y002367D01*
X020512Y002350D02*
X020335Y002350D01*
X020300Y002315D02*
X020300Y001920D01*
X020220Y001850D02*
X020220Y001850D01*
X020220Y001750D02*
X020220Y001750D01*
X020220Y001650D02*
X020220Y001650D01*
X020220Y001450D02*
X020220Y001450D01*
X020220Y001350D02*
X020220Y001350D01*
X020220Y001250D02*
X020220Y001250D01*
X020200Y001180D02*
X020200Y000300D01*
X020300Y000300D02*
X020300Y001180D01*
X020100Y001181D02*
X020100Y000300D01*
X020000Y000300D02*
X020000Y001150D01*
X020062Y001150D02*
X019418Y001150D01*
X017785Y001150D01*
X017800Y001114D02*
X017800Y002303D01*
X017900Y002303D02*
X017900Y000300D01*
X018000Y000300D02*
X018000Y002303D01*
X018100Y002303D02*
X018100Y000300D01*
X018200Y000300D02*
X018200Y002303D01*
X018213Y002303D02*
X018301Y002391D01*
X018301Y002420D01*
X018432Y002420D01*
X018459Y002355D01*
X018605Y002209D01*
X018797Y002130D01*
X019003Y002130D01*
X019195Y002209D01*
X019341Y002355D01*
X019400Y002498D01*
X019400Y001932D01*
X019418Y001950D02*
X019330Y001862D01*
X019330Y001780D01*
X019123Y001780D01*
X019081Y001821D01*
X018964Y001870D01*
X018836Y001870D01*
X018719Y001821D01*
X018629Y001731D01*
X018580Y001614D01*
X018580Y001486D01*
X018629Y001369D01*
X018719Y001279D01*
X018836Y001230D01*
X018964Y001230D01*
X019081Y001279D01*
X019123Y001320D01*
X019330Y001320D01*
X019330Y001238D01*
X019418Y001150D01*
X019400Y001168D02*
X019400Y000300D01*
X019500Y000300D02*
X019500Y001150D01*
X019600Y001150D02*
X019600Y000300D01*
X019700Y000300D02*
X019700Y001150D01*
X019800Y001150D02*
X019800Y000300D01*
X019900Y000300D02*
X019900Y001150D01*
X019330Y001250D02*
X019012Y001250D01*
X019000Y001245D02*
X019000Y000300D01*
X018900Y000300D02*
X018900Y001230D01*
X018800Y001245D02*
X018800Y000300D01*
X018700Y000300D02*
X018700Y001297D01*
X018647Y001350D02*
X017619Y001350D01*
X017600Y001364D02*
X017600Y002359D01*
X017656Y002303D01*
X018213Y002303D01*
X018260Y002350D02*
X018465Y002350D01*
X018500Y002315D02*
X018500Y000300D01*
X018600Y000300D02*
X018600Y001438D01*
X018595Y001450D02*
X015700Y001450D01*
X015700Y001443D02*
X015700Y001857D01*
X015536Y002021D01*
X015600Y002086D01*
X015600Y002814D01*
X015512Y002902D01*
X015500Y002902D01*
X015500Y004480D01*
X016202Y004480D01*
X016222Y004500D01*
X016400Y004500D01*
X016400Y002667D01*
X016400Y000300D01*
X016300Y000300D02*
X016300Y004500D01*
X016200Y004480D02*
X016200Y000300D01*
X016100Y000300D02*
X016100Y004480D01*
X016000Y004480D02*
X016000Y000300D01*
X015900Y000300D02*
X015900Y004480D01*
X015800Y004480D02*
X015800Y000300D01*
X015700Y000300D02*
X015700Y004480D01*
X015600Y004480D02*
X015600Y001957D01*
X015607Y001950D02*
X019670Y001950D01*
X019418Y001950D01*
X019500Y001950D02*
X019500Y002315D01*
X019465Y002350D02*
X019335Y002350D01*
X019300Y002315D02*
X019300Y001780D01*
X019330Y001850D02*
X019012Y001850D01*
X019000Y001855D02*
X019000Y002130D01*
X019052Y002150D02*
X019670Y002150D01*
X019670Y002182D02*
X019670Y001950D01*
X019600Y001950D02*
X019600Y002215D01*
X019605Y002209D02*
X019670Y002182D01*
X019605Y002209D02*
X019459Y002355D01*
X019400Y002498D01*
X019380Y002450D02*
X019420Y002450D01*
X019565Y002250D02*
X019235Y002250D01*
X019200Y002215D02*
X019200Y001780D01*
X019100Y001803D02*
X019100Y002170D01*
X018900Y002130D02*
X018900Y001870D01*
X018800Y001855D02*
X018800Y002130D01*
X018748Y002150D02*
X015600Y002150D01*
X015600Y002250D02*
X018565Y002250D01*
X018600Y002215D02*
X018600Y001662D01*
X018595Y001650D02*
X015700Y001650D01*
X015700Y001750D02*
X018647Y001750D01*
X018700Y001803D02*
X018700Y002170D01*
X018400Y002420D02*
X018400Y000300D01*
X018300Y000300D02*
X018300Y002390D01*
X017700Y002303D02*
X017700Y001269D01*
X017719Y001250D02*
X018788Y001250D01*
X019100Y001297D02*
X019100Y000300D01*
X019200Y000300D02*
X019200Y001320D01*
X019300Y001320D02*
X019300Y000300D01*
X020600Y000300D02*
X020600Y002262D01*
X020452Y002450D02*
X020380Y002450D01*
X020130Y002150D02*
X021350Y002150D01*
X021350Y002050D02*
X020130Y002050D01*
X019670Y002050D02*
X015564Y002050D01*
X015700Y001850D02*
X018788Y001850D01*
X018580Y001550D02*
X015700Y001550D01*
X015700Y001443D02*
X015407Y001150D01*
X016815Y001150D01*
X016800Y001114D02*
X016800Y002450D01*
X016899Y002450D02*
X016899Y002391D01*
X016987Y002303D01*
X017544Y002303D01*
X017600Y002359D01*
X017591Y002350D02*
X017609Y002350D01*
X017500Y002303D02*
X017500Y001406D01*
X017400Y001444D02*
X017400Y002303D01*
X017300Y002303D02*
X017300Y001444D01*
X017200Y001444D02*
X017200Y002303D01*
X017100Y002303D02*
X017100Y001406D01*
X017000Y001364D02*
X017000Y002303D01*
X016940Y002350D02*
X015600Y002350D01*
X015600Y002450D02*
X016617Y002450D01*
X016899Y002450D01*
X016900Y002390D02*
X016900Y001269D01*
X016881Y001250D02*
X015507Y001250D01*
X015500Y001243D02*
X015500Y000300D01*
X015600Y000300D02*
X015600Y001343D01*
X015607Y001350D02*
X016981Y001350D01*
X016774Y001050D02*
X007783Y001050D01*
X007800Y001067D02*
X007800Y000300D01*
X007700Y000300D02*
X007700Y000967D01*
X007925Y001192D01*
X007925Y001218D01*
X007993Y001150D01*
X007883Y001150D01*
X007900Y001167D02*
X007900Y000300D01*
X008000Y000300D02*
X008000Y001150D01*
X007993Y001150D02*
X008407Y001150D01*
X008993Y001150D01*
X009407Y001150D01*
X009993Y001150D01*
X010407Y001150D01*
X010993Y001150D01*
X011407Y001150D01*
X011993Y001150D01*
X012407Y001150D01*
X012993Y001150D01*
X013407Y001150D01*
X013993Y001150D01*
X014407Y001150D01*
X014993Y001150D01*
X015407Y001150D01*
X015400Y001150D02*
X015400Y000300D01*
X015300Y000300D02*
X015300Y001150D01*
X015200Y001150D02*
X015200Y000300D01*
X015100Y000300D02*
X015100Y001150D01*
X015000Y001150D02*
X015000Y000300D01*
X014900Y000300D02*
X014900Y001243D01*
X014893Y001250D02*
X014507Y001250D01*
X014500Y001243D02*
X014500Y000300D01*
X014400Y000300D02*
X014400Y001150D01*
X014407Y001150D02*
X014700Y001443D01*
X014700Y000300D01*
X014600Y000300D02*
X014600Y001343D01*
X014607Y001350D02*
X014793Y001350D01*
X014800Y001343D02*
X014800Y000300D01*
X014300Y000300D02*
X014300Y001150D01*
X014200Y001150D02*
X014200Y000300D01*
X014100Y000300D02*
X014100Y001150D01*
X014000Y001150D02*
X014000Y000300D01*
X013900Y000300D02*
X013900Y001243D01*
X013893Y001250D02*
X013507Y001250D01*
X013500Y001243D02*
X013500Y000300D01*
X013600Y000300D02*
X013600Y001343D01*
X013607Y001350D02*
X013793Y001350D01*
X013800Y001343D02*
X013800Y000300D01*
X013700Y000300D02*
X013700Y001443D01*
X013993Y001150D01*
X013700Y001443D02*
X013700Y001857D01*
X013700Y002850D01*
X013800Y002850D02*
X013800Y002814D01*
X013800Y002086D01*
X013800Y001957D01*
X013793Y001950D02*
X013607Y001950D01*
X013600Y001957D02*
X013600Y002850D01*
X013600Y002814D02*
X013564Y002850D01*
X013836Y002850D01*
X013800Y002814D01*
X013800Y002750D02*
X013600Y002750D01*
X013600Y002814D02*
X013600Y002086D01*
X013536Y002021D01*
X013700Y001857D01*
X013864Y002021D01*
X013800Y002086D01*
X013836Y002050D02*
X013564Y002050D01*
X013600Y002150D02*
X013800Y002150D01*
X013800Y002250D02*
X013600Y002250D01*
X013600Y002350D02*
X013800Y002350D01*
X013800Y002450D02*
X013600Y002450D01*
X013600Y002550D02*
X013800Y002550D01*
X013800Y002650D02*
X013600Y002650D01*
X013200Y002627D02*
X013200Y002950D01*
X013300Y003050D01*
X013900Y003050D01*
X014100Y003250D01*
X014800Y003250D01*
X014900Y003350D01*
X014900Y005050D01*
X014740Y005210D01*
X013550Y005210D01*
X012160Y005210D01*
X012055Y005105D01*
X011583Y005105D01*
X011583Y005420D02*
X011633Y005470D01*
X013550Y005470D01*
X014980Y005470D01*
X015100Y005350D01*
X015100Y003150D01*
X015000Y003050D01*
X014300Y003050D01*
X014200Y002950D01*
X014200Y002627D01*
X014600Y002650D02*
X014800Y002650D01*
X014800Y002550D02*
X014600Y002550D01*
X014600Y002450D02*
X014800Y002450D01*
X014800Y002350D02*
X014600Y002350D01*
X014600Y002250D02*
X014800Y002250D01*
X014800Y002150D02*
X014600Y002150D01*
X014600Y002086D02*
X014600Y002814D01*
X014564Y002850D01*
X014836Y002850D01*
X014800Y002814D01*
X014800Y002850D01*
X014800Y002814D02*
X014800Y002086D01*
X014800Y001957D01*
X014793Y001950D02*
X014607Y001950D01*
X014600Y001957D02*
X014600Y002850D01*
X014700Y002850D02*
X014700Y001857D01*
X014700Y001443D01*
X014993Y001150D01*
X014700Y001443D02*
X014700Y001857D01*
X014864Y002021D01*
X014800Y002086D01*
X014836Y002050D02*
X014564Y002050D01*
X014536Y002021D02*
X014600Y002086D01*
X014536Y002021D02*
X014700Y001857D01*
X014700Y001850D02*
X014700Y001850D01*
X014700Y001750D02*
X014700Y001750D01*
X014700Y001650D02*
X014700Y001650D01*
X014700Y001550D02*
X014700Y001550D01*
X014700Y001450D02*
X014700Y001450D01*
X013700Y001450D02*
X013700Y001450D01*
X013700Y001443D02*
X013700Y001857D01*
X013700Y001850D02*
X013700Y001850D01*
X013700Y001750D02*
X013700Y001750D01*
X013700Y001650D02*
X013700Y001650D01*
X013700Y001550D02*
X013700Y001550D01*
X013700Y001443D02*
X013407Y001150D01*
X013400Y001150D02*
X013400Y000300D01*
X013300Y000300D02*
X013300Y001150D01*
X013200Y001150D02*
X013200Y000300D01*
X013100Y000300D02*
X013100Y001150D01*
X013000Y001150D02*
X013000Y000300D01*
X012900Y000300D02*
X012900Y001243D01*
X012893Y001250D02*
X012507Y001250D01*
X012500Y001243D02*
X012500Y000300D01*
X012400Y000300D02*
X012400Y001150D01*
X012407Y001150D02*
X012700Y001443D01*
X012700Y000300D01*
X012600Y000300D02*
X012600Y001343D01*
X012607Y001350D02*
X012793Y001350D01*
X012800Y001343D02*
X012800Y000300D01*
X012300Y000300D02*
X012300Y001150D01*
X012200Y001150D02*
X012200Y000300D01*
X012100Y000300D02*
X012100Y001150D01*
X012000Y001150D02*
X012000Y000300D01*
X011900Y000300D02*
X011900Y001243D01*
X011893Y001250D02*
X011507Y001250D01*
X011500Y001243D02*
X011500Y000300D01*
X011600Y000300D02*
X011600Y001343D01*
X011607Y001350D02*
X011793Y001350D01*
X011800Y001343D02*
X011800Y000300D01*
X011700Y000300D02*
X011700Y001443D01*
X011993Y001150D01*
X011700Y001443D02*
X011700Y001857D01*
X011700Y002949D01*
X011600Y002949D02*
X011600Y001957D01*
X011607Y001950D02*
X011793Y001950D01*
X011800Y001957D02*
X011800Y002086D01*
X011864Y002021D01*
X011700Y001857D01*
X011407Y002150D01*
X010993Y002150D01*
X010988Y002145D01*
X009815Y003318D01*
X009815Y003321D01*
X010675Y003321D01*
X010675Y003292D01*
X010700Y003267D01*
X010700Y002433D01*
X010683Y002450D02*
X011800Y002450D01*
X011800Y002350D02*
X010783Y002350D01*
X010800Y002333D02*
X010800Y003167D01*
X010817Y003150D02*
X010700Y003267D01*
X010717Y003250D02*
X009883Y003250D01*
X009900Y003233D02*
X009900Y003321D01*
X010000Y003321D02*
X010000Y003133D01*
X009983Y003150D02*
X010817Y003150D01*
X011253Y003150D01*
X011253Y003037D01*
X011341Y002949D01*
X011859Y002949D01*
X011947Y003037D01*
X011947Y003594D01*
X011869Y003671D01*
X011871Y003672D01*
X011893Y003694D01*
X011909Y003722D01*
X011917Y003752D01*
X011917Y003936D01*
X011648Y003936D01*
X011648Y004033D01*
X011917Y004033D01*
X011917Y004217D01*
X011914Y004227D01*
X011941Y004227D01*
X011989Y004275D01*
X012107Y004275D01*
X012091Y004247D01*
X012083Y004217D01*
X012083Y004033D01*
X012352Y004033D01*
X012352Y003936D01*
X012083Y003936D01*
X012083Y003752D01*
X012091Y003722D01*
X012107Y003694D01*
X012129Y003672D01*
X012131Y003671D01*
X012053Y003594D01*
X012053Y003086D01*
X012000Y003033D01*
X012000Y004275D01*
X011964Y004250D02*
X012093Y004250D01*
X012100Y004263D02*
X012100Y004275D01*
X012107Y004275D02*
X012107Y004275D01*
X012083Y004150D02*
X011917Y004150D01*
X011917Y004050D02*
X012083Y004050D01*
X012100Y004033D02*
X012100Y003936D01*
X012083Y003850D02*
X011917Y003850D01*
X011900Y003936D02*
X011900Y004033D01*
X011800Y004033D02*
X011800Y003936D01*
X011700Y003936D02*
X011700Y004033D01*
X011648Y003950D02*
X012352Y003950D01*
X012300Y003936D02*
X012300Y004033D01*
X012200Y004033D02*
X012200Y003936D01*
X012084Y003750D02*
X011916Y003750D01*
X011900Y003707D02*
X011900Y003641D01*
X011891Y003650D02*
X012109Y003650D01*
X012100Y003641D02*
X012100Y003707D01*
X012053Y003550D02*
X011947Y003550D01*
X011947Y003450D02*
X012053Y003450D01*
X012053Y003350D02*
X011947Y003350D01*
X011947Y003250D02*
X012053Y003250D01*
X012053Y003150D02*
X011947Y003150D01*
X011947Y003050D02*
X012017Y003050D01*
X012000Y003033D02*
X012000Y002902D01*
X011888Y002902D01*
X011800Y002814D01*
X011800Y002949D01*
X011860Y002950D02*
X012000Y002950D01*
X011900Y002990D02*
X011900Y002902D01*
X011836Y002850D02*
X010283Y002850D01*
X010300Y002833D02*
X010300Y003321D01*
X010400Y003321D02*
X010400Y002733D01*
X010383Y002750D02*
X011800Y002750D01*
X011800Y002814D02*
X011800Y002086D01*
X011836Y002050D02*
X011507Y002050D01*
X011500Y002057D02*
X011500Y002949D01*
X011400Y002949D02*
X011400Y002150D01*
X011300Y002150D02*
X011300Y002990D01*
X011340Y002950D02*
X010183Y002950D01*
X010200Y002933D02*
X010200Y003321D01*
X010100Y003321D02*
X010100Y003033D01*
X010083Y003050D02*
X011253Y003050D01*
X011200Y003150D02*
X011200Y002150D01*
X011100Y002150D02*
X011100Y003150D01*
X011000Y003150D02*
X011000Y002150D01*
X010983Y002150D02*
X011800Y002150D01*
X011800Y002250D02*
X010883Y002250D01*
X010900Y002233D02*
X010900Y003150D01*
X010900Y003350D02*
X011565Y003350D01*
X011600Y003315D01*
X010900Y003350D02*
X010875Y003375D01*
X010875Y003767D01*
X010600Y003321D02*
X010600Y002533D01*
X010583Y002550D02*
X011800Y002550D01*
X011800Y002650D02*
X010483Y002650D01*
X010500Y002633D02*
X010500Y003321D01*
X009615Y003235D02*
X011200Y001650D01*
X011700Y001650D02*
X011700Y001650D01*
X011700Y001750D02*
X011700Y001750D01*
X011700Y001850D02*
X011700Y001850D01*
X011700Y001857D02*
X011700Y001443D01*
X011407Y001150D01*
X011400Y001150D02*
X011400Y000300D01*
X011300Y000300D02*
X011300Y001150D01*
X011200Y001150D02*
X011200Y000300D01*
X011100Y000300D02*
X011100Y001150D01*
X011000Y001150D02*
X011000Y000300D01*
X010900Y000300D02*
X010900Y001243D01*
X010893Y001250D02*
X010507Y001250D01*
X010500Y001243D02*
X010500Y000300D01*
X010600Y000300D02*
X010600Y001343D01*
X010607Y001350D02*
X010793Y001350D01*
X010800Y001343D02*
X010800Y000300D01*
X010700Y000300D02*
X010700Y001443D01*
X010993Y001150D01*
X010700Y001443D02*
X010700Y001857D01*
X010700Y001867D01*
X010705Y001862D02*
X010700Y001857D01*
X010407Y002150D01*
X009993Y002150D01*
X009988Y002145D01*
X009500Y002633D01*
X009500Y003067D01*
X009500Y002633D01*
X009500Y002650D02*
X009917Y002650D01*
X009900Y002667D02*
X009900Y002233D01*
X009883Y002250D02*
X010317Y002250D01*
X010300Y002267D02*
X010300Y002150D01*
X010400Y002150D02*
X010400Y002167D01*
X010417Y002150D02*
X009983Y002150D01*
X010000Y002150D02*
X010000Y002567D01*
X010017Y002550D02*
X009583Y002550D01*
X009600Y002533D02*
X009600Y002967D01*
X009617Y002950D02*
X009500Y002950D01*
X009500Y002850D02*
X009717Y002850D01*
X009700Y002867D02*
X009700Y002433D01*
X009683Y002450D02*
X010117Y002450D01*
X010100Y002467D02*
X010100Y002150D01*
X010200Y002150D02*
X010200Y002367D01*
X010217Y002350D02*
X009783Y002350D01*
X009800Y002333D02*
X009800Y002767D01*
X009817Y002750D02*
X009500Y002750D01*
X009300Y002550D02*
X010200Y001650D01*
X010700Y001650D02*
X010700Y001650D01*
X010700Y001750D02*
X010700Y001750D01*
X010700Y001850D02*
X010700Y001850D01*
X010700Y001857D02*
X010700Y001443D01*
X010407Y001150D01*
X010400Y001150D02*
X010400Y000300D01*
X010300Y000300D02*
X010300Y001150D01*
X010200Y001150D02*
X010200Y000300D01*
X010100Y000300D02*
X010100Y001150D01*
X010000Y001150D02*
X010000Y000300D01*
X009900Y000300D02*
X009900Y001243D01*
X009893Y001250D02*
X009507Y001250D01*
X009500Y001243D02*
X009500Y000300D01*
X009400Y000300D02*
X009400Y001150D01*
X009407Y001150D02*
X009700Y001443D01*
X009700Y000300D01*
X009600Y000300D02*
X009600Y001343D01*
X009607Y001350D02*
X009793Y001350D01*
X009800Y001343D02*
X009800Y000300D01*
X009300Y000300D02*
X009300Y001150D01*
X009200Y001150D02*
X009200Y000300D01*
X009100Y000300D02*
X009100Y001150D01*
X009000Y001150D02*
X009000Y000300D01*
X008900Y000300D02*
X008900Y001243D01*
X008893Y001250D02*
X008507Y001250D01*
X008500Y001243D02*
X008500Y000300D01*
X008600Y000300D02*
X008600Y001343D01*
X008607Y001350D02*
X008793Y001350D01*
X008800Y001343D02*
X008800Y000300D01*
X008700Y000300D02*
X008700Y001443D01*
X008993Y001150D01*
X008700Y001443D02*
X008700Y001857D01*
X008700Y002767D01*
X008683Y002750D02*
X008785Y002750D01*
X008785Y002650D02*
X008583Y002650D01*
X008600Y002667D02*
X008600Y001957D01*
X008607Y001950D02*
X008785Y001950D01*
X008785Y001942D02*
X008700Y001857D01*
X008407Y002150D01*
X008400Y002150D01*
X008400Y002467D01*
X008785Y002852D01*
X008785Y001942D01*
X008785Y002050D02*
X008507Y002050D01*
X008500Y002057D02*
X008500Y002567D01*
X008483Y002550D02*
X008785Y002550D01*
X008785Y002450D02*
X008400Y002450D01*
X008400Y002467D02*
X008400Y002150D01*
X008785Y002150D01*
X008785Y002250D02*
X008400Y002250D01*
X008400Y002350D02*
X008785Y002350D01*
X009185Y002350D02*
X009217Y002350D01*
X009200Y002367D02*
X009200Y002150D01*
X009185Y002150D02*
X009417Y002150D01*
X009407Y002150D02*
X009185Y002150D01*
X009185Y002382D01*
X009705Y001862D01*
X009700Y001857D01*
X009700Y001867D01*
X009700Y001857D02*
X009700Y001443D01*
X009993Y001150D01*
X009700Y001443D02*
X009700Y001857D01*
X009407Y002150D01*
X009400Y002150D02*
X009400Y002167D01*
X009300Y002150D02*
X009300Y002267D01*
X009317Y002250D02*
X009185Y002250D01*
X009500Y002067D02*
X009500Y002057D01*
X009507Y002050D02*
X009517Y002050D01*
X009600Y001967D02*
X009600Y001957D01*
X009607Y001950D02*
X009617Y001950D01*
X009700Y001850D02*
X009700Y001850D01*
X009700Y001750D02*
X009700Y001750D01*
X009700Y001650D02*
X009700Y001650D01*
X009700Y001550D02*
X009700Y001550D01*
X009700Y001450D02*
X009700Y001450D01*
X009200Y001650D02*
X008985Y001865D01*
X008985Y003767D01*
X009300Y003767D02*
X009300Y002550D01*
X008785Y002850D02*
X008783Y002850D01*
X008670Y003020D02*
X008200Y002550D01*
X008200Y001650D01*
X008700Y001650D02*
X008700Y001650D01*
X008700Y001750D02*
X008700Y001750D01*
X008700Y001850D02*
X008700Y001850D01*
X008700Y001857D02*
X008700Y001443D01*
X008407Y001150D01*
X008400Y001150D02*
X008400Y000300D01*
X008300Y000300D02*
X008300Y001150D01*
X008200Y001150D02*
X008200Y000300D01*
X008100Y000300D02*
X008100Y001150D01*
X007600Y000867D02*
X007600Y000300D01*
X006893Y001250D02*
X006507Y001250D01*
X006700Y001443D01*
X006700Y001250D01*
X006600Y001250D02*
X006600Y001343D01*
X006607Y001350D02*
X006793Y001350D01*
X006800Y001343D02*
X006800Y001250D01*
X006893Y001250D02*
X006507Y001250D01*
X006700Y001443D02*
X006893Y001250D01*
X006700Y001443D02*
X006700Y001857D01*
X006700Y001950D01*
X006700Y001857D02*
X006607Y001950D01*
X006793Y001950D01*
X006700Y001857D01*
X006700Y001443D01*
X006700Y001450D02*
X006700Y001450D01*
X006700Y001550D02*
X006700Y001550D01*
X006700Y001650D02*
X006700Y001650D01*
X006700Y001750D02*
X006700Y001750D01*
X006700Y001850D02*
X006700Y001850D01*
X007200Y001650D02*
X007500Y001950D01*
X007500Y002150D01*
X002200Y002150D01*
X002265Y002085D01*
X002265Y001650D01*
X002591Y001950D02*
X002609Y001950D01*
X002600Y001941D01*
X002600Y001950D01*
X002600Y001941D02*
X002591Y001950D01*
X002200Y002150D02*
X001800Y002150D01*
X001700Y002250D01*
X002250Y002600D02*
X002250Y002700D01*
X002690Y002700D01*
X002690Y002853D01*
X002413Y003130D01*
X002415Y003130D01*
X002714Y003429D01*
X002993Y003150D01*
X002435Y003150D01*
X002500Y003215D02*
X002500Y003043D01*
X002493Y003050D02*
X002935Y003050D01*
X002900Y003015D02*
X002900Y003243D01*
X002893Y003250D02*
X002535Y003250D01*
X002600Y003315D02*
X002600Y002943D01*
X002593Y002950D02*
X002835Y002950D01*
X002800Y002915D02*
X002800Y003343D01*
X002793Y003350D02*
X002635Y003350D01*
X002700Y003415D02*
X002700Y002350D01*
X002690Y002447D02*
X002593Y002350D01*
X002835Y002350D01*
X002593Y002350D01*
X002600Y002350D02*
X002600Y002357D01*
X002690Y002447D02*
X002690Y002600D01*
X002250Y002600D01*
X002300Y002600D02*
X002300Y002700D01*
X002250Y002650D02*
X003150Y002650D01*
X003150Y002700D02*
X003150Y002600D01*
X002730Y002600D01*
X002730Y002455D01*
X002835Y002350D01*
X002800Y002350D02*
X002800Y002385D01*
X002735Y002450D02*
X002690Y002450D01*
X002690Y002550D02*
X002730Y002550D01*
X002800Y002600D02*
X002800Y002700D01*
X002730Y002700D02*
X003150Y002700D01*
X003150Y003120D01*
X003005Y003120D01*
X002730Y002845D01*
X002730Y002700D01*
X002730Y002750D02*
X002690Y002750D01*
X002690Y002850D02*
X002735Y002850D01*
X002600Y002700D02*
X002600Y002600D01*
X002500Y002600D02*
X002500Y002700D01*
X002400Y002700D02*
X002400Y002600D01*
X002900Y002600D02*
X002900Y002700D01*
X003000Y002700D02*
X003000Y002600D01*
X003100Y002600D02*
X003100Y002700D01*
X003150Y002700D02*
X003250Y002700D01*
X003250Y003120D01*
X003395Y003120D01*
X003670Y002845D01*
X003670Y002700D01*
X003250Y002700D01*
X003250Y002600D01*
X003670Y002600D01*
X003670Y002455D01*
X003565Y002350D01*
X007300Y002350D01*
X003565Y002350D01*
X003600Y002350D02*
X003600Y002385D01*
X003665Y002450D02*
X007300Y002450D01*
X007300Y002550D02*
X003670Y002550D01*
X003600Y002600D02*
X003600Y002700D01*
X003670Y002750D02*
X007300Y002750D01*
X007300Y002650D02*
X003250Y002650D01*
X003300Y002600D02*
X003300Y002700D01*
X003250Y002750D02*
X003150Y002750D01*
X003200Y002700D02*
X003200Y003150D01*
X003100Y003150D02*
X003100Y003120D01*
X003150Y003050D02*
X003250Y003050D01*
X003300Y003120D02*
X003300Y003150D01*
X003400Y003150D02*
X003400Y003115D01*
X003407Y003150D02*
X005883Y003150D01*
X005883Y003083D02*
X005891Y003053D01*
X005907Y003025D01*
X005929Y003003D01*
X005957Y002987D01*
X005987Y002979D01*
X006152Y002979D01*
X006152Y003267D01*
X006248Y003267D01*
X006248Y002979D01*
X006413Y002979D01*
X006443Y002987D01*
X006471Y003003D01*
X006493Y003025D01*
X006509Y003053D01*
X006517Y003083D01*
X006517Y003267D01*
X006248Y003267D01*
X006248Y003364D01*
X006517Y003364D01*
X006517Y003548D01*
X006509Y003578D01*
X006493Y003606D01*
X006471Y003628D01*
X006469Y003629D01*
X006547Y003706D01*
X006547Y003715D01*
X006653Y003715D01*
X006653Y003706D01*
X006731Y003629D01*
X006729Y003628D01*
X006707Y003606D01*
X006691Y003578D01*
X006683Y003548D01*
X006683Y003364D01*
X006952Y003364D01*
X006952Y003267D01*
X007048Y003267D01*
X007048Y002979D01*
X007213Y002979D01*
X007243Y002987D01*
X007271Y003003D01*
X007293Y003025D01*
X007300Y003037D01*
X007300Y002350D01*
X007200Y002350D02*
X007200Y002979D01*
X007100Y002979D02*
X007100Y002350D01*
X007000Y002350D02*
X007000Y003267D01*
X006952Y003267D02*
X006952Y002979D01*
X006787Y002979D01*
X006757Y002987D01*
X006729Y003003D01*
X006707Y003025D01*
X006691Y003053D01*
X006683Y003083D01*
X006683Y003267D01*
X006952Y003267D01*
X006952Y003250D02*
X007048Y003250D01*
X007048Y003150D02*
X006952Y003150D01*
X006952Y003050D02*
X007048Y003050D01*
X006900Y002979D02*
X006900Y002350D01*
X006800Y002350D02*
X006800Y002979D01*
X006700Y003037D02*
X006700Y002350D01*
X006600Y002350D02*
X006600Y003715D01*
X006500Y003659D02*
X006500Y003593D01*
X006516Y003550D02*
X006684Y003550D01*
X006700Y003593D02*
X006700Y003659D01*
X006709Y003650D02*
X006491Y003650D01*
X006517Y003450D02*
X006683Y003450D01*
X006700Y003364D02*
X006700Y003267D01*
X006683Y003250D02*
X006517Y003250D01*
X006500Y003267D02*
X006500Y003364D01*
X006400Y003364D02*
X006400Y003267D01*
X006300Y003267D02*
X006300Y003364D01*
X006248Y003350D02*
X006952Y003350D01*
X006900Y003364D02*
X006900Y003267D01*
X006800Y003267D02*
X006800Y003364D01*
X006683Y003150D02*
X006517Y003150D01*
X006507Y003050D02*
X006693Y003050D01*
X006500Y003037D02*
X006500Y002350D01*
X006400Y002350D02*
X006400Y002979D01*
X006300Y002979D02*
X006300Y002350D01*
X006200Y002350D02*
X006200Y003267D01*
X006152Y003267D02*
X005883Y003267D01*
X005883Y003083D01*
X005893Y003050D02*
X003465Y003050D01*
X003500Y003015D02*
X003500Y003243D01*
X003507Y003250D02*
X005883Y003250D01*
X005900Y003267D02*
X005900Y003364D01*
X005883Y003364D02*
X006152Y003364D01*
X006152Y003267D01*
X006152Y003250D02*
X006248Y003250D01*
X006248Y003150D02*
X006152Y003150D01*
X006152Y003050D02*
X006248Y003050D01*
X006100Y002979D02*
X006100Y002350D01*
X006000Y002350D02*
X006000Y002979D01*
X005900Y003037D02*
X005900Y002350D01*
X005800Y002350D02*
X005800Y004950D01*
X005700Y004950D02*
X005700Y002350D01*
X005600Y002350D02*
X005600Y004950D01*
X005500Y004950D02*
X005500Y002350D01*
X005400Y002350D02*
X005400Y003567D01*
X005383Y003550D02*
X005884Y003550D01*
X005883Y003548D02*
X005883Y003364D01*
X005883Y003450D02*
X005283Y003450D01*
X005500Y003667D01*
X005500Y004950D01*
X006571Y004950D01*
X006571Y004945D01*
X006603Y004912D01*
X006601Y004904D01*
X006601Y004790D01*
X006601Y004676D01*
X006603Y004668D01*
X006571Y004636D01*
X006571Y004315D01*
X006631Y004255D01*
X006547Y004255D01*
X006547Y004263D01*
X006492Y004318D01*
X006520Y004386D01*
X006520Y004514D01*
X006471Y004631D01*
X006381Y004721D01*
X006264Y004770D01*
X006136Y004770D01*
X006019Y004721D01*
X005929Y004631D01*
X005880Y004514D01*
X005880Y004386D01*
X005908Y004318D01*
X005853Y004263D01*
X005853Y003706D01*
X005931Y003629D01*
X005929Y003628D01*
X005907Y003606D01*
X005891Y003578D01*
X005883Y003548D01*
X005900Y003593D02*
X005900Y003659D01*
X005909Y003650D02*
X005483Y003650D01*
X005500Y003750D02*
X005853Y003750D01*
X005853Y003850D02*
X005500Y003850D01*
X005500Y003950D02*
X005853Y003950D01*
X005853Y004050D02*
X005500Y004050D01*
X005500Y004150D02*
X005853Y004150D01*
X005853Y004250D02*
X005500Y004250D01*
X005500Y004350D02*
X005895Y004350D01*
X005900Y004338D02*
X005900Y004310D01*
X005880Y004450D02*
X005500Y004450D01*
X005500Y004550D02*
X005895Y004550D01*
X005900Y004562D02*
X005900Y004950D01*
X006000Y004950D02*
X006000Y004703D01*
X005947Y004650D02*
X005500Y004650D01*
X005500Y004750D02*
X006088Y004750D01*
X006100Y004755D02*
X006100Y004950D01*
X006200Y004950D02*
X006200Y004770D01*
X006300Y004755D02*
X006300Y004950D01*
X006400Y004950D02*
X006400Y004703D01*
X006453Y004650D02*
X006586Y004650D01*
X006600Y004664D02*
X006600Y004916D01*
X006601Y004850D02*
X005500Y004850D01*
X005300Y005050D02*
X005400Y005150D01*
X006972Y005150D01*
X007017Y005105D01*
X007017Y005420D02*
X003430Y005420D01*
X003200Y005650D01*
X002800Y005343D02*
X002800Y004957D01*
X002793Y004950D02*
X002635Y004950D01*
X002600Y004985D02*
X002600Y005315D01*
X002635Y005350D02*
X002793Y005350D01*
X002714Y005429D02*
X002993Y005150D01*
X002435Y005150D01*
X002714Y005429D01*
X002700Y005415D02*
X002700Y004885D01*
X002714Y004871D02*
X002435Y005150D01*
X002500Y005085D02*
X002500Y005215D01*
X002535Y005250D02*
X002893Y005250D01*
X002900Y005243D02*
X002900Y005057D01*
X002893Y005050D02*
X002535Y005050D01*
X002714Y004871D02*
X002993Y005150D01*
X003407Y005150D01*
X005117Y005150D01*
X005100Y005133D02*
X005100Y005220D01*
X005187Y005220D02*
X005100Y005133D01*
X005100Y003850D01*
X003700Y003850D01*
X003700Y005220D01*
X003800Y005220D02*
X003800Y003850D01*
X003900Y003850D02*
X003900Y005220D01*
X004000Y005220D02*
X004000Y003850D01*
X004100Y003850D02*
X004100Y005220D01*
X004200Y005220D02*
X004200Y003850D01*
X004300Y003850D02*
X004300Y005220D01*
X004400Y005220D02*
X004400Y003850D01*
X004500Y003850D02*
X004500Y005220D01*
X004600Y005220D02*
X004600Y003850D01*
X004700Y003850D02*
X004700Y005220D01*
X004800Y005220D02*
X004800Y003850D01*
X004900Y003850D02*
X004900Y005220D01*
X005000Y005220D02*
X005000Y003850D01*
X005100Y003850D02*
X003700Y003850D01*
X003700Y003857D01*
X003407Y004150D01*
X005100Y004150D01*
X005100Y004050D02*
X003507Y004050D01*
X003500Y004057D02*
X003500Y004243D01*
X003507Y004250D02*
X005100Y004250D01*
X005100Y004350D02*
X003607Y004350D01*
X003600Y004343D02*
X003600Y003957D01*
X003607Y003950D02*
X005100Y003950D01*
X005300Y003750D02*
X005200Y003650D01*
X003200Y003650D01*
X003600Y003343D02*
X003600Y002915D01*
X003565Y002950D02*
X007300Y002950D01*
X007300Y002850D02*
X003665Y002850D01*
X003500Y002700D02*
X003500Y002600D01*
X003400Y002600D02*
X003400Y002700D01*
X003250Y002850D02*
X003150Y002850D01*
X003150Y002950D02*
X003250Y002950D01*
X003407Y003150D02*
X002993Y003150D01*
X003000Y003150D02*
X003000Y003115D01*
X003407Y003150D02*
X003700Y003443D01*
X003700Y003450D01*
X003700Y002350D01*
X003800Y002350D02*
X003800Y003450D01*
X003900Y003450D02*
X003900Y002350D01*
X004000Y002350D02*
X004000Y003450D01*
X004100Y003450D02*
X004100Y002350D01*
X004200Y002350D02*
X004200Y003450D01*
X004300Y003450D02*
X004300Y002350D01*
X004400Y002350D02*
X004400Y003450D01*
X004500Y003450D02*
X004500Y002350D01*
X004600Y002350D02*
X004600Y003450D01*
X004700Y003450D02*
X004700Y002350D01*
X004800Y002350D02*
X004800Y003450D01*
X004900Y003450D02*
X004900Y002350D01*
X005000Y002350D02*
X005000Y003450D01*
X005100Y003450D02*
X005100Y002350D01*
X005200Y002350D02*
X005200Y003450D01*
X005283Y003450D02*
X003700Y003450D01*
X003607Y003350D02*
X006152Y003350D01*
X006100Y003364D02*
X006100Y003267D01*
X006000Y003267D02*
X006000Y003364D01*
X005300Y003467D02*
X005300Y002350D01*
X005607Y001950D02*
X005793Y001950D01*
X005700Y001857D01*
X005700Y001950D01*
X005700Y001857D02*
X005700Y001443D01*
X005700Y001857D01*
X005607Y001950D01*
X005700Y001850D02*
X005700Y001850D01*
X005700Y001750D02*
X005700Y001750D01*
X005700Y001650D02*
X005700Y001650D01*
X005700Y001550D02*
X005700Y001550D01*
X005700Y001450D02*
X005700Y001450D01*
X005700Y001443D02*
X005407Y001150D01*
X004779Y001363D02*
X004764Y001370D01*
X004779Y001363D02*
X004700Y001443D01*
X004700Y001450D02*
X004665Y001450D01*
X004600Y001385D02*
X004600Y001355D01*
X004588Y001350D02*
X004565Y001350D01*
X004670Y001550D02*
X004700Y001550D01*
X004700Y001650D02*
X004250Y001650D01*
X004300Y001600D02*
X004300Y001700D01*
X004400Y001700D02*
X004400Y001600D01*
X004500Y001600D02*
X004500Y001700D01*
X004600Y001700D02*
X004600Y001600D01*
X004670Y001750D02*
X004700Y001750D01*
X004700Y001850D02*
X004665Y001850D01*
X004600Y001915D02*
X004600Y001950D01*
X004250Y001550D02*
X004150Y001550D01*
X004150Y001450D02*
X004250Y001450D01*
X004250Y001350D02*
X004150Y001350D01*
X004000Y001600D02*
X004000Y001700D01*
X003900Y001700D02*
X003900Y001600D01*
X003800Y001600D02*
X003800Y001700D01*
X003730Y001750D02*
X003301Y001750D01*
X003301Y001550D02*
X003730Y001550D01*
X004700Y000730D02*
X004700Y000550D01*
X006000Y000350D02*
X002200Y000350D01*
X001900Y003043D02*
X001900Y003215D01*
X001985Y003130D01*
X001987Y003130D01*
X001900Y003043D01*
X001900Y003215D01*
X001900Y003150D02*
X001965Y003150D01*
X001907Y003050D02*
X001900Y003050D01*
X001500Y003050D02*
X001493Y003050D01*
X001500Y003043D02*
X001413Y003130D01*
X001415Y003130D01*
X001500Y003215D01*
X001500Y003043D01*
X001500Y003150D02*
X001435Y003150D01*
X000987Y003130D02*
X000900Y003043D01*
X000900Y003067D01*
X000974Y003141D01*
X000985Y003130D01*
X000987Y003130D01*
X000900Y003067D02*
X000900Y003043D01*
X000900Y003050D02*
X000907Y003050D01*
X000700Y003150D02*
X001200Y003650D01*
X001500Y004085D02*
X001435Y004150D01*
X001500Y004150D01*
X001500Y004215D02*
X001500Y004085D01*
X001435Y004150D02*
X001500Y004215D01*
X001900Y004215D02*
X001900Y004085D01*
X001965Y004150D01*
X001900Y004150D01*
X001900Y004085D02*
X001900Y004215D01*
X001965Y004150D01*
X002435Y004150D02*
X002993Y004150D01*
X003407Y004150D01*
X003700Y004443D01*
X003700Y004857D01*
X003407Y005150D01*
X003477Y005220D01*
X005187Y005220D01*
X005100Y005050D02*
X003507Y005050D01*
X003500Y005057D02*
X003500Y005220D01*
X003600Y005220D02*
X003600Y004957D01*
X003607Y004950D02*
X005100Y004950D01*
X005100Y004850D02*
X003700Y004850D01*
X003700Y004750D02*
X005100Y004750D01*
X005100Y004650D02*
X003700Y004650D01*
X003700Y004550D02*
X005100Y004550D01*
X005100Y004450D02*
X003700Y004450D01*
X003407Y004150D02*
X002993Y004150D01*
X002714Y004429D01*
X002435Y004150D01*
X002714Y003871D01*
X002993Y004150D01*
X003000Y004150D02*
X003000Y004150D01*
X003100Y004150D02*
X003100Y004150D01*
X003200Y004150D02*
X003200Y004150D01*
X003300Y004150D02*
X003300Y004150D01*
X003400Y004150D02*
X003400Y004150D01*
X002900Y004057D02*
X002900Y004243D01*
X002893Y004250D02*
X002535Y004250D01*
X002500Y004215D02*
X002500Y004085D01*
X002535Y004050D02*
X002893Y004050D01*
X002800Y003957D02*
X002800Y004343D01*
X002793Y004350D02*
X002635Y004350D01*
X002600Y004315D02*
X002600Y003985D01*
X002635Y003950D02*
X002793Y003950D01*
X002700Y003885D02*
X002700Y004415D01*
X002993Y005150D02*
X003407Y005150D01*
X003400Y005150D02*
X003400Y005150D01*
X003300Y005150D02*
X003300Y005150D01*
X003200Y005150D02*
X003200Y005150D01*
X003100Y005150D02*
X003100Y005150D01*
X003000Y005150D02*
X003000Y005150D01*
X003700Y005620D02*
X003700Y005857D01*
X003607Y005950D01*
X003617Y005950D01*
X003780Y005787D01*
X003780Y005686D01*
X003807Y005620D01*
X003700Y005620D01*
X003700Y005867D01*
X003700Y005850D02*
X003717Y005850D01*
X003700Y005750D02*
X003780Y005750D01*
X003795Y005650D02*
X003700Y005650D01*
X003800Y005638D02*
X003800Y005620D01*
X004100Y005750D02*
X003700Y006150D01*
X002300Y006150D01*
X002200Y006250D01*
X002200Y006650D01*
X002635Y006350D02*
X002793Y006350D01*
X002635Y006350D01*
X002714Y006429D01*
X002793Y006350D01*
X002700Y006350D02*
X002700Y006415D01*
X003200Y006650D02*
X003800Y006650D01*
X004715Y005735D01*
X007017Y005735D01*
X007017Y006050D02*
X004800Y006050D01*
X003200Y007650D01*
X003600Y007957D02*
X003407Y008150D01*
X003417Y008150D01*
X003412Y008155D02*
X003600Y007967D01*
X003600Y007957D01*
X003517Y008050D02*
X003507Y008050D01*
X003500Y008057D02*
X003500Y008067D01*
X003407Y008150D02*
X003412Y008155D01*
X003407Y008150D02*
X002993Y008150D01*
X002435Y008150D01*
X002714Y008429D01*
X002993Y008150D01*
X002714Y007871D01*
X002435Y008150D01*
X002500Y008085D02*
X002500Y008215D01*
X002535Y008250D02*
X002893Y008250D01*
X002900Y008243D02*
X002900Y008057D01*
X002893Y008050D02*
X002535Y008050D01*
X002600Y007985D02*
X002600Y008315D01*
X002635Y008350D02*
X002793Y008350D01*
X002800Y008343D02*
X002800Y007957D01*
X002793Y007950D02*
X002635Y007950D01*
X002700Y007885D02*
X002700Y008415D01*
X002993Y008150D02*
X003407Y008150D01*
X003400Y008150D02*
X003400Y008150D01*
X003300Y008150D02*
X003300Y008150D01*
X003200Y008150D02*
X003200Y008150D01*
X003100Y008150D02*
X003100Y008150D01*
X003000Y008150D02*
X003000Y008150D01*
X003200Y008650D02*
X003800Y008050D01*
X003800Y007550D01*
X004985Y006365D01*
X007017Y006365D01*
X008300Y006950D02*
X008300Y004450D01*
X008355Y004395D01*
X008355Y003767D01*
X008670Y003767D02*
X008670Y003020D01*
X008470Y003103D02*
X008117Y002750D01*
X008000Y002633D01*
X008000Y003321D01*
X007925Y003321D02*
X008470Y003321D01*
X008470Y003103D01*
X008470Y003150D02*
X007925Y003150D01*
X007925Y003050D02*
X008417Y003050D01*
X008400Y003033D02*
X008400Y003321D01*
X008470Y003250D02*
X007925Y003250D01*
X007925Y003321D02*
X007925Y002082D01*
X007993Y002150D01*
X008000Y002150D01*
X007925Y002150D01*
X008000Y002150D02*
X008000Y002633D01*
X008017Y002650D02*
X007925Y002650D01*
X007925Y002550D02*
X008000Y002550D01*
X008000Y002450D02*
X007925Y002450D01*
X007925Y002350D02*
X008000Y002350D01*
X008000Y002250D02*
X007925Y002250D01*
X007500Y002150D02*
X007500Y004350D01*
X007375Y004475D01*
X007017Y004475D01*
X007017Y004790D02*
X006601Y004790D01*
X007017Y004790D01*
X007017Y004790D01*
X007000Y004790D02*
X007000Y004790D01*
X007100Y004790D02*
X007100Y004790D01*
X007200Y004790D02*
X007200Y004790D01*
X007300Y004790D02*
X007300Y004790D01*
X007400Y004790D02*
X007400Y004790D01*
X007432Y004750D02*
X007840Y004750D01*
X007840Y004850D02*
X007432Y004850D01*
X007462Y004950D02*
X007840Y004950D01*
X007840Y004450D02*
X007683Y004450D01*
X007700Y004350D02*
X007840Y004350D01*
X008600Y004212D02*
X008600Y006838D01*
X008500Y006650D02*
X009690Y006650D01*
X009690Y006550D02*
X008500Y006550D01*
X008553Y007150D02*
X009690Y007150D01*
X011583Y006680D02*
X012430Y006680D01*
X012500Y006750D01*
X012900Y006750D01*
X013160Y006490D01*
X013550Y006490D01*
X013550Y006750D02*
X013200Y006750D01*
X012900Y007050D01*
X012800Y006350D02*
X012715Y006365D01*
X011583Y006365D01*
X011583Y006050D02*
X012500Y006050D01*
X013100Y006050D01*
X013170Y005980D01*
X013550Y005980D01*
X013550Y006230D02*
X012920Y006230D01*
X012800Y006350D01*
X013550Y005720D02*
X015230Y005720D01*
X015300Y005650D01*
X015300Y002727D01*
X015200Y002627D01*
X015600Y002650D02*
X016417Y002650D01*
X016400Y002667D02*
X016500Y002567D01*
X016500Y000300D01*
X016600Y000300D02*
X016600Y002467D01*
X016617Y002450D02*
X016500Y002567D01*
X016517Y002550D02*
X015600Y002550D01*
X015600Y002750D02*
X016400Y002750D01*
X016400Y002850D02*
X015564Y002850D01*
X015500Y002902D02*
X015500Y004480D01*
X015500Y004450D02*
X016400Y004450D01*
X016400Y004350D02*
X015500Y004350D01*
X015500Y004250D02*
X016400Y004250D01*
X016400Y004150D02*
X015500Y004150D01*
X015500Y004050D02*
X016400Y004050D01*
X016400Y003950D02*
X015500Y003950D01*
X015500Y003850D02*
X016400Y003850D01*
X016400Y003750D02*
X015500Y003750D01*
X015500Y003650D02*
X016400Y003650D01*
X016400Y003550D02*
X015500Y003550D01*
X015500Y003450D02*
X016400Y003450D01*
X016400Y003350D02*
X015500Y003350D01*
X015500Y003250D02*
X016400Y003250D01*
X016400Y003150D02*
X015500Y003150D01*
X015500Y003050D02*
X016400Y003050D01*
X016400Y002950D02*
X015500Y002950D01*
X014800Y002750D02*
X014600Y002750D01*
X014000Y003450D02*
X013800Y003250D01*
X013200Y003250D01*
X012900Y002950D01*
X012200Y002950D01*
X012200Y002627D01*
X012600Y002650D02*
X012800Y002650D01*
X012800Y002550D02*
X012600Y002550D01*
X012600Y002450D02*
X012800Y002450D01*
X012800Y002350D02*
X012600Y002350D01*
X012600Y002250D02*
X012800Y002250D01*
X012800Y002150D02*
X012600Y002150D01*
X012600Y002086D02*
X012600Y002750D01*
X012600Y001957D01*
X012607Y001950D02*
X012793Y001950D01*
X012800Y001957D02*
X012800Y002086D01*
X012864Y002021D01*
X012700Y001857D01*
X012700Y002750D01*
X012600Y002750D02*
X012800Y002750D01*
X012800Y002086D01*
X012836Y002050D02*
X012564Y002050D01*
X012536Y002021D02*
X012600Y002086D01*
X012536Y002021D02*
X012700Y001857D01*
X012700Y001443D01*
X012993Y001150D01*
X012700Y001443D02*
X012700Y001857D01*
X012700Y001850D02*
X012700Y001850D01*
X012700Y001750D02*
X012700Y001750D01*
X012700Y001650D02*
X012700Y001650D01*
X012700Y001550D02*
X012700Y001550D01*
X012700Y001450D02*
X012700Y001450D01*
X011700Y001450D02*
X011700Y001450D01*
X011700Y001550D02*
X011700Y001550D01*
X010700Y001550D02*
X010700Y001550D01*
X010700Y001450D02*
X010700Y001450D01*
X010705Y001862D02*
X009500Y003067D01*
X009500Y003050D02*
X009517Y003050D01*
X009615Y003235D02*
X009615Y003767D01*
X010760Y004350D02*
X011138Y004350D01*
X011138Y004450D02*
X010760Y004450D01*
X010760Y004550D02*
X011138Y004550D01*
X011138Y004650D02*
X010760Y004650D01*
X010760Y004750D02*
X011138Y004750D01*
X011138Y004850D02*
X010760Y004850D01*
X010760Y004950D02*
X011138Y004950D01*
X011138Y005050D02*
X010760Y005050D01*
X010760Y005150D02*
X011138Y005150D01*
X011138Y005250D02*
X010760Y005250D01*
X010760Y005350D02*
X011138Y005350D01*
X011583Y005735D02*
X011599Y005720D01*
X013550Y005720D01*
X013990Y005920D02*
X013990Y006790D01*
X015440Y006790D01*
X015440Y006750D01*
X015850Y006750D01*
X013990Y006750D01*
X014000Y006790D02*
X014000Y005920D01*
X013990Y005920D02*
X015313Y005920D01*
X015383Y005850D01*
X015410Y005823D01*
X015410Y006622D01*
X015443Y006655D01*
X015440Y006664D01*
X015440Y006750D01*
X015850Y006750D01*
X015850Y006750D01*
X015800Y006750D02*
X015800Y006750D01*
X015700Y006750D02*
X015700Y006750D01*
X015600Y006750D02*
X015600Y006750D01*
X015500Y006750D02*
X015500Y006750D01*
X015400Y006790D02*
X015400Y005833D01*
X015410Y005850D02*
X015383Y005850D01*
X015410Y005950D02*
X013990Y005950D01*
X013990Y006050D02*
X015410Y006050D01*
X015410Y006150D02*
X013990Y006150D01*
X013990Y006250D02*
X015410Y006250D01*
X015410Y006350D02*
X013990Y006350D01*
X013990Y006450D02*
X015410Y006450D01*
X015410Y006550D02*
X013990Y006550D01*
X013990Y006650D02*
X015438Y006650D01*
X015300Y006790D02*
X015300Y005920D01*
X015200Y005920D02*
X015200Y006790D01*
X015100Y006790D02*
X015100Y005920D01*
X015000Y005920D02*
X015000Y006790D01*
X014900Y006790D02*
X014900Y005920D01*
X014800Y005920D02*
X014800Y006790D01*
X014700Y006790D02*
X014700Y005920D01*
X014600Y005920D02*
X014600Y006790D01*
X014500Y006790D02*
X014500Y005920D01*
X014400Y005920D02*
X014400Y006790D01*
X014300Y006790D02*
X014300Y005920D01*
X014200Y005920D02*
X014200Y006790D01*
X014100Y006790D02*
X014100Y005920D01*
X014500Y004950D02*
X013550Y004950D01*
X012300Y004950D01*
X012140Y004790D01*
X011583Y004790D01*
X011583Y004475D02*
X012775Y004475D01*
X012800Y004450D01*
X012800Y003450D01*
X012700Y003350D01*
X012435Y003350D01*
X012400Y003315D01*
X012747Y003150D02*
X012783Y003150D01*
X012817Y003150D01*
X012747Y003150D01*
X012747Y003150D01*
X012783Y003150D02*
X012900Y003267D01*
X013000Y003367D01*
X013000Y004533D01*
X012883Y004650D01*
X012858Y004675D01*
X012308Y004675D01*
X012340Y004707D01*
X012383Y004750D01*
X013140Y004750D01*
X013140Y004700D01*
X013550Y004700D01*
X013960Y004700D01*
X013960Y004750D01*
X014417Y004750D01*
X014500Y004667D01*
X014500Y003650D01*
X013000Y003650D01*
X013000Y003550D02*
X013817Y003550D01*
X013800Y003533D02*
X013800Y004510D01*
X013856Y004510D02*
X013886Y004518D01*
X013914Y004534D01*
X013936Y004556D01*
X013952Y004584D01*
X013960Y004614D01*
X013960Y004700D01*
X013550Y004700D01*
X013550Y004700D01*
X013550Y004510D01*
X013856Y004510D01*
X013900Y004526D02*
X013900Y003633D01*
X013917Y003650D02*
X013800Y003533D01*
X013717Y003450D01*
X013117Y003450D01*
X013000Y003333D01*
X013000Y004750D01*
X012900Y004750D02*
X012900Y004633D01*
X012883Y004650D02*
X013140Y004650D01*
X013140Y004614D02*
X013148Y004584D01*
X013164Y004556D01*
X013186Y004534D01*
X013214Y004518D01*
X013244Y004510D01*
X013550Y004510D01*
X013550Y004700D01*
X013550Y004700D01*
X013550Y004700D01*
X013140Y004700D01*
X013140Y004614D01*
X013170Y004550D02*
X012983Y004550D01*
X013000Y004450D02*
X014500Y004450D01*
X014500Y004550D02*
X013930Y004550D01*
X013960Y004650D02*
X014500Y004650D01*
X014400Y004750D02*
X014400Y003650D01*
X014500Y003650D02*
X013917Y003650D01*
X014000Y003650D02*
X014000Y004750D01*
X014100Y004750D02*
X014100Y003650D01*
X014200Y003650D02*
X014200Y004750D01*
X014300Y004750D02*
X014300Y003650D01*
X014500Y003750D02*
X013000Y003750D01*
X013000Y003850D02*
X014500Y003850D01*
X014500Y003950D02*
X013000Y003950D01*
X013000Y004050D02*
X014500Y004050D01*
X014500Y004150D02*
X013000Y004150D01*
X013000Y004250D02*
X014500Y004250D01*
X014500Y004350D02*
X013000Y004350D01*
X013200Y004526D02*
X013200Y003450D01*
X013300Y003450D02*
X013300Y004510D01*
X013400Y004510D02*
X013400Y003450D01*
X013500Y003450D02*
X013500Y004510D01*
X013550Y004550D02*
X013550Y004550D01*
X013600Y004510D02*
X013600Y003450D01*
X013700Y003450D02*
X013700Y004510D01*
X013550Y004650D02*
X013550Y004650D01*
X013600Y004700D02*
X013600Y004700D01*
X013500Y004700D02*
X013500Y004700D01*
X013400Y004700D02*
X013400Y004700D01*
X013300Y004700D02*
X013300Y004700D01*
X013200Y004700D02*
X013200Y004700D01*
X013100Y004750D02*
X013100Y003433D01*
X013000Y003450D02*
X013717Y003450D01*
X014000Y003450D02*
X014600Y003450D01*
X014700Y003550D01*
X014700Y004750D01*
X014500Y004950D01*
X013900Y004700D02*
X013900Y004700D01*
X013800Y004700D02*
X013800Y004700D01*
X013700Y004700D02*
X013700Y004700D01*
X012800Y004675D02*
X012800Y004750D01*
X012700Y004750D02*
X012700Y004675D01*
X012600Y004675D02*
X012600Y004750D01*
X012500Y004750D02*
X012500Y004675D01*
X012400Y004675D02*
X012400Y004750D01*
X012983Y003350D02*
X013017Y003350D01*
X013000Y003333D02*
X012817Y003150D01*
X012800Y003150D02*
X012800Y003167D01*
X012883Y003250D02*
X012917Y003250D01*
X012900Y003233D02*
X012900Y003267D01*
X010617Y001950D02*
X010607Y001950D01*
X010600Y001957D02*
X010600Y001967D01*
X010517Y002050D02*
X010507Y002050D01*
X010500Y002057D02*
X010500Y002067D01*
X008700Y001550D02*
X008700Y001550D01*
X008700Y001450D02*
X008700Y001450D01*
X008100Y002733D02*
X008100Y003321D01*
X008200Y003321D02*
X008200Y002833D01*
X008217Y002850D02*
X007925Y002850D01*
X007925Y002750D02*
X008117Y002750D01*
X008300Y002933D02*
X008300Y003321D01*
X008317Y002950D02*
X007925Y002950D01*
X007300Y003593D02*
X007293Y003606D01*
X007271Y003628D01*
X007269Y003629D01*
X007300Y003659D01*
X007300Y003593D01*
X007291Y003650D02*
X007300Y003650D01*
X006600Y004255D02*
X006600Y004286D01*
X006571Y004350D02*
X006505Y004350D01*
X006500Y004338D02*
X006500Y004310D01*
X006520Y004450D02*
X006571Y004450D01*
X006571Y004550D02*
X006505Y004550D01*
X006500Y004562D02*
X006500Y004950D01*
X006601Y004750D02*
X006312Y004750D01*
X006700Y004790D02*
X006700Y004790D01*
X006800Y004790D02*
X006800Y004790D01*
X006900Y004790D02*
X006900Y004790D01*
X005300Y005050D02*
X005300Y003750D01*
X004547Y005620D02*
X004420Y005747D01*
X004420Y005686D01*
X004393Y005620D01*
X004547Y005620D01*
X004517Y005650D02*
X004405Y005650D01*
X004400Y005638D02*
X004400Y005620D01*
X004500Y005620D02*
X004500Y005667D01*
X004097Y006070D02*
X004063Y006070D01*
X003783Y006350D01*
X003617Y006350D01*
X003607Y006350D01*
X003700Y006443D01*
X003700Y006450D01*
X003700Y006350D01*
X003607Y006350D02*
X003817Y006350D01*
X003800Y006333D02*
X003800Y006367D01*
X003717Y006450D02*
X004097Y006070D01*
X004017Y006150D02*
X003983Y006150D01*
X004000Y006133D02*
X004000Y006167D01*
X003917Y006250D02*
X003883Y006250D01*
X003900Y006233D02*
X003900Y006267D01*
X003717Y006450D02*
X003700Y006450D01*
X003700Y006850D02*
X003700Y006867D01*
X003700Y006857D02*
X003700Y006850D01*
X003717Y006850D01*
X003700Y006850D01*
X003700Y006857D02*
X003407Y007150D01*
X003417Y007150D01*
X003412Y007155D02*
X003717Y006850D01*
X003617Y006950D02*
X003607Y006950D01*
X003600Y006957D02*
X003600Y006967D01*
X003517Y007050D02*
X003507Y007050D01*
X003500Y007057D02*
X003500Y007067D01*
X003407Y007150D02*
X003412Y007155D01*
X003407Y007150D02*
X002993Y007150D01*
X002435Y007150D01*
X002714Y007429D01*
X002993Y007150D01*
X002714Y006871D01*
X002435Y007150D01*
X002500Y007085D02*
X002500Y007215D01*
X002535Y007250D02*
X002893Y007250D01*
X002900Y007243D02*
X002900Y007057D01*
X002893Y007050D02*
X002535Y007050D01*
X002600Y006985D02*
X002600Y007315D01*
X002635Y007350D02*
X002793Y007350D01*
X002800Y007343D02*
X002800Y006957D01*
X002793Y006950D02*
X002635Y006950D01*
X002700Y006885D02*
X002700Y007415D01*
X002993Y007150D02*
X003407Y007150D01*
X003400Y007150D02*
X003400Y007150D01*
X003300Y007150D02*
X003300Y007150D01*
X003200Y007150D02*
X003200Y007150D01*
X003100Y007150D02*
X003100Y007150D01*
X003000Y007150D02*
X003000Y007150D01*
X001965Y007150D02*
X001900Y007150D01*
X001900Y007085D02*
X001900Y007215D01*
X001965Y007150D01*
X001900Y007085D01*
X001900Y007215D01*
X001500Y007215D02*
X001500Y007085D01*
X001435Y007150D01*
X001500Y007150D01*
X001435Y007150D02*
X001500Y007215D01*
X000965Y007150D02*
X000900Y007150D01*
X000900Y007085D02*
X000900Y007215D01*
X000965Y007150D01*
X000900Y007085D01*
X000900Y007215D01*
X000900Y006215D02*
X000965Y006150D01*
X000900Y006150D01*
X000900Y006085D02*
X000900Y006215D01*
X000900Y006085D01*
X000965Y006150D01*
X001435Y006150D02*
X001500Y006150D01*
X001500Y006085D02*
X001435Y006150D01*
X001500Y006215D01*
X001500Y006085D01*
X001900Y006085D02*
X001900Y006215D01*
X001965Y006150D01*
X001900Y006150D01*
X001900Y006085D02*
X001900Y006215D01*
X001965Y006150D02*
X001900Y006085D01*
X002635Y005950D02*
X002714Y005871D01*
X002793Y005950D01*
X002635Y005950D01*
X002700Y005950D02*
X002700Y005885D01*
X001965Y005150D02*
X001900Y005215D01*
X001900Y005085D01*
X001965Y005150D01*
X001900Y005150D01*
X001900Y005085D02*
X001900Y005215D01*
X001500Y005215D02*
X001500Y005085D01*
X001435Y005150D01*
X001500Y005150D01*
X001435Y005150D02*
X001500Y005215D01*
X000965Y005150D02*
X000900Y005150D01*
X000900Y005085D02*
X000900Y005215D01*
X000965Y005150D01*
X000900Y005085D01*
X000900Y005215D01*
X000680Y004450D02*
X000650Y004450D01*
X003800Y008333D02*
X003695Y008438D01*
X003700Y008443D01*
X003700Y008767D01*
X003700Y008433D01*
X003700Y008450D02*
X003800Y008450D01*
X003800Y008350D02*
X003783Y008350D01*
X003800Y008333D02*
X003800Y008667D01*
X003700Y008767D01*
X003700Y008750D02*
X003717Y008750D01*
X003700Y008650D02*
X003800Y008650D01*
X003800Y008550D02*
X003700Y008550D01*
X002793Y008950D02*
X002714Y008871D01*
X002635Y008950D01*
X002793Y008950D01*
X002700Y008950D02*
X002700Y008885D01*
X002783Y009350D02*
X002793Y009350D01*
X002783Y009350D01*
X002709Y009424D01*
X002714Y009429D01*
X002793Y009350D01*
X002714Y009871D02*
X002793Y009950D01*
X002635Y009950D01*
X002714Y009871D01*
X002700Y009885D02*
X002700Y009950D01*
X000965Y009150D02*
X000900Y009085D01*
X000900Y009215D01*
X000965Y009150D01*
X000900Y009150D01*
X000900Y009085D02*
X000900Y009215D01*
X015850Y006490D02*
X016240Y006490D01*
X016300Y006550D01*
X016300Y006850D01*
X016500Y007050D01*
X016500Y008550D01*
X016800Y008850D01*
X016800Y009550D01*
X016900Y009650D01*
X017265Y009650D01*
X016899Y009850D02*
X016899Y009909D01*
X016987Y009997D01*
X017544Y009997D01*
X017600Y009941D01*
X017600Y010480D01*
X017700Y010480D02*
X017700Y009997D01*
X017656Y009997D02*
X017600Y009941D01*
X017591Y009950D02*
X017609Y009950D01*
X017656Y009997D02*
X018213Y009997D01*
X018301Y009909D01*
X018301Y009880D01*
X018432Y009880D01*
X018459Y009945D01*
X018605Y010091D01*
X018797Y010170D01*
X019003Y010170D01*
X019195Y010091D01*
X019341Y009945D01*
X019400Y009802D01*
X019400Y011098D01*
X019420Y011050D02*
X019270Y011050D01*
X019270Y010950D02*
X019465Y010950D01*
X019459Y010955D02*
X019605Y010809D01*
X019797Y010730D01*
X020003Y010730D01*
X020195Y010809D01*
X020341Y010955D01*
X020420Y011147D01*
X020420Y011148D01*
X020422Y011135D01*
X020446Y011062D01*
X020481Y010993D01*
X020526Y010931D01*
X020581Y010876D01*
X020643Y010831D01*
X020712Y010796D01*
X020785Y010772D01*
X020850Y010762D01*
X020850Y011200D01*
X020950Y011200D01*
X020950Y010762D01*
X021015Y010772D01*
X021088Y010796D01*
X021157Y010831D01*
X021219Y010876D01*
X021274Y010931D01*
X021319Y010993D01*
X021350Y011054D01*
X021350Y009846D01*
X021319Y009907D01*
X021274Y009969D01*
X021219Y010024D01*
X021157Y010069D01*
X021088Y010104D01*
X021015Y010128D01*
X020950Y010138D01*
X020950Y009700D01*
X020850Y009700D01*
X020850Y010138D01*
X020785Y010128D01*
X020712Y010104D01*
X020643Y010069D01*
X020581Y010024D01*
X020526Y009969D01*
X020481Y009907D01*
X020446Y009838D01*
X020422Y009765D01*
X020420Y009752D01*
X020420Y009753D01*
X020341Y009945D01*
X020195Y010091D01*
X020003Y010170D01*
X019797Y010170D01*
X019605Y010091D01*
X019459Y009945D01*
X019400Y009802D01*
X019380Y009850D02*
X019420Y009850D01*
X019465Y009950D02*
X019335Y009950D01*
X019300Y009985D02*
X019300Y011380D01*
X019270Y011380D02*
X019391Y011380D01*
X019380Y011353D01*
X019380Y011147D01*
X019459Y010955D01*
X019500Y010915D02*
X019500Y009985D01*
X019565Y010050D02*
X019235Y010050D01*
X019200Y010085D02*
X019200Y010868D01*
X019182Y010850D02*
X019565Y010850D01*
X019600Y010815D02*
X019600Y010085D01*
X019700Y010130D02*
X019700Y010770D01*
X019748Y010750D02*
X019020Y010750D01*
X019020Y010686D02*
X019020Y010814D01*
X019005Y010850D01*
X019182Y010850D01*
X019270Y010938D01*
X019270Y011380D01*
X019270Y011350D02*
X019380Y011350D01*
X019380Y011250D02*
X019270Y011250D01*
X019270Y011150D02*
X019380Y011150D01*
X019100Y010850D02*
X019100Y010130D01*
X019052Y010150D02*
X019748Y010150D01*
X019800Y010170D02*
X019800Y010730D01*
X019900Y010730D02*
X019900Y010170D01*
X020000Y010170D02*
X020000Y010730D01*
X020052Y010750D02*
X021350Y010750D01*
X021350Y010650D02*
X019005Y010650D01*
X019000Y010638D02*
X019000Y010170D01*
X018900Y010170D02*
X018900Y010497D01*
X018881Y010479D02*
X018971Y010569D01*
X019020Y010686D01*
X018953Y010550D02*
X021350Y010550D01*
X021350Y010450D02*
X018812Y010450D01*
X018800Y010445D02*
X018800Y010170D01*
X018748Y010150D02*
X016890Y010150D01*
X016890Y010096D02*
X016890Y010458D01*
X016912Y010480D01*
X018517Y010480D01*
X018519Y010479D01*
X018636Y010430D01*
X018764Y010430D01*
X018881Y010479D01*
X018700Y010430D02*
X018700Y010130D01*
X018600Y010085D02*
X018600Y010445D01*
X018588Y010450D02*
X016890Y010450D01*
X016900Y010468D02*
X016900Y009910D01*
X016870Y009950D02*
X016940Y009950D01*
X017000Y009997D02*
X017000Y010480D01*
X017100Y010480D02*
X017100Y009997D01*
X017200Y009997D02*
X017200Y010480D01*
X017300Y010480D02*
X017300Y009997D01*
X017400Y009997D02*
X017400Y010480D01*
X017500Y010480D02*
X017500Y009997D01*
X017800Y009997D02*
X017800Y010480D01*
X017900Y010480D02*
X017900Y009997D01*
X018000Y009997D02*
X018000Y010480D01*
X018100Y010480D02*
X018100Y009997D01*
X018200Y009997D02*
X018200Y010480D01*
X018300Y010480D02*
X018300Y009910D01*
X018260Y009950D02*
X018465Y009950D01*
X018500Y009985D02*
X018500Y010480D01*
X018400Y010480D02*
X018400Y009880D01*
X018565Y010050D02*
X016871Y010050D01*
X016870Y010048D02*
X016890Y010096D01*
X016870Y010048D02*
X016870Y009850D01*
X016899Y009850D01*
X016870Y009850D01*
X016890Y010250D02*
X021350Y010250D01*
X021350Y010350D02*
X016890Y010350D01*
X017689Y011020D02*
X017761Y011092D01*
X017844Y011292D01*
X017844Y011430D01*
X017964Y011430D01*
X018081Y011479D01*
X018083Y011480D01*
X018130Y011480D01*
X018130Y011020D01*
X017689Y011020D01*
X017700Y011020D02*
X017700Y011031D01*
X017719Y011050D02*
X018130Y011050D01*
X018100Y011020D02*
X018100Y011480D01*
X018130Y011450D02*
X018012Y011450D01*
X018000Y011445D02*
X018000Y011020D01*
X017900Y011020D02*
X017900Y011430D01*
X017844Y011350D02*
X018130Y011350D01*
X018130Y011250D02*
X017826Y011250D01*
X017800Y011186D02*
X017800Y011020D01*
X017785Y011150D02*
X018130Y011150D01*
X018650Y011650D02*
X018650Y011724D01*
X018609Y011823D01*
X018529Y011903D01*
X018453Y011979D01*
X018402Y012000D01*
X020800Y012000D01*
X020800Y011730D01*
X020785Y011728D02*
X020712Y011704D01*
X020643Y011669D01*
X020581Y011624D01*
X020526Y011569D01*
X020481Y011507D01*
X020446Y011438D01*
X020422Y011365D01*
X020420Y011352D01*
X020420Y011353D01*
X020341Y011545D01*
X020195Y011691D01*
X020103Y011729D01*
X020053Y011779D01*
X019953Y011879D01*
X019854Y011920D01*
X019046Y011920D01*
X018947Y011879D01*
X018871Y011803D01*
X018791Y011723D01*
X018761Y011650D01*
X018650Y011650D01*
X018761Y011650D01*
X018700Y011650D02*
X018700Y012000D01*
X018800Y012000D02*
X018800Y011732D01*
X018818Y011750D02*
X018639Y011750D01*
X018600Y011832D02*
X018600Y012000D01*
X018500Y012000D02*
X018500Y011932D01*
X018482Y011950D02*
X021002Y011950D01*
X021000Y011951D02*
X021000Y011730D01*
X021015Y011728D02*
X020950Y011738D01*
X020950Y011300D01*
X020850Y011300D01*
X020850Y011738D01*
X020785Y011728D01*
X020700Y011698D02*
X020700Y012000D01*
X020800Y012000D02*
X020907Y011989D01*
X021106Y011907D01*
X021257Y011756D01*
X021339Y011557D01*
X021350Y011450D01*
X021348Y011450D01*
X021350Y011450D02*
X021350Y011446D01*
X021319Y011507D01*
X021274Y011569D01*
X021219Y011624D01*
X021157Y011669D01*
X021088Y011704D01*
X021015Y011728D01*
X021100Y011698D02*
X021100Y011910D01*
X021163Y011850D02*
X019982Y011850D01*
X020000Y011832D02*
X020000Y012000D01*
X020100Y012000D02*
X020100Y011732D01*
X020082Y011750D02*
X021260Y011750D01*
X021200Y011813D02*
X021200Y011638D01*
X021183Y011650D02*
X021301Y011650D01*
X021300Y011652D02*
X021300Y011533D01*
X021288Y011550D02*
X021340Y011550D01*
X020950Y011550D02*
X020850Y011550D01*
X020850Y011450D02*
X020950Y011450D01*
X020950Y011350D02*
X020850Y011350D01*
X020900Y011300D02*
X020900Y011990D01*
X020600Y012000D02*
X020600Y011638D01*
X020617Y011650D02*
X020235Y011650D01*
X020200Y011685D02*
X020200Y012000D01*
X020300Y012000D02*
X020300Y011585D01*
X020335Y011550D02*
X020512Y011550D01*
X020500Y011533D02*
X020500Y012000D01*
X020400Y012000D02*
X020400Y011402D01*
X020380Y011450D02*
X020452Y011450D01*
X020850Y011650D02*
X020950Y011650D01*
X021400Y012052D02*
X021400Y012150D01*
X021302Y012150D02*
X021500Y012150D01*
X021500Y011952D01*
X021302Y012150D01*
X021402Y012050D02*
X021500Y012050D01*
X020900Y011200D02*
X020900Y009700D01*
X020850Y009750D02*
X020950Y009750D01*
X020950Y009850D02*
X020850Y009850D01*
X020850Y009950D02*
X020950Y009950D01*
X020950Y010050D02*
X020850Y010050D01*
X020800Y010130D02*
X020800Y010770D01*
X020850Y010850D02*
X020950Y010850D01*
X021000Y010770D02*
X021000Y010130D01*
X021100Y010098D02*
X021100Y010802D01*
X021183Y010850D02*
X021350Y010850D01*
X021350Y010950D02*
X021288Y010950D01*
X021300Y010967D02*
X021300Y009933D01*
X021288Y009950D02*
X021350Y009950D01*
X021350Y010050D02*
X021183Y010050D01*
X021200Y010038D02*
X021200Y010862D01*
X020950Y010950D02*
X020850Y010950D01*
X020850Y011050D02*
X020950Y011050D01*
X020950Y011150D02*
X020850Y011150D01*
X020512Y010950D02*
X020335Y010950D01*
X020300Y010915D02*
X020300Y009985D01*
X020335Y009950D02*
X020512Y009950D01*
X020500Y009933D02*
X020500Y010967D01*
X020452Y011050D02*
X020380Y011050D01*
X020400Y011098D02*
X020400Y009802D01*
X020380Y009850D02*
X020452Y009850D01*
X020600Y010038D02*
X020600Y010862D01*
X020617Y010850D02*
X020235Y010850D01*
X020200Y010815D02*
X020200Y010085D01*
X020235Y010050D02*
X020617Y010050D01*
X020700Y010098D02*
X020700Y010802D01*
X020100Y010770D02*
X020100Y010130D01*
X020052Y010150D02*
X021350Y010150D01*
X021348Y009850D02*
X021350Y009850D01*
X021348Y009450D02*
X021350Y009450D01*
X019100Y009170D02*
X019100Y009130D01*
X019400Y007498D02*
X019459Y007355D01*
X019605Y007209D01*
X019748Y007150D01*
X019052Y007150D01*
X019195Y007209D01*
X019341Y007355D01*
X019400Y007498D01*
X019400Y006802D01*
X019341Y006945D01*
X019195Y007091D01*
X019052Y007150D01*
X019100Y007130D02*
X019100Y007170D01*
X019200Y007215D02*
X019200Y007085D01*
X019235Y007050D02*
X019565Y007050D01*
X019600Y007085D02*
X019600Y007215D01*
X019565Y007250D02*
X019235Y007250D01*
X019300Y007315D02*
X019300Y006985D01*
X019335Y006950D02*
X019465Y006950D01*
X019459Y006945D02*
X019400Y006802D01*
X019380Y006850D02*
X019420Y006850D01*
X019459Y006945D02*
X019605Y007091D01*
X019748Y007150D01*
X019700Y007130D02*
X019700Y007170D01*
X019500Y007315D02*
X019500Y006985D01*
X019465Y007350D02*
X019335Y007350D01*
X019380Y007450D02*
X019420Y007450D01*
X018748Y007150D02*
X017100Y007150D01*
X017100Y007050D02*
X018565Y007050D01*
X018600Y007085D02*
X018600Y007215D01*
X018605Y007209D02*
X018748Y007150D01*
X018605Y007091D01*
X018459Y006945D01*
X018432Y006880D01*
X018301Y006880D01*
X018301Y006909D01*
X018213Y006997D01*
X017656Y006997D01*
X017600Y006941D01*
X017600Y007359D01*
X017656Y007303D01*
X018213Y007303D01*
X018301Y007391D01*
X018301Y007420D01*
X018432Y007420D01*
X018459Y007355D01*
X018605Y007209D01*
X018565Y007250D02*
X017100Y007250D01*
X017100Y007303D02*
X017100Y006997D01*
X017100Y007303D01*
X017544Y007303D01*
X017600Y007359D01*
X017591Y007350D02*
X017609Y007350D01*
X017700Y007303D02*
X017700Y006997D01*
X017800Y006997D02*
X017800Y007303D01*
X017900Y007303D02*
X017900Y006997D01*
X018000Y006997D02*
X018000Y007303D01*
X018100Y007303D02*
X018100Y006997D01*
X018200Y006997D02*
X018200Y007303D01*
X018260Y007350D02*
X018465Y007350D01*
X018500Y007315D02*
X018500Y006985D01*
X018465Y006950D02*
X018260Y006950D01*
X018300Y006910D02*
X018300Y007390D01*
X018400Y007420D02*
X018400Y006880D01*
X018700Y007130D02*
X018700Y007170D01*
X019400Y006498D02*
X019459Y006355D01*
X019605Y006209D01*
X019748Y006150D01*
X019052Y006150D01*
X019195Y006209D01*
X019341Y006355D01*
X019400Y006498D01*
X019400Y005802D01*
X019341Y005945D01*
X019195Y006091D01*
X019052Y006150D01*
X019100Y006130D02*
X019100Y006170D01*
X019200Y006215D02*
X019200Y006085D01*
X019235Y006050D02*
X019565Y006050D01*
X019600Y006085D02*
X019600Y006215D01*
X019565Y006250D02*
X019235Y006250D01*
X019300Y006315D02*
X019300Y005985D01*
X019335Y005950D02*
X019465Y005950D01*
X019459Y005945D02*
X019400Y005802D01*
X019380Y005850D02*
X019420Y005850D01*
X019459Y005945D02*
X019605Y006091D01*
X019748Y006150D01*
X019700Y006130D02*
X019700Y006170D01*
X019500Y006315D02*
X019500Y005985D01*
X019465Y006350D02*
X019335Y006350D01*
X019380Y006450D02*
X019420Y006450D01*
X018748Y006150D02*
X017100Y006150D01*
X017100Y006050D02*
X018565Y006050D01*
X018600Y006085D02*
X018600Y006215D01*
X018605Y006209D02*
X018748Y006150D01*
X018605Y006091D01*
X018459Y005945D01*
X018432Y005880D01*
X018301Y005880D01*
X018301Y005909D01*
X018213Y005997D01*
X017656Y005997D01*
X017600Y005941D01*
X017600Y006359D01*
X017656Y006303D01*
X018213Y006303D01*
X018301Y006391D01*
X018301Y006420D01*
X018432Y006420D01*
X018459Y006355D01*
X018605Y006209D01*
X018565Y006250D02*
X017100Y006250D01*
X017100Y006303D02*
X017100Y005997D01*
X017100Y006303D01*
X017544Y006303D01*
X017600Y006359D01*
X017591Y006350D02*
X017609Y006350D01*
X017700Y006303D02*
X017700Y005997D01*
X017800Y005997D02*
X017800Y006303D01*
X017900Y006303D02*
X017900Y005997D01*
X018000Y005997D02*
X018000Y006303D01*
X018100Y006303D02*
X018100Y005997D01*
X018200Y005997D02*
X018200Y006303D01*
X018260Y006350D02*
X018465Y006350D01*
X018500Y006315D02*
X018500Y005985D01*
X018465Y005950D02*
X018260Y005950D01*
X018300Y005910D02*
X018300Y006390D01*
X018400Y006420D02*
X018400Y005880D01*
X018700Y006130D02*
X018700Y006170D01*
X019400Y005498D02*
X019459Y005355D01*
X019605Y005209D01*
X019748Y005150D01*
X019052Y005150D01*
X019195Y005209D01*
X019341Y005355D01*
X019400Y005498D01*
X019400Y004802D01*
X019341Y004945D01*
X019195Y005091D01*
X019052Y005150D01*
X019100Y005130D02*
X019100Y005170D01*
X019200Y005215D02*
X019200Y005085D01*
X019235Y005050D02*
X019565Y005050D01*
X019600Y005085D02*
X019600Y005215D01*
X019565Y005250D02*
X019235Y005250D01*
X019300Y005315D02*
X019300Y004985D01*
X019335Y004950D02*
X019465Y004950D01*
X019459Y004945D02*
X019400Y004802D01*
X019380Y004850D02*
X019420Y004850D01*
X019459Y004945D02*
X019605Y005091D01*
X019748Y005150D01*
X019700Y005130D02*
X019700Y005170D01*
X019500Y005315D02*
X019500Y004985D01*
X019465Y005350D02*
X019335Y005350D01*
X019380Y005450D02*
X019420Y005450D01*
X018748Y005150D02*
X017200Y005150D01*
X017200Y005233D02*
X017200Y004998D01*
X017200Y005302D01*
X017201Y005303D02*
X017544Y005303D01*
X017600Y005359D01*
X017600Y004941D01*
X017544Y004997D01*
X017201Y004997D01*
X017200Y004998D01*
X017200Y005050D02*
X018565Y005050D01*
X018600Y005085D02*
X018600Y005215D01*
X018605Y005209D02*
X018748Y005150D01*
X018605Y005091D01*
X018459Y004945D01*
X018432Y004880D01*
X018301Y004880D01*
X018301Y004909D01*
X018213Y004997D01*
X017656Y004997D01*
X017600Y004941D01*
X017591Y004950D02*
X017609Y004950D01*
X017700Y004997D02*
X017700Y005303D01*
X017656Y005303D02*
X018213Y005303D01*
X018301Y005391D01*
X018301Y005420D01*
X018432Y005420D01*
X018459Y005355D01*
X018605Y005209D01*
X018565Y005250D02*
X017183Y005250D01*
X017200Y005233D02*
X017163Y005270D01*
X017168Y005270D01*
X017201Y005303D01*
X017300Y005303D02*
X017300Y004997D01*
X017400Y004997D02*
X017400Y005303D01*
X017500Y005303D02*
X017500Y004997D01*
X017800Y004997D02*
X017800Y005303D01*
X017900Y005303D02*
X017900Y004997D01*
X018000Y004997D02*
X018000Y005303D01*
X018100Y005303D02*
X018100Y004997D01*
X018200Y004997D02*
X018200Y005303D01*
X018260Y005350D02*
X018465Y005350D01*
X018500Y005315D02*
X018500Y004985D01*
X018465Y004950D02*
X018260Y004950D01*
X018300Y004910D02*
X018300Y005390D01*
X018400Y005420D02*
X018400Y004880D01*
X018700Y005130D02*
X018700Y005170D01*
X019400Y004498D02*
X019459Y004355D01*
X019605Y004209D01*
X019748Y004150D01*
X019052Y004150D01*
X019195Y004209D01*
X019341Y004355D01*
X019400Y004498D01*
X019400Y003802D01*
X019341Y003945D01*
X019195Y004091D01*
X019052Y004150D01*
X019100Y004130D02*
X019100Y004170D01*
X019200Y004215D02*
X019200Y004085D01*
X019235Y004050D02*
X019565Y004050D01*
X019600Y004085D02*
X019600Y004215D01*
X019565Y004250D02*
X019235Y004250D01*
X019300Y004315D02*
X019300Y003985D01*
X019335Y003950D02*
X019465Y003950D01*
X019459Y003945D02*
X019400Y003802D01*
X019380Y003850D02*
X019420Y003850D01*
X019459Y003945D02*
X019605Y004091D01*
X019748Y004150D01*
X019700Y004130D02*
X019700Y004170D01*
X019500Y004315D02*
X019500Y003985D01*
X019465Y004350D02*
X019335Y004350D01*
X019380Y004450D02*
X019420Y004450D01*
X018748Y004150D02*
X017000Y004150D01*
X017000Y004050D02*
X018565Y004050D01*
X018600Y004085D02*
X018600Y004215D01*
X018605Y004209D02*
X018748Y004150D01*
X018605Y004091D01*
X018459Y003945D01*
X018432Y003880D01*
X018301Y003880D01*
X018301Y003909D01*
X018213Y003997D01*
X017656Y003997D01*
X017600Y003941D01*
X017600Y004359D01*
X017656Y004303D01*
X018213Y004303D01*
X018301Y004391D01*
X018301Y004420D01*
X018432Y004420D01*
X018459Y004355D01*
X018605Y004209D01*
X018565Y004250D02*
X017000Y004250D01*
X017000Y004303D02*
X017000Y003997D01*
X017000Y004303D01*
X017544Y004303D01*
X017600Y004359D01*
X017591Y004350D02*
X017609Y004350D01*
X017700Y004303D02*
X017700Y003997D01*
X017800Y003997D02*
X017800Y004303D01*
X017900Y004303D02*
X017900Y003997D01*
X018000Y003997D02*
X018000Y004303D01*
X018100Y004303D02*
X018100Y003997D01*
X018200Y003997D02*
X018200Y004303D01*
X018260Y004350D02*
X018465Y004350D01*
X018500Y004315D02*
X018500Y003985D01*
X018465Y003950D02*
X018260Y003950D01*
X018300Y003910D02*
X018300Y004390D01*
X018400Y004420D02*
X018400Y003880D01*
X018700Y004130D02*
X018700Y004170D01*
X018432Y003420D02*
X018459Y003355D01*
X018605Y003209D01*
X018748Y003150D01*
X016800Y003150D01*
X016800Y003050D02*
X018565Y003050D01*
X018600Y003085D02*
X018600Y003215D01*
X018565Y003250D02*
X016800Y003250D01*
X016800Y003350D02*
X016940Y003350D01*
X016900Y003390D02*
X016900Y002910D01*
X016899Y002909D02*
X016899Y002850D01*
X016800Y002850D01*
X016800Y003467D01*
X016800Y002850D01*
X016899Y002850D01*
X016899Y002909D02*
X016987Y002997D01*
X017544Y002997D01*
X017600Y002941D01*
X017600Y003359D01*
X017656Y003303D01*
X018213Y003303D01*
X018301Y003391D01*
X018301Y003420D01*
X018432Y003420D01*
X018400Y003420D02*
X018400Y002880D01*
X018432Y002880D02*
X018301Y002880D01*
X018301Y002909D01*
X018213Y002997D01*
X017656Y002997D01*
X017600Y002941D01*
X017591Y002950D02*
X017609Y002950D01*
X017700Y002997D02*
X017700Y003303D01*
X017800Y003303D02*
X017800Y002997D01*
X017900Y002997D02*
X017900Y003303D01*
X018000Y003303D02*
X018000Y002997D01*
X018100Y002997D02*
X018100Y003303D01*
X018200Y003303D02*
X018200Y002997D01*
X018260Y002950D02*
X018465Y002950D01*
X018459Y002945D02*
X018432Y002880D01*
X018459Y002945D02*
X018605Y003091D01*
X018748Y003150D01*
X018700Y003130D02*
X018700Y003170D01*
X018500Y003315D02*
X018500Y002985D01*
X018300Y002910D02*
X018300Y003390D01*
X018260Y003350D02*
X018465Y003350D01*
X019052Y003150D02*
X019748Y003150D01*
X019605Y003091D01*
X019459Y002945D01*
X019400Y002802D01*
X019400Y003498D01*
X019459Y003355D01*
X019605Y003209D01*
X019748Y003150D01*
X019700Y003130D02*
X019700Y003170D01*
X019600Y003215D02*
X019600Y003085D01*
X019565Y003050D02*
X019235Y003050D01*
X019200Y003085D02*
X019200Y003215D01*
X019195Y003209D02*
X019341Y003355D01*
X019400Y003498D01*
X019380Y003450D02*
X019420Y003450D01*
X019465Y003350D02*
X019335Y003350D01*
X019300Y003315D02*
X019300Y002985D01*
X019335Y002950D02*
X019465Y002950D01*
X019500Y002985D02*
X019500Y003315D01*
X019565Y003250D02*
X019235Y003250D01*
X019195Y003209D02*
X019052Y003150D01*
X019195Y003091D01*
X019341Y002945D01*
X019400Y002802D01*
X019380Y002850D02*
X019420Y002850D01*
X019100Y003130D02*
X019100Y003170D01*
X017609Y003350D02*
X017591Y003350D01*
X017600Y003359D02*
X017544Y003303D01*
X016987Y003303D01*
X016899Y003391D01*
X016899Y003450D01*
X016817Y003450D01*
X016800Y003450D01*
X016800Y003467D02*
X016817Y003450D01*
X016900Y003650D02*
X017265Y003650D01*
X017300Y003303D02*
X017300Y002997D01*
X017200Y002997D02*
X017200Y003303D01*
X017100Y003303D02*
X017100Y002997D01*
X017000Y002997D02*
X017000Y003303D01*
X016900Y003650D02*
X016800Y003750D01*
X016800Y004850D01*
X016700Y004950D01*
X015850Y004950D01*
X015850Y004700D02*
X016550Y004700D01*
X016600Y004650D01*
X016600Y002750D01*
X016700Y002650D01*
X017265Y002650D01*
X017400Y002997D02*
X017400Y003303D01*
X017500Y003303D02*
X017500Y002997D01*
X016940Y002950D02*
X016800Y002950D01*
X016700Y002450D02*
X016700Y000300D01*
X017000Y000300D02*
X017000Y000436D01*
X017100Y000394D02*
X017100Y000300D01*
X017200Y000300D02*
X017200Y000356D01*
X017300Y000356D02*
X017300Y000300D01*
X017400Y000300D02*
X017400Y000356D01*
X017500Y000394D02*
X017500Y000300D01*
X017600Y000300D02*
X017600Y000436D01*
X017619Y000450D02*
X021163Y000450D01*
X021200Y000487D02*
X021200Y002262D01*
X021183Y002250D02*
X021350Y002250D01*
X021350Y002350D02*
X021288Y002350D01*
X021300Y002367D02*
X021300Y000648D01*
X021301Y000650D02*
X017785Y000650D01*
X017800Y000686D02*
X017800Y000300D01*
X017700Y000300D02*
X017700Y000531D01*
X017719Y000550D02*
X021260Y000550D01*
X021339Y000743D02*
X021350Y000850D01*
X021350Y000950D02*
X017844Y000950D01*
X017826Y001050D02*
X021350Y001050D01*
X021350Y001350D02*
X020440Y001350D01*
X021100Y002202D02*
X021100Y000390D01*
X020900Y000310D02*
X020900Y002600D01*
X020850Y002550D02*
X020950Y002550D01*
X020950Y002450D02*
X020850Y002450D01*
X020850Y002350D02*
X020950Y002350D01*
X021348Y002450D02*
X021350Y002450D01*
X021348Y003450D02*
X021350Y003450D01*
X020700Y004098D02*
X020700Y004202D01*
X020850Y004250D02*
X020950Y004250D01*
X020950Y004350D02*
X020850Y004350D01*
X020850Y004450D02*
X020950Y004450D01*
X020950Y004550D02*
X020850Y004550D01*
X021348Y004450D02*
X021350Y004450D01*
X017609Y003950D02*
X017591Y003950D01*
X017600Y003941D02*
X017544Y003997D01*
X017000Y003997D01*
X017100Y003997D02*
X017100Y004303D01*
X017200Y004303D02*
X017200Y003997D01*
X017300Y003997D02*
X017300Y004303D01*
X017400Y004303D02*
X017400Y003997D01*
X017500Y003997D02*
X017500Y004303D01*
X017265Y004650D02*
X017000Y004915D01*
X017000Y005150D01*
X016940Y005210D01*
X015850Y005210D01*
X015850Y005470D02*
X017085Y005470D01*
X017265Y005650D01*
X016900Y005850D02*
X016900Y006550D01*
X017000Y006650D01*
X017265Y006650D01*
X017591Y006950D02*
X017609Y006950D01*
X017600Y006941D02*
X017544Y006997D01*
X017100Y006997D01*
X017200Y006997D02*
X017200Y007303D01*
X017300Y007303D02*
X017300Y006997D01*
X017400Y006997D02*
X017400Y007303D01*
X017500Y007303D02*
X017500Y006997D01*
X017500Y006303D02*
X017500Y005997D01*
X017544Y005997D02*
X017100Y005997D01*
X017200Y005997D02*
X017200Y006303D01*
X017300Y006303D02*
X017300Y005997D01*
X017400Y005997D02*
X017400Y006303D01*
X017544Y005997D02*
X017600Y005941D01*
X017591Y005950D02*
X017609Y005950D01*
X016900Y005850D02*
X016770Y005720D01*
X015850Y005720D01*
X017591Y005350D02*
X017609Y005350D01*
X017600Y005359D02*
X017656Y005303D01*
X020850Y007250D02*
X020950Y007250D01*
X020950Y007350D02*
X020850Y007350D01*
X020850Y007450D02*
X020950Y007450D01*
X020950Y007550D02*
X020850Y007550D01*
X021348Y007450D02*
X021350Y007450D01*
X021348Y011050D02*
X021350Y011050D01*
X019900Y011901D02*
X019900Y012000D01*
X019800Y012000D02*
X019800Y011920D01*
X019700Y011920D02*
X019700Y012000D01*
X019600Y012000D02*
X019600Y011920D01*
X019500Y011920D02*
X019500Y012000D01*
X019400Y012000D02*
X019400Y011920D01*
X019300Y011920D02*
X019300Y012000D01*
X019200Y012000D02*
X019200Y011920D01*
X019100Y011920D02*
X019100Y012000D01*
X019000Y012000D02*
X019000Y011901D01*
X018918Y011850D02*
X018582Y011850D01*
X018900Y011832D02*
X018900Y012000D01*
X021500Y000348D02*
X021500Y000150D01*
X021302Y000150D01*
X021500Y000348D01*
X021500Y000250D02*
X021402Y000250D01*
X021400Y000248D02*
X021400Y000150D01*
X021302Y000150D02*
X021500Y000150D01*
D26*
X018380Y011250D02*
X018420Y011280D01*
X018420Y011560D01*
X018380Y011670D01*
M02*
